<svg width="160" height="160" viewBox="0 0 160 160" fill="none" xmlns="http://www.w3.org/2000/svg">
<path d="M34.478 31.2989C37.8779 29.4965 41.6851 28.601 45.532 28.6989H87.064" stroke="#CAD1D5" stroke-width="2.5" stroke-linecap="round" stroke-linejoin="round"/>
<path d="M123.5 91.5L74 85.5V45.5C72 35.1 78.8334 30.8333 82.5 30H108C119.6 29.2 123.167 37 123.5 41V91.5Z" fill="#F1F3F4"/>
<path d="M122.8 68.2939V45.1129C122.8 45.1129 124.732 28.694 106.38 28.694H87.063C87.063 28.694 73.541 29.6589 73.541 45.1129V99.201L24.282 92.44V47.0399C24.7974 43.4163 26.1502 39.9626 28.233 36.9529" stroke="#CAD1D5" stroke-width="2.5" stroke-linecap="round" stroke-linejoin="round"/>
<path d="M59.986 47.011L15.556 19.001L3 39.284L17.488 40.25L23.288 33.489L54.196 52.806" fill="#CAD1D5"/>
<path d="M32.01 75.056V87.612L46.498 89.544V76.021L32.01 75.056Z" stroke="#CAD1D5" stroke-width="2.5" stroke-linecap="round" stroke-linejoin="round"/>
<path d="M62.1 97.631L61.952 140.733" stroke="#CAD1D5" stroke-width="2.5" stroke-linecap="round" stroke-linejoin="round"/>
<path d="M79.337 99.2009V130.109" stroke="#CAD1D5" stroke-width="2.5" stroke-linecap="round" stroke-linejoin="round"/>
<path d="M73.542 99.201L108.313 76.987C108.313 76.987 121.835 68.2939 133.425 68.2939H153.708C153.708 68.2939 163.367 72.1569 147.913 80.8499C138.255 85.6789 119.903 96.304 119.903 96.304L73.542 99.201Z" fill="#2EB6C7" stroke="#CAD1D5" stroke-width="2.5" stroke-linecap="round" stroke-linejoin="round"/>
<path d="M60.986 59.601C64.1865 59.601 66.781 57.0065 66.781 53.806C66.781 50.6055 64.1865 48.011 60.986 48.011C57.7855 48.011 55.191 50.6055 55.191 53.806C55.191 57.0065 57.7855 59.601 60.986 59.601Z" stroke="#CAD1D5" stroke-width="2.5" stroke-linecap="round" stroke-linejoin="round"/>
<path d="M89.962 88.577L73.542 86.645" stroke="#CAD1D5" stroke-width="2.5" stroke-linecap="round" stroke-linejoin="round"/>
</svg>
