<svg width="75" height="76" viewBox="0 0 75 76" fill="none" xmlns="http://www.w3.org/2000/svg">
<path fill-rule="evenodd" clip-rule="evenodd" d="M75 38C75 58.7107 58.2107 75.5 37.5 75.5C16.7893 75.5 0 58.7107 0 38C0 17.2893 16.7893 0.5 37.5 0.5C58.2107 0.5 75 17.2893 75 38ZM37.5 18.3333C39.1569 18.3333 40.5 19.6765 40.5 21.3333V33.8333C40.5 35.4902 39.1569 36.8333 37.5 36.8333C35.8431 36.8333 34.5 35.4902 34.5 33.8333V21.3333C34.5 19.6765 35.8431 18.3333 37.5 18.3333ZM40.5 46.3333C40.5 44.6765 39.1569 43.3333 37.5 43.3333C35.8431 43.3333 34.5 44.6765 34.5 46.3333V50.5C34.5 52.1569 35.8431 53.5 37.5 53.5C39.1569 53.5 40.5 52.1569 40.5 50.5V46.3333Z" fill="#F5BA4B"/>
</svg>
