<svg width="24" height="24" viewBox="0 0 24 24" fill="none" xmlns="http://www.w3.org/2000/svg">
<g clip-path="url(#clip0_474_1145)">
<path d="M17 3H7C6.44772 3 6 3.44772 6 4V20C6 20.5523 6.44772 21 7 21H17C17.5523 21 18 20.5523 18 20V4C18 3.44772 17.5523 3 17 3Z" stroke="#333333" stroke-width="2" stroke-linecap="round" stroke-linejoin="round"/>
<path d="M12 19C12.5523 19 13 18.5523 13 18C13 17.4477 12.5523 17 12 17C11.4477 17 11 17.4477 11 18C11 18.5523 11.4477 19 12 19Z" fill="white"/>
<path d="M12 18.5C12.2761 18.5 12.5 18.2761 12.5 18C12.5 17.7239 12.2761 17.5 12 17.5C11.7239 17.5 11.5 17.7239 11.5 18C11.5 18.2761 11.7239 18.5 12 18.5Z" stroke="#333333"/>
<path d="M9 6H15V15H9V6Z" stroke="#333333" stroke-width="2" stroke-linecap="round" stroke-linejoin="round"/>
</g>
<defs>
<clipPath id="clip0_474_1145">
<rect width="24" height="24" fill="white"/>
</clipPath>
</defs>
</svg>
