<svg width="24" height="24" viewBox="0 0 24 24" fill="none" xmlns="http://www.w3.org/2000/svg">
<g clip-path="url(#clip0_1632_11714)">
<path d="M20 0H4C1.79086 0 0 1.79086 0 4V20C0 22.2091 1.79086 24 4 24H20C22.2091 24 24 22.2091 24 20V4C24 1.79086 22.2091 0 20 0Z" fill="white"/>
<path d="M20 0.5H4C2.067 0.5 0.5 2.067 0.5 4V20C0.5 21.933 2.067 23.5 4 23.5H20C21.933 23.5 23.5 21.933 23.5 20V4C23.5 2.067 21.933 0.5 20 0.5Z" stroke="#CAD1D5"/>
<path fill-rule="evenodd" clip-rule="evenodd" d="M13 7C13 6.44772 12.5523 6 12 6C11.4477 6 11 6.44771 11 7V11H7C6.44772 11 6 11.4477 6 12C6 12.5523 6.44772 13 7 13H11V17C11 17.5523 11.4477 18 12 18C12.5523 18 13 17.5523 13 17V13H17C17.5523 13 18 12.5523 18 12C18 11.4477 17.5523 11 17 11H13V7Z" fill="#91A0A8"/>
</g>
<defs>
<clipPath id="clip0_1632_11714">
<rect width="24" height="24" fill="white"/>
</clipPath>
</defs>
</svg>
