<svg width="24" height="24" viewBox="0 0 24 24" fill="none" xmlns="http://www.w3.org/2000/svg">
<g id="Others">
<path id="Vector" fill-rule="evenodd" clip-rule="evenodd" d="M5 4C3.34315 4 2 5.34315 2 7V17C2 18.6569 3.34315 20 5 20H19C20.6569 20 22 18.6569 22 17V7C22 5.34315 20.6569 4 19 4H5ZM4 7.41421V17C4 17.5523 4.44772 18 5 18H19C19.5523 18 20 17.5523 20 17V7.41421L14.1213 13.2929C12.9497 14.4645 11.0503 14.4645 9.87868 13.2929L4 7.41421ZM18.5858 6H5.41421L11.2929 11.8787C11.6834 12.2692 12.3166 12.2692 12.7071 11.8787L18.5858 6Z" fill="#0B0D0E"/>
</g>
</svg>
