<svg width="32" height="32" viewBox="0 0 32 32" fill="none" xmlns="http://www.w3.org/2000/svg">
<g clip-path="url(#clip0_2912_7082)">
<mask id="mask0_2912_7082" style="mask-type:luminance" maskUnits="userSpaceOnUse" x="0" y="0" width="32" height="32">
<path d="M0 0H32V32H0V0Z" fill="white"/>
</mask>
<g mask="url(#mask0_2912_7082)">
<path d="M25.0458 6.45803C23.9513 5.35904 22.65 4.48765 21.2171 3.89414C19.7841 3.30063 18.2478 2.99675 16.6968 3.00003C16.289 2.99997 15.8815 3.02067 15.4758 3.06203C12.5714 3.36445 9.88201 4.73225 7.92697 6.90133C5.97194 9.07041 4.8899 11.8869 4.88978 14.807C4.88185 17.7007 5.94473 20.4951 7.87378 22.652L5.08978 25.433C5.02171 25.4964 4.9671 25.5728 4.92921 25.6577C4.89132 25.7426 4.87093 25.8342 4.86925 25.9272C4.86758 26.0201 4.88465 26.1125 4.91946 26.1987C4.95426 26.2849 5.00608 26.3632 5.07182 26.429C5.13757 26.4947 5.21588 26.5465 5.3021 26.5813C5.38831 26.6161 5.48065 26.6332 5.57361 26.6315C5.66657 26.6299 5.75824 26.6095 5.84314 26.5716C5.92805 26.5337 6.00445 26.4791 6.06778 26.411L8.84878 23.63C10.5499 25.1424 12.6518 26.1308 14.9016 26.4763C17.1514 26.8218 19.4532 26.5096 21.5297 25.5774C23.6061 24.6451 25.3689 23.1325 26.6057 21.2216C27.8425 19.3108 28.5006 17.0832 28.5008 14.807C28.5054 13.2561 28.2025 11.7196 27.6094 10.2865C27.0164 8.85341 26.145 7.55215 25.0458 6.45803ZM16.6968 25.231C14.6354 25.2308 12.6203 24.6194 10.9064 23.474C9.19254 22.3286 7.85676 20.7008 7.06799 18.7963C6.27922 16.8918 6.07289 14.7961 6.4751 12.7744C6.87731 10.7526 7.86998 8.89547 9.3276 7.43785C10.7852 5.98023 12.6423 4.98756 14.6641 4.58535C16.6859 4.18314 18.7815 4.38947 20.686 5.17824C22.5905 5.96701 24.2184 7.30279 25.3638 9.01669C26.5091 10.7306 27.1206 12.7456 27.1208 14.807C27.1179 17.5707 26.0187 20.2204 24.0644 22.1747C22.1102 24.1289 19.4605 25.2281 16.6968 25.231Z" fill="#555555" stroke="#555555" stroke-width="0.7"/>
<path d="M16.6969 9.60791C16.606 9.60791 16.516 9.62581 16.4321 9.66058C16.3481 9.69536 16.2718 9.74633 16.2076 9.81059C16.1433 9.87485 16.0923 9.95114 16.0576 10.0351C16.0228 10.1191 16.0049 10.209 16.0049 10.2999V16.2279C16.0049 16.3188 16.0228 16.4088 16.0576 16.4927C16.0923 16.5767 16.1433 16.653 16.2076 16.7172C16.2718 16.7815 16.3481 16.8325 16.4321 16.8672C16.516 16.902 16.606 16.9199 16.6969 16.9199C16.7878 16.9199 16.8777 16.902 16.9617 16.8672C17.0457 16.8325 17.1219 16.7815 17.1862 16.7172C17.2505 16.653 17.3014 16.5767 17.3362 16.4927C17.371 16.4088 17.3889 16.3188 17.3889 16.2279V10.2999C17.3889 10.209 17.371 10.1191 17.3362 10.0351C17.3014 9.95114 17.2505 9.87485 17.1862 9.81059C17.1219 9.74633 17.0457 9.69536 16.9617 9.66058C16.8777 9.62581 16.7878 9.60791 16.6969 9.60791Z" fill="#2EB6C7" stroke="#2EB6C7" stroke-width="0.7"/>
<path d="M16.6969 20.8559C17.0791 20.8559 17.3889 20.5461 17.3889 20.1639C17.3889 19.7817 17.0791 19.4719 16.6969 19.4719C16.3147 19.4719 16.0049 19.7817 16.0049 20.1639C16.0049 20.5461 16.3147 20.8559 16.6969 20.8559Z" fill="#2EB6C7" stroke="#2EB6C7" stroke-width="0.7"/>
</g>
</g>
<defs>
<clipPath id="clip0_2912_7082">
<rect width="32" height="32" fill="white"/>
</clipPath>
</defs>
</svg>
