<svg xmlns="http://www.w3.org/2000/svg" width="24" height="24" viewBox="0 0 24 24">
    <path data-name="Path 11921" d="M0 0h24v24H0z" style="fill:none"/>
    <path data-name="Path 11922" d="M16 6h3a1 1 0 0 1 1 1v11a2 2 0 0 1-4 0V5a1 1 0 0 0-1-1H5a1 1 0 0 0-1 1v12a3 3 0 0 0 3 3h11" style="stroke:#333;stroke-linecap:round;stroke-linejoin:round;stroke-width:2px;fill:none"/>
    <path data-name="Line 11193" transform="translate(8 8)" style="stroke:#333;stroke-linecap:round;stroke-linejoin:round;stroke-width:2px;fill:none" d="M0 0h4"/>
    <path data-name="Line 11194" transform="translate(8 12)" style="stroke:#333;stroke-linecap:round;stroke-linejoin:round;stroke-width:2px;fill:none" d="M0 0h4"/>
    <path data-name="Line 11195" transform="translate(8 16)" style="stroke:#333;stroke-linecap:round;stroke-linejoin:round;stroke-width:2px;fill:none" d="M0 0h4"/>
</svg>
