<svg xmlns="http://www.w3.org/2000/svg" id="Icon_bill_class" width="24" height="24" viewBox="0 0 24 24">
    <defs>
        <style>
            .cls-2{fill:#2eb6c7}.cls-3{fill:#333}
        </style>
    </defs>
    <path id="矩形_3267" fill="none" d="M0 0H24V24H0z"/>
    <g id="组_6057" transform="translate(2 2)">
        <g id="组_6056" transform="translate(3.242 9.858)">
            <circle id="椭圆_554" cx="1.29" cy="1.29" r="1.29" class="cls-2" transform="translate(0.69)"/>
            <path id="路径_5142" d="M223.3 135.144a2.018 2.018 0 1 0-3.959 0c.002.037 3.959.037 3.959 0z" class="cls-2" transform="translate(-219.343 -129.783)"/>
        </g>
        <path id="路径_5143" d="M231.427 121.381H226.2l2.629-4.555a.858.858 0 0 0-.313-1.17.856.856 0 0 0-1.17.314l-2.577 4.465-2.578-4.465a.852.852 0 0 0-.52-.4.857.857 0 0 0-1.049.606.854.854 0 0 0 .086.65l2.63 4.555h-5.229a3.12 3.12 0 0 0-3.116 3.116v6.936a3.12 3.12 0 0 0 3.116 3.116h13.32a3.12 3.12 0 0 0 3.116-3.116V124.5a3.12 3.12 0 0 0-3.118-3.119zm-7.6 2.388a.857.857 0 0 0 1.17-.314l.325-.563h6.1a1.607 1.607 0 0 1 1.6 1.606v6.936a1.606 1.606 0 0 1-1.6 1.6h-13.32a1.606 1.606 0 0 1-1.6-1.6V124.5a1.607 1.607 0 0 1 1.6-1.606h5.322a.839.839 0 0 0 .408.875z" class="cls-3" transform="translate(-214.991 -115.541)"/>
        <path id="矩形_3268" d="M.763 0a.763.763 0 0 1 .763.763V6.14a.763.763 0 0 1-.763.76A.763.763 0 0 1 0 6.14V.763A.763.763 0 0 1 .763 0z" class="cls-3" transform="translate(9.055 12.054) rotate(-90)"/>
        <path id="矩形_3269" d="M.763 0a.763.763 0 0 1 .763.763V6.14a.763.763 0 0 1-.763.76A.763.763 0 0 1 0 6.14V.763A.763.763 0 0 1 .763 0z" class="cls-3" transform="translate(9.055 14.691) rotate(-90)"/>
    </g>
</svg>
