<?xml version="1.0" encoding="UTF-8"?>
<!DOCTYPE svg PUBLIC "-//W3C//DTD SVG 1.1//EN" "http://www.w3.org/Graphics/SVG/1.1/DTD/svg11.dtd">
<svg xmlns="http://www.w3.org/2000/svg" version="1.1" width="500px" height="500px" style="shape-rendering:geometricPrecision; text-rendering:geometricPrecision; image-rendering:optimizeQuality; fill-rule:evenodd; clip-rule:evenodd" xmlns:xlink="http://www.w3.org/1999/xlink">
<g><path style="opacity:0.427" fill="#757577" d="M 267.5,158.5 C 267.5,158.167 267.5,157.833 267.5,157.5C 286.836,157.333 306.17,157.5 325.5,158C 330.612,158.976 335.278,160.809 339.5,163.5C 334.068,163.317 329.068,161.817 324.5,159C 305.503,158.5 286.503,158.333 267.5,158.5 Z"/></g>
<g><path style="opacity:1" fill="#4597e6" d="M 267.5,157.5 C 267.5,157.833 267.5,158.167 267.5,158.5C 267.5,161.833 267.5,165.167 267.5,168.5C 267.5,168.833 267.5,169.167 267.5,169.5C 266.167,179.167 266.167,188.833 267.5,198.5C 267.5,201.833 267.5,205.167 267.5,208.5C 267.5,208.833 267.5,209.167 267.5,209.5C 266.167,219.167 266.167,228.833 267.5,238.5C 267.5,238.833 267.5,239.167 267.5,239.5C 267.5,242.5 267.5,245.5 267.5,248.5C 267.5,248.833 267.5,249.167 267.5,249.5C 266.506,258.986 266.173,268.652 266.5,278.5C 266.5,281.833 266.5,285.167 266.5,288.5C 227.996,288.168 189.663,288.501 151.5,289.5C 150.662,289.842 150.328,290.508 150.5,291.5C 149.25,291.577 148.417,292.244 148,293.5C 147.503,295.81 147.337,298.143 147.5,300.5C 146.617,303.704 144.95,306.371 142.5,308.5C 140.167,310.167 138.167,312.167 136.5,314.5C 134.147,315.34 132.147,316.674 130.5,318.5C 125.951,319.463 121.617,320.796 117.5,322.5C 112.934,323.797 108.267,323.797 103.5,322.5C 103.389,321.883 103.056,321.383 102.5,321C 99.5219,320.304 96.5219,319.804 93.5,319.5C 93.0269,318.094 92.0269,317.427 90.5,317.5C 85.9568,315.628 82.2901,312.628 79.5,308.5C 76.5604,303.619 73.8937,298.619 71.5,293.5C 71.7678,291.901 71.4345,290.568 70.5,289.5C 58.6737,288.669 46.6737,288.169 34.5,288C 33.4734,287.487 32.4734,286.987 31.5,286.5C 30.8333,286.5 30.5,286.167 30.5,285.5C 31.3907,275.156 32.3907,264.823 33.5,254.5C 33.5,254.167 33.5,253.833 33.5,253.5C 35.6971,249.089 37.3638,244.422 38.5,239.5C 38.6596,237.847 39.3263,236.514 40.5,235.5C 42.369,233.966 43.7023,231.966 44.5,229.5C 50.5287,222.326 57.5287,216.326 65.5,211.5C 70.4225,210.364 75.0891,208.697 79.5,206.5C 100.821,205.762 122.154,205.262 143.5,205C 153.096,196.717 162.429,188.217 171.5,179.5C 174.764,177.906 177.431,175.573 179.5,172.5C 182.764,170.906 185.431,168.573 187.5,165.5C 189.027,165.573 190.027,164.906 190.5,163.5C 195.091,162.279 199.424,160.612 203.5,158.5C 224.66,157.503 245.993,157.169 267.5,157.5 Z"/></g>
<g><path style="opacity:1" fill="#424244" d="M 267.5,158.5 C 286.503,158.333 305.503,158.5 324.5,159C 329.068,161.817 334.068,163.317 339.5,163.5C 341.434,164.11 343.101,165.11 344.5,166.5C 345.035,168.446 346.368,169.446 348.5,169.5C 350.833,171.167 352.833,173.167 354.5,175.5C 356.239,178.243 358.573,180.243 361.5,181.5C 366.45,186.636 371.783,191.302 377.5,195.5C 378.262,197.262 379.596,198.262 381.5,198.5C 385.367,202.082 390.034,204.248 395.5,205C 400.167,205.667 404.833,205.667 409.5,205C 410.252,204.329 410.586,203.496 410.5,202.5C 415.771,199.321 421.438,198.655 427.5,200.5C 427.833,201.5 428.5,202.167 429.5,202.5C 430.906,202.973 431.573,203.973 431.5,205.5C 431.604,210.306 430.937,214.972 429.5,219.5C 425.271,224.703 420.271,225.703 414.5,222.5C 414.027,221.094 413.027,220.427 411.5,220.5C 409.738,219.738 408.738,218.404 408.5,216.5C 404.167,215.167 399.833,215.167 395.5,216.5C 394.833,216.5 394.167,216.5 393.5,216.5C 385.319,212.739 377.319,208.405 369.5,203.5C 367.761,200.757 365.427,198.757 362.5,197.5C 361.5,197.167 360.833,196.5 360.5,195.5C 358.431,192.427 355.764,190.094 352.5,188.5C 351.089,186.086 349.089,184.419 346.5,183.5C 345.5,183.167 344.833,182.5 344.5,181.5C 339.984,174.919 333.984,171.586 326.5,171.5C 326.167,171.5 325.833,171.5 325.5,171.5C 324.947,169.448 323.947,169.115 322.5,170.5C 322.167,170.5 321.833,170.5 321.5,170.5C 303.864,168.513 285.864,167.847 267.5,168.5C 267.5,165.167 267.5,161.833 267.5,158.5 Z"/></g>
<g><path style="opacity:0.396" fill="#9bcae2" d="M 203.5,158.5 C 199.424,160.612 195.091,162.279 190.5,163.5C 194.203,160.483 198.536,158.816 203.5,158.5 Z"/></g>
<g><path style="opacity:0.573" fill="#9fcbe0" d="M 190.5,163.5 C 190.027,164.906 189.027,165.573 187.5,165.5C 187.973,164.094 188.973,163.427 190.5,163.5 Z"/></g>
<g><path style="opacity:0.38" fill="#a5a5a6" d="M 267.5,168.5 C 285.864,167.847 303.864,168.513 321.5,170.5C 303.833,170.5 286.167,170.5 268.5,170.5C 267.833,170.5 267.5,170.167 267.5,169.5C 267.5,169.167 267.5,168.833 267.5,168.5 Z"/></g>
<g><path style="opacity:0.553" fill="#929293" d="M 344.5,166.5 C 346.23,167.026 347.564,168.026 348.5,169.5C 346.368,169.446 345.035,168.446 344.5,166.5 Z"/></g>
<g><path style="opacity:0.694" fill="#8bbddd" d="M 187.5,165.5 C 185.431,168.573 182.764,170.906 179.5,172.5C 181.569,169.427 184.236,167.094 187.5,165.5 Z"/></g>
<g><path style="opacity:0.513" fill="#a6cfe7" d="M 267.5,169.5 C 267.5,170.167 267.833,170.5 268.5,170.5C 268.5,179.5 268.5,188.5 268.5,197.5C 267.833,197.5 267.5,197.833 267.5,198.5C 266.167,188.833 266.167,179.167 267.5,169.5 Z"/></g>
<g><path style="opacity:0.004" fill="#c1c1c2" d="M 322.5,170.5 C 323.947,169.115 324.947,169.448 325.5,171.5C 324.609,170.89 323.609,170.557 322.5,170.5 Z"/></g>
<g><path style="opacity:0.553" fill="#9b9b9c" d="M 326.5,171.5 C 333.984,171.586 339.984,174.919 344.5,181.5C 341.397,179.577 338.397,177.41 335.5,175C 332.691,173.259 329.691,172.092 326.5,171.5 Z"/></g>
<g><path style="opacity:0.627" fill="#97c6e1" d="M 179.5,172.5 C 177.431,175.573 174.764,177.906 171.5,179.5C 173.569,176.427 176.236,174.094 179.5,172.5 Z"/></g>
<g><path style="opacity:0.106" fill="#9e9e9e" d="M 354.5,175.5 C 357.427,176.757 359.761,178.757 361.5,181.5C 358.573,180.243 356.239,178.243 354.5,175.5 Z"/></g>
<g><path style="opacity:0.253" fill="#989898" d="M 346.5,183.5 C 349.089,184.419 351.089,186.086 352.5,188.5C 349.911,187.581 347.911,185.914 346.5,183.5 Z"/></g>
<g><path style="opacity:0.757" fill="#919193" d="M 352.5,188.5 C 355.764,190.094 358.431,192.427 360.5,195.5C 357.236,193.906 354.569,191.573 352.5,188.5 Z"/></g>
<g><path style="opacity:0.094" fill="#a4a4a4" d="M 361.5,181.5 C 367.727,185.055 373.06,189.722 377.5,195.5C 371.783,191.302 366.45,186.636 361.5,181.5 Z"/></g>
<g><path style="opacity:0.082" fill="#aaaaab" d="M 377.5,195.5 C 379.404,195.738 380.738,196.738 381.5,198.5C 379.596,198.262 378.262,197.262 377.5,195.5 Z"/></g>
<g><path style="opacity:0.321" fill="#79797a" d="M 268.5,197.5 C 288.503,197.333 308.503,197.5 328.5,198C 332.787,198.81 336.454,200.643 339.5,203.5C 335.064,201.389 330.398,199.889 325.5,199C 306.329,198.832 287.329,198.332 268.5,197.5 Z"/></g>
<g><path style="opacity:0.678" fill="#9c9c9d" d="M 362.5,197.5 C 365.427,198.757 367.761,200.757 369.5,203.5C 366.573,202.243 364.239,200.243 362.5,197.5 Z"/></g>
<g><path style="opacity:0.898" fill="#737374" d="M 427.5,200.5 C 421.438,198.655 415.771,199.321 410.5,202.5C 412.56,199.068 415.726,197.401 420,197.5C 423.044,197.452 425.544,198.452 427.5,200.5 Z"/></g>
<g><path style="opacity:1" fill="#3f3f41" d="M 268.5,197.5 C 287.329,198.332 306.329,198.832 325.5,199C 330.398,199.889 335.064,201.389 339.5,203.5C 342.089,204.419 344.089,206.086 345.5,208.5C 346.08,210.749 347.413,212.415 349.5,213.5C 349.182,216.481 350.182,218.815 352.5,220.5C 353.035,224.819 353.535,229.152 354,233.5C 354.377,234.942 355.21,235.942 356.5,236.5C 357.122,238.335 358.456,239.502 360.5,240C 387.336,240.83 414.003,240.664 440.5,239.5C 445.174,234.768 450.84,233.268 457.5,235C 467.291,243.52 466.625,251.187 455.5,258C 450.791,258.877 446.457,258.044 442.5,255.5C 442.297,253.956 441.63,252.622 440.5,251.5C 412.15,250.8 383.816,250.134 355.5,249.5C 355.44,248.957 355.107,248.624 354.5,248.5C 354.167,252.333 353.833,256.167 353.5,260C 353.51,264.229 354.177,268.062 355.5,271.5C 356.5,273.167 357.833,274.5 359.5,275.5C 361.003,280.636 360.67,285.636 358.5,290.5C 358.5,291.167 358.167,291.5 357.5,291.5C 349.292,296.551 342.459,295.218 337,287.5C 334.822,280.265 336.822,274.598 343,270.5C 343.667,255.5 343.667,240.5 343,225.5C 342.284,223.121 341.117,221.121 339.5,219.5C 339.262,217.596 338.262,216.262 336.5,215.5C 334.913,212.217 332.579,210.883 329.5,211.5C 329.167,211.5 328.833,211.5 328.5,211.5C 328.119,210.069 327.119,209.236 325.5,209C 306.17,208.5 286.836,208.333 267.5,208.5C 267.5,205.167 267.5,201.833 267.5,198.5C 267.5,197.833 267.833,197.5 268.5,197.5 Z"/></g>
<g><path style="opacity:0.035" fill="#b3b3b5" d="M 427.5,200.5 C 428.833,200.5 429.5,201.167 429.5,202.5C 428.5,202.167 427.833,201.5 427.5,200.5 Z"/></g>
<g><path style="opacity:0.435" fill="#979798" d="M 381.5,198.5 C 389.877,203.344 398.877,205.177 408.5,204C 409.044,203.283 409.711,202.783 410.5,202.5C 410.586,203.496 410.252,204.329 409.5,205C 404.833,205.667 400.167,205.667 395.5,205C 390.034,204.248 385.367,202.082 381.5,198.5 Z"/></g>
<g><path style="opacity:0.165" fill="#b4dbec" d="M 171.5,179.5 C 162.429,188.217 153.096,196.717 143.5,205C 122.154,205.262 100.821,205.762 79.5,206.5C 81.631,205.686 83.9644,205.186 86.5,205C 105.167,204.667 123.833,204.333 142.5,204C 151.858,195.342 161.525,187.176 171.5,179.5 Z"/></g>
<g><path style="opacity:0.62" fill="#a3a3a4" d="M 369.5,203.5 C 377.319,208.405 385.319,212.739 393.5,216.5C 383.999,214.753 375.999,210.419 369.5,203.5 Z"/></g>
<g><path style="opacity:0.494" fill="#9c9c9d" d="M 267.5,208.5 C 286.836,208.333 306.17,208.5 325.5,209C 327.119,209.236 328.119,210.069 328.5,211.5C 308.576,210.513 288.576,210.179 268.5,210.5C 267.833,210.5 267.5,210.167 267.5,209.5C 267.5,209.167 267.5,208.833 267.5,208.5 Z"/></g>
<g><path style="opacity:0.949" fill="#95c3e2" d="M 79.5,206.5 C 75.0891,208.697 70.4225,210.364 65.5,211.5C 69.6642,208.666 74.3308,206.999 79.5,206.5 Z"/></g>
<g><path style="opacity:0.514" fill="#a6cfe8" d="M 267.5,209.5 C 267.5,210.167 267.833,210.5 268.5,210.5C 268.5,219.5 268.5,228.5 268.5,237.5C 267.833,237.5 267.5,237.833 267.5,238.5C 266.167,228.833 266.167,219.167 267.5,209.5 Z"/></g>
<g><path style="opacity:0.047" fill="#b0b0b0" d="M 336.5,215.5 C 333.996,214.416 331.663,213.083 329.5,211.5C 332.579,210.883 334.913,212.217 336.5,215.5 Z"/></g>
<g><path style="opacity:0.455" fill="#a0a0a1" d="M 345.5,208.5 C 347.587,209.585 348.92,211.251 349.5,213.5C 347.413,212.415 346.08,210.749 345.5,208.5 Z"/></g>
<g><path style="opacity:0.61" fill="#868687" d="M 395.5,216.5 C 399.833,215.167 404.167,215.167 408.5,216.5C 404.167,217.833 399.833,217.833 395.5,216.5 Z"/></g>
<g><path style="opacity:0.978" fill="#7c7c7d" d="M 431.5,205.5 C 434.482,210.624 433.816,215.291 429.5,219.5C 430.937,214.972 431.604,210.306 431.5,205.5 Z"/></g>
<g><path style="opacity:0.027" fill="#cdcdcd" d="M 336.5,215.5 C 338.262,216.262 339.262,217.596 339.5,219.5C 337.738,218.738 336.738,217.404 336.5,215.5 Z"/></g>
<g><path style="opacity:0.275" fill="#929293" d="M 349.5,213.5 C 351.293,215.426 352.293,217.759 352.5,220.5C 350.182,218.815 349.182,216.481 349.5,213.5 Z"/></g>
<g><path style="opacity:0.239" fill="#bcdfed" d="M 65.5,211.5 C 57.5287,216.326 50.5287,222.326 44.5,229.5C 49.249,220.947 56.249,214.947 65.5,211.5 Z"/></g>
<g><path style="opacity:0.408" fill="#9d9d9e" d="M 411.5,220.5 C 413.027,220.427 414.027,221.094 414.5,222.5C 412.973,222.573 411.973,221.906 411.5,220.5 Z"/></g>
<g><path style="opacity:0.239" fill="#a0a0a1" d="M 352.5,220.5 C 353.907,225.717 355.241,231.05 356.5,236.5C 355.21,235.942 354.377,234.942 354,233.5C 353.535,229.152 353.035,224.819 352.5,220.5 Z"/></g>
<g><path style="opacity:0.059" fill="#a4a4a4" d="M 339.5,219.5 C 341.117,221.121 342.284,223.121 343,225.5C 343.667,240.5 343.667,255.5 343,270.5C 336.822,274.598 334.822,280.265 337,287.5C 342.459,295.218 349.292,296.551 357.5,291.5C 356.657,293.173 355.324,294.34 353.5,295C 339.83,296.996 333.664,291.162 335,277.5C 336.626,274.872 338.626,272.539 341,270.5C 341.667,255.167 341.667,239.833 341,224.5C 339.991,222.975 339.491,221.308 339.5,219.5 Z"/></g>
<g><path style="opacity:0.522" fill="#a1a1a2" d="M 295.5,250.5 C 295.833,250.5 296.167,250.5 296.5,250.5C 300.824,255.182 306.158,256.682 312.5,255C 319.07,251.345 321.237,245.845 319,238.5C 311.17,229.221 303.336,229.221 295.5,238.5C 295.5,238.167 295.5,237.833 295.5,237.5C 299.673,230.554 305.673,228.388 313.5,231C 321.449,236.182 323.282,243.015 319,251.5C 313.993,257.486 307.826,258.986 300.5,256C 298.627,254.296 296.96,252.463 295.5,250.5 Z"/></g>
<g><path style="opacity:1" fill="#3f3f41" d="M 296.5,250.5 C 287.225,248.527 277.558,247.86 267.5,248.5C 267.5,245.5 267.5,242.5 267.5,239.5C 277.015,239.827 286.348,239.494 295.5,238.5C 303.336,229.221 311.17,229.221 319,238.5C 321.237,245.845 319.07,251.345 312.5,255C 306.158,256.682 300.824,255.182 296.5,250.5 Z"/></g>
<g><path style="opacity:0.953" fill="#83b7de" d="M 44.5,229.5 C 43.7023,231.966 42.369,233.966 40.5,235.5C 40.8449,232.802 42.1782,230.802 44.5,229.5 Z"/></g>
<g><path style="opacity:0.096" fill="#b3b3b3" d="M 442.5,255.5 C 446.457,258.044 450.791,258.877 455.5,258C 466.625,251.187 467.291,243.52 457.5,235C 450.84,233.268 445.174,234.768 440.5,239.5C 442.745,234.784 446.579,232.451 452,232.5C 458.401,232.532 462.734,235.532 465,241.5C 466.893,252.383 462.393,258.716 451.5,260.5C 447.698,260.103 444.698,258.436 442.5,255.5 Z"/></g>
<g><path style="opacity:0.851" fill="#5f6061" d="M 268.5,237.5 C 277.5,237.5 286.5,237.5 295.5,237.5C 295.5,237.833 295.5,238.167 295.5,238.5C 286.348,239.494 277.015,239.827 267.5,239.5C 267.5,239.167 267.5,238.833 267.5,238.5C 267.5,237.833 267.833,237.5 268.5,237.5 Z"/></g>
<g><path style="opacity:0.506" fill="#a6a6a7" d="M 356.5,236.5 C 358.14,237.32 359.807,238.153 361.5,239C 387.831,239.5 414.165,239.667 440.5,239.5C 414.003,240.664 387.336,240.83 360.5,240C 358.456,239.502 357.122,238.335 356.5,236.5 Z"/></g>
<g><path style="opacity:0.827" fill="#8fc0e0" d="M 38.5,239.5 C 37.3638,244.422 35.6971,249.089 33.5,253.5C 33.999,248.331 35.6657,243.664 38.5,239.5 Z"/></g>
<g><path style="opacity:0.608" fill="#919191" d="M 267.5,248.5 C 277.558,247.86 287.225,248.527 296.5,250.5C 296.167,250.5 295.833,250.5 295.5,250.5C 286.5,250.5 277.5,250.5 268.5,250.5C 267.833,250.5 267.5,250.167 267.5,249.5C 267.5,249.167 267.5,248.833 267.5,248.5 Z"/></g>
<g><path style="opacity:0.467" fill="#adadad" d="M 355.5,249.5 C 383.816,250.134 412.15,250.8 440.5,251.5C 441.63,252.622 442.297,253.956 442.5,255.5C 440.827,254.657 439.66,253.324 439,251.5C 413.239,252.661 387.406,252.828 361.5,252C 359.148,251.76 357.148,250.927 355.5,249.5 Z"/></g>
<g><path style="opacity:0.035" fill="#b6d9eb" d="M 267.5,249.5 C 267.5,250.167 267.833,250.5 268.5,250.5C 268.5,259.5 268.5,268.5 268.5,277.5C 267.833,277.5 267.5,277.833 267.5,278.5C 267.167,278.5 266.833,278.5 266.5,278.5C 266.173,268.652 266.506,258.986 267.5,249.5 Z"/></g>
<g><path style="opacity:0.259" fill="#787879" d="M 355.5,249.5 C 354.189,256.735 354.189,264.068 355.5,271.5C 354.177,268.062 353.51,264.229 353.5,260C 353.833,256.167 354.167,252.333 354.5,248.5C 355.107,248.624 355.44,248.957 355.5,249.5 Z"/></g>
<g><path style="opacity:0.063" fill="#bababa" d="M 355.5,271.5 C 357.833,271.833 359.167,273.167 359.5,275.5C 357.833,274.5 356.5,273.167 355.5,271.5 Z"/></g>
<g><path style="opacity:0.518" fill="#9b9b9c" d="M 430.5,276.5 C 424.073,270.425 417.407,270.092 410.5,275.5C 411.031,273.376 412.365,271.876 414.5,271C 416.355,270.578 418.189,270.078 420,269.5C 421.811,270.078 423.645,270.578 425.5,271C 428.079,272.076 429.746,273.909 430.5,276.5 Z"/></g>
<g><path style="opacity:1" fill="#434345" d="M 430.5,276.5 C 434.75,282.681 434.083,288.348 428.5,293.5C 422.204,296.466 416.204,296.133 410.5,292.5C 409.5,292.167 408.833,291.5 408.5,290.5C 406.429,289.191 403.929,288.525 401,288.5C 398.5,288.667 396,288.833 393.5,289C 391.676,289.66 390.343,290.827 389.5,292.5C 387.884,294.738 386.551,297.071 385.5,299.5C 383.241,300.344 382.241,302.011 382.5,304.5C 381.581,307.089 379.914,309.089 377.5,310.5C 375.5,311.833 373.833,313.5 372.5,315.5C 372.5,316.167 372.167,316.5 371.5,316.5C 371.565,316.062 371.399,315.728 371,315.5C 369.482,316.163 368.315,317.163 367.5,318.5C 363.463,319.065 359.797,320.399 356.5,322.5C 355.833,322.5 355.167,322.5 354.5,322.5C 348.491,322.299 342.491,321.966 336.5,321.5C 334.824,319.166 332.491,318.166 329.5,318.5C 329.027,317.094 328.027,316.427 326.5,316.5C 324.251,315.92 322.585,314.587 321.5,312.5C 320.738,310.738 319.404,309.738 317.5,309.5C 316.833,308.5 316.167,307.5 315.5,306.5C 315.446,304.368 314.446,303.035 312.5,302.5C 312.5,302.167 312.5,301.833 312.5,301.5C 312.34,299.847 311.674,298.514 310.5,297.5C 309.857,294.012 307.857,291.512 304.5,290C 292.171,289.5 279.838,289.333 267.5,289.5C 267.5,286.167 267.5,282.833 267.5,279.5C 280.171,279.333 292.838,279.5 305.5,280C 308.963,281.232 312.297,282.732 315.5,284.5C 318.229,288.954 320.729,293.62 323,298.5C 323.708,299.381 324.542,300.047 325.5,300.5C 325.833,302.833 327.167,304.167 329.5,304.5C 332.21,306.232 334.876,307.899 337.5,309.5C 339.102,311.074 341.102,311.741 343.5,311.5C 346.833,311.5 350.167,311.5 353.5,311.5C 356.716,311.655 359.383,310.655 361.5,308.5C 362.514,307.326 363.847,306.66 365.5,306.5C 368.167,305.833 369.833,304.167 370.5,301.5C 370.833,300.5 371.5,299.833 372.5,299.5C 373.906,299.027 374.573,298.027 374.5,296.5C 374.796,294.597 375.463,292.93 376.5,291.5C 380.312,285.582 385.645,281.582 392.5,279.5C 397.844,279.666 403.177,279.499 408.5,279C 409.252,278.329 409.586,277.496 409.5,276.5C 409.5,275.833 409.833,275.5 410.5,275.5C 417.407,270.092 424.073,270.425 430.5,276.5 Z"/></g>
<g><path style="opacity:0.118" fill="#828282" d="M 268.5,277.5 C 280.838,277.333 293.171,277.5 305.5,278C 309.72,278.935 313.053,281.101 315.5,284.5C 312.297,282.732 308.963,281.232 305.5,280C 292.838,279.5 280.171,279.333 267.5,279.5C 267.5,279.167 267.5,278.833 267.5,278.5C 267.5,277.833 267.833,277.5 268.5,277.5 Z"/></g>
<g><path style="opacity:0.732" fill="#757575" d="M 409.5,276.5 C 409.586,277.496 409.252,278.329 408.5,279C 403.177,279.499 397.844,279.666 392.5,279.5C 392.5,278.833 392.5,278.167 392.5,277.5C 398.259,277.786 403.925,277.452 409.5,276.5 Z"/></g>
<g><path style="opacity:0.712" fill="#9cc8e2" d="M 33.5,254.5 C 32.3907,264.823 31.3907,275.156 30.5,285.5C 29.5657,284.228 28.899,282.728 28.5,281C 29.9476,271.992 31.6143,263.158 33.5,254.5 Z"/></g>
<g><path style="opacity:0.49" fill="#a6a6a7" d="M 392.5,277.5 C 392.5,278.167 392.5,278.833 392.5,279.5C 385.645,281.582 380.312,285.582 376.5,291.5C 377.02,287.464 379.02,284.297 382.5,282C 385.741,280.211 389.074,278.711 392.5,277.5 Z"/></g>
<g><path style="opacity:0.353" fill="#bdbdbe" d="M 315.5,284.5 C 316.794,285.29 317.961,286.29 319,287.5C 321.193,291.886 323.36,296.22 325.5,300.5C 324.542,300.047 323.708,299.381 323,298.5C 320.729,293.62 318.229,288.954 315.5,284.5 Z"/></g>
<g><path style="opacity:0.2" fill="#b8b8b8" d="M 359.5,275.5 C 362.861,278.997 363.361,282.997 361,287.5C 360.623,288.942 359.79,289.942 358.5,290.5C 360.67,285.636 361.003,280.636 359.5,275.5 Z"/></g>
<g><path style="opacity:0.739" fill="#77b2db" d="M 31.5,286.5 C 32.4734,286.987 33.4734,287.487 34.5,288C 46.6737,288.169 58.6737,288.669 70.5,289.5C 58.8333,289.5 47.1667,289.5 35.5,289.5C 33.368,289.446 32.0347,288.446 31.5,286.5 Z"/></g>
<g><path style="opacity:0.737" fill="#6ba8d4" d="M 266.5,278.5 C 266.833,278.5 267.167,278.5 267.5,278.5C 267.5,278.833 267.5,279.167 267.5,279.5C 267.5,282.833 267.5,286.167 267.5,289.5C 228.833,289.5 190.167,289.5 151.5,289.5C 189.663,288.501 227.996,288.168 266.5,288.5C 266.5,285.167 266.5,281.833 266.5,278.5 Z"/></g>
<g><path style="opacity:0.708" fill="#89898a" d="M 408.5,290.5 C 401.922,289.969 395.588,290.635 389.5,292.5C 390.343,290.827 391.676,289.66 393.5,289C 396,288.833 398.5,288.667 401,288.5C 403.929,288.525 406.429,289.191 408.5,290.5 Z"/></g>
<g><path style="opacity:0.135" fill="#a7d3e5" d="M 35.5,289.5 C 47.1667,289.5 58.8333,289.5 70.5,289.5C 71.4345,290.568 71.7678,291.901 71.5,293.5C 70.596,292.791 70.2627,291.791 70.5,290.5C 58.6547,290.828 46.988,290.495 35.5,289.5 Z"/></g>
<g><path style="opacity:0.134" fill="#a6d3e5" d="M 151.5,289.5 C 190.167,289.5 228.833,289.5 267.5,289.5C 267.5,289.833 267.5,290.167 267.5,290.5C 228.833,290.5 190.167,290.5 151.5,290.5C 151.737,291.791 151.404,292.791 150.5,293.5C 150.5,292.833 150.5,292.167 150.5,291.5C 150.328,290.508 150.662,289.842 151.5,289.5 Z"/></g>
<g><path style="opacity:0.147" fill="#a0a0a1" d="M 267.5,290.5 C 267.5,290.167 267.5,289.833 267.5,289.5C 279.838,289.333 292.171,289.5 304.5,290C 307.857,291.512 309.857,294.012 310.5,297.5C 308.691,294.861 306.358,292.694 303.5,291C 291.505,290.5 279.505,290.333 267.5,290.5 Z"/></g>
<g><path style="opacity:0.98" fill="#7ab0e1" d="M 150.5,291.5 C 150.5,292.167 150.5,292.833 150.5,293.5C 150.293,296.241 149.293,298.574 147.5,300.5C 147.337,298.143 147.503,295.81 148,293.5C 148.417,292.244 149.25,291.577 150.5,291.5 Z"/></g>
<g><path style="opacity:0.145" fill="#909090" d="M 410.5,292.5 C 416.204,296.133 422.204,296.466 428.5,293.5C 426.56,296.552 423.727,297.885 420,297.5C 415.744,297.79 412.577,296.123 410.5,292.5 Z"/></g>
<g><path style="opacity:0.51" fill="#8d8d8e" d="M 374.5,296.5 C 374.573,298.027 373.906,299.027 372.5,299.5C 372.427,297.973 373.094,296.973 374.5,296.5 Z"/></g>
<g><path style="opacity:0.243" fill="#b1d6e9" d="M 71.5,293.5 C 73.8937,298.619 76.5604,303.619 79.5,308.5C 75.0213,304.547 72.3546,299.547 71.5,293.5 Z"/></g>
<g><path style="opacity:0.302" fill="#a5a5a6" d="M 310.5,297.5 C 311.674,298.514 312.34,299.847 312.5,301.5C 310.896,300.713 310.229,299.38 310.5,297.5 Z"/></g>
<g><path style="opacity:0.922" fill="#7d7d7e" d="M 385.5,299.5 C 384.89,301.434 383.89,303.101 382.5,304.5C 382.241,302.011 383.241,300.344 385.5,299.5 Z"/></g>
<g><path style="opacity:0.514" fill="#bcbcbd" d="M 325.5,300.5 C 327.167,301.5 328.5,302.833 329.5,304.5C 327.167,304.167 325.833,302.833 325.5,300.5 Z"/></g>
<g><path style="opacity:0.741" fill="#919192" d="M 312.5,302.5 C 314.446,303.035 315.446,304.368 315.5,306.5C 314.026,305.564 313.026,304.23 312.5,302.5 Z"/></g>
<g><path style="opacity:0.737" fill="#777777" d="M 370.5,301.5 C 369.833,304.167 368.167,305.833 365.5,306.5C 366.833,304.5 368.5,302.833 370.5,301.5 Z"/></g>
<g><path style="opacity:0.596" fill="#a0a0a1" d="M 317.5,309.5 C 319.404,309.738 320.738,310.738 321.5,312.5C 319.596,312.262 318.262,311.262 317.5,309.5 Z"/></g>
<g><path style="opacity:0.471" fill="#a4a4a5" d="M 337.5,309.5 C 339.786,309.595 341.786,310.262 343.5,311.5C 341.102,311.741 339.102,311.074 337.5,309.5 Z"/></g>
<g><path style="opacity:0.616" fill="#888889" d="M 361.5,308.5 C 359.383,310.655 356.716,311.655 353.5,311.5C 355.936,310.129 358.603,309.129 361.5,308.5 Z"/></g>
<g><path style="opacity:0.008" fill="#c2e5f1" d="M 142.5,308.5 C 141.5,311.5 139.5,313.5 136.5,314.5C 138.167,312.167 140.167,310.167 142.5,308.5 Z"/></g>
<g><path style="opacity:0.004" fill="#a7a7a8" d="M 377.5,310.5 C 376.833,313.167 375.167,314.833 372.5,315.5C 373.833,313.5 375.5,311.833 377.5,310.5 Z"/></g>
<g><path style="opacity:0.004" fill="#b6dbea" d="M 136.5,314.5 C 135.198,316.822 133.198,318.155 130.5,318.5C 132.147,316.674 134.147,315.34 136.5,314.5 Z"/></g>
<g><path style="opacity:0.345" fill="#a7a7a8" d="M 326.5,316.5 C 328.027,316.427 329.027,317.094 329.5,318.5C 327.973,318.573 326.973,317.906 326.5,316.5 Z"/></g>
<g><path style="opacity:0.02" fill="#99999a" d="M 371.5,316.5 C 370.486,317.674 369.153,318.34 367.5,318.5C 368.315,317.163 369.482,316.163 371,315.5C 371.399,315.728 371.565,316.062 371.5,316.5 Z"/></g>
<g><path style="opacity:0.247" fill="#b4daeb" d="M 90.5,317.5 C 92.0269,317.427 93.0269,318.094 93.5,319.5C 91.9731,319.573 90.9731,318.906 90.5,317.5 Z"/></g>
<g><path style="opacity:0.945" fill="#838384" d="M 329.5,318.5 C 332.491,318.166 334.824,319.166 336.5,321.5C 333.843,321.065 331.509,320.065 329.5,318.5 Z"/></g>
<g><path style="opacity:0.925" fill="#85b8e0" d="M 93.5,319.5 C 96.5219,319.804 99.5219,320.304 102.5,321C 103.056,321.383 103.389,321.883 103.5,322.5C 99.7417,322.605 96.4083,321.605 93.5,319.5 Z"/></g>
<g><path style="opacity:0.533" fill="#979797" d="M 367.5,318.5 C 364.203,320.601 360.537,321.935 356.5,322.5C 359.797,320.399 363.463,319.065 367.5,318.5 Z"/></g>
<g><path style="opacity:0.012" fill="#a5cfe5" d="M 130.5,318.5 C 126.745,321.416 122.412,322.75 117.5,322.5C 121.617,320.796 125.951,319.463 130.5,318.5 Z"/></g>
<g><path style="opacity:0.376" fill="#989899" d="M 336.5,321.5 C 342.491,321.966 348.491,322.299 354.5,322.5C 348.434,323.829 342.434,323.495 336.5,321.5 Z"/></g>
</svg>
