<svg width="24" height="24" viewBox="0 0 24 24" fill="none" xmlns="http://www.w3.org/2000/svg">
<g clip-path="url(#clip0_1632_10207)">
<path d="M6.99945 6H7.05506C7.83269 5.98731 8.57487 5.6724 9.12452 5.12193C9.67416 4.57146 9.98813 3.82863 9.99997 3.05066C10.0037 2.25109 9.6921 1.4823 9.13277 0.911135C8.85726 0.623125 8.52627 0.393916 8.15982 0.237325C7.79336 0.0807334 7.39901 0 7.00053 0C6.60204 0 6.20769 0.0807334 5.84124 0.237325C5.47478 0.393916 5.14383 0.623125 4.86831 0.911135C4.30977 1.4829 3.99795 2.2512 4.00001 3.05066C4.01458 3.83691 4.33697 4.58604 4.89788 5.13698C5.45878 5.68791 6.21339 5.99665 6.99945 5.99679M6.98127 1.85146C7.28174 1.85001 7.57117 1.96471 7.78914 2.1716C8.00711 2.3785 8.13681 2.66162 8.15114 2.96187V3.04746C8.15076 3.33732 8.04147 3.61644 7.84497 3.82947C7.64848 4.04249 7.37914 4.17383 7.09037 4.19745H6.98343C6.67495 4.1975 6.3788 4.07631 6.15879 3.86001C5.93877 3.6437 5.81249 3.34959 5.80717 3.04103C5.80388 2.88669 5.83152 2.73324 5.88846 2.58975C5.94539 2.44626 6.03045 2.31562 6.13865 2.20555C6.24821 2.09288 6.37923 2.00331 6.52395 1.94212C6.66868 1.88094 6.82416 1.84939 6.98127 1.84932" fill="#434344"/>
<path d="M16.9968 6H17.0534C17.8169 5.98727 18.5466 5.68296 19.093 5.14942C19.6394 4.61587 19.9612 3.89348 19.9925 3.13024L20 3.05222C20.0038 2.25334 19.6924 1.48519 19.1335 0.914599C18.5958 0.349581 17.8561 0.0210103 17.0766 0.000972979C16.297 -0.0190644 15.5414 0.27107 14.9754 0.807719C14.938 0.84145 14.9023 0.877125 14.8686 0.914599C14.3095 1.48523 13.9974 2.25317 14 3.05222C14.0151 3.83667 14.3366 4.58402 14.8958 5.1342C15.4549 5.68438 16.2072 5.99364 16.9914 5.99573M16.9914 1.85301C17.285 1.85253 17.5675 1.9646 17.781 2.16617C17.8911 2.26844 17.9797 2.39161 18.0417 2.52851C18.1037 2.6654 18.1378 2.81328 18.1421 2.96351V3.04794C18.1421 3.35338 18.0208 3.6463 17.8049 3.86228C17.589 4.07825 17.2962 4.19959 16.9909 4.19959C16.6856 4.19959 16.3928 4.07825 16.1769 3.86228C15.961 3.6463 15.8397 3.35338 15.8397 3.04794V3.04367C15.8314 2.73847 15.9441 2.44237 16.1533 2.22007C16.3625 1.99777 16.6512 1.86734 16.9562 1.85729L16.9914 1.85301Z" fill="#434344"/>
<path d="M7.43254 6C5.96345 6.03089 4.56665 6.63903 3.54844 7.69105C2.53024 8.74307 1.97374 10.1531 2.00095 11.612C2.00095 11.6703 2.00093 11.7276 2.00691 11.7741C2.00691 15.3052 5.2334 17.9713 8.35239 20.5504C8.59132 20.7481 8.82627 20.9458 9.06221 21.1386C9.50887 21.5089 9.96848 21.8938 10.441 22.2932L10.657 22.4741C11.0356 22.789 11.5068 22.9736 12 23V21.2799C11.9183 21.2607 11.8419 21.2239 11.776 21.1722C11.4157 20.8667 10.6083 20.1925 10.0139 19.6963L9.56195 19.3187C9.63927 19.2601 9.71277 19.1967 9.78197 19.1289C10.0646 18.8446 10.2617 18.4876 10.3511 18.0982C10.4404 17.7087 10.4185 17.3022 10.2877 16.9244C10.0365 16.3837 9.64904 15.9166 9.16277 15.5681C7.44848 14.0468 6.30859 12.814 6.30859 11.7494H4.58632C4.58632 13.5288 6.03283 15.1312 8.53161 17.2961C8.61676 17.3697 8.66991 17.4732 8.67993 17.5849C8.68995 17.6966 8.65605 17.8077 8.58535 17.8952L8.57141 17.912C8.48258 17.9874 8.37082 18.0311 8.25401 18.0359C8.13721 18.0408 8.02214 18.0065 7.9273 17.9387C5.26824 15.6284 3.72817 13.8767 3.72717 11.7612C3.66022 10.7568 3.99722 9.76709 4.66425 9.00911C5.33128 8.25114 6.27386 7.78684 7.28519 7.7181L7.4196 7.71117C8.13858 7.75544 8.83152 7.99483 9.42293 8.40324C10.0143 8.81165 10.4815 9.37343 10.7735 10.0273C11.165 9.88149 11.581 9.81169 11.999 9.82172V8.69972C11.5413 7.89315 10.879 7.21958 10.0779 6.74596C9.27674 6.27234 8.36477 6.01516 7.43254 6Z" fill="#279EAE"/>
<path d="M20.5433 7.81589C20.0512 7.27789 19.4551 6.84091 18.7895 6.53023C18.124 6.21955 17.4022 6.04135 16.6659 6.00593C16.6085 6.00593 16.549 6.00099 16.4815 6C15.5391 6.01581 14.6173 6.27319 13.8078 6.74655C12.9983 7.2199 12.3293 7.89274 11.8674 8.69815V9.8195C11.4442 9.80948 11.023 9.87924 10.6267 10.025C10.154 10.2518 9.75515 10.6034 9.47509 11.0402C9.19503 11.477 9.04483 11.9818 9.04137 12.4977C9.03791 13.0136 9.18134 13.5202 9.45553 13.9606C9.72972 14.401 10.1238 14.7577 10.5935 14.9905C10.0377 15.1062 9.50136 15.2977 9 15.5596C9.49244 15.9081 9.88474 16.3754 10.1389 16.9161C10.699 16.6801 11.303 16.561 11.9125 16.5663C12.5221 16.5715 13.1239 16.7011 13.6796 16.9467C13.5156 17.3815 13.5016 17.857 13.6398 18.3002C13.778 18.7435 14.0607 19.1302 14.4446 19.4008C13.8126 19.9452 13.1253 20.5281 12.3794 21.1614C12.3105 21.2178 12.2287 21.2571 12.1409 21.2758C12.0532 21.2946 11.9621 21.2923 11.8755 21.2691V22.9891C11.9208 22.9891 11.9662 23 12.0116 23C12.5663 23.0001 13.1027 22.8052 13.5234 22.4507L13.6705 22.3262C19.3842 17.4782 21.9926 15.2662 21.9916 11.7796C22.0321 11.0582 21.9261 10.3361 21.6797 9.6552C21.4334 8.97427 21.0515 8.34807 20.5564 7.81292M12.6485 13.2645C12.5481 13.3639 12.4284 13.4427 12.2966 13.4963C12.1647 13.5499 12.0233 13.5773 11.8805 13.5767C11.5925 13.5767 11.3163 13.4646 11.1126 13.2649C10.909 13.0653 10.7945 12.7945 10.7945 12.5122C10.7945 12.2299 10.909 11.9591 11.1126 11.7595C11.3163 11.5598 11.5925 11.4477 11.8805 11.4477C12.0952 11.4479 12.3049 11.5105 12.4833 11.6275C12.6617 11.7446 12.8006 11.9109 12.8826 12.1053C12.9646 12.2998 12.9859 12.5137 12.9439 12.72C12.9019 12.9264 12.7984 13.1159 12.6465 13.2645M20.251 11.7678C20.251 13.8623 18.8399 15.5062 16.0642 17.992C15.9709 18.0602 15.857 18.0957 15.7406 18.093C15.6242 18.0904 15.5122 18.0496 15.4222 17.9772C15.3814 17.9366 15.3493 17.8884 15.3279 17.8355C15.3064 17.7825 15.296 17.7259 15.2972 17.6689C15.3016 17.5487 15.3537 17.4349 15.4424 17.3518C18.1133 14.9807 19.3842 13.5323 19.3842 11.746H17.6416C17.6416 12.6955 16.928 13.6696 14.8195 15.5991C14.2979 15.3179 13.7369 15.1135 13.1545 14.9925C13.7829 14.6808 14.2699 14.1504 14.5205 13.5052C14.771 12.86 14.7669 12.1464 14.5091 11.504C14.2482 10.8572 13.7509 10.3289 13.1142 10.022C13.4107 9.36759 13.8848 8.8055 14.4848 8.39698C15.0848 7.98846 15.7876 7.74919 16.5168 7.70524C17.5376 7.73982 18.5033 8.16765 19.2043 8.89586C19.9053 9.62408 20.285 10.5939 20.2611 11.5949L20.251 11.7678Z" fill="#434344"/>
</g>
<defs>
<clipPath id="clip0_1632_10207">
<rect width="24" height="24" fill="white"/>
</clipPath>
</defs>
</svg>
