<svg width="32" height="32" viewBox="0 0 32 32" fill="none" xmlns="http://www.w3.org/2000/svg">
<g clip-path="url(#clip0_2912_7087)">
<mask id="mask0_2912_7087" style="mask-type:luminance" maskUnits="userSpaceOnUse" x="0" y="0" width="32" height="32">
<path d="M0 0H32V32H0V0Z" fill="white"/>
</mask>
<g mask="url(#mask0_2912_7087)">
<path d="M30.0558 13.512C29.5979 12.4335 29.1476 11.3518 28.7048 10.267C28.6677 10.1764 28.6343 10.0843 28.6048 9.99101C28.5499 9.74686 28.4371 9.51949 28.276 9.32805C28.1148 9.13661 27.91 8.98672 27.6788 8.89102C25.4921 8.00368 23.3045 7.11902 21.1158 6.23702L17.1158 4.62102C16.9538 4.55502 16.8158 4.49801 16.7008 4.44901C16.4127 4.2697 16.0797 4.1755 15.7404 4.17727C15.401 4.17904 15.069 4.27671 14.7828 4.45902L14.4198 4.60802C10.8911 6.03602 7.36679 7.46335 3.84679 8.89002C3.61534 8.98567 3.41024 9.13552 3.24875 9.32694C3.08726 9.51836 2.97411 9.74576 2.9188 9.99001C2.88691 10.0842 2.85356 10.1779 2.81879 10.271C2.44579 11.187 2.06079 12.105 1.67579 13.021L1.6598 13.06C1.5878 13.235 1.52379 13.383 1.46879 13.512C1.23514 13.8375 1.1279 14.2369 1.1671 14.6356C1.20629 15.0344 1.38923 15.4053 1.68179 15.679C1.78179 15.814 1.90179 15.979 2.04179 16.179L3.50979 18.324C3.68579 18.577 3.7968 18.763 3.8778 18.899C4.1948 19.431 4.41979 19.561 4.89879 19.561C4.96979 19.561 5.0468 19.561 5.1308 19.553H5.18979C4.78622 19.8585 4.46086 20.2553 4.24043 20.7109C4.02001 21.1666 3.91081 21.668 3.9218 22.174C4.0888 23.527 5.51079 24.352 6.95379 25.081C9.71744 26.3521 12.7234 27.0102 15.7653 27.0102C18.8072 27.0102 21.8131 26.3521 24.5768 25.081C26.0188 24.352 27.4408 23.528 27.6088 22.174C27.6179 21.6565 27.5031 21.1443 27.274 20.6802C27.0449 20.2161 26.7081 19.8135 26.2918 19.506L26.4468 19.518C26.6933 19.5783 26.9534 19.5461 27.1778 19.4276C27.4022 19.3092 27.5755 19.1126 27.6648 18.875C27.7438 18.745 27.8528 18.567 28.0228 18.322L29.4858 16.184C29.6278 15.984 29.7488 15.815 29.8478 15.684C30.4808 14.821 30.5068 14.558 30.0608 13.517L30.0558 13.512ZM25.0708 17.112V18.406C25.1218 18.5462 25.1218 18.6999 25.0708 18.84C25.0713 18.9571 25.1027 19.072 25.1618 19.173H6.3818C6.36647 18.9158 6.38871 18.6578 6.4478 18.407V17.115C8.1988 15.934 23.3318 15.932 25.0708 17.115V17.112ZM26.3708 22.012C26.2868 22.691 25.1408 23.356 24.0308 23.912C21.4315 25.0861 18.612 25.6934 15.7598 25.6934C12.9076 25.6934 10.0881 25.0861 7.4888 23.912C6.3788 23.351 5.23279 22.686 5.14879 22.012C5.09979 21.612 5.4138 21.084 6.0608 20.471H25.4608C26.1078 21.083 26.4228 21.614 26.3728 22.012H26.3708ZM28.8568 14.895C28.7518 15.038 28.6248 15.211 28.4718 15.431L27.0088 17.569C26.8208 17.84 26.6998 18.038 26.6088 18.182L26.5778 18.233H26.5328L26.3108 18.217V16.947C26.3108 16.062 25.2898 15.591 22.6678 15.266C21.0278 15.066 10.5068 15.066 8.8678 15.266C6.2328 15.591 5.20579 16.066 5.20579 16.946V18.247L5.05579 18.256L4.95579 18.262L4.92579 18.211C4.83979 18.067 4.71079 17.85 4.51179 17.564L3.0438 15.419C2.8938 15.203 2.76679 15.03 2.66179 14.886C2.55679 14.742 2.44679 14.593 2.40479 14.518C2.43079 14.427 2.51479 14.23 2.59579 14.039L2.7958 13.574L2.8098 13.54C3.1968 12.618 3.58379 11.698 3.95579 10.782C4.00309 10.6664 4.04678 10.5493 4.0868 10.431C4.1868 10.138 4.1928 10.136 4.2948 10.095C7.80613 8.66968 11.3285 7.24335 14.8618 5.81602L15.2358 5.66201C15.7498 5.44801 15.7498 5.44802 16.2278 5.65002C16.3488 5.70102 16.4908 5.76102 16.6598 5.82902L20.6598 7.44502C22.8485 8.32835 25.0361 9.21302 27.2228 10.099C27.3228 10.14 27.3228 10.141 27.4288 10.434C27.4668 10.542 27.5078 10.66 27.5578 10.78C27.9368 11.712 28.3288 12.645 28.7188 13.574C28.7938 13.755 28.8598 13.91 28.9188 14.043C29.0008 14.234 29.0848 14.43 29.1098 14.522C29.0688 14.598 28.9598 14.746 28.8538 14.891L28.8568 14.895Z" fill="#555555" stroke="#555555" stroke-width="0.5"/>
<path d="M13.8839 9.25201L14.0319 9.11801C14.3099 9.17807 14.5974 9.18038 14.8764 9.12482C15.1554 9.06926 15.42 8.95701 15.6539 8.79501C15.8864 8.95781 16.1501 9.07057 16.4285 9.12617C16.7068 9.18177 16.9936 9.17899 17.2709 9.11801L17.4179 9.25201C17.1766 9.79309 17.141 10.4036 17.3179 10.969C17.6629 12.362 17.3449 12.497 16.5749 12.824C16.2516 12.9501 15.9425 13.11 15.6529 13.301C15.3623 13.1105 15.0526 12.951 14.7289 12.825C13.9589 12.499 13.6399 12.364 13.9909 10.97C14.1594 10.4026 14.1221 9.79384 13.8839 9.25201ZM16.3319 14.146C16.5438 14.0171 16.7662 13.9063 16.9969 13.815C18.0539 13.366 18.8859 12.822 18.3599 10.702C18.2853 10.4994 18.262 10.2815 18.2922 10.0677C18.3224 9.85399 18.4051 9.65103 18.5329 9.47701C18.6142 9.36999 18.6525 9.23634 18.6401 9.10247C18.6277 8.9686 18.5655 8.84426 18.4659 8.75401L17.7659 8.12101C17.6929 8.05463 17.6031 8.00962 17.5062 7.99092C17.4094 7.97222 17.3093 7.98056 17.2169 8.01501C17.0077 8.09464 16.7793 8.10857 16.562 8.05497C16.3447 8.00137 16.149 7.88277 16.0009 7.71501C15.9041 7.63324 15.7815 7.58838 15.6549 7.58838C15.5282 7.58838 15.4056 7.63324 15.3089 7.71501C15.1579 7.88334 14.9595 8.00207 14.7398 8.05561C14.5201 8.10915 14.2894 8.095 14.0779 8.01501C13.9855 7.98045 13.8853 7.97205 13.7884 7.99075C13.6916 8.00946 13.6017 8.05453 13.5289 8.12101L12.8289 8.75401C12.7292 8.84426 12.667 8.9686 12.6546 9.10247C12.6422 9.23634 12.6805 9.36999 12.7619 9.47701C12.8907 9.65201 12.9745 9.85596 13.0061 10.0709C13.0377 10.2859 13.0159 10.5054 12.9429 10.71C12.4109 12.823 13.2429 13.367 14.3049 13.816C14.5356 13.9073 14.7584 14.0177 14.9709 14.146C12.9689 14.164 18.3469 14.163 16.3319 14.146Z" fill="#2EB6C7" stroke="#2EB6C7" stroke-width="0.5"/>
</g>
</g>
<defs>
<clipPath id="clip0_2912_7087">
<rect width="32" height="32" fill="white"/>
</clipPath>
</defs>
</svg>
