<svg width="24" height="24" viewBox="0 0 24 24" fill="none" xmlns="http://www.w3.org/2000/svg">
<g clip-path="url(#clip0_1626_4946)">
<path d="M21.7871 20.5549H1.79688C1.5847 20.5549 1.38147 20.4706 1.23145 20.3206C1.08142 20.1706 0.99707 19.9671 0.99707 19.7549C0.99707 19.5428 1.08142 19.3393 1.23145 19.1893C1.38147 19.0392 1.5847 18.955 1.79688 18.955H21.7852C21.9973 18.955 22.2006 19.0392 22.3506 19.1893C22.5006 19.3393 22.585 19.5428 22.585 19.7549C22.585 19.9671 22.5006 20.1706 22.3506 20.3206C22.2006 20.4706 21.9973 20.5549 21.7852 20.5549H21.7871Z" fill="#475259"/>
<path d="M19.2481 19.7569C19.0662 19.7564 18.8902 19.6939 18.7486 19.5797C18.607 19.4656 18.5084 19.3066 18.4693 19.1289L15.3453 4.75594L4.66215 7.18792L5.26225 9.58794C5.29673 9.69243 5.30902 9.80291 5.29887 9.91247C5.28872 10.022 5.25626 10.1283 5.20317 10.2247C5.15008 10.3211 5.07795 10.4054 4.99076 10.4726C4.90358 10.5397 4.80307 10.5881 4.69633 10.6148C4.58959 10.6415 4.47867 10.6458 4.37016 10.6276C4.26164 10.6094 4.15816 10.5691 4.06596 10.509C3.97376 10.449 3.89502 10.3705 3.83451 10.2786C3.774 10.1868 3.73314 10.0834 3.7144 9.97494L2.9141 6.78292C2.88876 6.67973 2.88438 6.57255 2.90092 6.46758C2.91746 6.36262 2.95493 6.26199 3.01078 6.17159C3.06664 6.0812 3.13964 6.00285 3.22612 5.94109C3.31259 5.87934 3.41057 5.83544 3.5142 5.81194L15.7774 3.01992C15.8802 2.99677 15.9861 2.99415 16.0899 3.0122C16.1937 3.03025 16.293 3.06862 16.3819 3.12512C16.4708 3.18161 16.548 3.25511 16.6084 3.34139C16.6689 3.42768 16.7117 3.52505 16.7344 3.62792L20.0342 18.7879C20.0593 18.9045 20.0579 19.0252 20.0303 19.1411C20.0027 19.2571 19.9494 19.3655 19.8746 19.4583C19.7997 19.5511 19.7052 19.626 19.5977 19.6775C19.4902 19.729 19.3722 19.7558 19.253 19.7559L19.2481 19.7569Z" fill="#475259"/>
<path d="M8.49499 18.699C7.4417 18.6988 6.4122 18.3863 5.5365 17.801C4.6608 17.2157 3.97806 16.3838 3.57507 15.4107C3.17208 14.4375 3.0668 13.3668 3.27234 12.3337C3.47787 11.3007 3.98506 10.3517 4.72986 9.60694C5.47465 8.86215 6.42386 8.35493 7.45691 8.14939C8.48996 7.94385 9.56041 8.04923 10.5336 8.45222C11.5067 8.8552 12.3389 9.53769 12.9242 10.4134C13.5095 11.2891 13.8219 12.3187 13.8221 13.372C13.8208 14.7844 13.2589 16.1386 12.2601 17.1373C11.2614 18.136 9.9074 18.6977 8.49499 18.699ZM8.49499 9.124C7.65462 9.1242 6.83328 9.37359 6.13464 9.84064C5.43601 10.3077 4.8916 10.9714 4.57019 11.7479C4.24878 12.5244 4.16484 13.3787 4.32898 14.2029C4.49312 15.0271 4.89769 15.7841 5.49206 16.3782C6.08644 16.9723 6.84358 17.3768 7.66785 17.5406C8.49211 17.7043 9.3466 17.62 10.1229 17.2982C10.8993 16.9764 11.5629 16.4316 12.0297 15.7328C12.4964 15.0339 12.7452 14.2124 12.745 13.372C12.7434 12.2456 12.2952 11.1658 11.4984 10.3696C10.7016 9.5734 9.6214 9.1258 8.49499 9.12501V9.124Z" fill="#2EB6C7"/>
<path d="M8.6099 18.639C8.46832 18.639 8.33282 18.5833 8.23197 18.4839C8.13111 18.3846 8.07342 18.2495 8.07132 18.1079L7.95707 8.92896C7.95546 8.78635 8.01037 8.64891 8.1099 8.54676C8.20943 8.44461 8.34571 8.38609 8.48832 8.38398C8.55962 8.38069 8.63056 8.39204 8.6973 8.41737C8.76404 8.44269 8.82484 8.48143 8.87601 8.5312C8.92718 8.58096 8.96749 8.64069 8.99466 8.7067C9.02184 8.77271 9.03552 8.84361 9.03421 8.91499L9.14798 18.094C9.14959 18.2366 9.09468 18.374 8.99515 18.4762C8.89562 18.5783 8.75983 18.6368 8.61722 18.639H8.6099Z" fill="#2EB6C7"/>
<path d="M5.21973 17.207C5.1512 17.2068 5.08342 17.1927 5.02051 17.1655C4.95759 17.1384 4.90113 17.0987 4.854 17.049C4.75614 16.9464 4.70117 16.8102 4.70117 16.6685C4.70117 16.5267 4.75614 16.3905 4.854 16.288L8.1167 12.899C8.16349 12.8487 8.22023 12.8086 8.2832 12.7812C8.34617 12.7538 8.41423 12.7396 8.48291 12.7396C8.55159 12.7396 8.61965 12.7538 8.68262 12.7812C8.74559 12.8086 8.80184 12.8487 8.84863 12.899C8.94627 13.0016 9.00098 13.1378 9.00098 13.2795C9.00098 13.4211 8.94627 13.5574 8.84863 13.66L5.58594 17.049C5.53881 17.0987 5.48186 17.1384 5.41895 17.1655C5.35603 17.1927 5.28825 17.2068 5.21973 17.207Z" fill="#2EB6C7"/>
</g>
<defs>
<clipPath id="clip0_1626_4946">
<rect width="24" height="24" fill="white"/>
</clipPath>
</defs>
</svg>
