<svg width="32" height="32" viewBox="0 0 32 32" fill="none" xmlns="http://www.w3.org/2000/svg">
<g clip-path="url(#clip0_2912_7083)">
<mask id="mask0_2912_7083" style="mask-type:luminance" maskUnits="userSpaceOnUse" x="0" y="0" width="32" height="32">
<path d="M0 0H32V32H0V0Z" fill="white"/>
</mask>
<g mask="url(#mask0_2912_7083)">
<path d="M9.75276 28.766C9.90621 28.7597 10.0513 28.6943 10.1576 28.5835C10.264 28.4727 10.3234 28.3251 10.3234 28.1715C10.3234 28.0179 10.264 27.8703 10.1576 27.7595C10.0513 27.6487 9.90621 27.5833 9.75276 27.577C7.19576 27.577 4.99576 24.306 4.99576 21.63C4.99006 19.0897 5.87465 16.6277 7.49576 14.672C7.64898 15.3848 7.99807 16.0407 8.50376 16.566C9.08311 17.115 9.8422 17.4348 10.6398 17.466H10.6988C11.0942 17.4495 11.481 17.3449 11.8308 17.1597C12.1806 16.9746 12.4847 16.7137 12.7208 16.396C13.1069 15.8392 13.3611 15.2018 13.4642 14.5321C13.5673 13.8625 13.5165 13.1781 13.3158 12.531C12.9835 11.0958 13.0226 9.59969 13.4292 8.18383C13.8358 6.76797 14.5966 5.47911 15.6398 4.43897C15.6398 7.82897 17.4838 9.55297 19.1488 11.039C19.5058 11.339 19.8028 11.634 20.1008 11.931C22.2418 14.072 22.3608 17.224 21.2308 18.889C21.1783 18.9667 21.1455 19.056 21.1352 19.1492C21.1249 19.2424 21.1375 19.3367 21.1718 19.424C21.1974 19.5082 21.2433 19.5849 21.3056 19.6471C21.3679 19.7094 21.4445 19.7554 21.5288 19.781C22.0136 19.9377 22.5278 19.9818 23.0322 19.9099C23.5367 19.838 24.0181 19.652 24.4398 19.366C24.918 19.0455 25.2904 18.5903 25.5098 18.058C25.9654 19.1395 26.1748 20.3088 26.123 21.4812C26.0711 22.6537 25.7591 23.7999 25.2098 24.837C24.8248 25.6114 24.2438 26.2714 23.5244 26.7515C22.8051 27.2315 21.9726 27.5147 21.1098 27.573C20.9563 27.5793 20.8112 27.6447 20.7049 27.7555C20.5985 27.8663 20.5391 28.0139 20.5391 28.1675C20.5391 28.3211 20.5985 28.4687 20.7049 28.5795C20.8112 28.6903 20.9563 28.7557 21.1098 28.762C22.1921 28.7235 23.2415 28.3791 24.1361 27.7687C25.0308 27.1582 25.7342 26.3068 26.1648 25.313C26.9485 23.8414 27.3183 22.1848 27.2344 20.5196C27.1506 18.8545 26.6164 17.2433 25.6888 15.858C25.6127 15.7613 25.5112 15.6878 25.3957 15.6458C25.2801 15.6037 25.1551 15.5948 25.0348 15.62C24.9187 15.6731 24.8189 15.7562 24.7458 15.8608C24.6726 15.9655 24.6288 16.0877 24.6188 16.215C24.6503 16.6314 24.5801 17.0492 24.4143 17.4325C24.2484 17.8157 23.9919 18.1529 23.6668 18.415C23.336 18.6478 22.9413 18.7726 22.5368 18.772C23.0526 17.4628 23.1698 16.0303 22.8735 14.6546C22.5773 13.279 21.8808 12.0217 20.8718 11.041C20.5718 10.741 20.2768 10.446 19.9198 10.149C18.0758 8.54297 16.4108 6.99697 16.8868 3.24897C16.8874 3.13313 16.8605 3.01879 16.8084 2.91536C16.7562 2.81192 16.6803 2.72234 16.5868 2.65397C16.4877 2.59537 16.3748 2.56445 16.2598 2.56445C16.1447 2.56445 16.0318 2.59537 15.9328 2.65397C11.9488 5.32997 11.4728 10.206 12.1268 12.823C12.2897 13.2943 12.3423 13.7967 12.2804 14.2915C12.2185 14.7863 12.0438 15.2603 11.7698 15.677C11.6353 15.8516 11.4647 15.9951 11.2697 16.0978C11.0747 16.2005 10.8598 16.2599 10.6398 16.272C10.3954 16.2883 10.1505 16.2486 9.92384 16.1559C9.69715 16.0631 9.49464 15.9199 9.33176 15.737C9.04906 15.4013 8.83529 15.0132 8.70265 14.5949C8.57002 14.1766 8.52112 13.7362 8.55876 13.299C8.55988 13.1843 8.52643 13.0719 8.46275 12.9764C8.39907 12.881 8.30812 12.807 8.20176 12.764C8.09497 12.7085 7.97279 12.6902 7.85442 12.7117C7.73605 12.7332 7.62818 12.7935 7.54776 12.883C6.37515 14.0191 5.44011 15.3771 4.79702 16.8779C4.15393 18.3786 3.81562 19.9923 3.80176 21.625C3.80576 24.897 6.42276 28.766 9.75276 28.766Z" fill="#555555" stroke="#555555" stroke-width="0.7"/>
<path d="M18.933 23.598C18.6511 22.6038 18.1798 21.6734 17.545 20.858C16.851 19.871 16.339 19.177 16.745 17.972C16.7723 17.9024 16.7764 17.8258 16.7566 17.7537C16.7368 17.6816 16.6941 17.6178 16.635 17.572C16.5676 17.5361 16.4924 17.5173 16.416 17.5173C16.3396 17.5173 16.2644 17.5361 16.197 17.572C15.5593 18.0146 15.0665 18.6356 14.7805 19.3572C14.4944 20.0787 14.4278 20.8687 14.589 21.628C14.845 22.728 14.699 23.089 14.589 23.236C14.5389 23.2906 14.4764 23.3324 14.4068 23.3578C14.3372 23.3832 14.2625 23.3915 14.189 23.382C14.092 23.382 13.9991 23.4205 13.9305 23.4891C13.862 23.5576 13.8235 23.6506 13.8235 23.7475C13.8235 23.8444 13.862 23.9374 13.9305 24.006C13.9991 24.0745 14.092 24.113 14.189 24.113C14.3705 24.1188 14.5508 24.0822 14.7157 24.0062C14.8806 23.9302 15.0255 23.8168 15.139 23.675C15.314 23.3324 15.4143 22.9566 15.4332 22.5723C15.4522 22.1881 15.3894 21.8042 15.249 21.446C15.1692 21.0022 15.1798 20.5469 15.2804 20.1073C15.3809 19.6677 15.5692 19.253 15.834 18.888C15.9068 19.7988 16.2796 20.6597 16.894 21.336C17.4778 22.073 17.9122 22.9167 18.173 23.82C18.28 24.2295 18.2962 24.6575 18.2205 25.0739C18.1449 25.4904 17.9792 25.8853 17.735 26.231C17.5239 26.4904 17.2558 26.6975 16.9516 26.8363C16.6474 26.975 16.3152 27.0417 15.981 27.031H15.25C14.6613 27.1028 14.0675 26.9457 13.5914 26.592C13.1153 26.2384 12.7933 25.7153 12.692 25.131C12.6017 24.6585 12.6425 24.1703 12.8099 23.7194C12.9774 23.2685 13.2652 22.872 13.642 22.573C13.6804 22.5442 13.7128 22.5082 13.7372 22.4669C13.7617 22.4257 13.7778 22.38 13.7847 22.3325C13.7915 22.285 13.7889 22.2366 13.777 22.1901C13.7652 22.1436 13.7442 22.0999 13.7155 22.0615C13.6867 22.0231 13.6507 21.9907 13.6094 21.9662C13.5681 21.9418 13.5224 21.9256 13.4749 21.9188C13.4275 21.912 13.3791 21.9146 13.3326 21.9265C13.2861 21.9383 13.2424 21.9592 13.204 21.988C12.7162 22.3709 12.342 22.8796 12.1217 23.4593C11.9015 24.039 11.8435 24.6678 11.954 25.278C12.0854 26.0316 12.4979 26.7073 13.1082 27.1685C13.7185 27.6298 14.4811 27.8423 15.242 27.763H15.973C16.4307 27.7785 16.8854 27.6836 17.2988 27.4864C17.7122 27.2892 18.072 26.9955 18.348 26.63C18.6602 26.1976 18.8744 25.7023 18.9754 25.1786C19.0764 24.6549 19.062 24.1155 18.933 23.598Z" fill="#2EB6C7" stroke="#2EB6C7" stroke-width="0.7"/>
</g>
</g>
<defs>
<clipPath id="clip0_2912_7083">
<rect width="32" height="32" fill="white"/>
</clipPath>
</defs>
</svg>
