<svg width="24" height="24" viewBox="0 0 24 24" fill="none" xmlns="http://www.w3.org/2000/svg">
<g clip-path="url(#clip0_1632_10201)">
<path d="M23.3239 10.8289L14.627 2.12892C13.8864 1.39728 12.8935 0.991878 11.8626 1.00012C10.8316 1.00837 9.84513 1.4296 9.11585 2.17299L0.653837 10.8968C0.339931 11.2208 0.126946 11.6322 0.0416695 12.0793C-0.0436073 12.5264 0.00263885 12.9893 0.174581 13.4097C0.346523 13.8301 0.636467 14.1892 1.00798 14.4419C1.3795 14.6946 1.81597 14.8296 2.26251 14.8299H3.03311L3.06099 18.6151C3.05135 19.497 3.30206 20.3613 3.7805 21.0959C4.25893 21.8304 4.94297 22.4011 5.74364 22.7337C6.1986 22.9098 6.68117 23.0001 7.16778 23H7.17589C8.69725 23 10.2501 22.2103 11.8156 20.6473C12.9983 22.0227 14.6646 22.8673 16.4535 22.9982H16.4661C16.953 22.9979 17.4358 22.9077 17.8911 22.7319C18.6889 22.3993 19.3704 21.8303 19.8477 21.0983C20.325 20.3664 20.5761 19.5052 20.5684 18.6261L20.5954 14.7886H21.7387C22.1881 14.7878 22.6271 14.6508 22.9999 14.3948C23.3727 14.1388 23.6624 13.7754 23.8321 13.351C24.0019 12.9266 24.0441 12.4602 23.9533 12.0112C23.8625 11.5623 23.6428 11.151 23.3221 10.8298M19.6313 12.817C19.4494 12.8257 19.2737 12.8863 19.1241 12.992C18.9744 13.0977 18.857 13.2442 18.7851 13.4148C18.7176 13.5443 18.6786 13.6872 18.6707 13.8335L18.6365 18.6252C18.646 19.1053 18.5148 19.5773 18.2596 19.9807C18.0044 20.3842 17.637 20.7007 17.2043 20.8898C15.9881 21.359 14.356 20.572 12.7032 18.7382C12.6167 18.5634 12.4811 18.4188 12.3137 18.323C12.1463 18.2271 11.9547 18.1843 11.7634 18.2001C11.7019 18.2114 11.6416 18.2286 11.5833 18.2515C11.5396 18.2605 11.4966 18.2728 11.4546 18.2882C11.4104 18.3092 11.368 18.3338 11.3277 18.3617C11.2727 18.3871 11.2202 18.4178 11.171 18.4535C11.142 18.4865 11.1153 18.5215 11.0909 18.5582C9.38051 20.527 7.67912 21.3783 6.42872 20.8971C5.99273 20.7074 5.62247 20.3888 5.36573 19.9824C5.10899 19.5759 4.97755 19.1003 4.98837 18.617L4.95326 13.8253C4.92682 13.575 4.81593 13.3419 4.63956 13.1658C4.46318 12.9898 4.23229 12.8817 3.98643 12.8602H2.25531C2.19039 12.8598 2.12701 12.8399 2.07309 12.803C2.01917 12.7662 1.9771 12.7139 1.95213 12.6528C1.92716 12.5916 1.92041 12.5244 1.9327 12.4593C1.945 12.3943 1.97578 12.3344 2.02125 12.2871L10.4833 3.5633C10.8515 3.18771 11.3496 2.97473 11.8702 2.97026C12.3909 2.96579 12.8924 3.1702 13.2667 3.53942L21.9637 12.2421C22.0103 12.2888 22.0422 12.3486 22.0554 12.4138C22.0686 12.479 22.0625 12.5467 22.0379 12.6084C22.0134 12.6701 21.9713 12.723 21.9173 12.7603C21.8632 12.7976 21.7994 12.8176 21.7342 12.8179L19.6313 12.817Z" fill="#434344"/>
<path d="M11.7958 10.6214C11.6986 10.6214 11.6004 10.6214 11.5023 10.6288C10.6558 10.6925 9.86844 11.0952 9.31191 11.7489C8.75537 12.4027 8.47487 13.2544 8.53161 14.1183C8.53161 15.65 9.37151 17.5582 11.027 19.7888C11.1172 19.9105 11.2339 20.0093 11.3678 20.0772C11.5018 20.1452 11.6493 20.1806 11.7989 20.1806C11.9485 20.1806 12.0961 20.1452 12.2301 20.0772C12.364 20.0093 12.4806 19.9105 12.5709 19.7888C14.2255 17.55 15.0663 15.6427 15.0663 14.1367C15.072 14.0354 15.0741 13.9341 15.0726 13.8327C15.0548 12.9642 14.7004 12.1383 14.0869 11.5359C13.4734 10.9335 12.6508 10.6036 11.7994 10.6187M13.1335 14.0788C12.9776 15.3202 12.5185 16.5018 11.7985 17.5151C11.0807 16.5043 10.6221 15.3266 10.4644 14.0889C10.4571 14.0055 10.4571 13.9216 10.4644 13.8382C10.4951 13.4989 10.6487 13.1834 10.8953 12.9535C11.1418 12.7236 11.4635 12.5957 11.7976 12.5948C11.839 12.5948 11.8804 12.5948 11.9218 12.6013C12.2739 12.6346 12.5988 12.8085 12.8257 13.0851C13.0527 13.3617 13.1633 13.7194 13.1335 14.0788Z" fill="#279EAE"/>
</g>
<defs>
<clipPath id="clip0_1632_10201">
<rect width="24" height="24" fill="white"/>
</clipPath>
</defs>
</svg>
