<svg width="48" height="48" viewBox="0 0 48 48" fill="none" xmlns="http://www.w3.org/2000/svg">
<g clip-path="url(#clip0_477_2678)">
<rect width="48" height="48" rx="24" fill="#5AB4C5"/>
<path d="M36.0837 24.558L36.0747 24.466C35.9437 23.1299 35.8187 21.7932 35.6997 20.456C35.6661 20.2117 35.5458 19.9876 35.3608 19.8246C35.1758 19.6616 34.9383 19.5705 34.6917 19.568H31.5207C31.2523 19.568 30.9949 19.6746 30.8051 19.8644C30.6153 20.0542 30.5087 20.3116 30.5087 20.58C30.5087 20.8484 30.6153 21.1058 30.8051 21.2956C30.9949 21.4854 31.2523 21.592 31.5207 21.592H33.7827L33.9687 23.857H30.6907C30.5552 23.8528 30.4202 23.8758 30.2938 23.9247C30.1673 23.9736 30.052 24.0474 29.9546 24.1418C29.8573 24.2361 29.7799 24.3491 29.727 24.4739C29.6741 24.5988 29.6469 24.7329 29.6469 24.8685C29.6469 25.0041 29.6741 25.1383 29.727 25.2631C29.7799 25.388 29.8573 25.5009 29.9546 25.5953C30.052 25.6896 30.1673 25.7634 30.2938 25.8124C30.4202 25.8613 30.5552 25.8843 30.6907 25.88H34.1487L34.3277 27.82H29.6097L28.6237 26.362C28.4815 26.1438 28.2594 25.9901 28.005 25.934C27.7507 25.8779 27.4845 25.9239 27.2637 26.062C27.1485 26.129 27.0478 26.2183 26.9676 26.3248C26.8874 26.4312 26.8293 26.5526 26.7967 26.6818C26.7641 26.8111 26.7577 26.9455 26.7778 27.0772C26.7978 27.209 26.8441 27.3354 26.9137 27.449C27.3761 28.1802 27.8511 28.9034 28.3387 29.618C28.8935 30.4381 29.4359 31.2665 29.9657 32.103H20.5987L19.1627 29.603L21.2377 28.541L21.3377 28.452C21.4256 28.356 21.4937 28.2436 21.5381 28.1213C21.5825 27.9989 21.6024 27.869 21.5965 27.739C21.5907 27.6089 21.5593 27.4813 21.504 27.3634C21.4488 27.2456 21.3709 27.1397 21.2747 27.052C21.09 26.8917 20.8555 26.8 20.611 26.7925C20.3665 26.7851 20.1269 26.8622 19.9327 27.011L18.1207 27.845L14.5337 21.589H16.5677C16.8361 21.589 17.0935 21.4824 17.2833 21.2926C17.4731 21.1028 17.5797 20.8454 17.5797 20.577C17.5797 20.3086 17.4731 20.0512 17.2833 19.8614C17.0935 19.6716 16.8361 19.565 16.5677 19.565H12.8107C12.5503 19.5618 12.2986 19.6592 12.1082 19.8369C11.9178 20.0146 11.8034 20.259 11.7887 20.519L11.1037 33.055C11.095 33.1883 11.1128 33.3219 11.1561 33.4482C11.1993 33.5746 11.2672 33.6911 11.3557 33.791C11.4477 33.8934 11.5592 33.9763 11.6837 34.0348C11.8082 34.0934 11.9432 34.1264 12.0807 34.132H35.8247C36.0877 34.1193 36.3352 34.0042 36.5144 33.8114C36.6936 33.6185 36.7903 33.3632 36.7837 33.1C36.6377 30.317 36.3557 27.39 36.0837 24.559M34.6947 32.108H32.3587L30.9187 29.843H34.5037L34.6947 32.108ZM18.2777 32.108H13.2217L13.5777 23.95L18.2777 32.108Z" fill="white"/>
<path d="M28.35 11.273C27.1018 10.0719 25.4368 9.401 23.7046 9.401C21.9723 9.401 20.3073 10.0719 19.0591 11.273C18.4401 11.8686 17.9477 12.583 17.6114 13.3734C17.2751 14.1639 17.1019 15.014 17.1021 15.873C17.2986 17.5352 17.8625 19.1328 18.7531 20.55C19.9542 22.7013 21.3425 24.7425 22.9021 26.65L23.023 26.768C23.2327 26.9416 23.5022 27.0256 23.7734 27.0021C24.0445 26.9785 24.2955 26.8492 24.472 26.642C25.675 25.1894 26.7756 23.6551 27.766 22.05C28.15 21.425 28.406 20.991 28.646 20.562C29.5463 19.1276 30.1148 17.5102 30.3101 15.828C30.3046 14.9765 30.1285 14.1347 29.7922 13.3523C29.4559 12.57 28.9662 11.8629 28.3521 11.273M28.252 15.794C28.0685 17.1403 27.5883 18.429 26.8461 19.567C25.909 21.2409 24.8526 22.845 23.6851 24.367C22.5366 22.8295 21.4875 21.2202 20.544 19.549C19.813 18.4273 19.3372 17.1588 19.1501 15.833C19.1582 14.6688 19.6254 13.5548 20.4501 12.733C21.3223 11.9131 22.475 11.4577 23.6721 11.46H23.717C24.9047 11.4571 26.0474 11.9136 26.9061 12.734C27.322 13.1293 27.655 13.6035 27.8858 14.1289C28.1166 14.6542 28.2404 15.2203 28.25 15.794" fill="white"/>
<path d="M23.647 13.1121V13.2411L23.64 13.1121C22.9659 13.1323 22.3238 13.4042 21.84 13.8741C21.3677 14.3518 21.1043 14.9973 21.1075 15.6691C21.1106 16.3408 21.3802 16.9839 21.857 17.4571C22.3418 17.9232 22.9846 18.1893 23.657 18.2021C24.3364 18.1956 24.986 17.9219 25.465 17.4401C25.9375 16.9634 26.2014 16.3188 26.1987 15.6477C26.1961 14.9766 25.9272 14.334 25.451 13.8611C24.9751 13.3848 24.3303 13.1156 23.657 13.1121M24.536 15.6601C24.5363 15.7692 24.5149 15.8773 24.473 15.9781C24.4311 16.0788 24.3696 16.1703 24.292 16.2471C24.1195 16.4098 23.8921 16.5015 23.655 16.5041C23.4296 16.5041 23.2134 16.4145 23.054 16.2551C22.8946 16.0957 22.805 15.8795 22.805 15.6541C22.805 15.4286 22.8946 15.2124 23.054 15.053C23.2134 14.8936 23.4296 14.8041 23.655 14.8041C23.8929 14.807 24.1211 14.8987 24.295 15.0611L24.31 15.0751C24.4587 15.2318 24.5408 15.44 24.539 15.6561" fill="white"/>
</g>
<defs>
<clipPath id="clip0_477_2678">
<rect width="48" height="48" rx="24" fill="white"/>
</clipPath>
</defs>
</svg>
