<svg width="22" height="21" viewBox="0 0 22 21" fill="none" xmlns="http://www.w3.org/2000/svg">
<g id="&#231;&#187;&#132; 2367">
<g id="Group 11634">
<path id="&#232;&#183;&#175;&#229;&#190;&#132; 1529" d="M20.5288 5.07788L19.0879 3.8479C19.0033 3.78001 18.8985 3.74191 18.79 3.73956C18.6816 3.73721 18.5753 3.77074 18.4878 3.8349C18.3106 3.96 18.1068 4.04133 17.8921 4.07227C17.6774 4.10321 17.4582 4.08286 17.2529 4.01288C17.1068 3.95866 16.9737 3.87463 16.8618 3.76618C16.7499 3.65772 16.6618 3.52721 16.603 3.38287C16.5342 3.20338 16.5028 3.01172 16.5107 2.81964C16.5187 2.62756 16.5656 2.4391 16.6489 2.26587C16.6982 2.16964 16.7144 2.05987 16.6948 1.95355C16.6753 1.84724 16.6212 1.75031 16.541 1.67786L15.1011 0.447877C14.7934 0.217979 14.4073 0.118656 14.0269 0.171449C13.6465 0.224242 13.3023 0.424874 13.0689 0.72986L8.61524 5.95087L1.35889 8.27185C1.01012 8.38214 0.705585 8.60091 0.489751 8.89624C0.273916 9.19157 0.158343 9.54809 0.159184 9.91388V19.0289C0.159977 19.4859 0.341903 19.9239 0.665044 20.2471C0.988185 20.5702 1.42583 20.7521 1.88282 20.7529H16.9312C17.3881 20.7521 17.8263 20.5702 18.1494 20.2471C18.4726 19.9239 18.654 19.4859 18.6548 19.0289V10.2499C18.6544 10.0084 18.6027 9.76976 18.5029 9.54987L20.5689 7.12891C20.833 6.85034 20.9772 6.47896 20.9697 6.09516C20.9622 5.71135 20.8036 5.34594 20.5288 5.07788ZM17.7158 15.1399H13.1221C12.8982 15.1399 12.6837 15.2288 12.5254 15.3871C12.3671 15.5454 12.2778 15.76 12.2778 15.9839C12.2778 16.0099 12.292 16.0339 12.293 16.0569C12.3054 16.1868 12.3486 16.3119 12.419 16.4219C12.4339 16.4474 12.4509 16.4718 12.4692 16.4949C12.4835 16.5203 12.4994 16.5447 12.5171 16.5679C12.6551 16.7071 12.838 16.7931 13.0332 16.8109C13.0622 16.8183 13.0915 16.8243 13.1211 16.8289H17.7148V19.0289C17.7148 19.2368 17.6324 19.4362 17.4854 19.5833C17.3383 19.7303 17.1391 19.8129 16.9312 19.8129H1.88282C1.67505 19.8123 1.47602 19.7296 1.32911 19.5826C1.18219 19.4357 1.09965 19.2366 1.09913 19.0289V10.2499C1.09965 10.0422 1.18216 9.84323 1.32911 9.69647C1.47605 9.54972 1.67514 9.46712 1.88282 9.46686H16.9312C16.9988 9.45935 17.0671 9.46539 17.1323 9.48462C17.1976 9.50385 17.2583 9.53588 17.311 9.57886C17.3365 9.59277 17.3606 9.60847 17.3838 9.62586C17.4803 9.69302 17.5605 9.78161 17.6172 9.88464C17.6739 9.98767 17.7058 10.1024 17.7109 10.2198C17.7109 10.2308 17.7168 10.2389 17.7168 10.2509V15.1369L17.7158 15.1399ZM9.21583 6.73987L10.375 5.38086L11.6172 3.93189C11.6557 4.02207 11.7168 4.10062 11.7949 4.15985C11.8563 4.20365 11.926 4.23493 11.9995 4.25189C12.073 4.26886 12.1488 4.27123 12.2231 4.25879C12.2975 4.24635 12.3687 4.21934 12.4326 4.17938C12.4966 4.13942 12.5524 4.08727 12.5962 4.02588C12.64 3.96449 12.671 3.89508 12.688 3.8216C12.705 3.74812 12.7073 3.67198 12.6948 3.5976C12.6824 3.52322 12.6557 3.45202 12.6157 3.38806C12.5758 3.32411 12.5233 3.26865 12.4619 3.22485C12.4082 3.18866 12.3489 3.16196 12.2861 3.14588L13.8159 1.35486C13.8828 1.2649 13.9825 1.20484 14.0933 1.18762C14.204 1.17041 14.3172 1.19745 14.4082 1.26288L15.6001 2.27991C15.4482 2.77967 15.463 3.31526 15.6421 3.80591C15.6896 3.929 15.7486 4.04718 15.8189 4.15888C15.9996 4.44913 16.2528 4.68758 16.5532 4.85089C16.6312 4.89721 16.7118 4.93859 16.7949 4.97485C17.0935 5.0844 17.4115 5.13206 17.729 5.11487C18.0465 5.09768 18.3571 5.01602 18.6421 4.87488L19.834 5.89191C19.9124 5.97207 19.9565 6.07975 19.9565 6.1919C19.9565 6.30404 19.9124 6.41172 19.834 6.49188L18.7051 7.81586C18.6765 7.73064 18.628 7.65339 18.564 7.59033C18.4999 7.52727 18.4221 7.48021 18.3364 7.45294C18.2508 7.42568 18.1595 7.41899 18.0708 7.43341C17.9821 7.44784 17.8983 7.48295 17.8257 7.53595C17.7531 7.58895 17.6936 7.6583 17.6528 7.7384C17.612 7.81851 17.591 7.90711 17.5908 7.99701C17.5907 8.08691 17.6118 8.17562 17.6523 8.25586C17.6929 8.3361 17.7518 8.40562 17.8242 8.45886L17.8408 8.47089C17.9081 8.51817 17.985 8.55024 18.0659 8.56488L17.8662 8.79889C17.5894 8.61894 17.2662 8.52307 16.936 8.52289H7.69581L9.21583 6.73987ZM7.45801 7.30188L6.41602 8.52289H3.64209L7.45801 7.30188Z" fill="#0B0D0E"/>
<path id="Path 11484" d="M16.9331 20.9159H1.8892C1.38975 20.9143 0.91131 20.7151 0.558147 20.362C0.204983 20.0088 0.00552951 19.5303 0.0039473 19.0309V9.91587C0.00129126 9.51555 0.127578 9.12493 0.363811 8.80173C0.600044 8.47853 0.933723 8.23982 1.31596 8.12082L8.5269 5.81284L12.9512 0.626868C13.2122 0.292201 13.5937 0.0727716 14.0142 0.0154173C14.4347 -0.041937 14.8611 0.067318 15.2022 0.319861L16.6499 1.55588C16.7573 1.65218 16.8301 1.78122 16.8565 1.92301C16.8829 2.0648 16.8615 2.21139 16.7959 2.33988C16.723 2.49302 16.682 2.65934 16.6753 2.82883C16.6686 2.99833 16.6962 3.16742 16.7569 3.32584C16.8076 3.44906 16.8837 3.56047 16.9795 3.65305C17.0754 3.74563 17.1891 3.81741 17.314 3.86387C17.4948 3.92428 17.6874 3.94135 17.876 3.91373C18.0647 3.88611 18.244 3.81458 18.3999 3.70487C18.5157 3.62081 18.6563 3.57705 18.7994 3.5803C18.9424 3.58355 19.0801 3.63364 19.1919 3.72288L20.6451 4.96287C20.9494 5.26094 21.1246 5.66639 21.1333 6.09226C21.1421 6.51813 20.9837 6.93051 20.6919 7.24088L18.6919 9.57987C18.7756 9.79404 18.8186 10.0219 18.8189 10.2519V19.0299C18.8178 19.5298 18.6191 20.0088 18.2657 20.3623C17.9122 20.7157 17.433 20.9148 16.9331 20.9159ZM14.233 0.315832C14.0324 0.314856 13.8344 0.360343 13.6543 0.448645C13.4743 0.536947 13.3169 0.665703 13.1949 0.824866L8.7061 6.08585L1.40629 8.42185C1.08957 8.52065 0.812935 8.71858 0.617229 8.98649C0.421522 9.25439 0.316697 9.57806 0.318889 9.90983V19.0259C0.319945 19.4403 0.485283 19.8375 0.778361 20.1306C1.07144 20.4237 1.46887 20.5888 1.88334 20.5899H16.9312C17.3455 20.5886 17.7423 20.4233 18.0352 20.1302C18.3281 19.8372 18.4931 19.4402 18.4942 19.0259V10.2489C18.4941 10.0298 18.4468 9.81325 18.356 9.61387L18.314 9.51987L20.4463 7.01987C20.6818 6.77196 20.8108 6.44168 20.8057 6.09983C20.8007 5.75798 20.6616 5.43169 20.419 5.19083L18.981 3.96488C18.924 3.92053 18.8544 3.89596 18.7823 3.89487C18.7101 3.89379 18.6394 3.91622 18.5811 3.95884C18.3826 4.09826 18.1542 4.18905 17.9141 4.22379C17.674 4.25854 17.4292 4.23628 17.1993 4.15885C17.0314 4.09697 16.8782 4.00081 16.7496 3.8765C16.6209 3.75219 16.5197 3.60248 16.4522 3.43687C16.375 3.23661 16.3396 3.02267 16.3482 2.8082C16.3568 2.59374 16.409 2.38329 16.502 2.18986C16.536 2.12469 16.5476 2.05011 16.5347 1.97776C16.5219 1.90541 16.4855 1.83933 16.4312 1.78983L14.9942 0.563879C14.7738 0.403376 14.5075 0.317828 14.2349 0.319861L14.233 0.315832ZM16.9331 19.9718H1.8892C1.63881 19.971 1.39877 19.8712 1.22172 19.6942C1.04467 19.5171 0.94468 19.2772 0.943889 19.0268V10.2499C0.944418 9.99948 1.04458 9.7595 1.22172 9.58256C1.39886 9.40561 1.63883 9.30615 1.8892 9.30588H16.9361C17.1096 9.29041 17.2822 9.34349 17.417 9.45383C17.4425 9.46664 17.4666 9.48241 17.4883 9.50083C17.6033 9.58182 17.6979 9.68816 17.7652 9.81162C17.8325 9.93508 17.8703 10.0724 17.876 10.2129L17.8843 15.2528L17.7212 15.2989H13.1211C12.9402 15.2997 12.7671 15.3719 12.6392 15.4998C12.5113 15.6277 12.4388 15.8009 12.438 15.9818L12.4532 16.0389C12.4617 16.1439 12.4962 16.2452 12.5533 16.3338C12.5654 16.3557 12.5795 16.3765 12.5953 16.3958C12.6104 16.4221 12.6269 16.4475 12.6451 16.4718C12.7549 16.5738 12.8956 16.6361 13.045 16.6488C13.0779 16.6567 13.1114 16.6627 13.1451 16.6668H17.8789V19.0309C17.8784 19.2816 17.7787 19.5218 17.6011 19.6988C17.4235 19.8758 17.1829 19.9751 16.9322 19.9748L16.9331 19.9718ZM16.9873 9.62388H1.8892C1.72387 9.62414 1.56538 9.68977 1.44828 9.80649C1.33119 9.92321 1.26499 10.0815 1.2642 10.2469V19.0238C1.26525 19.1891 1.33124 19.3472 1.44828 19.4639C1.56532 19.5806 1.72395 19.6463 1.8892 19.6468H16.9361C17.1012 19.6466 17.2597 19.5809 17.3765 19.4641C17.4933 19.3473 17.5589 19.189 17.5591 19.0238V16.9889H13.126C13.0821 16.9848 13.0388 16.9771 12.9961 16.9659C12.7722 16.9427 12.5636 16.8419 12.4063 16.6809C12.3797 16.6493 12.355 16.6158 12.333 16.5808C12.3154 16.5575 12.2992 16.5331 12.2842 16.5078C12.2008 16.3772 12.1501 16.2283 12.1363 16.0738C12.1259 16.0456 12.1204 16.0159 12.1202 15.9859C12.1222 15.7213 12.228 15.4681 12.4151 15.281C12.6022 15.094 12.8556 14.988 13.1202 14.9859H17.5562V10.2608C17.5525 10.1639 17.5264 10.0691 17.4805 9.98362C17.4346 9.89817 17.3699 9.82438 17.2911 9.76786C17.2727 9.75343 17.2532 9.7404 17.233 9.72886C17.1655 9.66818 17.0798 9.63222 16.9893 9.62687L16.9873 9.62388ZM17.8951 9.01383L17.7769 8.93784C17.5263 8.774 17.2335 8.6868 16.9341 8.68686H7.34623L11.6612 3.63083L11.7613 3.86985C11.7887 3.93485 11.8328 3.99143 11.8892 4.03385C11.9333 4.06492 11.983 4.087 12.0357 4.09879C12.0883 4.11058 12.1427 4.11187 12.1958 4.10258C12.249 4.09329 12.2997 4.0736 12.3453 4.04465C12.3908 4.0157 12.43 3.97806 12.461 3.93387C12.4925 3.8896 12.5153 3.8395 12.5274 3.78647C12.5394 3.73345 12.5406 3.67855 12.5313 3.62498C12.522 3.5714 12.5024 3.52019 12.4732 3.47434C12.444 3.42849 12.4055 3.38887 12.3609 3.35782C12.3235 3.33237 12.2823 3.31375 12.2383 3.30283L11.9913 3.23685L13.691 1.25284C13.7844 1.13283 13.9208 1.05351 14.0713 1.03135C14.2218 1.00918 14.375 1.04586 14.4991 1.13383L15.7813 2.22684L15.751 2.32688C15.6088 2.79383 15.6225 3.29436 15.7901 3.75284C15.8347 3.86531 15.8897 3.97342 15.9541 4.07584C16.12 4.34293 16.3525 4.56212 16.6289 4.71183C16.7022 4.75714 16.7788 4.79694 16.858 4.83085C17.1352 4.93013 17.4297 4.97248 17.7237 4.9553C18.0177 4.93811 18.3051 4.86178 18.5689 4.73087L18.669 4.68485L19.9419 5.76987C19.9978 5.82372 20.0425 5.88808 20.0733 5.95926C20.1041 6.03045 20.1206 6.107 20.1216 6.18455C20.1226 6.26209 20.108 6.33908 20.0791 6.41105C20.0502 6.48302 20.0075 6.54856 19.9532 6.60386L18.6441 8.13987L18.5562 7.86588C18.53 7.78621 18.48 7.71643 18.4131 7.66587C18.3251 7.60131 18.2149 7.57419 18.107 7.59049C17.999 7.60679 17.902 7.66517 17.837 7.75284C17.8043 7.79627 17.7805 7.84576 17.7671 7.89841C17.7537 7.95106 17.7509 8.00586 17.7588 8.05961C17.7667 8.11336 17.7855 8.16496 17.8135 8.21152C17.8415 8.25809 17.8782 8.29865 17.9219 8.33085C17.9736 8.36989 18.0337 8.39686 18.0972 8.40983L18.3721 8.45988L17.8951 9.01383ZM8.04301 8.36484H16.9341C17.174 8.36436 17.4119 8.41021 17.6343 8.49985C17.5422 8.40253 17.4783 8.28174 17.4502 8.15073C17.4221 8.01972 17.4306 7.88353 17.4747 7.75699C17.5187 7.63046 17.5968 7.51847 17.7002 7.43326C17.8036 7.34806 17.9284 7.2929 18.0611 7.27384C18.2537 7.2465 18.4492 7.29571 18.606 7.41086C18.655 7.44774 18.6993 7.49075 18.7373 7.53885L19.7159 6.39084C19.7418 6.36635 19.7629 6.33695 19.7774 6.30436C19.7918 6.27177 19.7996 6.23666 19.8003 6.20103C19.8011 6.16539 19.7948 6.12994 19.7818 6.09678C19.7687 6.06361 19.749 6.0334 19.7242 6.00785L18.6241 5.06785C18.0301 5.33134 17.3569 5.35325 16.7471 5.12888C16.6544 5.08902 16.5645 5.04292 16.4781 4.99088C16.1555 4.81512 15.884 4.55877 15.69 4.24686C15.6147 4.12603 15.5508 3.9985 15.4991 3.86588C15.3214 3.37559 15.2951 2.8432 15.4239 2.33787L14.3111 1.38785C14.2541 1.35099 14.1854 1.33732 14.1187 1.34958C14.052 1.36185 13.9923 1.39912 13.9522 1.45383L12.5523 3.09183H12.5572C12.6449 3.1492 12.7192 3.22463 12.7754 3.31309C12.8316 3.40154 12.8682 3.501 12.8829 3.60477C12.8975 3.70854 12.8899 3.81426 12.8604 3.91483C12.8309 4.0154 12.7803 4.10853 12.712 4.18796C12.6436 4.26739 12.559 4.33128 12.4639 4.3754C12.3688 4.41952 12.2655 4.44282 12.1607 4.44376C12.0559 4.4447 11.9523 4.42325 11.8565 4.38083C11.7606 4.33842 11.6748 4.27604 11.605 4.19785L8.04301 8.36484ZM6.4893 8.68485H3.64018L3.59233 8.37186L7.94487 6.97886L6.4893 8.68485ZM4.66899 8.36387H6.33988L6.96928 7.62784L4.66899 8.36387Z" fill="#171B1D"/>
</g>
<g id="Group 11635">
<path id="&#232;&#183;&#175;&#229;&#190;&#132; 1530" d="M13.8737 4.27888C13.7615 4.22376 13.6337 4.21011 13.5124 4.2403C13.391 4.2705 13.2844 4.34257 13.2111 4.44385C13.2015 4.46112 13.1931 4.47921 13.1867 4.49787C13.1206 4.61241 13.0994 4.7474 13.1271 4.87672C13.1548 5.00603 13.2298 5.12049 13.3371 5.19788C13.4336 5.26075 13.5471 5.29221 13.6623 5.28791C13.7774 5.28361 13.8881 5.24379 13.9796 5.1739C14.0203 5.146 14.0571 5.11228 14.088 5.07386C14.1292 5.01628 14.1585 4.95117 14.1745 4.88221C14.1905 4.81325 14.1929 4.74183 14.1813 4.672C14.1697 4.60217 14.1441 4.5353 14.1066 4.47523C14.0692 4.41515 14.0206 4.36301 13.963 4.32184C13.935 4.30431 13.9048 4.28992 13.8737 4.27888Z" fill="#171B1D"/>
<path id="Path 11485" d="M13.6387 5.44786C13.4989 5.44792 13.362 5.40761 13.2446 5.33183C13.1035 5.23189 13.0052 5.08291 12.9682 4.91404C12.9312 4.74517 12.9585 4.56856 13.0449 4.4188C13.0492 4.40225 13.056 4.38642 13.0649 4.37181C13.158 4.23549 13.296 4.13648 13.4551 4.0922C13.6141 4.04792 13.7834 4.06121 13.9336 4.1298C13.9561 4.13751 13.9785 4.14656 14 4.15684H14.0259L14.0639 4.1948C14.2112 4.30419 14.3094 4.46702 14.3379 4.64823C14.3663 4.82945 14.3225 5.01458 14.2158 5.1638C14.1739 5.21748 14.124 5.2644 14.0679 5.30284C13.9449 5.39737 13.7938 5.44839 13.6387 5.44786ZM13.6387 4.38584C13.5801 4.38595 13.5228 4.39985 13.4707 4.42643C13.4186 4.45302 13.3733 4.4915 13.3388 4.5388L13.3247 4.57884C13.2786 4.65872 13.2638 4.75288 13.2832 4.84306C13.3026 4.93323 13.3548 5.01296 13.4297 5.06681C13.4984 5.10885 13.5782 5.12914 13.6587 5.12504C13.7391 5.12094 13.8167 5.09262 13.8808 5.0438C13.9112 5.02343 13.9382 4.99849 13.9609 4.96983C14.0121 4.89489 14.0342 4.80405 14.0239 4.71391C14.0136 4.62376 13.9715 4.5403 13.9048 4.4788H13.896L13.8647 4.44786C13.8507 4.44133 13.8364 4.43562 13.8218 4.43083L13.8027 4.42283C13.7509 4.39801 13.6941 4.38537 13.6367 4.38584H13.6387Z" fill="#333333"/>
</g>
<g id="Group 11636">
<path id="&#232;&#183;&#175;&#229;&#190;&#132; 1531" d="M14.7249 5.52602C14.663 5.61283 14.6285 5.71599 14.6252 5.82253C14.622 5.92907 14.6503 6.03422 14.7068 6.12459C14.7633 6.21497 14.8454 6.28653 14.9426 6.33028C15.0398 6.37403 15.1476 6.388 15.2527 6.37038C15.3578 6.35277 15.4553 6.30439 15.533 6.23134C15.6106 6.1583 15.6652 6.06384 15.6892 5.95998C15.7132 5.85612 15.7055 5.74753 15.6677 5.64785C15.63 5.54817 15.5636 5.46189 15.4768 5.39998C15.4192 5.35886 15.3539 5.32954 15.2849 5.31362C15.2159 5.29769 15.1448 5.29551 15.075 5.30721C15.0051 5.31891 14.9382 5.34425 14.8782 5.3818C14.8181 5.41934 14.7659 5.46835 14.7249 5.52602Z" fill="#171B1D"/>
<path id="Path 11486" d="M15.1615 6.53891C15.0329 6.53882 14.907 6.50328 14.7973 6.43625C14.6875 6.36922 14.5982 6.27327 14.5394 6.15891C14.4807 6.04455 14.4544 5.91618 14.4638 5.78794C14.4731 5.65969 14.5179 5.53654 14.5927 5.43192C14.6461 5.35699 14.7138 5.29333 14.7919 5.2446C14.87 5.19587 14.957 5.16303 15.0477 5.14792C15.1431 5.13249 15.2404 5.13692 15.3339 5.16098C15.4274 5.18505 15.5147 5.22822 15.5907 5.28775C15.6668 5.34728 15.73 5.42192 15.7758 5.50693C15.8216 5.59194 15.8494 5.68547 15.8573 5.78171C15.8652 5.87795 15.853 5.9748 15.8217 6.06614C15.7903 6.15747 15.74 6.24136 15.6747 6.31247C15.6094 6.38359 15.5301 6.44037 15.4418 6.47934C15.3534 6.51832 15.2581 6.53862 15.1615 6.53891ZM15.1615 5.45993C15.1404 5.45994 15.1193 5.46193 15.0985 5.46592C15.0494 5.47378 15.0026 5.49134 14.9603 5.51761C14.9181 5.54388 14.8812 5.57835 14.8524 5.61893C14.8233 5.65925 14.8023 5.70491 14.7909 5.75333C14.7795 5.80175 14.7779 5.85196 14.786 5.90104C14.7941 5.95012 14.8119 5.99708 14.8383 6.03928C14.8646 6.08148 14.8988 6.11805 14.9394 6.14689C15.0002 6.19085 15.0728 6.21572 15.1478 6.2183C15.2229 6.22087 15.297 6.20104 15.3607 6.16135C15.4245 6.12166 15.475 6.06393 15.5058 5.99546C15.5365 5.92699 15.5462 5.85088 15.5336 5.77689C15.5183 5.68884 15.4724 5.60895 15.4042 5.55118C15.336 5.49342 15.2499 5.46148 15.1605 5.46091L15.1615 5.45993Z" fill="#333333"/>
</g>
<g id="Group 11637">
<path id="&#232;&#183;&#175;&#229;&#190;&#132; 1532" d="M16.7901 7.44293C16.9128 7.418 17.0233 7.35207 17.1036 7.25598C17.1839 7.15989 17.2293 7.03933 17.232 6.91412C17.2348 6.78892 17.1947 6.66649 17.1187 6.56696C17.0427 6.46742 16.9351 6.39671 16.8136 6.36639C16.692 6.33608 16.5641 6.34797 16.4503 6.40015C16.3364 6.45232 16.2435 6.54167 16.1871 6.6535C16.1307 6.76533 16.114 6.89301 16.1397 7.01556C16.1655 7.13812 16.2325 7.24829 16.3292 7.32794L16.3678 7.35596C16.4282 7.39898 16.4972 7.42893 16.5699 7.44391C16.6426 7.45889 16.7176 7.45854 16.7901 7.44293Z" fill="#333333"/>
<path id="Path 11487" d="M16.6758 7.6149C16.5323 7.61496 16.3926 7.57022 16.2759 7.48691C16.2594 7.47628 16.2439 7.46461 16.229 7.45193C16.0919 7.33452 16.0055 7.16864 15.9878 6.98898C15.97 6.80933 16.0223 6.62979 16.1338 6.48782C16.2453 6.34585 16.4072 6.25246 16.5859 6.22714C16.7647 6.20182 16.9462 6.24649 17.0928 6.3519C17.2397 6.45699 17.3399 6.61523 17.372 6.793C17.4042 6.97076 17.366 7.15407 17.2651 7.30392C17.1998 7.39939 17.112 7.47751 17.0097 7.53152C16.9075 7.58554 16.7934 7.61381 16.6777 7.61392L16.6758 7.6149ZM16.6582 6.52689C16.6004 6.52587 16.5428 6.53838 16.4907 6.56338C16.4386 6.58838 16.3932 6.62523 16.3579 6.67093C16.2962 6.74991 16.2683 6.8501 16.2803 6.94962C16.2922 7.04913 16.3431 7.13988 16.4219 7.20193L16.456 7.22488C16.4981 7.25492 16.546 7.27583 16.5967 7.28616C16.6473 7.2965 16.6995 7.29609 16.75 7.28494C16.8218 7.27068 16.8878 7.2356 16.9399 7.18411C16.992 7.13262 17.0278 7.06695 17.0429 6.99527C17.0581 6.92359 17.0517 6.84907 17.0249 6.78091C16.998 6.71276 16.952 6.65398 16.8921 6.61191C16.8258 6.55891 16.743 6.52904 16.6582 6.52689Z" fill="#171B1D"/>
</g>
</g>
</svg>
