<svg width="24" height="24" viewBox="0 0 24 24" fill="none" xmlns="http://www.w3.org/2000/svg">
<g clip-path="url(#clip0_1626_4975)">
<path d="M4.95738 1.90847C5.24868 1.90847 5.53343 1.998 5.77564 2.16572C6.01784 2.33344 6.20662 2.57183 6.31809 2.85074C6.42957 3.12966 6.45874 3.43657 6.40191 3.73266C6.34508 4.02875 6.2048 4.30073 5.99883 4.5142C5.79285 4.72767 5.53042 4.87304 5.24472 4.93194C4.95902 4.99084 4.66288 4.96061 4.39376 4.84508C4.12464 4.72955 3.89461 4.53391 3.73278 4.28289C3.57094 4.03188 3.48456 3.73676 3.48456 3.43487C3.48456 3.23442 3.52266 3.03594 3.59667 2.85074C3.67069 2.66555 3.77917 2.49729 3.91594 2.35555C4.0527 2.21381 4.21507 2.10137 4.39376 2.02467C4.57245 1.94796 4.76397 1.90847 4.95738 1.90847ZM4.95738 0C4.30187 0 3.66108 0.201451 3.11605 0.578879C2.57101 0.956308 2.14621 1.49276 1.89536 2.1204C1.6445 2.74805 1.57887 3.43868 1.70675 4.10498C1.83463 4.77128 2.15029 5.38332 2.61381 5.86369C3.07732 6.34407 3.66788 6.67121 4.31079 6.80375C4.95371 6.93628 5.6201 6.86826 6.22572 6.60828C6.83133 6.3483 7.34896 5.90805 7.71314 5.34319C8.07732 4.77832 8.2717 4.11423 8.2717 3.43487C8.27072 2.5242 7.92122 1.65112 7.29988 1.00717C6.67853 0.36323 5.83609 0.00101638 4.95738 0Z" fill="#2EB6C7"/>
<path d="M11.6628 24H11.447C10.9919 24.0013 10.5412 23.909 10.1208 23.7286C9.70044 23.5481 9.31874 23.2831 8.99781 22.9488L2.53962 16.2557C2.21389 15.9232 1.95489 15.5272 1.77756 15.0904C1.60022 14.6537 1.50806 14.1849 1.50637 13.711C1.50469 13.2372 1.59352 12.7677 1.76775 12.3296C1.94197 11.8915 2.19815 11.4935 2.5215 11.1585C2.84486 10.8236 3.229 10.5582 3.65177 10.3778C4.07454 10.1974 4.52759 10.1055 4.9848 10.1075C5.442 10.1094 5.89431 10.2051 6.31566 10.389C6.737 10.573 7.11905 10.8415 7.43977 11.1792L15.1531 19.1722L19.2668 14.9117C19.4207 14.7563 19.5433 14.5708 19.6275 14.3659C19.7116 14.161 19.7557 13.9408 19.7571 13.7182C19.7585 13.4955 19.7173 13.2748 19.6357 13.0687C19.5541 12.8627 19.4339 12.6755 19.282 12.518C19.1301 12.3606 18.9496 12.2359 18.7508 12.1513C18.5521 12.0667 18.3391 12.0238 18.1242 12.0252C17.9093 12.0266 17.6969 12.0722 17.4992 12.1593C17.3014 12.2465 17.1224 12.3734 16.9724 12.5328L14.0304 15.5818L12.728 14.232L15.67 11.1831C16.3258 10.5446 17.1956 10.1956 18.0952 10.21C18.9949 10.2243 19.8539 10.6008 20.4905 11.2599C21.127 11.919 21.4912 12.8089 21.5059 13.7413C21.5206 14.6737 21.1847 15.5755 20.5692 16.2557L14.1092 22.9488C13.7886 23.2828 13.4073 23.5477 12.9875 23.7281C12.5676 23.9085 12.1173 24.0009 11.6628 24ZM4.9934 12.0375C4.67237 12.0372 4.35848 12.1356 4.09146 12.3203C3.82443 12.5049 3.6163 12.7676 3.49341 13.0749C3.37051 13.3823 3.33839 13.7205 3.40111 14.0468C3.46382 14.3731 3.61855 14.6728 3.84571 14.9079L10.303 21.5991C10.4533 21.7558 10.6322 21.88 10.8292 21.9645C11.0262 22.049 11.2374 22.0922 11.4507 22.0915H11.6665C11.8794 22.092 12.0903 22.0486 12.287 21.9641C12.4836 21.8796 12.6622 21.7555 12.8123 21.5991L13.8516 20.5219L6.13924 12.529C5.98837 12.3726 5.80913 12.2486 5.61184 12.1642C5.41455 12.0799 5.20311 12.0368 4.98969 12.0375H4.9934Z" fill="#434344"/>
<path d="M18.1517 1.90847C18.443 1.90847 18.7278 1.998 18.97 2.16572C19.2122 2.33344 19.401 2.57183 19.5124 2.85074C19.6239 3.12966 19.6531 3.43657 19.5962 3.73266C19.5394 4.02875 19.3991 4.30073 19.1932 4.5142C18.9872 4.72767 18.7248 4.87304 18.4391 4.93194C18.1534 4.99084 17.8572 4.96061 17.5881 4.84508C17.319 4.72955 17.0889 4.53391 16.9271 4.28289C16.7653 4.03188 16.6789 3.73676 16.6789 3.43487C16.6789 3.03005 16.8341 2.6418 17.1103 2.35555C17.3865 2.06929 17.7611 1.90847 18.1517 1.90847ZM18.1517 0C17.4962 0 16.8554 0.201451 16.3104 0.578879C15.7653 0.956308 15.3405 1.49276 15.0897 2.1204C14.8388 2.74805 14.7732 3.43868 14.9011 4.10498C15.029 4.77128 15.3446 5.38332 15.8081 5.86369C16.2717 6.34407 16.8622 6.67121 17.5051 6.80375C18.148 6.93628 18.8144 6.86826 19.4201 6.60828C20.0257 6.3483 20.5433 5.90805 20.9075 5.34319C21.2717 4.77832 21.466 4.11423 21.466 3.43487C21.4651 2.5242 21.1156 1.65112 20.4942 1.00717C19.8729 0.36323 19.0304 0.00101638 18.1517 0Z" fill="#2EB6C7"/>
</g>
<defs>
<clipPath id="clip0_1626_4975">
<rect width="24" height="24" fill="white"/>
</clipPath>
</defs>
</svg>
