<svg width="24" height="24" viewBox="0 0 24 24" fill="none" xmlns="http://www.w3.org/2000/svg">
<g clip-path="url(#clip0_475_1136)">
<path d="M11.9999 15C13.6567 15 14.9999 13.6569 14.9999 12C14.9999 10.3431 13.6567 9 11.9999 9C10.343 9 8.99988 10.3431 8.99988 12C8.99988 13.6569 10.343 15 11.9999 15Z" stroke="#0B0D0E" stroke-width="2" stroke-linecap="round" stroke-linejoin="round"/>
<path d="M6.28899 6.39966C7.30686 5.35831 8.58987 4.61477 9.99944 4.24927V1.99927H13.999V4.24927C15.4087 4.61465 16.6917 5.35821 17.7095 6.39966L19.6595 5.26931L21.6599 8.73967L19.7099 9.87009C20.0963 11.2671 20.0963 12.7427 19.7099 14.1397L21.6599 15.2701L19.6595 18.7393L17.7095 17.6101C16.6881 18.6447 15.4061 19.3839 13.999 19.7497V21.9997H9.99827V19.7497C8.59126 19.3838 7.30921 18.6446 6.28782 17.6101L4.33782 18.7393L2.33875 15.2701L4.2886 14.1397C3.90098 12.7429 3.90098 11.2669 4.2886 9.87009L2.33875 8.73967L4.33782 5.26931L6.28899 6.39966Z" stroke="#0B0D0E" stroke-width="2" stroke-linecap="round" stroke-linejoin="round"/>
</g>
<defs>
<clipPath id="clip0_475_1136">
<rect width="24" height="24" fill="white"/>
</clipPath>
</defs>
</svg>
