<svg width="24" height="24" viewBox="0 0 24 24" fill="none" xmlns="http://www.w3.org/2000/svg">
<g clip-path="url(#clip0_1632_10208)">
<path d="M22.2278 13.1228C22.0225 13.1228 21.8256 13.2065 21.6804 13.3554C21.5352 13.5043 21.4537 13.7064 21.4537 13.917V14.4491C20.8087 13.8125 20.0105 13.3629 19.1407 13.1463C18.2708 12.9298 17.3605 12.954 16.5028 13.2164C15.6451 13.4789 14.8706 13.9703 14.2586 14.6403C13.6466 15.3103 13.2189 16.135 13.0193 17.0301C12.9738 17.235 13.0094 17.4501 13.1182 17.6282C13.2271 17.8063 13.4003 17.9328 13.5999 17.9801C13.657 17.9937 13.7155 18.0004 13.7741 18C13.9491 17.9993 14.1187 17.9377 14.2553 17.8254C14.3918 17.7131 14.4873 17.5566 14.526 17.3815C14.6641 16.7645 14.9584 16.1957 15.379 15.7325C15.7997 15.2692 16.332 14.928 16.9222 14.743C17.5125 14.5581 18.1398 14.5361 18.741 14.6791C19.3422 14.8222 19.8961 15.1253 20.3467 15.5579H19.8483C19.643 15.5579 19.4461 15.6416 19.3009 15.7905C19.1557 15.9395 19.0741 16.1415 19.0741 16.3521C19.0741 16.5627 19.1557 16.7647 19.3009 16.9136C19.4461 17.0626 19.643 17.1463 19.8483 17.1463H22.2259C22.4312 17.1463 22.6281 17.0626 22.7733 16.9136C22.9184 16.7647 23 16.5627 23 16.3521V13.917C23 13.7064 22.9184 13.5043 22.7733 13.3554C22.6281 13.2065 22.4312 13.1228 22.2259 13.1228" fill="#279EAE"/>
<path d="M22.3937 19.0198C22.194 18.9732 21.9844 19.0097 21.8108 19.1213C21.6373 19.2329 21.514 19.4105 21.4679 19.6152C21.3305 20.232 21.0369 20.8008 20.6167 21.264C20.1965 21.7272 19.6646 22.0684 19.0747 22.2534C18.4848 22.4383 17.8578 22.4603 17.2569 22.3172C16.6561 22.174 16.1027 21.8708 15.6527 21.4382H16.149C16.3542 21.4382 16.5511 21.3546 16.6962 21.2057C16.8414 21.0568 16.9229 20.8549 16.9229 20.6443C16.9229 20.4338 16.8414 20.2318 16.6962 20.0829C16.5511 19.9341 16.3542 19.8504 16.149 19.8504H13.7739C13.5687 19.8504 13.3718 19.9341 13.2267 20.0829C13.0815 20.2318 13 20.4338 13 20.6443V23.0826C13 23.2931 13.0815 23.495 13.2267 23.6439C13.3718 23.7928 13.5687 23.8765 13.7739 23.8765C13.9792 23.8765 14.176 23.7928 14.3212 23.6439C14.4663 23.495 14.5479 23.2931 14.5479 23.0826V22.5506C15.1927 23.1873 15.9907 23.6369 16.8605 23.8536C17.7302 24.0702 18.6404 24.0461 19.4981 23.7837C20.3557 23.5213 21.1301 23.03 21.742 22.36C22.3539 21.6901 22.7814 20.8655 22.9809 19.9705C23.0261 19.7658 22.9904 19.551 22.8816 19.3732C22.7728 19.1954 22.5998 19.0691 22.4005 19.0218" fill="#279EAE"/>
<path d="M19.0912 2.65212H18.4872V0.95306C18.4869 0.700552 18.3906 0.458445 18.2193 0.2798C18.0481 0.101154 17.8158 0.00053711 17.5735 0H4.38759C4.14507 0.00026867 3.91255 0.100769 3.74106 0.279444C3.56958 0.458118 3.47314 0.700376 3.47288 0.95306V2.65212H2.91471C2.67202 2.65239 2.43936 2.75302 2.26785 2.93192C2.09634 3.11081 2 3.35333 2 3.60619V6.98604C2.00026 7.23873 2.09669 7.48099 2.26818 7.65966C2.43966 7.83834 2.67219 7.93883 2.91471 7.9391H3.35599L5.0013 23.1362C5.02178 23.3729 5.1267 23.5929 5.29534 23.7528C5.46398 23.9127 5.68408 24.001 5.91211 24H10.1739C10.4165 24 10.6492 23.8996 10.8207 23.7208C10.9923 23.5421 11.0886 23.2997 11.0886 23.0469C11.0886 22.7942 10.9923 22.5518 10.8207 22.373C10.6492 22.1943 10.4165 22.0939 10.1739 22.0939H6.73329L6.21995 17.9325H10.1739C10.4165 17.9325 10.6492 17.8321 10.8207 17.6534C10.9923 17.4746 11.0886 17.2322 11.0886 16.9794C11.0886 16.7267 10.9923 16.4843 10.8207 16.3055C10.6492 16.1268 10.4165 16.0264 10.1739 16.0264H6.01634L5.64714 12.4212H17.2929C17.5089 12.4206 17.7174 12.3377 17.8788 12.1882C18.0403 12.0386 18.1437 11.8327 18.1696 11.6092L18.5905 7.94316H19.0853C19.3278 7.94289 19.5604 7.84239 19.7319 7.66372C19.9033 7.48504 19.9997 7.24279 20 6.9901V3.60416C19.9997 3.35157 19.9033 3.10942 19.7318 2.9309C19.5603 2.75239 19.3278 2.65212 19.0853 2.65212M16.7591 7.9391L16.4795 10.5151H5.45037L5.18734 7.9391H16.7591ZM17.5657 4.55823H18.1686V6.034H3.83039V4.55823H4.38857C4.63118 4.55796 4.86379 4.4575 5.03543 4.27885C5.20707 4.10021 5.30374 3.85795 5.30426 3.60518V1.90713H16.6578V3.60518C16.658 3.85786 16.7545 4.10012 16.926 4.27879C17.0975 4.45747 17.3299 4.55796 17.5725 4.55823" fill="#434344"/>
</g>
<defs>
<clipPath id="clip0_1632_10208">
<rect width="24" height="24" fill="white"/>
</clipPath>
</defs>
</svg>
