<svg width="24" height="24" viewBox="0 0 24 24" fill="none" xmlns="http://www.w3.org/2000/svg">
<g clip-path="url(#clip0_1632_10212)">
<path d="M11.795 20.9519V20.9667L11.6736 20.892C10.1943 20.0311 8.59085 19.3974 6.91841 19.0127C5.28254 18.6098 3.60433 18.3984 1.91841 18.383C1.52637 18.383 1.14527 18.3977 0.789055 18.4252C0.688556 18.4329 0.587527 18.4201 0.492295 18.3875C0.397062 18.3548 0.309675 18.3032 0.235606 18.2356C0.161536 18.1681 0.102379 18.0863 0.0618382 17.9952C0.0212971 17.904 0.000245062 17.8056 0 17.7061L0 4.17572C0.000157814 3.9941 0.0695412 3.81919 0.194354 3.68577C0.319167 3.55235 0.490267 3.47019 0.673632 3.45563L0.759204 3.44974C1.25672 3.4183 2.26567 3.4016 2.7592 3.40062V2.76305C2.75936 2.58143 2.82875 2.40652 2.95356 2.2731C3.07837 2.13968 3.24947 2.05752 3.43284 2.04296C3.78633 2.01453 4.14086 2.00044 4.49552 2.00072C6.66475 1.98003 8.81135 2.43713 10.7791 3.33873C11.1974 3.55155 11.6043 3.78567 11.998 4.04015C12.3903 3.78673 12.7955 3.55327 13.2119 3.34069C15.1816 2.43713 17.3307 1.97933 19.5025 2.00072C19.8716 2.00072 20.2299 2.01545 20.5672 2.04394C20.7504 2.05827 20.9215 2.14022 21.0464 2.27348C21.1712 2.40674 21.2406 2.58153 21.2408 2.76305V3.4016C21.7672 3.4016 22.8687 3.42125 23.3254 3.45661H23.3831C23.5552 3.48373 23.7118 3.57053 23.8249 3.70144C23.938 3.83234 24 3.99876 24 4.17081V17.6983C23.9998 17.7978 23.9787 17.8962 23.9382 17.9873C23.8976 18.0784 23.8385 18.1603 23.7644 18.2278C23.6903 18.2953 23.6029 18.347 23.5077 18.3796C23.4125 18.4122 23.3114 18.4251 23.2109 18.4174C22.8527 18.3889 22.4726 18.3751 22.0816 18.3751C20.424 18.3869 18.7739 18.5964 17.1672 18.9989C15.5031 19.391 13.9086 20.0292 12.4378 20.892C12.3422 20.9506 12.2341 20.9864 12.1221 20.9968C12.01 21.0072 11.8971 20.9919 11.792 20.9519H11.795ZM12.0577 19.4351C15.1568 17.8149 18.6068 16.9589 22.1134 16.9399C22.2547 16.9399 22.396 16.9399 22.5323 16.9458V4.85946C22.1012 4.85202 21.67 4.84809 21.2388 4.84767L21.2647 15.2727C21.2644 15.3723 21.2434 15.4707 21.2028 15.5618C21.1623 15.6529 21.1031 15.7348 21.0291 15.8023C20.955 15.8698 20.8676 15.9215 20.7724 15.9541C20.6771 15.9867 20.5761 15.9996 20.4756 15.9919C20.1851 15.9693 19.8786 15.9565 19.5721 15.9565C17.0447 15.9353 14.5668 16.6494 12.4478 18.0097C12.3244 18.0959 12.177 18.1421 12.0259 18.1421C11.8747 18.1421 11.7273 18.0959 11.604 18.0097C9.48421 16.6494 7.00572 15.9353 4.47761 15.9565C4.16816 15.9565 3.86468 15.9683 3.57512 15.9919H3.51841C3.32487 15.9919 3.13919 15.9162 3.00197 15.7815C2.86474 15.6467 2.78712 15.4638 2.78607 15.2727L2.7592 4.84964C2.4607 4.84964 1.75721 4.84964 1.46567 4.86142V16.9448C1.60199 16.9448 1.74129 16.9399 1.88259 16.9399C5.42763 16.9526 8.91743 17.8081 12.0567 19.4341L12.0577 19.4351ZM13.8826 4.62565C13.4865 4.82748 13.1018 5.05049 12.7303 5.29367L12.7562 16.1088C14.863 15.0471 17.1968 14.4993 19.5622 14.5114H19.799L19.7731 3.45072H19.5294C17.5838 3.44075 15.6586 3.84133 13.8826 4.62565ZM4.47761 14.5134C6.84247 14.5142 9.17442 15.0605 11.2876 16.1088L11.2657 5.29466C10.8933 5.05026 10.5077 4.82626 10.1104 4.62369C8.33663 3.83872 6.41348 3.43681 4.46965 3.44482H4.22289L4.24776 14.5094H4.47264L4.47761 14.5134Z" fill="#434344"/>
<path d="M14.0202 8.0815C13.8866 8.0511 13.7656 7.97881 13.6715 7.87309C13.5775 7.76738 13.5141 7.63262 13.489 7.48461C13.4639 7.3366 13.478 7.18147 13.5296 7.0374C13.5813 6.89333 13.6684 6.76629 13.7807 6.67115C14.7751 5.8949 15.9819 5.55432 17.1513 5.7199C17.3408 5.74939 17.5078 5.86142 17.6156 6.03134C17.7234 6.20126 17.7632 6.41515 17.7262 6.62596C17.6892 6.83678 17.5784 7.02724 17.4182 7.15546C17.258 7.28367 17.0616 7.33913 16.8721 7.30964C16.0956 7.20425 15.2956 7.42247 14.6267 7.92215C14.54 7.99557 14.4408 8.04791 14.336 8.07545C14.2311 8.10299 14.1233 8.10506 14.0202 8.0815Z" fill="#3B9EAE"/>
<path d="M14.2 11.1073C14.0443 11.0746 13.8999 11.0043 13.7834 10.9042C13.6669 10.8041 13.5829 10.6784 13.541 10.5413C13.4991 10.4042 13.501 10.2613 13.5464 10.1288C13.5918 9.99635 13.679 9.87965 13.7979 9.79203C14.9768 8.98666 16.4913 8.64517 18.0083 8.84266C18.2314 8.87684 18.4342 8.98759 18.5722 9.15055C18.7103 9.31351 18.7722 9.51533 18.7443 9.71162C18.7164 9.90791 18.6011 10.0826 18.4237 10.1972C18.2463 10.3118 18.0213 10.357 17.7983 10.3229C16.7632 10.1992 15.7328 10.4283 14.9173 10.9634C14.8206 11.0348 14.7058 11.0849 14.5814 11.1099C14.4571 11.1348 14.3266 11.1339 14.2 11.1073Z" fill="#3B9EAE"/>
</g>
<defs>
<clipPath id="clip0_1632_10212">
<rect width="24" height="24" fill="white"/>
</clipPath>
</defs>
</svg>
