<svg width="24" height="24" viewBox="0 0 24 24" fill="none" xmlns="http://www.w3.org/2000/svg">
<g clip-path="url(#clip0_1632_11713)">
<g filter="url(#filter0_d_1632_11713)">
<path d="M12.0002 21.3913C17.7632 21.3913 22.435 16.7195 22.435 10.9565C22.435 5.19354 17.7632 0.521729 12.0002 0.521729C6.23724 0.521729 1.56543 5.19354 1.56543 10.9565C1.56543 16.7195 6.23724 21.3913 12.0002 21.3913Z" fill="white"/>
</g>
<path fill-rule="evenodd" clip-rule="evenodd" d="M16.412 7.98972C16.8195 7.58221 16.8195 6.92152 16.412 6.51402C16.0045 6.10651 15.3438 6.10651 14.9363 6.51402L11.9849 9.46542L9.03346 6.51402C8.62596 6.10651 7.96526 6.10651 7.55776 6.51402C7.15026 6.92152 7.15026 7.58222 7.55776 7.98972L10.5092 10.9411L7.55776 13.8925C7.15026 14.3 7.15026 14.9607 7.55776 15.3682C7.96526 15.7757 8.62596 15.7757 9.03346 15.3682L11.9849 12.4168L14.9363 15.3682C15.3438 15.7757 16.0045 15.7757 16.412 15.3682C16.8195 14.9607 16.8195 14.3 16.412 13.8925L13.4606 10.9411L16.412 7.98972Z" fill="#91A0A8"/>
</g>
<defs>
<filter id="filter0_d_1632_11713" x="0.56543" y="0.521729" width="22.8696" height="22.8695" filterUnits="userSpaceOnUse" color-interpolation-filters="sRGB">
<feFlood flood-opacity="0" result="BackgroundImageFix"/>
<feColorMatrix in="SourceAlpha" type="matrix" values="0 0 0 0 0 0 0 0 0 0 0 0 0 0 0 0 0 0 127 0" result="hardAlpha"/>
<feOffset dy="1"/>
<feGaussianBlur stdDeviation="0.5"/>
<feColorMatrix type="matrix" values="0 0 0 0 0 0 0 0 0 0 0 0 0 0 0 0 0 0 0.161 0"/>
<feBlend mode="normal" in2="BackgroundImageFix" result="effect1_dropShadow_1632_11713"/>
<feBlend mode="normal" in="SourceGraphic" in2="effect1_dropShadow_1632_11713" result="shape"/>
</filter>
<clipPath id="clip0_1632_11713">
<rect width="24" height="24" fill="white"/>
</clipPath>
</defs>
</svg>
