<svg width="24" height="24" viewBox="0 0 24 24" fill="none" xmlns="http://www.w3.org/2000/svg">
<g clip-path="url(#clip0_1632_10643)">
<path d="M23.3456 13.7987L23.3372 13.7103C23.2148 12.4262 23.0979 11.1416 22.9867 9.85639C22.9553 9.62159 22.8429 9.40622 22.67 9.24955C22.4971 9.09288 22.2752 9.00536 22.0448 9.00296H19.0815C18.8307 9.00296 18.5901 9.10543 18.4128 9.28783C18.2354 9.47023 18.1358 9.71761 18.1358 9.97556C18.1358 10.2335 18.2354 10.4809 18.4128 10.6633C18.5901 10.8457 18.8307 10.9482 19.0815 10.9482H21.1953L21.3691 13.125H18.3059C18.1792 13.1209 18.0531 13.143 17.9349 13.19C17.8168 13.237 17.709 13.308 17.618 13.3987C17.527 13.4893 17.4547 13.5979 17.4053 13.7179C17.3559 13.8379 17.3304 13.9668 17.3304 14.0971C17.3304 14.2274 17.3559 14.3564 17.4053 14.4764C17.4547 14.5963 17.527 14.7049 17.618 14.7956C17.709 14.8863 17.8168 14.9572 17.9349 15.0042C18.0531 15.0512 18.1792 15.0733 18.3059 15.0692H21.5373L21.7046 16.9337H17.2957L16.3743 15.5325C16.2414 15.3228 16.0338 15.1751 15.7961 15.1211C15.5584 15.0672 15.3097 15.1114 15.1034 15.2442C14.9957 15.3085 14.9016 15.3944 14.8267 15.4967C14.7518 15.599 14.6975 15.7157 14.667 15.8399C14.6365 15.964 14.6305 16.0932 14.6493 16.2199C14.668 16.3465 14.7112 16.468 14.7763 16.5772C15.2084 17.2799 15.6523 17.9749 16.1079 18.6617C16.6264 19.4499 17.1333 20.2461 17.6284 21.05H8.87498L7.53305 18.6473L9.47212 17.6267L9.56557 17.5411C9.64772 17.4488 9.71137 17.3408 9.75287 17.2232C9.79438 17.1056 9.81293 16.9808 9.80746 16.8558C9.80199 16.7308 9.77261 16.6082 9.721 16.4949C9.66939 16.3816 9.59657 16.2799 9.5067 16.1956C9.33405 16.0415 9.11498 15.9534 8.88648 15.9462C8.65798 15.9391 8.43408 16.0132 8.25261 16.1562L6.55932 16.9577L3.2073 10.9453H5.10805C5.35887 10.9453 5.59941 10.8428 5.77677 10.6604C5.95412 10.478 6.05376 10.2306 6.05376 9.97268C6.05376 9.71473 5.95412 9.46734 5.77677 9.28494C5.59941 9.10255 5.35887 9.00008 5.10805 9.00008H1.59717C1.3538 8.99695 1.11864 9.09055 0.940713 9.26136C0.762789 9.43217 0.655825 9.66702 0.642122 9.91694L0.00199818 21.9649C-0.00611245 22.093 0.0105201 22.2214 0.0509393 22.3428C0.0913584 22.4642 0.154762 22.5762 0.237489 22.6723C0.323439 22.7706 0.427665 22.8503 0.544022 22.9066C0.66038 22.9629 0.786513 22.9946 0.914993 23H23.1035C23.3493 22.9878 23.5806 22.8772 23.7481 22.6918C23.9155 22.5065 24.0059 22.2611 23.9997 22.0082C23.8633 19.3335 23.5997 16.5205 23.3456 13.7997M22.0476 21.0548H19.8646L18.5189 18.878H21.8691L22.0476 21.0548ZM6.70603 21.0548H1.98125L2.31393 13.2144L6.70603 21.0548Z" fill="#424343"/>
<path d="M16.2193 1.70136C15.0852 0.609771 13.5725 0 11.9986 0C10.4248 0 8.91212 0.609771 7.77801 1.70136C7.21565 2.24265 6.7683 2.89193 6.46278 3.61029C6.15726 4.32866 5.99986 5.10133 6 5.88201C6.17855 7.39266 6.69094 8.84463 7.5 10.1326C8.59127 12.0878 9.85266 13.9429 11.2695 15.6765L11.3795 15.7838C11.5699 15.9415 11.8148 16.0179 12.0612 15.9965C12.3075 15.975 12.5355 15.8575 12.6959 15.6693C13.7888 14.3491 14.7888 12.9546 15.6887 11.4959C16.0376 10.9279 16.2701 10.5334 16.4882 10.1435C17.3061 8.83987 17.8226 7.36996 18 5.84111C17.995 5.06719 17.835 4.30212 17.5295 3.59109C17.2239 2.88007 16.779 2.2375 16.2211 1.70136M16.1302 5.81021C15.9635 7.03374 15.5272 8.20495 14.8528 9.23924C14.0015 10.7605 13.0417 12.2184 11.9809 13.6017C10.9375 12.2043 9.98433 10.7417 9.12719 9.22288C8.46305 8.20342 8.03071 7.05054 7.86069 5.84565C7.86809 4.78757 8.29252 3.77514 9.04179 3.02826C9.83425 2.28311 10.8815 1.86921 11.9691 1.87132H12.01C13.089 1.86867 14.1272 2.28356 14.9073 3.02917C15.2852 3.38843 15.5878 3.81937 15.7975 4.29684C16.0071 4.77432 16.1196 5.28878 16.1284 5.81021" fill="#279EAE"/>
<path d="M11.9928 3V3.15206L11.9846 3C11.1902 3.02391 10.4335 3.34433 9.86334 3.89823C9.30676 4.46134 8.99628 5.22232 9.00003 6.01416C9.00379 6.80601 9.32148 7.56401 9.88338 8.12181C10.4547 8.67132 11.2122 8.98494 12.0046 9C12.8053 8.99243 13.5708 8.66973 14.1353 8.10177C14.6921 7.53993 15.0031 6.77999 15 5.98892C14.9969 5.19785 14.6799 4.44037 14.1188 3.88291C13.5579 3.32145 12.7981 3.00415 12.0046 3M13.0405 6.00354C13.0408 6.13218 13.0156 6.25961 12.9662 6.3784C12.9169 6.49719 12.8444 6.60498 12.753 6.69548C12.5497 6.88727 12.2817 6.99544 12.0023 6.99843C11.7366 6.99843 11.4818 6.89286 11.294 6.70496C11.1061 6.51705 11.0006 6.2622 11.0006 5.99646C11.0006 5.73073 11.1061 5.47587 11.294 5.28797C11.4818 5.10006 11.7366 4.9945 12.0023 4.9945C12.2826 4.99798 12.5516 5.10602 12.7565 5.29745L12.7742 5.31395C12.9494 5.49866 13.0462 5.74419 13.044 5.99882" fill="#279EAE"/>
</g>
<defs>
<clipPath id="clip0_1632_10643">
<rect width="24" height="24" fill="white"/>
</clipPath>
</defs>
</svg>
