<svg id="Icon_bill_water" data-name="Icon / bill / water" xmlns="http://www.w3.org/2000/svg" width="24" height="24" viewBox="0 0 24 24">
    <defs>
        <style>
            .cls-2{fill:#333}.cls-3{fill:#2eb6c7}
        </style>
    </defs>
    <path id="矩形_6817" data-name="矩形 6817" style="fill:none" d="M0 0h24v24H0z"/>
    <g id="组_11667" data-name="组 11667" transform="translate(3 1)">
        <g id="组_11664" data-name="组 11664" transform="translate(2.592)">
            <path id="路径_1787" data-name="路径 1787" class="cls-2" d="m4625.321 350.081-.018-.018a1.377 1.377 0 0 0-1.931.018c-4.83 5.075-5.481 8.324-5.481 10.834a6.456 6.456 0 1 0 12.913 0c-.004-2.51-.653-5.759-5.483-10.834zm-.978 16.142a5.015 5.015 0 0 1-5.27-5.308c0-2.275.613-5.242 5.158-10.021a.163.163 0 0 1 .117-.052.15.15 0 0 1 .11.052c4.542 4.774 5.152 7.743 5.152 10.021a5.014 5.014 0 0 1-5.268 5.308z" transform="translate(-4617.456 -349.247)"/>
            <path id="路径_11542" data-name="路径 11542" class="cls-2" d="M4624.283 367.775a6.622 6.622 0 0 1-6.893-6.924c0-2.594.665-5.946 5.6-11.134a1.827 1.827 0 0 1 2.55-.031l.03.031c4.936 5.188 5.6 8.54 5.6 11.134a6.631 6.631 0 0 1-6.887 6.924zm0-17.726a.945.945 0 0 0-.67.275c-4.717 4.958-5.354 8.1-5.354 10.527a6.021 6.021 0 1 0 12.042 0c0-2.421-.638-5.566-5.359-10.53l-.013-.013a.923.923 0 0 0-.644-.259zm-.007 16.546a5.429 5.429 0 0 1-5.706-5.744c0-2.359.628-5.43 5.28-10.321a.594.594 0 0 1 .422-.187.606.606 0 0 1 .449.2c4.632 4.87 5.259 7.944 5.259 10.306a5.429 5.429 0 0 1-5.702 5.751zm0-15.251c-4.258 4.545-4.838 7.353-4.838 9.507a4.834 4.834 0 1 0 9.668 0c.005-2.157-.575-4.971-4.825-9.507zm-.2-.213.012.013zm.411-.006-.006.006z" transform="translate(-4617.391 -349.183)"/>
        </g>
        <g id="组_11665" data-name="组 11665" transform="translate(5.11 9.566)">
            <path id="路径_1788" data-name="路径 1788" class="cls-3" d="M4624.282 365.151a3.665 3.665 0 0 1-2.533-4.06.59.59 0 0 0-1.169-.165 4.9 4.9 0 0 0 3.333 5.345.646.646 0 0 0 .182.03.591.591 0 0 0 .186-1.151z" transform="translate(-4620.314 -360.2)"/>
            <path id="路径_11543" data-name="路径 11543" class="cls-3" d="M4624.065 366.487a.47.47 0 0 1-.25-.04 5.108 5.108 0 0 1-3.482-5.583v-.018a.807.807 0 0 1 1.6.243 3.471 3.471 0 0 0 2.383 3.821h.005a.809.809 0 0 1-.254 1.576zm-3.307-5.533a4.685 4.685 0 0 0 3.191 5.079.407.407 0 0 0 .118.019.367.367 0 0 0 .349-.255.376.376 0 0 0-.234-.472 3.907 3.907 0 0 1-2.681-4.3.372.372 0 0 0-.738-.1.183.183 0 0 1-.005.029z" transform="translate(-4620.282 -360.167)"/>
        </g>
        <g id="组_2815" data-name="组 2815" transform="translate(0 15.062)">
            <g id="组_11666" data-name="组 11666">
                <path id="路径_1789" data-name="路径 1789" class="cls-2" d="M4623.963 372.9c4.385 0 9.047-1.3 9.047-3.707 0-.551-.265-1.37-1.526-2.131a.569.569 0 0 0-.78.192.569.569 0 0 0 .192.781c.63.378.976.788.976 1.153 0 1.072-3.009 2.568-7.908 2.568s-7.91-1.5-7.91-2.568c0-.442.5-.844.8-1.044a.569.569 0 0 0-.632-.947 2.428 2.428 0 0 0-1.311 1.991c.003 2.412 4.665 3.712 9.052 3.712z" transform="translate(-4614.479 -366.544)"/>
                <path id="路径_11544" data-name="路径 11544" class="cls-2" d="M4623.9 373.269c-4.713 0-9.485-1.423-9.485-4.143a2.9 2.9 0 0 1 1.545-2.378.946.946 0 0 1 .713-.124.991.991 0 0 1 .639.428 1 1 0 0 1-.277 1.392c-.422.283-.61.546-.61.683 0 .637 2.543 2.133 7.475 2.133s7.474-1.5 7.474-2.133c0-.119-.162-.418-.766-.78a1.007 1.007 0 0 1-.4-1.26v-.018l.063-.1.009-.015.021-.033a1.006 1.006 0 0 1 1.349-.291 2.957 2.957 0 0 1 1.736 2.5c-.005 2.717-4.775 4.139-9.486 4.139zm-7.424-5.794a.135.135 0 0 0-.074.022 2.039 2.039 0 0 0-1.117 1.66c0 1.991 4.473 3.242 8.615 3.242s8.611-1.25 8.611-3.271a2.229 2.229 0 0 0-1.315-1.758.14.14 0 0 0-.121-.009v.009l-.077.078a.133.133 0 0 0 .058.152c.777.467 1.188.994 1.188 1.527 0 1.451-3.354 3-8.344 3s-8.346-1.553-8.346-3a1.908 1.908 0 0 1 1-1.406.135.135 0 0 0 .036-.185.133.133 0 0 0-.085-.057.1.1 0 0 0-.03-.005z" transform="translate(-4614.414 -366.479)"/>
            </g>
        </g>
    </g>
</svg>
