<svg width="24" height="24" viewBox="0 0 24 24" fill="none" xmlns="http://www.w3.org/2000/svg">
<g clip-path="url(#clip0_1632_10215)">
<mask id="mask0_1632_10215" style="mask-type:luminance" maskUnits="userSpaceOnUse" x="0" y="0" width="24" height="24">
<path d="M0 0H24V24H0V0Z" fill="white"/>
</mask>
<g mask="url(#mask0_1632_10215)">
<path d="M21.6793 13.3685L22.5137 12.5055C22.6115 12.4042 22.6883 12.2846 22.7397 12.1535C22.791 12.0224 22.8158 11.8825 22.8127 11.7417C22.8097 11.6009 22.7787 11.4622 22.7217 11.3335C22.6646 11.2048 22.5827 11.0886 22.4805 10.9918L21.61 10.1671L22.223 7.22973C22.33 6.7477 22.293 6.24488 22.1168 5.78366C21.9405 5.32245 21.6327 4.92315 21.2315 4.63533C20.8137 4.348 20.3039 4.22654 19.8015 4.29463L15.9696 4.82802L13.1854 2.191C12.7896 1.86713 12.2911 1.6952 11.7798 1.70617C11.2684 1.71713 10.7778 1.91027 10.3962 2.2508L7.72936 5.00784L3.8771 4.64629C3.3725 4.60051 2.86893 4.74422 2.4645 5.04943C2.07698 5.35434 1.78744 5.76625 1.63173 6.23411C1.47603 6.70197 1.461 7.20524 1.58852 7.68155L2.33041 10.5913L1.49604 11.4543C1.3982 11.5555 1.32139 11.6752 1.27006 11.8063C1.21873 11.9374 1.19389 12.0773 1.19698 12.2181C1.20007 12.3588 1.23102 12.4976 1.28805 12.6263C1.34508 12.755 1.42705 12.8711 1.52924 12.968L2.40059 13.7929L1.78754 16.7302C1.68052 17.2122 1.71735 17.7149 1.89347 18.1761C2.06958 18.6372 2.37722 19.0365 2.77822 19.3244C3.19575 19.6116 3.70524 19.733 4.20739 19.6649L8.0393 19.1316L10.8237 21.7677C11.204 22.1246 11.7091 22.3182 12.2305 22.307C12.7519 22.2958 13.2482 22.0807 13.6129 21.7079L16.2797 18.9509L20.132 19.3125C20.6366 19.3582 21.1401 19.2145 21.5446 18.9093C21.9324 18.6042 22.2221 18.1921 22.3779 17.7239C22.5337 17.2557 22.5487 16.7521 22.4209 16.2755L21.6793 13.3685Z" fill="#FF4691"/>
<path d="M8.14455 14.7728C8.96236 14.7549 9.59643 13.4243 9.56079 11.801C9.52514 10.1777 8.83327 8.87628 8.01545 8.89424C7.19764 8.9122 6.56357 10.2427 6.59921 11.866C6.63486 13.4894 7.32673 14.7908 8.14455 14.7728Z" fill="white"/>
<path d="M7.91241 14.9356C7.08809 14.7453 6.44672 13.473 6.41128 11.8699C6.37354 10.1168 7.07671 8.72473 8.01328 8.70695C8.94986 8.68918 9.70956 10.0434 9.74814 11.7967C9.78337 13.5492 9.08412 14.9396 8.14864 14.9602C8.06918 14.9619 7.98982 14.9536 7.91241 14.9356ZM8.16776 9.09713C8.11936 9.08583 8.06975 9.08058 8.02006 9.08151C7.32004 9.09583 6.7543 10.3727 6.78724 11.8608C6.82019 13.349 7.43953 14.5986 8.14058 14.5836C8.84163 14.5687 9.40634 13.2924 9.37339 11.8043C9.34294 10.4197 8.80583 9.24444 8.16776 9.09713Z" fill="black" stroke="black" stroke-width="0.3"/>
<path d="M7.3364 12.8701C7.99369 13.0218 8.64954 12.612 8.80129 11.9547C8.95303 11.2974 8.54321 10.6416 7.88592 10.4898C7.22864 10.3381 6.57279 10.7479 6.42104 11.4052C6.26929 12.0625 6.67911 12.7183 7.3364 12.8701Z" fill="black"/>
<path d="M15.8545 14.7142C16.6723 14.6963 17.3064 13.3657 17.2707 11.7424C17.2351 10.1191 16.5432 8.81769 15.7254 8.83565C14.9076 8.85361 14.2735 10.1841 14.3092 11.8075C14.3448 13.4308 15.0367 14.7322 15.8545 14.7142Z" fill="white"/>
<path d="M15.6221 14.8771C14.7978 14.6868 14.1562 13.4153 14.1218 11.8116C14.0832 10.0583 14.7864 8.66623 15.723 8.64846C15.9959 8.67341 16.2563 8.77454 16.4745 8.94033C16.6927 9.10611 16.8599 9.32988 16.9571 9.58611C17.285 10.2562 17.4563 10.9921 17.4578 11.7382C17.4892 12.4837 17.3504 13.2266 17.0522 13.9106C16.9667 14.1708 16.8098 14.4017 16.5995 14.5771C16.3892 14.7525 16.1338 14.8653 15.8625 14.9027C15.7816 14.9044 15.7008 14.8958 15.6221 14.8771ZM15.8704 9.03877C15.8242 9.02798 15.7769 9.02296 15.7296 9.02385C15.0295 9.03817 14.4638 10.3151 14.4976 11.8034C14.5314 13.2917 15.148 14.5416 15.8509 14.5262C16.1674 14.5192 16.4827 14.2322 16.7139 13.7489C16.9866 13.1183 17.1127 12.4339 17.0827 11.7475C17.0827 11.0595 16.9263 10.3806 16.6253 9.76198C16.5561 9.59592 16.4533 9.44596 16.3234 9.3215C16.1935 9.19704 16.0393 9.10079 15.8704 9.03877Z" fill="black" stroke="black" stroke-width="0.3"/>
<path d="M15.0459 12.8115C15.7032 12.9632 16.359 12.5534 16.5108 11.8961C16.6625 11.2389 16.2527 10.583 15.5954 10.4313C14.9381 10.2795 14.2823 10.6893 14.1305 11.3466C13.9788 12.0039 14.3886 12.6598 15.0459 12.8115Z" fill="black"/>
</g>
</g>
<defs>
<clipPath id="clip0_1632_10215">
<rect width="24" height="24" fill="white"/>
</clipPath>
</defs>
</svg>
