<svg width="56" height="56" viewBox="0 0 56 56" fill="none" xmlns="http://www.w3.org/2000/svg">
<g clip-path="url(#clip0_1626_4912)">
<rect width="56" height="56" rx="28" fill="white"/>
<path d="M33.41 31.482C33.1394 31.4809 32.8789 31.5843 32.6827 31.7706C32.4865 31.9569 32.3698 32.2117 32.3569 32.482C32.2099 33.055 30.4299 34.151 28.078 34.151C25.8169 34.151 23.9499 33.068 23.8039 32.523C23.8005 32.2443 23.6875 31.9781 23.4893 31.7822C23.2911 31.5862 23.0237 31.4762 22.7449 31.476H22.7339C22.4551 31.4802 22.1893 31.5941 21.994 31.7932C21.7988 31.9922 21.6898 32.2601 21.6909 32.539C21.6909 35.019 25.7909 36.263 28.0809 36.263C30.3709 36.263 34.4709 35.019 34.4709 32.539C34.4707 32.2584 34.3591 31.9895 34.1608 31.7911C33.9624 31.5928 33.6935 31.4812 33.4129 31.481" fill="#5AB4C5"/>
<path d="M43.417 24.236C43.4152 22.7778 42.8351 21.38 41.804 20.3489C40.773 19.3179 39.3751 18.7378 37.917 18.736C37.255 18.7351 36.5982 18.8547 35.979 19.089C35.0517 17.8749 33.857 16.891 32.4876 16.2138C31.1183 15.5366 29.6112 15.1843 28.0835 15.1843C26.5559 15.1843 25.0487 15.5366 23.6794 16.2138C22.31 16.891 21.1153 17.8749 20.188 19.089C18.8292 18.5585 17.3153 18.5896 15.9794 19.1754C14.6435 19.7612 13.5949 20.8536 13.0645 22.2125C12.5341 23.5713 12.5652 25.0852 13.1509 26.4211C13.7367 27.757 14.8292 28.8055 16.188 29.336C16.331 29.392 16.473 29.443 16.614 29.488C16.3074 30.5682 16.2603 31.7056 16.4764 32.8075C16.6926 33.9094 17.166 34.9446 17.858 35.829C19.936 38.607 23.953 40.403 28.089 40.403C32.328 40.403 36.121 38.718 38.233 35.894C38.9358 35.0024 39.4219 33.9598 39.6529 32.8482C39.8839 31.7367 39.8535 30.5867 39.564 29.489C40.6814 29.1352 41.6575 28.4356 42.3515 27.4911C43.0455 26.5466 43.4214 25.406 43.425 24.234M18.235 26.434C17.946 26.7781 17.6842 27.1442 17.452 27.529C16.6473 27.3332 15.9423 26.8492 15.4703 26.1687C14.9983 25.4883 14.7921 24.6584 14.8906 23.8361C14.9892 23.0138 15.3856 22.2562 16.005 21.7065C16.6244 21.1567 17.4239 20.8531 18.252 20.853C18.5217 20.8538 18.7904 20.8873 19.052 20.953C18.168 22.6366 17.8801 24.5698 18.235 26.438M21.189 21.922C21.4896 21.5684 21.8674 21.2887 22.2932 21.1042C22.719 20.9197 23.1815 20.8355 23.645 20.858C24.542 20.8603 25.4017 21.2177 26.0359 21.852C26.6702 22.4863 27.0276 23.3459 27.03 24.243C27.03 24.5236 27.1415 24.7927 27.3399 24.9911C27.5383 25.1895 27.8074 25.301 28.088 25.301C28.3686 25.301 28.6377 25.1895 28.8361 24.9911C29.0345 24.7927 29.146 24.5236 29.146 24.243C29.15 23.3463 29.508 22.4874 30.1422 21.8534C30.7764 21.2194 31.6353 20.8616 32.532 20.858C32.9955 20.8357 33.458 20.92 33.8839 21.1042C34.3098 21.2885 34.6879 21.5679 34.989 21.921C35.4384 22.597 35.7403 23.3601 35.8751 24.1606C36.0098 24.9611 35.9744 25.7811 35.771 26.567C35.7413 26.73 35.7499 26.8978 35.7963 27.057C35.8426 27.2161 35.9254 27.3623 36.038 27.484C36.8252 28.2201 37.3657 29.1814 37.5857 30.2364C37.8057 31.2914 37.6944 32.3886 37.267 33.378C35.993 36.317 32.304 38.292 28.089 38.292C23.874 38.292 20.189 36.319 18.915 33.38C18.4856 32.3905 18.3725 31.2925 18.5912 30.2364C18.81 29.1802 19.3499 28.2174 20.137 27.48C20.2502 27.3586 20.3335 27.2125 20.3803 27.0534C20.4272 26.8942 20.4363 26.7263 20.407 26.563C20.2037 25.7772 20.1683 24.9573 20.3032 24.157C20.4381 23.3566 20.7403 22.5937 21.19 21.918M32.524 18.733C31.6579 18.7317 30.8039 18.9366 30.0325 19.3306C29.2612 19.7246 28.5947 20.2965 28.088 20.999C27.581 20.2979 26.9147 19.7274 26.1439 19.3343C25.3732 18.9412 24.5202 18.7368 23.655 18.738H23.569C24.8906 17.8073 26.4676 17.3078 28.084 17.3078C29.7004 17.3078 31.2774 17.8073 32.599 18.738H32.524M38.893 27.487C38.836 27.505 38.778 27.52 38.721 27.535C38.4887 27.1503 38.2269 26.7842 37.938 26.44C38.3028 24.5724 38.0155 22.6361 37.124 20.955C37.9808 20.7487 38.8841 20.8847 39.6422 21.334C40.4003 21.7833 40.9532 22.5105 41.1836 23.3611C41.4139 24.2117 41.3035 25.1185 40.8758 25.889C40.4481 26.6594 39.7367 27.2327 38.893 27.487Z" fill="#171B1D"/>
<path d="M31.633 23.637C31.339 23.6368 31.0517 23.7238 30.8072 23.8869C30.5626 24.0501 30.372 24.2821 30.2594 24.5536C30.1468 24.8251 30.1172 25.1239 30.1744 25.4123C30.2317 25.7006 30.3731 25.9654 30.5809 26.1734C30.7887 26.3813 31.0534 26.5229 31.3417 26.5803C31.63 26.6378 31.9288 26.6084 32.2004 26.4959C32.472 26.3835 32.7042 26.193 32.8675 25.9486C33.0308 25.7043 33.118 25.4169 33.118 25.123C33.1177 24.7291 32.9612 24.3514 32.6828 24.0729C32.4044 23.7943 32.0268 23.6375 31.633 23.637Z" fill="#171B1D"/>
<path d="M24.5241 23.637C24.2302 23.6368 23.9428 23.7238 23.6983 23.8869C23.4538 24.0501 23.2631 24.2821 23.1505 24.5536C23.0379 24.8251 23.0083 25.1239 23.0655 25.4123C23.1228 25.7006 23.2642 25.9654 23.472 26.1734C23.6798 26.3813 23.9446 26.5229 24.2328 26.5803C24.5211 26.6378 24.82 26.6084 25.0915 26.4959C25.3631 26.3835 25.5953 26.193 25.7586 25.9486C25.9219 25.7043 26.0091 25.4169 26.0091 25.123C26.0088 24.7291 25.8523 24.3514 25.5739 24.0729C25.2955 23.7943 24.918 23.6375 24.5241 23.637Z" fill="#171B1D"/>
<path d="M26.094 30.339C26.1951 30.3974 26.3066 30.4354 26.4224 30.4507C26.5381 30.466 26.6557 30.4584 26.7684 30.4282C26.8812 30.398 26.9869 30.3459 27.0795 30.2748C27.1721 30.2037 27.2497 30.1151 27.308 30.014C27.3862 29.8788 27.4985 29.7666 27.6338 29.6885C27.769 29.6105 27.9224 29.5694 28.0785 29.5694C28.2347 29.5694 28.3881 29.6105 28.5233 29.6885C28.6586 29.7666 28.7709 29.8788 28.8491 30.014C28.9057 30.116 28.9819 30.2058 29.0733 30.2783C29.1647 30.3508 29.2694 30.4046 29.3816 30.4367C29.4938 30.4687 29.6112 30.4783 29.727 30.465C29.8429 30.4517 29.9551 30.4157 30.0571 30.359C30.159 30.3023 30.2488 30.2261 30.3213 30.1348C30.3939 30.0434 30.4477 29.9386 30.4797 29.8264C30.5118 29.7143 30.5214 29.5969 30.5081 29.481C30.4948 29.3651 30.4587 29.253 30.4021 29.151L30.386 29.125C30.1514 28.7206 29.8147 28.385 29.4095 28.1517C29.0044 27.9183 28.5451 27.7955 28.0775 27.7955C27.61 27.7955 27.1507 27.9183 26.7456 28.1517C26.3404 28.385 26.0037 28.7206 25.769 29.125C25.7105 29.226 25.6725 29.3375 25.6572 29.4531C25.6418 29.5688 25.6493 29.6864 25.6794 29.7991C25.7095 29.9119 25.7615 30.0176 25.8325 30.1102C25.9035 30.2029 25.992 30.2806 26.093 30.339" fill="#171B1D"/>
</g>
<defs>
<clipPath id="clip0_1626_4912">
<rect width="56" height="56" rx="28" fill="white"/>
</clipPath>
</defs>
</svg>
