<svg width="24" height="24" viewBox="0 0 24 24" fill="none" xmlns="http://www.w3.org/2000/svg">
<g clip-path="url(#clip0_1043_4855)">
<path d="M22 21H2C1.44772 21 1 21.4477 1 22C1 22.5523 1.44772 23 2 23H22C22.5523 23 23 22.5523 23 22C23 21.4477 22.5523 21 22 21Z" fill="#475259"/>
<path d="M20.5 18H3.5C2.94772 18 2.5 18.4477 2.5 19C2.5 19.5523 2.94772 20 3.5 20H20.5C21.0523 20 21.5 19.5523 21.5 19C21.5 18.4477 21.0523 18 20.5 18Z" fill="#475259"/>
<mask id="mask0_1043_4855" style="mask-type:luminance" maskUnits="userSpaceOnUse" x="0" y="0" width="24" height="24">
<path d="M0 0H24V24H0V0Z" fill="white"/>
</mask>
<g mask="url(#mask0_1043_4855)">
<path d="M7 10C7 9.44772 6.55228 9 6 9C5.44772 9 5 9.44772 5 10V16C5 16.5523 5.44772 17 6 17C6.55228 17 7 16.5523 7 16V10Z" fill="#2EB6C7"/>
<path d="M13 10C13 9.44772 12.5523 9 12 9C11.4477 9 11 9.44772 11 10V16C11 16.5523 11.4477 17 12 17C12.5523 17 13 16.5523 13 16V10Z" fill="#475259"/>
<path d="M19 10C19 9.44772 18.5523 9 18 9C17.4477 9 17 9.44772 17 10V16C17 16.5523 17.4477 17 18 17C18.5523 17 19 16.5523 19 16V10Z" fill="#475259"/>
<path d="M22.45 5.7L12 1L1.55 5.7C1.38695 5.788 1.25014 5.91766 1.15352 6.07577C1.05691 6.23387 1.00393 6.41476 1 6.6V7C1 7.26522 1.10536 7.51957 1.29289 7.70711C1.48043 7.89464 1.73478 8 2 8H22C22.2652 8 22.5196 7.89464 22.7071 7.70711C22.8946 7.51957 23 7.26522 23 7V6.6C22.9961 6.41476 22.9431 6.23387 22.8465 6.07577C22.7499 5.91766 22.6131 5.788 22.45 5.7ZM5.8 6L12 3.2L18.2 6H5.8Z" fill="#475259"/>
</g>
</g>
<defs>
<clipPath id="clip0_1043_4855">
<rect width="24" height="24" fill="white"/>
</clipPath>
</defs>
</svg>
