<svg width="32" height="32" viewBox="0 0 32 32" fill="none" xmlns="http://www.w3.org/2000/svg">
<g clip-path="url(#clip0_294_661)">
<path fill-rule="evenodd" clip-rule="evenodd" d="M28.0002 16C28.0002 21.5228 22.8515 26 16.5002 26C14.6981 26 12.9927 25.6395 11.4743 24.997C11.3971 25.115 11.2922 25.2195 11.1599 25.3008L9.2629 26.4662C8.55753 26.8995 7.6612 26.3371 7.74454 25.5134L7.96867 23.2984C7.98565 23.1306 8.04135 22.9802 8.12467 22.8525C6.18734 21.0627 5.00024 18.6519 5.00024 16C5.00024 10.4772 10.149 6 16.5002 6C22.8515 6 28.0002 10.4772 28.0002 16Z" fill="#C3E8EC"/>
<path d="M10.5 17C11.3284 17 12 16.3284 12 15.5C12 14.6716 11.3284 14 10.5 14C9.67157 14 9 14.6716 9 15.5C9 16.3284 9.67157 17 10.5 17Z" fill="#52C2D0"/>
<path d="M16.5 18C17.3284 18 18 17.3284 18 16.5C18 15.6716 17.3284 15 16.5 15C15.6716 15 15 15.6716 15 16.5C15 17.3284 15.6716 18 16.5 18Z" fill="#52C2D0"/>
<path d="M22.5 19C23.3284 19 24 18.3284 24 17.5C24 16.6716 23.3284 16 22.5 16C21.6716 16 21 16.6716 21 17.5C21 18.3284 21.6716 19 22.5 19Z" fill="#5AB4C5"/>
</g>
<defs>
<clipPath id="clip0_294_661">
<rect width="32" height="32" fill="white"/>
</clipPath>
</defs>
</svg>
