<svg width="64" height="64" viewBox="0 0 64 64" fill="none" xmlns="http://www.w3.org/2000/svg">
<g clip-path="url(#clip0_3320_6664)">
<path d="M17.872 50.8625L15.25 52.057V16C15.25 13.3766 17.3766 11.25 20 11.25H44C46.6234 11.25 48.75 13.3766 48.75 16V51.8497L47.1064 50.9138L46.4878 50.5615L45.8693 50.9138L42.9756 52.5615L40.082 50.9138L39.4634 50.5615L38.8449 50.9138L35.9512 52.5615L33.0576 50.9138L32.439 50.5615L31.8205 50.9138L28.9268 52.5615L26.0332 50.9138L25.4146 50.5615L24.7961 50.9138L21.9024 52.5615L19.0088 50.9138L18.4535 50.5976L17.872 50.8625Z" stroke="white" stroke-width="2.5"/>
<path d="M32.5016 25.2518C32.8107 25.252 33.1071 25.3662 33.3256 25.5691C33.5442 25.7721 33.6671 26.0473 33.6674 26.3343C33.6674 26.6216 33.7903 26.8971 34.009 27.1002C34.2277 27.3033 34.5244 27.4174 34.8337 27.4174C35.143 27.4174 35.4397 27.3033 35.6584 27.1002C35.8771 26.8971 36 26.6216 36 26.3343C35.9979 25.6645 35.7725 25.0117 35.3549 24.4656C34.9372 23.9195 34.3477 23.5069 33.6674 23.2844V23.0826C33.6674 22.7955 33.5446 22.5201 33.3259 22.3171C33.1073 22.1141 32.8108 22 32.5016 22C32.1924 22 31.8959 22.1141 31.6773 22.3171C31.4587 22.5201 31.3359 22.7955 31.3359 23.0826V23.2844C30.5574 23.5379 29.9009 24.0393 29.4827 24.6996C29.0645 25.3599 28.9117 26.1364 29.0515 26.8914C29.1912 27.6463 29.6144 28.3309 30.246 28.8237C30.8776 29.3164 31.6767 29.5855 32.5016 29.5831C32.7323 29.5835 32.9577 29.6474 33.1493 29.7667C33.3409 29.886 33.4901 30.0554 33.5781 30.2534C33.6661 30.4514 33.6889 30.6692 33.6436 30.8793C33.5984 31.0894 33.487 31.2822 33.3238 31.4336C33.1605 31.5849 32.9526 31.6879 32.7263 31.7296C32.5 31.7712 32.2655 31.7496 32.0524 31.6676C31.8393 31.5855 31.6572 31.4466 31.5291 31.2685C31.401 31.0903 31.3326 30.8809 31.3326 30.6667C31.3326 30.3794 31.2097 30.1039 30.991 29.9008C30.7723 29.6977 30.4756 29.5836 30.1663 29.5836C29.857 29.5836 29.5603 29.6977 29.3416 29.9008C29.1229 30.1039 29 30.3794 29 30.6667C29.0022 31.3364 29.2276 31.989 29.6453 32.5349C30.0629 33.0809 30.6524 33.4933 31.3326 33.7156V33.9174C31.3326 34.2045 31.4554 34.4799 31.6741 34.6829C31.8927 34.8859 32.1892 35 32.4984 35C32.8076 35 33.1041 34.8859 33.3227 34.6829C33.5413 34.4799 33.6641 34.2045 33.6641 33.9174V33.7156C34.4392 33.4602 35.0922 32.9587 35.5079 32.2997C35.9237 31.6408 36.0754 30.8666 35.9364 30.1138C35.7974 29.3611 35.3765 28.6781 34.7481 28.1854C34.1197 27.6927 33.3241 27.422 32.5016 27.421C32.1985 27.4124 31.9108 27.2945 31.6997 27.0923C31.4885 26.8901 31.3704 26.6195 31.3704 26.3379C31.3704 26.0562 31.4885 25.7856 31.6997 25.5834C31.9108 25.3813 32.1985 25.2634 32.5016 25.2548" fill="white"/>
<path d="M24 42H40" stroke="white" stroke-width="3" stroke-linecap="round"/>
</g>
<defs>
<clipPath id="clip0_3320_6664">
<rect width="64" height="64" fill="white"/>
</clipPath>
</defs>
</svg>
