<svg width="24" height="24" viewBox="0 0 24 24" fill="none" xmlns="http://www.w3.org/2000/svg">
<g clip-path="url(#clip0_2837_6664)">
<path d="M5.11279 13.6475L5.66207 11.8553L7.45428 12.4046L6.90501 14.1967L5.11279 13.6475Z" fill="#2EB6C7"/>
<path d="M8.69678 14.7467L9.24605 12.9545L11.0383 13.5038L10.489 15.296L8.69678 14.7467Z" fill="#2EB6C7"/>
<path d="M9.7959 11.1628L10.3452 9.37067L12.1374 9.91996L11.5881 11.7121L9.7959 11.1628Z" fill="#2EB6C7"/>
<path d="M6.2124 10.0636L6.76168 8.27143L8.55385 8.8207L8.00457 10.6129L6.2124 10.0636Z" fill="#2EB6C7"/>
<path d="M7.31152 6.47986L7.8608 4.68769L9.65297 5.23696L9.10369 7.02913L7.31152 6.47986Z" fill="#2EB6C7"/>
<path d="M10.8955 7.5791L11.4448 5.78693L13.237 6.3362L12.6877 8.12838L10.8955 7.5791Z" fill="#2EB6C7"/>
<path d="M19.7212 15.6513C20.8587 15.868 22.0587 15.3622 22.6756 14.3022L23.6188 12.682C24.3988 11.342 23.9432 9.61715 22.6033 8.83711C21.26 8.05519 19.5403 8.50942 18.7583 9.85266L17.8153 11.4728C17.1875 12.5511 17.3659 13.8438 18.101 14.7083L16.9164 16.7432H13.9701L17.9234 3.85155L5.37745 0.00415039L0 17.5398V23.9958H23.9956V16.7432H19.0856L19.7212 15.6513ZM19.4354 12.4159L20.3784 10.7957C20.639 10.3482 21.2121 10.1965 21.6601 10.4572C22.1068 10.7172 22.2587 11.2922 21.9987 11.7388L21.0556 13.359C20.7949 13.8067 20.2216 13.9582 19.7739 13.6975C19.3262 13.4369 19.1747 12.8636 19.4354 12.4159ZM6.62016 2.34606L15.5815 5.09417L12.0092 16.7432H9.92237L8.04771 18.6179H5.62397V16.7432H2.20511L6.62016 2.34606ZM1.87466 18.6178H3.74931V20.4925H8.05202L9.89692 22.1211H1.87466V18.6178ZM22.1209 22.1211H18.3716V20.4925H16.497V22.1211H12.5692L9.76677 19.5499L10.6988 18.6178H22.1209V22.1211Z" fill="#333333"/>
</g>
<defs>
<clipPath id="clip0_2837_6664">
<rect width="24" height="24" fill="white"/>
</clipPath>
</defs>
</svg>
