<svg xmlns="http://www.w3.org/2000/svg" id="Icon_bill_tuition" width="24" height="24" viewBox="0 0 24 24">
    <defs>
        <style>
            .cls-2{fill:#333}
        </style>
    </defs>
    <path id="矩形_6818" fill="none" d="M0 0H24V24H0z"/>
    <g id="组件_236_24" transform="translate(-4651.528 -348.466)">
        <g id="组_3904" transform="translate(4654.528 349.466)">
            <path id="路径_3998" d="M4672.483 371.166h-14.932a3.243 3.243 0 0 1-2.558-1.249 2.578 2.578 0 0 1-.366-1.926v-14.47a3.936 3.936 0 0 1 1.3-3.211 4.452 4.452 0 0 1 3.333-.786h13.228zm-16.136-2.833a.851.851 0 0 0 .1.608 1.657 1.657 0 0 0 1.184.473h13.094v-18.132l-11.711-.017a2.758 2.758 0 0 0-1.981.406 2.3 2.3 0 0 0-.653 1.85l-.034 14.812z" class="cls-2" transform="translate(-4654.575 -349.466)"/>
            <path id="路径_3999" fill="#2eb6c7" d="M4658.9 364.486a.878.878 0 0 1-.878-.878v-10.174a.878.878 0 1 1 1.756 0v10.173a.878.878 0 0 1-.878.879z" transform="translate(-4655.125 -349.993)"/>
            <path id="路径_4000" d="M4655.444 372.025a.877.877 0 0 1-.878-.835 4.033 4.033 0 0 1 1.4-3.64l.225-.158h15.333a.878.878 0 0 1 0 1.757h-14.705a2.838 2.838 0 0 0-.5 1.954.878.878 0 0 1-.833.921h-.044z" class="cls-2" transform="translate(-4654.527 -352.524)"/>
        </g>
    </g>
</svg>
