<svg width="56" height="56" viewBox="0 0 56 56" fill="none" xmlns="http://www.w3.org/2000/svg">
<g clip-path="url(#clip0_1626_4888)">
<mask id="mask0_1626_4888" style="mask-type:luminance" maskUnits="userSpaceOnUse" x="0" y="0" width="56" height="56">
<path d="M0 0H56V56H0V0Z" fill="white"/>
</mask>
<g mask="url(#mask0_1626_4888)">
<path d="M28.8501 34.01V21.154C28.8501 20.838 28.3131 20.58 27.6501 20.58H27.4641C26.8021 20.58 26.2641 20.838 26.2641 21.154V34.01C26.2641 34.326 26.8011 34.583 27.4641 34.583H27.6501C28.3131 34.58 28.8501 34.326 28.8501 34.01Z" fill="#434344"/>
<path d="M33.9871 26.2899H21.1311C20.8151 26.2899 20.5571 26.8269 20.5571 27.4899V27.6759C20.5571 28.3379 20.8151 28.8759 21.1311 28.8759H33.9871C34.3031 28.8759 34.5601 28.3389 34.5601 27.6759V27.4899C34.5601 26.8289 34.3031 26.2899 33.9871 26.2899Z" fill="#434344"/>
<g opacity="0.12">
<path d="M27.5 45C37.165 45 45 37.165 45 27.5C45 17.835 37.165 10 27.5 10C17.835 10 10 17.835 10 27.5C10 37.165 17.835 45 27.5 45Z" fill="#9F9F9F"/>
<path d="M27.5 44.5C36.8888 44.5 44.5 36.8888 44.5 27.5C44.5 18.1112 36.8888 10.5 27.5 10.5C18.1112 10.5 10.5 18.1112 10.5 27.5C10.5 36.8888 18.1112 44.5 27.5 44.5Z" stroke="#707070"/>
</g>
</g>
</g>
<defs>
<clipPath id="clip0_1626_4888">
<rect width="56" height="56" fill="white"/>
</clipPath>
</defs>
</svg>
