<svg width="24" height="24" viewBox="0 0 24 24" fill="none" xmlns="http://www.w3.org/2000/svg">
<g clip-path="url(#clip0_1632_10200)">
<path d="M5.66642 0H6.33358C6.51032 0 6.67983 0.0975269 6.80481 0.271126C6.92979 0.444725 7 0.680176 7 0.925682V19.0743C7 19.3198 6.92979 19.5553 6.80481 19.7289C6.67983 19.9025 6.51032 20 6.33358 20H5.66642C5.48968 20 5.32017 19.9025 5.19519 19.7289C5.07021 19.5553 5 19.3198 5 19.0743V0.925682C5 0.680176 5.07021 0.444725 5.19519 0.271126C5.32017 0.0975269 5.48968 0 5.66642 0Z" fill="#279EAE"/>
<path d="M10.6664 10H11.3336C11.5103 10 11.6798 10.0975 11.8048 10.2711C11.9298 10.4446 12 10.68 12 10.9255V19.0745C12 19.32 11.9298 19.5554 11.8048 19.7289C11.6798 19.9025 11.5103 20 11.3336 20H10.6664C10.4897 20 10.3202 19.9025 10.1952 19.7289C10.0702 19.5554 10 19.32 10 19.0745V10.9255C10 10.68 10.0702 10.4446 10.1952 10.2711C10.3202 10.0975 10.4897 10 10.6664 10Z" fill="#434344"/>
<path d="M0.666423 10H1.33358C1.51032 10 1.67983 10.0975 1.80481 10.2711C1.92979 10.4446 2 10.68 2 10.9255V19.0745C2 19.32 1.92979 19.5554 1.80481 19.7289C1.67983 19.9025 1.51032 20 1.33358 20H0.666423C0.489677 20 0.320169 19.9025 0.195191 19.7289C0.0702122 19.5554 0 19.32 0 19.0745V10.9255C0 10.68 0.0702122 10.4446 0.195191 10.2711C0.320169 10.0975 0.489677 10 0.666423 10Z" fill="#434344"/>
<path d="M15.6664 5H16.3336C16.5103 5 16.6798 5.10125 16.8048 5.28149C16.9298 5.46172 17 5.70617 17 5.96105V19.0389C17 19.2938 16.9298 19.5383 16.8048 19.7185C16.6798 19.8987 16.5103 20 16.3336 20H15.6664C15.4897 20 15.3202 19.8987 15.1952 19.7185C15.0702 19.5383 15 19.2938 15 19.0389V5.96105C15 5.70617 15.0702 5.46172 15.1952 5.28149C15.3202 5.10125 15.4897 5 15.6664 5Z" fill="#434344"/>
<path d="M22.6202 23.9093C22.8634 23.6635 23 23.3307 23 22.9838C23 22.6368 22.8634 22.304 22.6202 22.0582L20.8134 20.2396C20.6197 20.0752 20.3717 19.9901 20.1186 20.0009C19.8655 20.0118 19.6256 20.1179 19.4464 20.2982C19.2673 20.4785 19.1619 20.72 19.1511 20.9748C19.1403 21.2295 19.2249 21.4791 19.3882 21.6741L19.676 21.9638H0.890059C0.644083 21.9956 0.418027 22.1164 0.254199 22.3038C0.0903709 22.4912 0 22.7323 0 22.9819C0 23.2315 0.0903709 23.4726 0.254199 23.66C0.418027 23.8474 0.644083 23.9683 0.890059 24H22.406C22.4459 24.0002 22.4855 23.9923 22.5223 23.9767C22.5591 23.9611 22.5924 23.9382 22.6202 23.9093Z" fill="#434344"/>
</g>
<defs>
<clipPath id="clip0_1632_10200">
<rect width="24" height="24" fill="white"/>
</clipPath>
</defs>
</svg>
