<svg width="32" height="32" viewBox="0 0 32 32" fill="none" xmlns="http://www.w3.org/2000/svg">
<g clip-path="url(#clip0_294_639)">
<path d="M4.44105 8.05694H5.57305L6.42505 9.19294L7.27705 8.05694V5.78394C7.27757 5.63346 7.33759 5.4893 7.44399 5.38289C7.5504 5.27648 7.69457 5.21647 7.84505 5.21594H27.282C27.4325 5.21647 27.5767 5.27648 27.6831 5.38289C27.7895 5.4893 27.8495 5.63346 27.85 5.78394V23.9659C27.8482 24.5688 27.6075 25.1464 27.1808 25.5722C26.754 25.998 26.1759 26.2374 25.573 26.2379H6.14605C5.54387 26.2364 4.96679 25.9965 4.54089 25.5708C4.115 25.1451 3.87489 24.5681 3.87305 23.9659V8.62494C3.87357 8.47446 3.93359 8.33029 4.03999 8.22389C4.1464 8.11748 4.29057 8.05747 4.44105 8.05694Z" fill="#C3E8EC"/>
<path d="M5.573 8.05688V23.1139C5.58778 23.3292 5.68374 23.531 5.84152 23.6783C5.9993 23.8256 6.20711 23.9075 6.42297 23.9075C6.63884 23.9075 6.84668 23.8256 7.00446 23.6783C7.16223 23.531 7.2582 23.3292 7.27298 23.1139V8.05688H5.573Z" fill="#52C2D0"/>
<path d="M18.986 23.3969H24.44C24.5906 23.3969 24.7351 23.337 24.8416 23.2305C24.9481 23.124 25.008 22.9795 25.008 22.8289C25.008 22.6782 24.9481 22.5338 24.8416 22.4272C24.7351 22.3207 24.5906 22.2609 24.44 22.2609H18.986C18.8353 22.2609 18.6909 22.3207 18.5843 22.4272C18.4778 22.5338 18.418 22.6782 18.418 22.8289C18.418 22.9795 18.4778 23.124 18.5843 23.2305C18.6909 23.337 18.8353 23.3969 18.986 23.3969Z" fill="#7CD5E0"/>
<path d="M10.6911 23.3969H16.1451C16.2957 23.3969 16.4402 23.337 16.5467 23.2305C16.6532 23.124 16.7131 22.9795 16.7131 22.8289C16.7131 22.6782 16.6532 22.5338 16.5467 22.4272C16.4402 22.3207 16.2957 22.2609 16.1451 22.2609H10.6911C10.5404 22.2609 10.3959 22.3207 10.2894 22.4272C10.1829 22.5338 10.123 22.6782 10.123 22.8289C10.123 22.9795 10.1829 23.124 10.2894 23.2305C10.3959 23.337 10.5404 23.3969 10.6911 23.3969Z" fill="#7CD5E0"/>
<path d="M10.691 9.19289H24.4411C24.5917 9.19289 24.7362 9.13304 24.8427 9.02652C24.9492 8.92 25.0091 8.77553 25.0091 8.62489C25.0091 8.47424 24.9492 8.32977 24.8427 8.22325C24.7362 8.11673 24.5917 8.05688 24.4411 8.05688H10.691C10.5404 8.05688 10.3959 8.11673 10.2894 8.22325C10.1829 8.32977 10.123 8.47424 10.123 8.62489C10.123 8.77553 10.1829 8.92 10.2894 9.02652C10.3959 9.13304 10.5404 9.19289 10.691 9.19289Z" fill="#7CD5E0"/>
<path d="M10.6911 12.0338H16.1451C16.2957 12.0338 16.4402 11.974 16.5467 11.8675C16.6532 11.7609 16.7131 11.6165 16.7131 11.4658C16.7131 11.3152 16.6532 11.1707 16.5467 11.0642C16.4402 10.9577 16.2957 10.8978 16.1451 10.8978H10.6911C10.5404 10.8978 10.3959 10.9577 10.2894 11.0642C10.1829 11.1707 10.123 11.3152 10.123 11.4658C10.123 11.6165 10.1829 11.7609 10.2894 11.8675C10.3959 11.974 10.5404 12.0338 10.6911 12.0338Z" fill="#7CD5E0"/>
<path d="M10.6911 14.8749H16.1451C16.2196 14.8749 16.2935 14.8602 16.3624 14.8316C16.4313 14.8031 16.4939 14.7613 16.5467 14.7085C16.5994 14.6558 16.6413 14.5932 16.6698 14.5242C16.6984 14.4553 16.7131 14.3815 16.7131 14.3069C16.7131 14.2323 16.6984 14.1584 16.6698 14.0895C16.6413 14.0206 16.5994 13.958 16.5467 13.9053C16.4939 13.8525 16.4313 13.8107 16.3624 13.7821C16.2935 13.7536 16.2196 13.7389 16.1451 13.7389H10.6911C10.5404 13.7389 10.3959 13.7987 10.2894 13.9053C10.1829 14.0118 10.123 14.1562 10.123 14.3069C10.123 14.4575 10.1829 14.602 10.2894 14.7085C10.3959 14.815 10.5404 14.8749 10.6911 14.8749Z" fill="#7CD5E0"/>
<path d="M10.6911 17.7159H16.1451C16.2957 17.7159 16.4402 17.656 16.5467 17.5495C16.6532 17.4429 16.7131 17.2985 16.7131 17.1478C16.7131 16.9972 16.6532 16.8527 16.5467 16.7462C16.4402 16.6397 16.2957 16.5798 16.1451 16.5798H10.6911C10.5404 16.5798 10.3959 16.6397 10.2894 16.7462C10.1829 16.8527 10.123 16.9972 10.123 17.1478C10.123 17.2985 10.1829 17.4429 10.2894 17.5495C10.3959 17.656 10.5404 17.7159 10.6911 17.7159Z" fill="#7CD5E0"/>
<path d="M10.6911 20.5579H16.1451C16.2957 20.5579 16.4402 20.498 16.5467 20.3915C16.6532 20.285 16.7131 20.1405 16.7131 19.9899C16.7131 19.8392 16.6532 19.6947 16.5467 19.5882C16.4402 19.4817 16.2957 19.4219 16.1451 19.4219H10.6911C10.5404 19.4219 10.3959 19.4817 10.2894 19.5882C10.1829 19.6947 10.123 19.8392 10.123 19.9899C10.123 20.1405 10.1829 20.285 10.2894 20.3915C10.3959 20.498 10.5404 20.5579 10.6911 20.5579Z" fill="#7CD5E0"/>
<path d="M18.986 20.5579H24.44C24.5906 20.5579 24.7351 20.498 24.8416 20.3915C24.9481 20.285 25.008 20.1405 25.008 19.9899C25.008 19.8392 24.9481 19.6947 24.8416 19.5882C24.7351 19.4817 24.5906 19.4219 24.44 19.4219H18.986C18.8353 19.4219 18.6909 19.4817 18.5843 19.5882C18.4778 19.6947 18.418 19.8392 18.418 19.9899C18.418 20.1405 18.4778 20.285 18.5843 20.3915C18.6909 20.498 18.8353 20.5579 18.986 20.5579Z" fill="#7CD5E0"/>
<path d="M18.9861 11.4659H24.4401V17.2049H18.9861V11.4659Z" fill="#52C2D0"/>
</g>
<defs>
<clipPath id="clip0_294_639">
<rect width="32" height="32" fill="white"/>
</clipPath>
</defs>
</svg>
