<svg width="32" height="32" viewBox="0 0 32 32" fill="none" xmlns="http://www.w3.org/2000/svg">
<path fill-rule="evenodd" clip-rule="evenodd" d="M22.9894 13.1579C23.3405 13.5842 23.2795 14.2144 22.8532 14.5655L14.96 21.0658C14.5797 21.379 14.0281 21.3686 13.6599 21.0413L9.74741 17.5635C9.33463 17.1966 9.29745 16.5645 9.66436 16.1518L9.99655 15.7781C10.3635 15.3653 10.9955 15.3281 11.4083 15.695L14.3615 18.32L21.2639 12.6357C21.6902 12.2846 22.3204 12.3456 22.6715 12.7719L22.9894 13.1579Z" fill="#5AB4C5"/>
<path fill-rule="evenodd" clip-rule="evenodd" d="M17.6502 2.41846C18.4903 3.37507 19.5105 4.38994 20.5 5C22.4419 6.19723 26.2751 6.72519 28.0531 6.91315C28.5832 6.9692 28.9907 7.41588 28.9703 7.94858C28.8983 9.83102 28.6681 14.1064 28 17C27.1747 20.5746 26.245 22.5985 24 25.5C21.9445 28.1567 17.7227 30.8214 16.2613 31.6992C15.9467 31.8881 15.557 31.8791 15.2505 31.6774C13.864 30.765 9.94308 28.0654 8 25.5C5.78493 22.5756 4.82531 20.5746 4 17C3.32523 14.0774 3.09707 9.745 3.02753 7.89259C3.0084 7.38298 3.38135 6.94916 3.8848 6.8679C5.4697 6.61208 8.78692 5.98592 10.5 5C11.5981 4.36801 12.7647 3.30039 13.7187 2.31358C14.1585 1.85858 14.5531 1.42075 14.875 1.05074C15.3191 0.540065 16.1476 0.565187 16.5628 1.09965C16.8644 1.48786 17.2354 1.94606 17.6502 2.41846ZM15.6247 4.65558C14.6297 5.66208 13.3365 6.82888 11.9964 7.60013C10.3882 8.5257 8.08311 9.09993 6.50526 9.43235C6.37097 9.46064 6.2387 9.48781 6.10898 9.51385C6.12487 9.78501 6.14291 10.0702 6.16338 10.3658C6.30168 12.3629 6.53996 14.6656 6.9231 16.3251C7.64992 19.4731 8.42256 21.0892 10.3914 23.6886C11.3171 24.9108 12.969 26.3287 14.5711 27.5321C15.0196 27.869 15.445 28.175 15.8226 28.4393C16.2402 28.171 16.7156 27.8559 17.2177 27.5058C18.9258 26.3146 20.6675 24.9046 21.6273 23.6642C23.5956 21.1202 24.3448 19.4962 25.0769 16.3251C25.46 14.6656 25.6983 12.3629 25.8366 10.3658C25.8534 10.1228 25.8686 9.88682 25.8823 9.65989C25.6688 9.62791 25.4485 9.59319 25.2232 9.55555C23.4298 9.25592 20.7686 8.68993 18.9256 7.55366C17.6795 6.78544 16.5181 5.6479 15.6247 4.65558Z" fill="#475259"/>
</svg>
