<svg width="56" height="56" viewBox="0 0 56 56" fill="none" xmlns="http://www.w3.org/2000/svg">
<g clip-path="url(#clip0_1626_4904)">
<rect width="56" height="56" rx="28" fill="white"/>
<path d="M22.5778 20.577H22.6388C23.4892 20.5646 24.3012 20.221 24.9023 19.6194C25.5034 19.0177 25.8462 18.2054 25.8578 17.355C25.8605 16.4833 25.52 15.6456 24.9098 15.023C24.6088 14.7082 24.247 14.4577 23.8465 14.2866C23.4459 14.1155 23.0149 14.0272 22.5793 14.0272C22.1438 14.0272 21.7127 14.1155 21.3121 14.2866C20.9116 14.4577 20.5499 14.7082 20.2488 15.023C19.638 15.648 19.2972 16.4881 19.2998 17.362C19.3155 18.221 19.6678 19.0396 20.2808 19.6416C20.8939 20.2436 21.7187 20.5809 22.5778 20.581M22.5578 16.053C22.8863 16.0513 23.2027 16.1766 23.441 16.4026C23.6793 16.6286 23.8211 16.9379 23.8368 17.266V17.359C23.8362 17.6755 23.7167 17.9802 23.502 18.2128C23.2874 18.4454 22.9932 18.5889 22.6778 18.615H22.5568C22.2201 18.6153 21.8968 18.4829 21.657 18.2465C21.4172 18.0101 21.2803 17.6887 21.2758 17.352C21.2723 17.1835 21.3026 17.0161 21.3647 16.8594C21.4269 16.7028 21.5197 16.5602 21.6378 16.44C21.7573 16.3169 21.9003 16.219 22.0583 16.1521C22.2164 16.0853 22.3862 16.0509 22.5578 16.051" fill="#171B1D"/>
<path d="M33.799 20.579H33.861C34.6965 20.5666 35.4954 20.2345 36.0934 19.651C36.6915 19.0675 37.0431 18.2769 37.076 17.442L37.084 17.357C37.0868 16.4853 36.7462 15.6475 36.136 15.025C35.548 14.4068 34.7386 14.0473 33.8857 14.0254C33.0328 14.0034 32.206 14.3209 31.587 14.908C31.5464 14.9443 31.5076 14.9827 31.471 15.023C30.8591 15.6474 30.5178 16.4878 30.521 17.362C30.5372 18.2207 30.8895 19.0388 31.5022 19.6407C32.1149 20.2425 32.9392 20.5801 33.798 20.581M33.798 16.051C34.1189 16.0508 34.4278 16.1736 34.661 16.394C34.7824 16.5054 34.8803 16.6399 34.949 16.7897C35.0177 16.9394 35.0557 17.1014 35.061 17.266V17.358C35.061 17.6919 34.9284 18.0122 34.6923 18.2483C34.4561 18.4844 34.1359 18.617 33.802 18.617C33.4681 18.617 33.1479 18.4844 32.9118 18.2483C32.6757 18.0122 32.543 17.6919 32.543 17.358V17.347C32.533 17.0129 32.656 16.6884 32.8848 16.4447C33.1137 16.201 33.4299 16.058 33.764 16.047L33.798 16.051Z" fill="#171B1D"/>
<path d="M22.8288 21.1531C21.1043 21.1896 19.4647 21.9085 18.2694 23.1521C17.0742 24.3957 16.4209 26.0625 16.4528 27.7871C16.4528 27.8561 16.4528 27.9241 16.4598 27.9791C16.4598 32.1531 20.2468 35.3051 23.9078 38.3541C24.1888 38.5861 24.4638 38.8171 24.7408 39.0491C25.2648 39.4871 25.8045 39.9421 26.3598 40.4141L26.6128 40.6281C27.057 41.0004 27.61 41.2186 28.1888 41.2501V39.2171C28.0928 39.1942 28.003 39.1505 27.9258 39.0891C27.2378 38.5057 26.5482 37.9244 25.8568 37.3451L25.3268 36.8991C25.4175 36.83 25.5036 36.7552 25.5848 36.6751C25.9164 36.339 26.1477 35.917 26.2524 35.4565C26.3572 34.9961 26.3313 34.5156 26.1778 34.0691C25.8822 33.4314 25.4276 32.8805 24.8578 32.4691C22.8448 30.6691 21.5078 29.2131 21.5078 27.9551H19.4928C19.4928 30.0611 21.1928 31.9551 24.1238 34.5121C24.2237 34.5991 24.286 34.7214 24.2978 34.8534C24.3095 34.9854 24.2697 35.1168 24.1868 35.2201L24.1698 35.2401C24.0654 35.3291 23.9342 35.3805 23.7971 35.3861C23.6601 35.3918 23.5251 35.3512 23.4138 35.2711C20.2918 32.5391 18.4848 30.4711 18.4828 27.9711C18.4045 26.784 18.8002 25.6143 19.583 24.7184C20.3658 23.8226 21.4719 23.2737 22.6588 23.1921L22.8168 23.1841C23.6607 23.2365 24.4741 23.5195 25.1684 24.0023C25.8626 24.4851 26.4109 25.1491 26.7538 25.9221C27.2134 25.7493 27.7019 25.6665 28.1928 25.6781V24.3451C27.6555 23.3918 26.878 22.5956 25.9377 22.0358C24.9974 21.476 23.927 21.172 22.8328 21.1541" fill="#279EAE"/>
<path d="M38.2489 23.3011C37.6778 22.6642 36.986 22.1469 36.2135 21.7794C35.441 21.4119 34.6033 21.2014 33.7489 21.1601C33.6819 21.1601 33.6129 21.1541 33.5349 21.1531C32.4421 21.1717 31.3733 21.476 30.4348 22.0359C29.4962 22.5957 28.7205 23.3915 28.1848 24.3441V25.6701C27.694 25.6585 27.2055 25.7413 26.7458 25.9141C26.1975 26.1823 25.7349 26.5982 25.4101 27.1149C25.0852 27.6317 24.911 28.2289 24.907 28.8393C24.9031 29.4497 25.0696 30.0491 25.3877 30.57C25.7058 31.091 26.163 31.5128 26.7079 31.7881C26.0634 31.9248 25.4413 32.1513 24.8599 32.4611C25.4299 32.8722 25.8846 33.4233 26.1799 34.0611C26.8293 33.7818 27.5297 33.6408 28.2366 33.647C28.9435 33.6532 29.6414 33.8065 30.2859 34.0971C30.0965 34.611 30.0807 35.1728 30.2409 35.6965C30.4011 36.2202 30.7284 36.677 31.1729 36.9971C30.4399 37.6401 29.6439 38.3311 28.7779 39.0791C28.6975 39.1467 28.6018 39.1937 28.4992 39.216C28.3966 39.2383 28.29 39.2352 28.1888 39.2071V41.2411C28.2418 41.2411 28.2939 41.2541 28.3469 41.2541C28.9884 41.2537 29.6085 41.0234 30.0948 40.6051L30.2659 40.4581C36.8909 34.7241 39.9148 32.1071 39.9138 27.9831C39.9608 27.1298 39.8379 26.2757 39.5523 25.4702C39.2667 24.6648 38.8239 23.9241 38.2498 23.2911M29.0799 29.7451C28.9633 29.8627 28.8245 29.9558 28.6715 30.0192C28.5185 30.0826 28.3544 30.1148 28.1888 30.1141C27.8549 30.1141 27.5347 29.9814 27.2986 29.7453C27.0625 29.5092 26.9299 29.189 26.9299 28.8551C26.9299 28.5212 27.0625 28.2009 27.2986 27.9648C27.5347 27.7287 27.8549 27.5961 28.1888 27.5961C28.4379 27.596 28.6813 27.6697 28.8884 27.808C29.0955 27.9463 29.257 28.1429 29.3524 28.3729C29.4477 28.6029 29.4728 28.8561 29.4243 29.1003C29.3757 29.3446 29.2559 29.5689 29.0799 29.7451ZM37.8969 27.9741C37.8969 30.4511 36.2628 32.3961 33.0428 35.3341C32.9348 35.4155 32.8025 35.458 32.6672 35.4548C32.532 35.4515 32.4018 35.4026 32.2979 35.3161C32.2504 35.2683 32.2131 35.2114 32.1882 35.1489C32.1633 35.0863 32.1513 35.0194 32.1529 34.9521C32.1579 34.81 32.2182 34.6754 32.3209 34.5771C35.4209 31.7691 36.8909 30.0591 36.8909 27.9461H34.8708C34.8708 29.0691 34.0439 30.2221 31.5969 32.5021C30.9923 32.1693 30.342 31.9274 29.6669 31.7841C30.3954 31.4154 30.9602 30.7882 31.2508 30.0251C31.5413 29.262 31.5367 28.418 31.2379 27.6581C30.9343 26.8944 30.3576 26.271 29.6198 25.9091C29.9637 25.1349 30.5136 24.47 31.2094 23.9868C31.9052 23.5037 32.7203 23.2208 33.5659 23.1691C34.7491 23.2106 35.8682 23.7167 36.6808 24.5778C37.4934 25.4389 37.9339 26.5855 37.9069 27.7691L37.8969 27.9741Z" fill="#171B1D"/>
</g>
<defs>
<clipPath id="clip0_1626_4904">
<rect width="56" height="56" rx="28" fill="white"/>
</clipPath>
</defs>
</svg>
