<svg width="24" height="24" viewBox="0 0 24 24" fill="none" xmlns="http://www.w3.org/2000/svg">
<g id="check=yes, color=Default, fill=yes">
<path id="Vector" fill-rule="evenodd" clip-rule="evenodd" d="M6 4C4.89543 4 4 4.89543 4 6V18C4 19.1046 4.89543 20 6 20H18C19.1046 20 20 19.1046 20 18V6C20 4.89543 19.1046 4 18 4H6ZM16.7071 9.70711C17.0976 9.31658 17.0976 8.68342 16.7071 8.29289C16.3166 7.90237 15.6834 7.90237 15.2929 8.29289L11 12.5858L8.70711 10.2929C8.31658 9.90237 7.68342 9.90237 7.29289 10.2929C6.90237 10.6834 6.90237 11.3166 7.29289 11.7071L10.2929 14.7071L11 15.4142L11.7071 14.7071L16.7071 9.70711Z" fill="#5AB4C5"/>
</g>
</svg>
