<svg width="48" height="48" viewBox="0 0 48 48" fill="none" xmlns="http://www.w3.org/2000/svg">
<rect width="48" height="48" rx="24" fill="#5AB4C5"/>
<path d="M30.4669 27.2361C31.7338 27.2361 32.7609 26.209 32.7609 24.9421C32.7609 23.6751 31.7338 22.6481 30.4669 22.6481C29.1999 22.6481 28.1729 23.6751 28.1729 24.9421C28.1729 26.209 29.1999 27.2361 30.4669 27.2361Z" stroke="white" stroke-width="1.8" stroke-linecap="round" stroke-linejoin="round"/>
<path d="M31.7908 29.7051C32.2544 29.7049 32.7135 29.7962 33.1418 29.9735C33.5702 30.1509 33.9594 30.4109 34.2872 30.7387C34.615 31.0665 34.875 31.4557 35.0524 31.884C35.2297 32.3124 35.3209 32.7715 35.3208 33.2351V35.0001H25.6128V33.2351C25.6127 32.7715 25.7039 32.3124 25.8812 31.884C26.0586 31.4557 26.3186 31.0665 26.6464 30.7387C26.9742 30.4109 27.3634 30.1509 27.7918 29.9735C28.2201 29.7962 28.6792 29.7049 29.1428 29.7051H31.7908Z" stroke="white" stroke-width="1.8" stroke-linecap="round" stroke-linejoin="round"/>
<path d="M29.1509 12.7191H33.1743V16.828" stroke="white" stroke-width="1.8" stroke-linecap="round"/>
<mask id="mask0_599_2628" style="mask-type:luminance" maskUnits="userSpaceOnUse" x="11" y="12" width="24" height="11">
<path d="M11.001 12.212H34.085V22.082H11.001V12.212Z" fill="white"/>
</mask>
<g mask="url(#mask0_599_2628)">
<path d="M11.9011 22.0821C11.7167 22.0822 11.5366 22.0257 11.3854 21.9201C11.2342 21.8146 11.119 21.6651 11.0555 21.4919C10.992 21.3188 10.9832 21.1303 11.0304 20.952C11.0775 20.7737 11.1783 20.6142 11.3191 20.4951L16.7781 15.8661C16.9402 15.7283 17.1319 15.6296 17.3382 15.5776C17.5445 15.5256 17.76 15.5217 17.9681 15.5661L25.8791 17.2581C26.0832 17.3019 26.2946 17.2992 26.4975 17.25C26.7005 17.2008 26.8897 17.1065 27.0511 16.9741L32.6151 12.4121C32.8007 12.2609 33.0388 12.1897 33.277 12.214C33.5152 12.2384 33.7339 12.3564 33.8851 12.5421C34.0363 12.7277 34.1075 12.9658 34.0831 13.204C34.0587 13.4422 33.9407 13.6609 33.7551 13.8121L27.5221 18.9121C27.3606 19.0443 27.1713 19.1385 26.9685 19.1877C26.7656 19.2368 26.5542 19.2397 26.3501 19.1961L18.4561 17.5121C18.248 17.4677 18.0325 17.4717 17.8262 17.5237C17.6199 17.5757 17.4283 17.6744 17.2661 17.8121L12.4831 21.8681C12.3208 22.0066 12.1144 22.0825 11.9011 22.0821Z" fill="white"/>
</g>
<path d="M13.3423 28.6841V34.999" stroke="white" stroke-width="1.8" stroke-linecap="round"/>
<path d="M17.5225 26.4221V34.999" stroke="white" stroke-width="1.8" stroke-linecap="round"/>
<path d="M21.7002 22.6471V34.9991" stroke="white" stroke-width="1.8" stroke-linecap="round"/>
</svg>
