<svg width="32" height="32" viewBox="0 0 32 32" fill="none" xmlns="http://www.w3.org/2000/svg">
<g clip-path="url(#clip0_2912_7084)">
<mask id="mask0_2912_7084" style="mask-type:luminance" maskUnits="userSpaceOnUse" x="0" y="0" width="32" height="32">
<path d="M0 0H32V32H0V0Z" fill="white"/>
</mask>
<g mask="url(#mask0_2912_7084)">
<mask id="mask1_2912_7084" style="mask-type:luminance" maskUnits="userSpaceOnUse" x="1" y="1" width="28" height="28">
<path d="M1.99316 1.9939H28.3082V28.3109H1.99316V1.9939Z" fill="white"/>
</mask>
<g mask="url(#mask1_2912_7084)">
<path d="M26.7879 18.7469L26.7519 18.7259V10.4819C26.7519 8.23062 25.8576 6.07153 24.2657 4.47963C22.6738 2.88773 20.5147 1.99341 18.2634 1.99341C16.0121 1.99341 13.853 2.88773 12.2611 4.47963C10.6692 6.07153 9.7749 8.23062 9.7749 10.4819V16.6819C10.2552 16.721 10.7288 16.8195 11.1849 16.9749V10.4819C11.187 8.60536 11.9334 6.80627 13.2603 5.47935C14.5873 4.15242 16.3864 3.40603 18.2629 3.40391H18.3359V5.82391C18.3092 6.19986 18.1962 6.5646 18.0059 6.88991C17.7949 7.26091 17.5809 7.42091 17.4959 7.43391H15.1559C14.5549 7.4347 13.9787 7.6738 13.5538 8.09877C13.1288 8.52375 12.8897 9.09991 12.8889 9.70091V12.0369C12.8897 12.9026 13.0991 13.7553 13.4995 14.5228C13.8999 15.2903 14.4794 15.95 15.1889 16.4459L15.2199 16.4679V18.3369H13.6399C14.1982 18.7061 14.6747 19.186 15.0399 19.7469H15.7079L15.7259 19.7589L18.2559 21.4459L20.8039 19.7459H25.2609C25.6931 19.7464 26.1073 19.9183 26.4129 20.2239C26.7185 20.5295 26.8904 20.9438 26.8909 21.3759V26.8979H13.5219V26.0459C13.5222 25.82 13.612 25.6035 13.7717 25.4437C13.9315 25.284 14.148 25.1942 14.3739 25.1939H21.3739V23.7839H14.3739C13.7741 23.7844 13.1991 24.0229 12.775 24.447C12.3509 24.8711 12.1124 25.4462 12.1119 26.0459V26.8979H12.0389V28.3079H28.3109V21.3789C28.3095 20.8457 28.1684 20.3221 27.9017 19.8603C27.635 19.3985 27.2521 19.0147 26.7909 18.7469M19.8909 18.6669L18.2609 19.7539L16.6309 18.6669V17.1669L16.7249 17.1949C17.7277 17.4897 18.7941 17.4897 19.7969 17.1949L19.8909 17.1669V18.6669ZM18.2609 16.0039C17.2097 16.0026 16.202 15.5844 15.4587 14.8411C14.7154 14.0978 14.2972 13.0901 14.2959 12.0389V9.70291C14.2962 9.4757 14.3865 9.25787 14.5472 9.09721C14.7079 8.93655 14.9257 8.84617 15.1529 8.84591H17.4819C17.7815 8.8293 18.0728 8.74199 18.3322 8.59112C18.5915 8.44025 18.8114 8.23011 18.9739 7.97791L19.0319 7.89991L19.0899 7.97791C19.254 8.22805 19.4739 8.43672 19.7322 8.5875C19.9906 8.73829 20.2804 8.82709 20.5789 8.84691H21.3669C21.5941 8.84717 21.8119 8.93755 21.9726 9.09821C22.1333 9.25887 22.2236 9.4767 22.2239 9.70391V12.0389C22.2228 13.0902 21.8048 14.0981 21.0614 14.8414C20.3181 15.5848 19.3102 16.0028 18.2589 16.0039M25.3369 18.3389H21.2989V16.4739L21.3299 16.4519C22.0396 15.9552 22.6192 15.2948 23.0196 14.5267C23.4199 13.7585 23.6293 12.9052 23.6299 12.0389V9.70391C23.6291 9.10291 23.39 8.52675 22.965 8.10177C22.5401 7.6768 21.9639 7.4377 21.3629 7.43691H20.5629C20.5019 7.42891 20.2919 7.31591 20.0629 6.89791C19.8733 6.56494 19.7619 6.19325 19.7369 5.81091V3.55991L19.8259 3.57991C21.3883 3.93845 22.7832 4.81582 23.7829 6.06891C24.7827 7.322 25.3283 8.87687 25.3309 10.4799L25.3369 18.3389Z" fill="#555555"/>
<path d="M26.7879 18.7469L26.7519 18.7259V10.4819C26.7519 8.23062 25.8576 6.07153 24.2657 4.47963C22.6738 2.88773 20.5147 1.99341 18.2634 1.99341C16.0121 1.99341 13.853 2.88773 12.2611 4.47963C10.6692 6.07153 9.7749 8.23062 9.7749 10.4819V16.6819C10.2552 16.721 10.7288 16.8195 11.1849 16.9749V10.4819C11.187 8.60536 11.9334 6.80627 13.2603 5.47935C14.5873 4.15242 16.3864 3.40603 18.2629 3.40391H18.3359V5.82391C18.3092 6.19986 18.1962 6.5646 18.0059 6.88991C17.7949 7.26091 17.5809 7.42091 17.4959 7.43391H15.1559C14.5549 7.4347 13.9787 7.6738 13.5538 8.09877C13.1288 8.52375 12.8897 9.09991 12.8889 9.70091V12.0369C12.8897 12.9026 13.0991 13.7553 13.4995 14.5228C13.8999 15.2903 14.4794 15.95 15.1889 16.4459L15.2199 16.4679V18.3369H13.6399C14.1982 18.7061 14.6747 19.186 15.0399 19.7469H15.7079L15.7259 19.7589L18.2559 21.4459L20.8039 19.7459H25.2609C25.6931 19.7464 26.1073 19.9183 26.4129 20.2239C26.7185 20.5295 26.8904 20.9438 26.8909 21.3759V26.8979H13.5219V26.0459C13.5222 25.82 13.612 25.6035 13.7717 25.4437C13.9315 25.284 14.148 25.1942 14.3739 25.1939H21.3739V23.7839H14.3739C13.7741 23.7844 13.1991 24.0229 12.775 24.447C12.3509 24.8711 12.1124 25.4462 12.1119 26.0459V26.8979H12.0389V28.3079H28.3109V21.3789C28.3095 20.8457 28.1684 20.3221 27.9017 19.8603C27.635 19.3985 27.2521 19.0147 26.7909 18.7469M18.2609 16.0039C17.2097 16.0026 16.202 15.5844 15.4587 14.8411C14.7154 14.0978 14.2972 13.0901 14.2959 12.0389V9.70291C14.2962 9.4757 14.3865 9.25787 14.5472 9.09721C14.7079 8.93655 14.9257 8.84617 15.1529 8.84591H17.4819C17.7815 8.8293 18.0728 8.74199 18.3322 8.59112C18.5915 8.44025 18.8114 8.23011 18.9739 7.97791L19.0319 7.89991L19.0899 7.97791C19.254 8.22805 19.4739 8.43672 19.7322 8.5875C19.9906 8.73829 20.2804 8.82709 20.5789 8.84691H21.3669C21.5941 8.84717 21.8119 8.93755 21.9726 9.09821C22.1333 9.25887 22.2236 9.4767 22.2239 9.70391V12.0389C22.2228 13.0902 21.8048 14.0981 21.0614 14.8414C20.3181 15.5848 19.3102 16.0028 18.2589 16.0039M19.8909 18.6669L18.2609 19.7539L16.6309 18.6669V17.1669L16.7249 17.1949C17.7277 17.4897 18.7941 17.4897 19.7969 17.1949L19.8909 17.1669V18.6669ZM25.3369 18.3389H21.2989V16.4739L21.3299 16.4519C22.0396 15.9552 22.6192 15.2948 23.0196 14.5267C23.4199 13.7585 23.6293 12.9052 23.6299 12.0389V9.70391C23.6291 9.10291 23.39 8.52675 22.965 8.10177C22.5401 7.6768 21.9639 7.4377 21.3629 7.43691H20.5629C20.5019 7.42891 20.2919 7.31591 20.0629 6.89791C19.8733 6.56494 19.7619 6.19325 19.7369 5.81091V3.55991L19.8259 3.57991C21.3883 3.93845 22.7832 4.81582 23.7829 6.06891C24.7827 7.322 25.3283 8.87687 25.3309 10.4799L25.3369 18.3389Z" stroke="#555555" stroke-width="0.5"/>
<path d="M8.28093 25.015C7.28141 24.0573 6.62793 22.795 6.42293 21.426L6.41493 21.354L6.48393 21.343C7.26688 21.2169 7.98569 20.8341 8.52732 20.2548C9.06894 19.6755 9.40264 18.9326 9.47593 18.143L9.48293 18.072H9.55393C10.9974 18.2303 12.3381 18.8949 13.3379 19.948C14.3809 20.941 15.0435 22.2677 15.2109 23.698L15.2169 23.777H16.6299V23.708C16.5242 22.3637 16.0386 21.077 15.2299 19.998C15.1941 19.9528 15.1607 19.9058 15.1299 19.857L15.0409 19.74H15.0519C14.6868 19.1791 14.2102 18.6991 13.6519 18.33L13.6319 18.314C12.92 17.7343 12.1113 17.285 11.2429 16.987L11.1929 16.97C10.7368 16.8145 10.2632 16.7161 9.78293 16.677L9.70393 16.671C9.59147 16.6621 9.47874 16.6571 9.36593 16.656H9.30593L9.28893 16.608C9.11116 16.1024 8.82125 15.6436 8.44093 15.266L8.11093 14.936C7.55504 14.3809 6.83244 14.0235 6.05392 13.9186C5.2754 13.8136 4.48395 13.9669 3.80093 14.355L3.73693 14.392L3.70093 14.328C3.55059 14.058 3.48837 13.7477 3.52297 13.4406C3.55758 13.1334 3.68727 12.8448 3.89393 12.615L2.89393 11.615C2.43224 12.1066 2.15575 12.7433 2.11178 13.4163C2.06782 14.0892 2.25911 14.7565 2.65293 15.304L2.68693 15.354L2.65593 15.397C2.16519 16.088 1.93465 16.9303 2.00511 17.7748C2.07557 18.6194 2.44248 19.4119 3.04093 20.012L3.37093 20.342C3.80719 20.7791 4.34905 21.0961 4.94393 21.262L4.99393 21.276V21.328C5.17671 23.111 5.98645 24.7712 7.27893 26.013C8.56052 27.2909 10.2345 28.101 12.0319 28.313V26.903C10.612 26.6873 9.297 26.027 8.27593 25.017M4.36893 19.344L4.03893 19.014C3.83696 18.812 3.67674 18.5722 3.56744 18.3083C3.45813 18.0445 3.40187 17.7616 3.40187 17.476C3.40187 17.1903 3.45813 16.9075 3.56744 16.6436C3.67674 16.3797 3.83696 16.14 4.03893 15.938C4.2409 15.736 4.48068 15.5758 4.74457 15.4665C5.00846 15.3572 5.2913 15.3009 5.57693 15.3009C5.86256 15.3009 6.1454 15.3572 6.40929 15.4665C6.67318 15.5758 6.91296 15.736 7.11493 15.938L7.44493 16.268C7.8417 16.6781 8.06139 17.2278 8.05661 17.7984C8.05183 18.3691 7.82298 18.915 7.41939 19.3185C7.01581 19.7219 6.46983 19.9506 5.89919 19.9552C5.32854 19.9598 4.77895 19.7399 4.36893 19.343" fill="#2EB6C7"/>
<path d="M8.28093 25.015C7.28141 24.0573 6.62793 22.795 6.42293 21.426L6.41493 21.354L6.48393 21.343C7.26688 21.2169 7.98569 20.8341 8.52732 20.2548C9.06894 19.6755 9.40264 18.9326 9.47593 18.143L9.48293 18.072H9.55393C10.9974 18.2303 12.3381 18.8949 13.3379 19.948C14.3809 20.941 15.0435 22.2677 15.2109 23.698L15.2169 23.777H16.6299V23.708C16.5242 22.3637 16.0386 21.077 15.2299 19.998C15.1941 19.9528 15.1607 19.9058 15.1299 19.857L15.0409 19.74H15.0519C14.6868 19.1791 14.2102 18.6991 13.6519 18.33L13.6319 18.314C12.92 17.7343 12.1113 17.285 11.2429 16.987L11.1929 16.97C10.7368 16.8145 10.2632 16.7161 9.78293 16.677L9.70393 16.671C9.59147 16.6621 9.47874 16.6571 9.36593 16.656H9.30593L9.28893 16.608C9.11116 16.1024 8.82125 15.6436 8.44093 15.266L8.11093 14.936C7.55504 14.3809 6.83244 14.0235 6.05392 13.9186C5.2754 13.8136 4.48395 13.9669 3.80093 14.355L3.73693 14.392L3.70093 14.328C3.55059 14.058 3.48837 13.7477 3.52297 13.4406C3.55758 13.1334 3.68727 12.8448 3.89393 12.615L2.89393 11.615C2.43224 12.1066 2.15575 12.7433 2.11178 13.4163C2.06782 14.0892 2.25911 14.7565 2.65293 15.304L2.68693 15.354L2.65593 15.397C2.16519 16.088 1.93465 16.9303 2.00511 17.7748C2.07557 18.6194 2.44248 19.4119 3.04093 20.012L3.37093 20.342C3.80719 20.7791 4.34905 21.0961 4.94393 21.262L4.99393 21.276V21.328C5.17671 23.111 5.98645 24.7712 7.27893 26.013C8.56052 27.2909 10.2345 28.101 12.0319 28.313V26.903C10.612 26.6873 9.297 26.027 8.27593 25.017M4.36893 19.344L4.03893 19.014C3.83696 18.812 3.67674 18.5722 3.56744 18.3083C3.45813 18.0445 3.40187 17.7616 3.40187 17.476C3.40187 17.1903 3.45813 16.9075 3.56744 16.6436C3.67674 16.3797 3.83696 16.14 4.03893 15.938C4.2409 15.736 4.48068 15.5758 4.74457 15.4665C5.00846 15.3572 5.2913 15.3009 5.57693 15.3009C5.86256 15.3009 6.1454 15.3572 6.40929 15.4665C6.67318 15.5758 6.91296 15.736 7.11493 15.938L7.44493 16.268C7.8417 16.6781 8.06139 17.2278 8.05661 17.7984C8.05183 18.3691 7.82298 18.915 7.41939 19.3185C7.01581 19.7219 6.46983 19.9506 5.89919 19.9552C5.32854 19.9598 4.77895 19.7399 4.36893 19.343" stroke="#2EB6C7" stroke-width="0.5"/>
</g>
</g>
</g>
<defs>
<clipPath id="clip0_2912_7084">
<rect width="32" height="32" fill="white"/>
</clipPath>
</defs>
</svg>
