<svg width="24" height="24" viewBox="0 0 24 24" fill="none" xmlns="http://www.w3.org/2000/svg">
<path d="M22.4861 6.94796C22.3124 6.73346 22.0978 6.55531 21.8552 6.4237C21.6126 6.29209 21.3465 6.20961 21.072 6.18096H20.5832C20.4866 6.18176 20.3934 6.1442 20.3245 6.07653C20.2555 6.00886 20.2161 5.9166 20.2151 5.81997C20.2151 5.77317 20.2235 5.72674 20.24 5.68294C20.3744 5.3247 20.448 4.94647 20.4573 4.56396V4.55395C20.4371 3.62924 20.0505 2.75039 19.3826 2.11059C18.7146 1.47078 17.82 1.12239 16.8953 1.14196C15.958 1.16399 15.0437 1.43789 14.2488 1.93496C13.4538 2.43202 12.8074 3.1339 12.3772 3.96694C12.3462 4.01774 12.3037 4.06056 12.2532 4.09194C12.1961 4.12792 12.1302 4.14703 12.0627 4.14703C11.9953 4.14703 11.9293 4.12792 11.8723 4.09194C11.8216 4.06074 11.7791 4.01788 11.7483 3.96694C11.3178 3.13375 10.6705 2.43181 9.87524 1.93475C9.07994 1.43768 8.16586 1.16384 7.22826 1.14196C6.77027 1.13187 6.31443 1.21208 5.88744 1.37804C5.46046 1.54401 5.07045 1.79247 4.73949 2.10921C4.40854 2.42596 4.14326 2.80481 3.95873 3.22411C3.7742 3.64341 3.6743 4.09494 3.6643 4.55294V4.56295C3.67315 4.94583 3.74631 5.32447 3.8811 5.68294C3.91606 5.77326 3.91374 5.87377 3.87475 5.96242C3.83576 6.05108 3.76329 6.12069 3.67309 6.15597C3.62976 6.17279 3.58332 6.18093 3.53686 6.17995H3.04906C2.77453 6.2086 2.50849 6.29108 2.26586 6.42269C2.02323 6.5543 1.80872 6.73245 1.635 6.94695C1.27432 7.38785 1.10099 7.95261 1.15209 8.51995V13.115C1.14009 14.626 1.7163 15.2259 2.7683 15.5319C2.84514 15.5536 2.91264 15.5999 2.96069 15.6636C3.00873 15.7274 3.0343 15.8051 3.03393 15.8849V21.3849C3.06435 21.8581 3.27927 22.3005 3.63256 22.6167C3.98585 22.933 4.44943 23.0979 4.92309 23.076H19.2048C19.6778 23.098 20.1406 22.9338 20.4939 22.6186C20.8472 22.3034 21.063 21.8623 21.095 21.3899V15.8899C21.0945 15.81 21.1207 15.7321 21.1687 15.6682C21.2167 15.6042 21.2842 15.5578 21.3611 15.5359C22.4121 15.2309 22.9888 14.631 22.9758 13.12V8.51995C23.0255 7.95191 22.8497 7.38718 22.4861 6.94796ZM7.15209 2.36196C8.02504 2.44571 8.85363 2.78602 9.53344 3.34002C10.2133 3.89401 10.7137 4.63689 10.9719 5.47497C11.006 5.57986 10.9971 5.69397 10.947 5.79223C10.8969 5.89049 10.8097 5.96484 10.7048 5.99895C10.6647 6.01163 10.6234 6.01835 10.5813 6.01894H7.02416C6.77219 6.02882 6.52081 5.98664 6.28588 5.89501C6.05095 5.80339 5.8372 5.66431 5.65844 5.48644C5.47968 5.30858 5.33962 5.09576 5.24682 4.86129C5.15402 4.62682 5.11076 4.3757 5.11938 4.12368C5.12799 3.87166 5.18851 3.62412 5.29711 3.39654C5.40571 3.16895 5.55975 2.96623 5.75024 2.80099C5.94072 2.63575 6.1634 2.51155 6.40405 2.43618C6.64469 2.36081 6.89845 2.3359 7.14916 2.36297L7.15209 2.36196ZM3.2683 14.0969C3.19713 14.0968 3.12649 14.0827 3.06078 14.0553C2.99507 14.028 2.93524 13.9879 2.885 13.9375C2.83477 13.8871 2.79493 13.8272 2.76781 13.7614C2.7407 13.6956 2.72716 13.6251 2.72729 13.5539V8.19695C2.72716 8.12578 2.7407 8.05527 2.76781 7.98946C2.79493 7.92365 2.83477 7.86383 2.885 7.81341C2.93524 7.76299 2.99507 7.72294 3.06078 7.69558C3.12649 7.66822 3.19713 7.65408 3.2683 7.65395H10.7273C10.7985 7.65395 10.8686 7.66802 10.9343 7.69533C11.0001 7.72265 11.0598 7.76265 11.1101 7.8131C11.1604 7.86355 11.2002 7.92344 11.2273 7.98931C11.2544 8.05518 11.2686 8.12574 11.2683 8.19695V13.555C11.2686 13.6262 11.2544 13.6967 11.2273 13.7626C11.2002 13.8285 11.1604 13.8884 11.1101 13.9388C11.0598 13.9893 11.0001 14.0293 10.9343 14.0566C10.8686 14.0839 10.7985 14.098 10.7273 14.098L3.2683 14.0969ZM11.3152 21.042C11.3136 21.1646 11.2633 21.2816 11.1755 21.3672C11.0878 21.4529 10.9695 21.5003 10.8469 21.499H4.8269C4.70418 21.5003 4.58618 21.453 4.49828 21.3673C4.41038 21.2817 4.35999 21.1647 4.35815 21.042V16.177C4.35999 16.0542 4.41041 15.9371 4.49828 15.8512C4.58615 15.7654 4.70408 15.7179 4.8269 15.719H10.8469C10.9696 15.7179 11.0878 15.7655 11.1755 15.8513C11.2632 15.9371 11.3136 16.0543 11.3152 16.177V21.042ZM13.1501 5.47396C13.4085 4.63595 13.9088 3.89314 14.5886 3.33916C15.2684 2.78519 16.0971 2.44483 16.97 2.36095C17.2206 2.33376 17.474 2.35851 17.7146 2.43368C17.9552 2.50885 18.1778 2.63282 18.3684 2.79784C18.559 2.96287 18.7137 3.16543 18.8225 3.39284C18.9313 3.62026 18.9918 3.86766 19.0007 4.11959C19.0096 4.37152 18.9667 4.62257 18.8743 4.85708C18.7818 5.09159 18.6416 5.30452 18.4631 5.48257C18.2847 5.66062 18.0714 5.79995 17.8367 5.8919C17.6019 5.98384 17.3508 6.02643 17.0989 6.01696H13.5452C13.4353 6.01617 13.3299 5.97181 13.2527 5.89364C13.1754 5.81546 13.1325 5.70986 13.133 5.59997C13.1333 5.55711 13.1403 5.51456 13.154 5.47396H13.1501ZM19.759 21.042C19.7572 21.1647 19.7068 21.2817 19.6189 21.3673C19.531 21.453 19.413 21.5003 19.2903 21.499H13.2693C13.1467 21.5 13.0283 21.4526 12.9407 21.3669C12.853 21.2813 12.8029 21.1645 12.801 21.042V16.177C12.8029 16.0543 12.853 15.9374 12.9407 15.8516C13.0283 15.7658 13.1466 15.7182 13.2693 15.719H19.2903C19.4131 15.7179 19.531 15.7654 19.6189 15.8512C19.7068 15.9371 19.7572 16.0542 19.759 16.177V21.042ZM21.3899 13.5539C21.3901 13.6252 21.3764 13.6957 21.3494 13.7616C21.3223 13.8275 21.2824 13.8873 21.2322 13.9378C21.1819 13.9882 21.1222 14.0283 21.0564 14.0556C20.9906 14.0829 20.9201 14.0969 20.8489 14.0969H13.3899C13.3188 14.0968 13.2485 14.0827 13.1829 14.0553C13.1172 14.0279 13.0577 13.9879 13.0076 13.9374C12.9574 13.887 12.9174 13.8272 12.8904 13.7614C12.8634 13.6956 12.8496 13.6251 12.8498 13.5539V8.19695C12.8496 8.12582 12.8634 8.05533 12.8904 7.98952C12.9174 7.92372 12.9574 7.8639 13.0076 7.81347C13.0577 7.76303 13.1172 7.72298 13.1829 7.69561C13.2485 7.66824 13.3188 7.65408 13.3899 7.65395H20.8489C20.9201 7.65395 20.9906 7.66802 21.0564 7.69533C21.1222 7.72265 21.1819 7.76265 21.2322 7.8131C21.2824 7.86355 21.3223 7.92344 21.3494 7.98931C21.3764 8.05518 21.3901 8.12574 21.3899 8.19695V13.5539Z" fill="#5AB4C5"/>
<path d="M4.82736 23.221C4.33445 23.2163 3.86134 23.026 3.50265 22.6878C3.14396 22.3497 2.92601 21.8888 2.8923 21.397V15.886C2.89283 15.8365 2.87702 15.7883 2.84738 15.7487C2.81773 15.7091 2.77584 15.6804 2.72824 15.667C2.16806 15.5449 1.67661 15.2112 1.35665 14.7355C1.0367 14.2598 0.913197 13.6788 1.01144 13.114V8.51996C0.958135 7.92013 1.14279 7.32345 1.52609 6.85898C1.71096 6.62955 1.93991 6.4391 2.19894 6.29868C2.45797 6.15826 2.74222 6.07068 3.03537 6.04099H3.53537C3.57437 6.02999 3.59533 6.04098 3.62033 6.02598C3.6479 6.01536 3.67317 5.99941 3.69455 5.97901C3.71592 5.95861 3.73294 5.93416 3.74484 5.90711C3.75674 5.88006 3.76329 5.85093 3.76388 5.82139C3.76447 5.79184 3.75907 5.76249 3.74826 5.73499C3.607 5.36128 3.52989 4.96639 3.52023 4.56699C3.52892 4.08679 3.63266 3.61306 3.8254 3.17316C4.01815 2.73326 4.29614 2.33588 4.64328 2.00397C5.31514 1.35865 6.2117 1.00002 7.14328 1.00397H7.23312C8.19563 1.02636 9.13447 1.30746 9.95089 1.81772C10.7673 2.32799 11.4314 3.0486 11.8733 3.90397C11.8935 3.93244 11.9192 3.95688 11.9485 3.97599C11.9834 3.99738 12.0232 4.0087 12.0642 4.0087C12.1051 4.0087 12.1455 3.99738 12.1804 3.97599C12.2122 3.95533 12.2392 3.92802 12.2595 3.89597C12.7015 3.04209 13.3652 2.3229 14.1809 1.81388C14.9966 1.30486 15.934 1.02476 16.8952 1.00297H16.9851C17.9167 0.998804 18.8133 1.35746 19.4851 2.00297C19.8305 2.33239 20.1075 2.7268 20.3 3.16355C20.4926 3.6003 20.5969 4.07078 20.6071 4.54798C20.5999 4.95265 20.5234 5.35309 20.3811 5.73197C20.3709 5.75948 20.3661 5.78863 20.3664 5.81797C20.3665 5.84759 20.3725 5.87691 20.384 5.90421C20.3955 5.93151 20.4121 5.95624 20.4333 5.97696C20.4539 5.99723 20.4783 6.01324 20.5051 6.02405C20.5319 6.03487 20.5602 6.04028 20.5891 6.03998H21.0813C21.377 6.06826 21.6643 6.15524 21.926 6.29587C22.1877 6.4365 22.4184 6.62796 22.6052 6.85898C22.9922 7.32661 23.1782 7.92854 23.1223 8.53296V13.119C23.2203 13.6832 23.0966 14.2636 22.7771 14.7389C22.4575 15.2142 21.967 15.5478 21.4074 15.67C21.36 15.6835 21.3181 15.712 21.2883 15.7513C21.2585 15.7907 21.2425 15.8386 21.2424 15.888V21.388C21.2082 21.8812 20.9891 22.3433 20.6291 22.6822C20.2691 23.021 19.7949 23.2116 19.3005 23.216H4.93136L4.82736 23.221ZM3.53244 6.32099H3.04806C2.79386 6.34866 2.54771 6.42613 2.32345 6.54899C2.0992 6.67184 1.90159 6.83764 1.74142 7.03696C1.40227 7.44829 1.23962 7.97717 1.28927 8.50797V13.116C1.27527 14.642 1.88943 15.132 2.80343 15.398C2.90942 15.4287 3.00222 15.493 3.06857 15.5812C3.13492 15.6693 3.17093 15.7766 3.17111 15.887V21.387C3.20134 21.8075 3.38951 22.2011 3.69747 22.489C4.00544 22.777 4.41064 22.938 4.83224 22.94H19.2014C19.6386 22.9617 20.067 22.8109 20.3943 22.5201C20.7215 22.2294 20.9215 21.8218 20.9514 21.385V15.891C20.9517 15.7806 20.9879 15.6734 21.0544 15.5854C21.121 15.4973 21.2139 15.4333 21.32 15.403C22.237 15.137 22.8472 14.646 22.8322 13.123V8.52298C22.858 8.25814 22.8314 7.99082 22.7536 7.73633C22.6759 7.48185 22.5485 7.24521 22.3791 7.03998C22.2172 6.8391 22.0175 6.6723 21.7907 6.54923C21.564 6.42616 21.315 6.34926 21.0583 6.32297H20.5852C20.4536 6.31671 20.3281 6.26595 20.2292 6.17899C20.1814 6.13262 20.1435 6.07712 20.1174 6.01581C20.0913 5.95451 20.0776 5.8886 20.0774 5.82197C20.0774 5.75801 20.089 5.69464 20.112 5.63498C20.2412 5.29157 20.3116 4.92881 20.32 4.56199C20.311 4.12084 20.2151 3.68581 20.0373 3.28199C19.8595 2.87816 19.6037 2.51352 19.2844 2.20899C18.6668 1.61363 17.8419 1.28128 16.9841 1.28199H16.903C15.9903 1.30263 15.1002 1.56881 14.3259 2.05256C13.5516 2.5363 12.9219 3.21973 12.5031 4.03098C12.4605 4.10381 12.4014 4.16549 12.3303 4.21097C12.2509 4.26044 12.1591 4.28666 12.0656 4.28666C11.9721 4.28666 11.8808 4.26044 11.8015 4.21097C11.7327 4.16741 11.6744 4.10856 11.632 4.03898C11.214 3.22651 10.585 2.54168 9.81076 2.05652C9.03648 1.57137 8.1456 1.30383 7.23214 1.28199C6.79302 1.26997 6.35614 1.34546 5.9465 1.50409C5.53685 1.66273 5.1629 1.90133 4.8464 2.20597C4.52737 2.51007 4.27127 2.87426 4.09347 3.27756C3.91568 3.68086 3.81956 4.11532 3.81027 4.55597C3.81793 4.92427 3.8886 5.28854 4.01925 5.63297C4.06697 5.75766 4.06343 5.89616 4.00949 6.01829C3.95554 6.14041 3.85548 6.23628 3.73117 6.28498C3.66995 6.31336 3.60262 6.32542 3.53537 6.31998L3.53244 6.32099ZM19.2922 21.642H13.2712C13.1111 21.6428 12.9574 21.5801 12.8435 21.4676C12.7295 21.3551 12.6646 21.2021 12.6633 21.042V16.177C12.6633 16.0975 12.679 16.0188 12.7097 15.9455C12.7403 15.8722 12.7854 15.8057 12.842 15.7499C12.8986 15.694 12.9656 15.65 13.0393 15.6203C13.113 15.5907 13.1917 15.5759 13.2712 15.577H19.2922C19.3717 15.5759 19.4504 15.5907 19.5241 15.6203C19.5979 15.65 19.6653 15.694 19.7219 15.7499C19.7785 15.8057 19.8231 15.8722 19.8537 15.9455C19.8844 16.0188 19.9001 16.0975 19.9001 16.177V21.042C19.9 21.1214 19.8844 21.1999 19.8537 21.2731C19.823 21.3463 19.778 21.4127 19.7214 21.4685C19.6649 21.5242 19.5978 21.5681 19.5241 21.5977C19.4505 21.6273 19.3716 21.642 19.2922 21.641V21.642ZM13.2712 15.862C13.1854 15.8606 13.1029 15.8934 13.0412 15.953C12.9796 16.0126 12.9437 16.0942 12.9421 16.18V21.044C12.9439 21.1296 12.9796 21.2109 13.0412 21.2703C13.1029 21.3297 13.1856 21.3623 13.2712 21.361H19.2922C19.3778 21.3623 19.4605 21.3297 19.5222 21.2703C19.5838 21.2109 19.6195 21.1296 19.6213 21.044V16.177C19.6195 16.0914 19.5838 16.01 19.5222 15.9506C19.4605 15.8912 19.3778 15.8587 19.2922 15.86L13.2712 15.862ZM10.8474 21.642H4.82736C4.74789 21.643 4.66915 21.6283 4.59542 21.5986C4.5217 21.5689 4.45424 21.5249 4.39767 21.4691C4.3411 21.4133 4.29649 21.3468 4.26583 21.2734C4.23518 21.2001 4.21944 21.1214 4.21945 21.042V16.177C4.21944 16.0975 4.23518 16.0188 4.26583 15.9455C4.29649 15.8722 4.3411 15.8057 4.39767 15.7499C4.45424 15.694 4.5217 15.65 4.59542 15.6203C4.66915 15.5907 4.74789 15.5759 4.82736 15.577H10.8474C10.9269 15.5758 11.006 15.5904 11.0798 15.62C11.1536 15.6496 11.2209 15.6937 11.2776 15.7495C11.3342 15.8053 11.3792 15.8719 11.4099 15.9453C11.4406 16.0186 11.4563 16.0974 11.4563 16.177V21.042C11.4561 21.1214 11.4401 21.1999 11.4094 21.2731C11.3787 21.3463 11.3341 21.4127 11.2776 21.4685C11.221 21.5242 11.1539 21.5681 11.0803 21.5977C11.0066 21.6273 10.9277 21.642 10.8484 21.641L10.8474 21.642ZM4.82736 15.862C4.74176 15.8606 4.65902 15.8932 4.59738 15.9526C4.53573 16.012 4.5001 16.0934 4.49826 16.179V21.044C4.5001 21.1296 4.53573 21.2109 4.59738 21.2703C4.65902 21.3297 4.74176 21.3623 4.82736 21.361H10.8474C10.9329 21.3623 11.0154 21.3297 11.0769 21.2703C11.1384 21.2108 11.1739 21.1295 11.1755 21.044V16.177C11.1749 16.1346 11.1655 16.0928 11.1486 16.0539C11.1318 16.015 11.1073 15.9798 11.0769 15.9504C11.0464 15.9209 11.0108 15.8978 10.9714 15.8823C10.932 15.8668 10.8897 15.8592 10.8474 15.86L4.82736 15.862ZM20.8503 14.24H13.3903C13.2094 14.2394 13.0361 14.1671 12.9084 14.0389C12.7807 13.9106 12.7089 13.7369 12.7092 13.556V8.19797C12.7092 8.01727 12.7812 7.84394 12.9089 7.71607C13.0366 7.5882 13.2096 7.51623 13.3903 7.51597H20.8503C21.0308 7.5165 21.2038 7.58859 21.3313 7.71644C21.4587 7.84428 21.5305 8.01744 21.5305 8.19797V13.556C21.5305 13.7363 21.4588 13.9092 21.3318 14.0372C21.2047 14.1651 21.0325 14.2377 20.8523 14.239L20.8503 14.24ZM13.3903 7.79596C13.2843 7.79596 13.1826 7.83811 13.1076 7.91312C13.0326 7.98814 12.9904 8.0899 12.9904 8.19599V13.554C12.9904 13.6601 13.0326 13.7618 13.1076 13.8368C13.1826 13.9118 13.2843 13.954 13.3903 13.954H20.8503C20.9564 13.954 21.058 13.9118 21.133 13.8368C21.208 13.7618 21.2502 13.6601 21.2502 13.554V8.19599C21.2502 8.0899 21.208 7.98814 21.133 7.91312C21.058 7.83811 20.9564 7.79596 20.8503 7.79596H13.3903ZM10.7263 14.24H3.2673C3.0865 14.2392 2.91332 14.1667 2.78585 14.0385C2.65839 13.9103 2.58686 13.7368 2.58712 13.556V8.19797C2.58712 8.01744 2.65887 7.84428 2.78634 7.71644C2.91381 7.58859 3.08677 7.5165 3.2673 7.51597H10.7263C10.907 7.51623 11.08 7.5882 11.2077 7.71607C11.3354 7.84394 11.4074 8.01727 11.4074 8.19797V13.556C11.4074 13.7364 11.3359 13.9095 11.2087 14.0375C11.0815 14.1655 10.9087 14.2379 10.7282 14.239L10.7263 14.24ZM3.2673 7.79596C3.16121 7.79596 3.0596 7.83811 2.98458 7.91312C2.90957 7.98814 2.8674 8.0899 2.8674 8.19599V13.554C2.8674 13.6601 2.90957 13.7618 2.98458 13.8368C3.0596 13.9118 3.16121 13.954 3.2673 13.954H10.7263C10.8324 13.954 10.934 13.9118 11.009 13.8368C11.084 13.7618 11.1262 13.6601 11.1262 13.554V8.19599C11.1262 8.0899 11.084 7.98814 11.009 7.91312C10.934 7.83811 10.8324 7.79596 10.7263 7.79596H3.2673ZM13.5451 6.16099C13.4007 6.15998 13.2623 6.10268 13.1594 6.00129C13.0565 5.8999 12.9975 5.7624 12.9943 5.61799H12.9641L13.0144 5.43598C13.2799 4.57083 13.7958 3.80389 14.4973 3.23215C15.1988 2.66041 16.0544 2.30955 16.9553 2.22397C17.2251 2.19441 17.4979 2.22077 17.757 2.3014C18.0162 2.38202 18.2563 2.51518 18.4616 2.69257C18.667 2.86997 18.8334 3.08778 18.9509 3.33243C19.0683 3.57709 19.1343 3.84333 19.1443 4.11454C19.1542 4.38574 19.1081 4.6561 19.009 4.90873C18.9099 5.16136 18.7599 5.39084 18.5681 5.58286C18.3763 5.77488 18.1468 5.92532 17.8943 6.02479C17.6418 6.12425 17.3715 6.17062 17.1003 6.16099H13.5451ZM13.3454 5.33698L13.2834 5.52198C13.2754 5.54856 13.2711 5.5762 13.2712 5.60398C13.2709 5.63996 13.2777 5.67565 13.2912 5.70899C13.3048 5.74233 13.325 5.77269 13.3503 5.79831C13.3756 5.82394 13.4055 5.84433 13.4387 5.85834C13.4718 5.87235 13.5072 5.87972 13.5432 5.87998H17.0944C17.553 5.86894 17.9901 5.68489 18.3186 5.36475C18.6471 5.04462 18.8426 4.61208 18.8654 4.15397C18.8311 3.70284 18.6271 3.28148 18.2946 2.97461C17.9622 2.66775 17.5259 2.49816 17.0735 2.49997H16.9734C16.1619 2.57903 15.3896 2.88768 14.7473 3.38978C14.1049 3.89187 13.6191 4.56661 13.3464 5.33497L13.3454 5.33698ZM7.02804 6.16099C6.49799 6.14906 5.99227 5.93705 5.61203 5.56757C5.23179 5.19809 5.00537 4.69847 4.97824 4.16898C5.01031 3.64182 5.24224 3.14672 5.62667 2.78458C6.01111 2.42245 6.51895 2.22053 7.04708 2.21998H7.16525C8.06618 2.30555 8.92175 2.65638 9.62326 3.22812C10.3248 3.79987 10.8406 4.56684 11.1062 5.43198C11.1512 5.57229 11.1391 5.72473 11.072 5.85593C11.0049 5.98713 10.8884 6.08637 10.7483 6.13196C10.6952 6.14887 10.6399 6.15831 10.5842 6.15998L7.02804 6.16099ZM7.04904 2.50098C6.59402 2.50021 6.15606 2.67256 5.82345 2.98307C5.49085 3.29357 5.28898 3.71898 5.25851 4.17298C5.28554 4.62822 5.48272 5.0566 5.81124 5.3729C6.13977 5.6892 6.57552 5.87023 7.03146 5.87998H10.5822C10.6098 5.87993 10.6371 5.87554 10.6633 5.86698C10.7327 5.84431 10.7903 5.79505 10.8235 5.73002C10.8566 5.66498 10.8624 5.58945 10.8401 5.51996C10.5913 4.70724 10.1072 3.98667 9.44845 3.44956C8.78975 2.91245 7.9865 2.58299 7.14035 2.50297C7.11135 2.49997 7.08004 2.49997 7.04904 2.49997V2.50098Z" fill="#5AB4C5"/>
</svg>
