<svg width="24" height="24" viewBox="0 0 24 24" fill="none" xmlns="http://www.w3.org/2000/svg">
<g clip-path="url(#clip0_1632_10203)">
<path d="M20.9557 5.2893H16.1473V3.02912C16.1471 2.75627 16.0409 2.49466 15.8522 2.30172C15.6634 2.10878 15.4075 2.00027 15.1406 2H8.81455C8.54771 2.00027 8.29188 2.10882 8.10329 2.30178C7.9147 2.49475 7.80877 2.75636 7.80877 3.02912V5.29032H3.04229C2.23599 5.29275 1.46341 5.62131 0.893352 6.2042C0.323298 6.7871 0.0021059 7.57694 0 8.40114V18.8943C0.00368323 19.7177 0.325656 20.5062 0.895727 21.088C1.4658 21.6698 2.23776 21.9976 3.0433 22H20.9557C21.7625 21.9978 22.5356 21.6693 23.106 21.0862C23.6765 20.5031 23.9979 19.7128 24 18.8882V8.40012C23.9979 7.57557 23.6765 6.78542 23.106 6.20247C22.5355 5.61951 21.7624 5.29119 20.9557 5.2893ZM14.1368 5.2893H9.81834V4.05824H14.1328V5.29032M2.19117 8.40114C2.19196 8.17137 2.28152 7.95122 2.44038 7.78864C2.59924 7.62607 2.81452 7.53425 3.03931 7.53318H20.9517C21.1769 7.53371 21.3927 7.6253 21.5519 7.78793C21.7112 7.95056 21.8011 8.17102 21.8019 8.40114V18.8933C21.8013 19.1235 21.7116 19.3441 21.5522 19.5068C21.3929 19.6695 21.177 19.761 20.9517 19.7612H3.0433C2.81844 19.761 2.60288 19.6695 2.44388 19.507C2.28488 19.3445 2.19543 19.1241 2.19516 18.8943L2.19117 8.40114Z" fill="#434344"/>
<path d="M11.498 9C10.6081 9.00039 9.73817 9.26467 8.99839 9.75941C8.25861 10.2542 7.68215 10.9572 7.34189 11.7795C7.00163 12.6019 6.91284 13.5067 7.08678 14.3795C7.26072 15.2523 7.68955 16.0539 8.31907 16.683C8.94858 17.3121 9.75049 17.7404 10.6234 17.9138C11.4963 18.0872 12.4011 17.9978 13.2232 17.657C14.0453 17.3162 14.748 16.7392 15.2422 15.9991C15.7365 15.259 16.0002 14.389 16 13.499C15.9958 12.3066 15.5201 11.1642 14.6766 10.3213C13.8332 9.47837 12.6905 9.00338 11.498 9ZM13.8887 13.498C13.8887 13.971 13.7484 14.4334 13.4857 14.8266C13.2229 15.2199 12.8495 15.5265 12.4125 15.7075C11.9756 15.8886 11.4947 15.936 11.0308 15.8438C10.5669 15.7516 10.1408 15.5239 9.80625 15.1895C9.47173 14.8551 9.24387 14.4291 9.15147 13.9652C9.05908 13.5013 9.10631 13.0205 9.28718 12.5835C9.46804 12.1464 9.77443 11.7728 10.1676 11.5099C10.5608 11.247 11.0231 11.1066 11.4961 11.1064C12.1299 11.1082 12.7372 11.3607 13.1855 11.8088C13.6338 12.2569 13.8866 12.8642 13.8887 13.498Z" fill="#279EAE"/>
</g>
<defs>
<clipPath id="clip0_1632_10203">
<rect width="24" height="24" fill="white"/>
</clipPath>
</defs>
</svg>
