<svg width="24" height="24" viewBox="0 0 24 24" fill="none" xmlns="http://www.w3.org/2000/svg">
<path d="M18.3028 14.592C19.429 14.592 20.3419 13.7117 20.3419 12.6257C20.3419 11.5398 19.429 10.6594 18.3028 10.6594C17.1766 10.6594 16.2637 11.5398 16.2637 12.6257C16.2637 13.7117 17.1766 14.592 18.3028 14.592Z" stroke="#475259" stroke-width="1.8" stroke-linecap="round" stroke-linejoin="round"/>
<path d="M19.4798 16.7083C19.8919 16.7081 20.3 16.7863 20.6808 16.9383C21.0615 17.0904 21.4075 17.3132 21.6988 17.5942C21.9902 17.8752 22.2214 18.2088 22.379 18.5759C22.5367 18.9431 22.6177 19.3366 22.6176 19.734V21.2468H13.9883V19.734C13.9882 19.3366 14.0692 18.9431 14.2269 18.5759C14.3845 18.2088 14.6157 17.8752 14.9071 17.5942C15.1984 17.3132 15.5444 17.0904 15.9251 16.9383C16.3059 16.7863 16.714 16.7081 17.1261 16.7083H19.4798Z" stroke="#475259" stroke-width="1.8" stroke-linecap="round" stroke-linejoin="round"/>
<path d="M17.1333 2.1488H20.7097V5.67071" stroke="#2EB6C7" stroke-width="1.8" stroke-linecap="round"/>
<mask id="mask0_1626_4955" style="mask-type:luminance" maskUnits="userSpaceOnUse" x="1" y="1" width="21" height="10">
<path d="M1 1.71423H21.5191V10.1742H1V1.71423Z" fill="white"/>
</mask>
<g mask="url(#mask0_1626_4955)">
<path d="M1.80004 10.1742C1.63611 10.1744 1.4761 10.1259 1.34167 10.0354C1.20723 9.94495 1.10487 9.81684 1.04843 9.66843C0.991983 9.52001 0.984185 9.35846 1.02609 9.20563C1.06799 9.05281 1.15757 8.91608 1.28271 8.81396L6.13515 4.84625C6.2793 4.72818 6.44963 4.64359 6.63302 4.59901C6.81641 4.55443 7.00797 4.55104 7.19293 4.5891L14.2249 6.03939C14.4064 6.07698 14.5943 6.07462 14.7747 6.03247C14.955 5.99032 15.1232 5.90948 15.2667 5.79596L20.2125 1.88567C20.3775 1.7561 20.5892 1.69504 20.8009 1.71594C21.0126 1.73684 21.207 1.83797 21.3414 1.9971C21.4757 2.15623 21.5391 2.36032 21.5174 2.56447C21.4957 2.76861 21.3908 2.9561 21.2258 3.08567L15.6854 7.4571C15.5418 7.57046 15.3736 7.6512 15.1933 7.69334C15.0129 7.73548 14.8251 7.73794 14.6436 7.70053L7.62671 6.2571C7.44174 6.2191 7.2502 6.22253 7.06682 6.26711C6.88344 6.31168 6.71311 6.39623 6.56893 6.51425L2.31737 9.99082C2.17315 10.1095 1.98966 10.1746 1.80004 10.1742Z" fill="#2EB6C7"/>
</g>
<path d="M3.08105 15.8331V21.2459" stroke="#475259" stroke-width="1.8" stroke-linecap="round"/>
<path d="M6.79639 13.8943V21.2459" stroke="#475259" stroke-width="1.8" stroke-linecap="round"/>
<path d="M10.5103 10.6586V21.246" stroke="#475259" stroke-width="1.8" stroke-linecap="round"/>
</svg>
