<svg width="32" height="32" viewBox="0 0 32 32" fill="none" xmlns="http://www.w3.org/2000/svg">
<g clip-path="url(#clip0_2912_7086)">
<mask id="mask0_2912_7086" style="mask-type:luminance" maskUnits="userSpaceOnUse" x="0" y="0" width="32" height="32">
<path d="M0 0H32V32H0V0Z" fill="white"/>
</mask>
<g mask="url(#mask0_2912_7086)">
<path d="M24.8812 23.439V17.372C24.8812 15.1152 23.9846 12.9508 22.3888 11.3549C20.7929 9.75908 18.6285 8.86255 16.3717 8.86255C14.1148 8.86255 11.9504 9.75908 10.3545 11.3549C8.75869 12.9508 7.86215 15.1152 7.86215 17.372V23.439C7.21766 23.4398 6.59978 23.6962 6.14405 24.1519C5.68832 24.6077 5.43195 25.2256 5.43115 25.87V27.693C5.43102 27.7729 5.44666 27.852 5.47717 27.9259C5.50767 27.9997 5.55245 28.0668 5.60894 28.1233C5.66542 28.1797 5.7325 28.2245 5.80632 28.255C5.88015 28.2855 5.95927 28.3012 6.03915 28.301H26.7052C26.785 28.3012 26.8642 28.2855 26.938 28.255C27.0118 28.2245 27.0789 28.1797 27.1354 28.1233C27.1919 28.0668 27.2366 27.9997 27.2671 27.9259C27.2976 27.852 27.3133 27.7729 27.3131 27.693V25.87C27.3124 25.2254 27.0558 24.6074 26.5999 24.1516C26.144 23.6958 25.5258 23.4396 24.8812 23.439ZM9.08115 17.373C9.08115 15.4386 9.84962 13.5833 11.2175 12.2154C12.5854 10.8475 14.4407 10.079 16.3752 10.079C18.3096 10.079 20.1649 10.8475 21.5328 12.2154C22.9007 13.5833 23.6692 15.4386 23.6692 17.373V23.439H9.07815L9.08115 17.373ZM26.1002 27.086H6.64715V25.87C6.64742 25.5476 6.77562 25.2385 7.0036 25.0105C7.23159 24.7825 7.54073 24.6543 7.86315 24.654H24.8812C25.2036 24.6543 25.5127 24.7825 25.7407 25.0105C25.9687 25.2385 26.0969 25.5476 26.0972 25.87L26.1002 27.086Z" fill="#555555" stroke="#555555" stroke-width="0.6"/>
<path d="M16.3722 7.647C16.5334 7.647 16.6881 7.58294 16.8021 7.46892C16.9161 7.3549 16.9802 7.20025 16.9802 7.039V4.608C16.9802 4.44675 16.9161 4.2921 16.8021 4.17808C16.6881 4.06406 16.5334 4 16.3722 4C16.2109 4 16.0563 4.06406 15.9422 4.17808C15.8282 4.2921 15.7642 4.44675 15.7642 4.608V7.039C15.764 7.11888 15.7797 7.198 15.8102 7.27183C15.8407 7.34565 15.8855 7.41273 15.9419 7.46921C15.9984 7.5257 16.0655 7.57048 16.1393 7.60099C16.2132 7.6315 16.2923 7.64713 16.3722 7.647Z" fill="#555555" stroke="#555555" stroke-width="0.6"/>
<path d="M22.4499 8.25508C22.5298 8.25521 22.6089 8.23955 22.6827 8.209C22.7565 8.17845 22.8235 8.13362 22.8799 8.07708L24.7049 6.25408C24.8107 6.13856 24.8677 5.9867 24.8643 5.83014C24.8608 5.67359 24.797 5.5244 24.6863 5.41368C24.5756 5.30295 24.4264 5.23921 24.2698 5.23574C24.1133 5.23228 23.9614 5.28935 23.8459 5.39508L22.0209 7.21808C21.9359 7.30311 21.8779 7.41146 21.8545 7.52942C21.831 7.64738 21.843 7.76965 21.889 7.88077C21.9351 7.99189 22.013 8.08685 22.113 8.15366C22.2131 8.22047 22.3307 8.25611 22.4509 8.25608L22.4499 8.25508Z" fill="#555555" stroke="#555555" stroke-width="0.6"/>
<path d="M9.86325 8.07703C9.97822 8.18582 10.1311 8.24549 10.2893 8.24335C10.4476 8.24121 10.5988 8.17743 10.7108 8.06557C10.8228 7.95371 10.8867 7.80259 10.8891 7.64433C10.8914 7.48606 10.8319 7.33313 10.7232 7.21803L8.90125 5.39503C8.84582 5.33446 8.77869 5.28574 8.70391 5.25182C8.62914 5.2179 8.54827 5.19948 8.46618 5.19766C8.38409 5.19584 8.30249 5.21067 8.22628 5.24125C8.15008 5.27183 8.08087 5.31753 8.02281 5.37559C7.96475 5.43365 7.91905 5.50286 7.88847 5.57907C7.85789 5.65527 7.84306 5.73687 7.84488 5.81896C7.84669 5.90105 7.86511 5.98192 7.89904 6.05669C7.93296 6.13147 7.98168 6.19859 8.04225 6.25403L9.86325 8.07703Z" fill="#555555" stroke="#555555" stroke-width="0.6"/>
<path d="M29.6801 11.022C29.6078 10.8778 29.4813 10.7683 29.3284 10.7173C29.1754 10.6663 29.0084 10.6781 28.8641 10.75L26.4331 11.966C26.2936 12.0408 26.1887 12.167 26.1408 12.3179C26.0929 12.4688 26.1058 12.6324 26.1766 12.774C26.2475 12.9156 26.3707 13.0239 26.5202 13.076C26.6697 13.1281 26.8336 13.1198 26.9771 13.053L29.4081 11.837C29.5522 11.7649 29.6617 11.6386 29.7127 11.4857C29.7637 11.3329 29.752 11.1661 29.6801 11.022Z" fill="#555555" stroke="#555555" stroke-width="0.6"/>
<path d="M6.03909 13.1171C6.17613 13.1172 6.30919 13.071 6.41669 12.986C6.52418 12.901 6.5998 12.7821 6.6313 12.6488C6.66279 12.5154 6.6483 12.3753 6.59017 12.2512C6.53205 12.1271 6.43371 12.0263 6.31109 11.9651L3.87909 10.7501C3.73671 10.6892 3.57648 10.685 3.43109 10.7383C3.2857 10.7915 3.16611 10.8983 3.09672 11.0367C3.02732 11.1751 3.01334 11.3348 3.05764 11.4831C3.10194 11.6315 3.20117 11.7574 3.33509 11.8351L5.76609 13.0511C5.85076 13.0939 5.94421 13.1165 6.03909 13.1171Z" fill="#555555" stroke="#555555" stroke-width="0.6"/>
<path d="M17.1859 12.1079C15.5745 12.1098 14.0296 12.7507 12.8902 13.8902C11.7507 15.0296 11.1098 16.5745 11.1079 18.1859C11.1079 18.3472 11.172 18.5018 11.286 18.6159C11.4 18.7299 11.5547 18.7939 11.7159 18.7939C11.8772 18.7939 12.0318 18.7299 12.1458 18.6159C12.2599 18.5018 12.3239 18.3472 12.3239 18.1859C12.3252 16.8966 12.838 15.6604 13.7497 14.7487C14.6614 13.837 15.8976 13.3243 17.1869 13.3229C17.3482 13.3229 17.5028 13.2589 17.6168 13.1449C17.7309 13.0308 17.7949 12.8762 17.7949 12.7149C17.7949 12.5537 17.7309 12.399 17.6168 12.285C17.5028 12.171 17.3482 12.1069 17.1869 12.1069L17.1859 12.1079Z" fill="#2EB6C7" stroke="#2EB6C7" stroke-width="0.6"/>
</g>
</g>
<defs>
<clipPath id="clip0_2912_7086">
<rect width="32" height="32" fill="white"/>
</clipPath>
</defs>
</svg>
