<svg width="48" height="48" viewBox="0 0 48 48" fill="none" xmlns="http://www.w3.org/2000/svg">
<g clip-path="url(#clip0_477_2668)">
<path d="M33.3822 26.4159H27.2212C26.6689 26.4159 26.2212 26.8636 26.2212 27.4159V33.5769C26.2212 34.1292 26.6689 34.5769 27.2212 34.5769H33.3822C33.9345 34.5769 34.3822 34.1292 34.3822 33.5769V27.4159C34.3822 26.8636 33.9345 26.4159 33.3822 26.4159Z" stroke="#171B1D" stroke-width="2"/>
<path d="M20.661 13.4509H14.5C13.9477 13.4509 13.5 13.8986 13.5 14.4509V20.6119C13.5 21.1642 13.9477 21.6119 14.5 21.6119H20.661C21.2133 21.6119 21.661 21.1642 21.661 20.6119V14.4509C21.661 13.8986 21.2133 13.4509 20.661 13.4509Z" stroke="#171B1D" stroke-width="2"/>
<path d="M20.661 26.4159H14.5C13.9477 26.4159 13.5 26.8636 13.5 27.4159V33.5769C13.5 34.1292 13.9477 34.5769 14.5 34.5769H20.661C21.2133 34.5769 21.661 34.1292 21.661 33.5769V27.4159C21.661 26.8636 21.2133 26.4159 20.661 26.4159Z" stroke="#171B1D" stroke-width="2"/>
<path d="M30.2812 14.45C29.4646 14.451 28.6818 14.7758 28.1045 15.3532C27.5271 15.9306 27.2022 16.7134 27.2012 17.53C27.202 18.3467 27.5267 19.1297 28.1041 19.7073C28.6815 20.2849 29.4645 20.6099 30.2812 20.611C31.0979 20.6102 31.8809 20.2854 32.4585 19.708C33.0361 19.1306 33.3611 18.3477 33.3622 17.531C33.3614 16.7142 33.0367 15.9312 32.4592 15.3536C31.8818 14.776 31.0979 14.451 30.2812 14.45ZM30.2822 12.45C31.6296 12.45 32.9218 12.9852 33.8746 13.938C34.8274 14.8908 35.3627 16.183 35.3627 17.5305C35.3627 18.8779 34.8274 20.1701 33.8746 21.1229C32.9218 22.0757 31.6296 22.611 30.2822 22.611C28.9347 22.6111 27.6424 22.0759 26.6896 21.1233C25.7367 20.1706 25.2013 18.8784 25.2012 17.531C25.201 16.1835 25.7362 14.8912 26.6889 13.9383C27.6415 12.9855 28.9347 12.4501 30.2822 12.45Z" fill="#5AB4C5"/>
</g>
<defs>
<clipPath id="clip0_477_2668">
<rect width="48" height="48" fill="white"/>
</clipPath>
</defs>
</svg>
