<svg width="24" height="24" viewBox="0 0 24 24" fill="none" xmlns="http://www.w3.org/2000/svg">
<path fill-rule="evenodd" clip-rule="evenodd" d="M8.78078 2C7.86304 2 7.06308 2.62459 6.84049 3.51493L6.21922 6H3C2.44772 6 2 6.44772 2 7C2 7.55228 2.44772 8 3 8H4.06888L4.86986 19.2137C4.982 20.7837 6.28832 22 7.86224 22H16.1378C17.7117 22 19.018 20.7837 19.1301 19.2137L19.9311 8H21C21.5523 8 22 7.55228 22 7C22 6.44772 21.5523 6 21 6H17.7808L17.1595 3.51493C16.9369 2.62459 16.137 2 15.2192 2H8.78078ZM15.7192 6L15.2192 4L8.78078 4L8.28078 6H15.7192ZM6.07398 8H17.926L17.1352 19.0712C17.0978 19.5946 16.6624 20 16.1378 20H7.86224C7.3376 20 6.90216 19.5946 6.86478 19.0712L6.07398 8ZM10 10C10.5523 10 11 10.4477 11 11V17C11 17.5523 10.5523 18 10 18C9.44772 18 9 17.5523 9 17V11C9 10.4477 9.44772 10 10 10ZM15 11C15 10.4477 14.5523 10 14 10C13.4477 10 13 10.4477 13 11V17C13 17.5523 13.4477 18 14 18C14.5523 18 15 17.5523 15 17V11Z" fill="#0B0D0E"/>
</svg>
