<svg width="24" height="24" viewBox="0 0 24 24" fill="none" xmlns="http://www.w3.org/2000/svg">
<path d="M13.8569 15.813H18.5571C18.7633 15.8155 18.962 15.7369 19.1108 15.5943C19.2597 15.4516 19.3467 15.2562 19.353 15.05C19.3593 14.8439 19.2844 14.6436 19.1445 14.4921C19.0046 14.3406 18.8109 14.2501 18.605 14.24H13.8521C13.6435 14.24 13.4434 14.3229 13.2959 14.4704C13.1484 14.6179 13.0654 14.8179 13.0654 15.0265C13.0654 15.2351 13.1484 15.4351 13.2959 15.5826C13.4434 15.7301 13.6435 15.813 13.8521 15.813H13.8569Z" fill="#0B0D0E"/>
<path d="M21.3559 4H2.58977C2.13522 4.03931 1.71449 4.2553 1.4174 4.60156C1.12031 4.94783 0.970672 5.39678 1.0009 5.85202V18.673C0.970932 19.1282 1.12036 19.577 1.4174 19.9232C1.71444 20.2694 2.13532 20.4855 2.58977 20.525H21.3949C21.6034 20.516 21.8073 20.4633 21.9941 20.3703C22.1808 20.2772 22.3462 20.146 22.4789 19.985C22.7852 19.6179 22.9497 19.1531 22.9428 18.675V5.85501C22.9739 5.39959 22.825 4.95014 22.5282 4.60327C22.2315 4.25641 21.8106 4.0398 21.3559 4ZM21.3671 8.09C21.3737 8.15053 21.3561 8.21127 21.3188 8.2594C21.2815 8.30753 21.2272 8.33931 21.1669 8.34802H2.76701C2.71265 8.34217 2.66259 8.31523 2.62785 8.27301C2.58671 8.21955 2.56544 8.15341 2.56779 8.086V5.914C2.56532 5.84673 2.58624 5.78069 2.62688 5.72702C2.64364 5.70396 2.66548 5.68515 2.69084 5.67212C2.7162 5.65909 2.74436 5.6522 2.77287 5.65201H21.1728C21.233 5.66 21.2877 5.6913 21.3251 5.73917C21.3625 5.78703 21.3798 5.84766 21.373 5.90802V8.09H21.3671ZM2.56682 11.303C2.56436 11.2473 2.58406 11.1928 2.62151 11.1514C2.65895 11.1101 2.7113 11.0851 2.76701 11.082H21.0927C21.1482 11.0851 21.2003 11.1099 21.2377 11.1511C21.2751 11.1922 21.2951 11.2464 21.2929 11.302V18.73C21.2951 18.7856 21.2751 18.8398 21.2377 18.881C21.2003 18.9221 21.1482 18.9469 21.0927 18.95H2.76799C2.71246 18.9469 2.66038 18.9221 2.62297 18.881C2.58556 18.8398 2.56561 18.7856 2.56779 18.73L2.56682 11.303Z" fill="#0B0D0E"/>
</svg>
