<svg width="48" height="48" viewBox="0 0 48 48" fill="none" xmlns="http://www.w3.org/2000/svg">
<path d="M34.4229 15.094C30.9095 14.5748 27.5321 13.3714 24.4819 11.552C24.3136 11.4519 24.1213 11.399 23.9254 11.399C23.7296 11.399 23.5373 11.4519 23.369 11.552C20.3324 13.3844 16.9568 14.5844 13.4449 15.08C13.1829 15.119 12.9436 15.2508 12.7705 15.4514C12.5975 15.652 12.5022 15.9081 12.502 16.173V24.457C12.5614 25.9173 12.9698 27.3422 13.6931 28.6123C14.4163 29.8824 15.4333 30.9607 16.6589 31.757L23.2769 36.528C23.4705 36.6692 23.7043 36.7446 23.9439 36.743H24.1509L24.1769 36.717C24.3186 36.6839 24.4519 36.6223 24.5689 36.536L31.18 31.778C32.4116 30.9806 33.4337 29.899 34.1602 28.6243C34.8868 27.3496 35.2965 25.919 35.3549 24.453V16.192C35.3579 15.9265 35.2648 15.669 35.0928 15.4668C34.9208 15.2647 34.6814 15.1315 34.4189 15.092M33.1599 18.628V24.434C33.1018 25.5485 32.7771 26.6329 32.2132 27.596C31.6493 28.5591 30.8625 29.3729 29.9189 29.969L25.0509 33.469C24.7241 33.7052 24.3312 33.8323 23.9279 33.8323C23.5247 33.8323 23.1318 33.7052 22.805 33.469L17.934 29.963C16.9878 29.3705 16.1991 28.5578 15.6353 27.5943C15.0714 26.6307 14.7491 25.5451 14.696 24.43V18.312C14.6988 17.9766 14.8162 17.6523 15.0286 17.3927C15.241 17.1332 15.5358 16.954 15.864 16.885C18.3581 16.3348 20.7677 15.4544 23.029 14.267C23.3087 14.1188 23.6204 14.0409 23.937 14.04H24.037C24.3163 14.0554 24.589 14.1304 24.8369 14.26C27.0283 15.3994 29.3538 16.2601 31.7589 16.822C32.163 16.9198 32.5217 17.1522 32.7762 17.481C33.0306 17.8097 33.1656 18.2153 33.1589 18.631" fill="#171B1D"/>
<path d="M27.7609 22.2679H25.2339V19.7399C25.2329 19.3911 25.0937 19.0568 24.847 18.8102C24.6002 18.5636 24.2658 18.4247 23.9169 18.424C23.5675 18.4242 23.2325 18.563 22.9853 18.8099C22.738 19.0567 22.5987 19.3916 22.5979 19.7409V22.2699H20.0659C19.721 22.2715 19.3905 22.4081 19.1451 22.6504C18.8997 22.8928 18.759 23.2216 18.7531 23.5664C18.7472 23.9113 18.8766 24.2447 19.1136 24.4953C19.3506 24.7458 19.6763 24.8936 20.0209 24.9069H22.5979V27.4319C22.599 27.7814 22.7383 28.1163 22.9854 28.3635C23.2326 28.6106 23.5674 28.7499 23.9169 28.7509C24.2654 28.7483 24.5987 28.6083 24.8446 28.3614C25.0904 28.1144 25.2289 27.7804 25.2299 27.4319V24.9059H27.8299C28.1771 24.8934 28.5053 24.7445 28.7433 24.4914C28.9813 24.2383 29.1098 23.9016 29.101 23.5543C29.0922 23.207 28.9467 22.8772 28.6962 22.6366C28.4456 22.3959 28.1103 22.2638 27.7629 22.2689" fill="#5AB4C5"/>
</svg>
