<svg id="Icon_bill_car" data-name="Icon / bill / car" xmlns="http://www.w3.org/2000/svg" width="24" height="24" viewBox="0 0 24 24">
    <defs>
        <style>
            .cls-2{fill:#333}.cls-3{fill:#4d4d4d}
        </style>
    </defs>
    <path id="矩形_6816" data-name="矩形 6816" style="fill:none" d="M0 0h24v24H0z"/>
    <g id="组_11687" data-name="组 11687" transform="translate(1 4)">
        <g id="组_4234" data-name="组 4234" transform="translate(0 .509)">
            <g id="组_4231-2" data-name="组 4231-2">
                <g id="组_11646" data-name="组 11646" transform="translate(0 5.123)">
                    <path id="路径_4032" data-name="路径 4032" class="cls-2" d="M4591.888 368.7h-19.271a.615.615 0 0 1-.615-.615v-3.472a3.084 3.084 0 0 1 .976-2.247l1.821-1.7a.614.614 0 0 1 .42-.166h14.07a.626.626 0 0 1 .42.166l1.82 1.7a3.082 3.082 0 0 1 .976 2.247v3.472a.615.615 0 0 1-.615.615zm-18.658-1.23h18.042v-2.857a1.853 1.853 0 0 0-.585-1.348l-1.645-1.537h-13.582l-1.645 1.537a1.849 1.849 0 0 0-.585 1.348z" transform="translate(-4571.603 -360.096)"/>
                    <path id="路径_11517" data-name="路径 11517" class="cls-2" d="M4591.791 369h-19.272a1.014 1.014 0 0 1-1.013-1.013v-3.472a3.493 3.493 0 0 1 1.1-2.538l1.82-1.7a1.014 1.014 0 0 1 .692-.273h14.07a1.015 1.015 0 0 1 .691.273l1.821 1.7a3.49 3.49 0 0 1 1.1 2.538v3.472a1.014 1.014 0 0 1-1.009 1.013zm-2.6-8.2h-14.071a.221.221 0 0 0-.149.059l-1.82 1.7a2.687 2.687 0 0 0-.85 1.956v3.472a.217.217 0 0 0 .217.217h19.271a.219.219 0 0 0 .219-.217v-3.472a2.7 2.7 0 0 0-.849-1.956l-1.821-1.7a.225.225 0 0 0-.151-.065zm2.385 6.972h-18.838v-3.255a2.253 2.253 0 0 1 .712-1.639l1.759-1.643h13.9l1.76 1.644a2.257 2.257 0 0 1 .71 1.638zm-18.042-.8h17.247v-2.458a1.459 1.459 0 0 0-.459-1.057l-1.528-1.43h-13.271l-1.528 1.43a1.454 1.454 0 0 0-.46 1.058z" transform="translate(-4571.505 -359.998)"/>
                </g>
                <g id="组_11647" data-name="组 11647" transform="translate(2.461)">
                    <path id="路径_4033" data-name="路径 4033" class="cls-2" d="M4590.036 360.463h-14.352a.615.615 0 0 1-.6-.725l.73-4.012a1.9 1.9 0 0 1 1.809-1.62h10.477a1.9 1.9 0 0 1 1.81 1.62l.729 4.012a.615.615 0 0 1-.6.725zm-13.613-1.231h12.877l-.6-3.286a.675.675 0 0 0-.6-.609h-10.48a.676.676 0 0 0-.6.609z" transform="translate(-4574.672 -353.708)"/>
                    <path id="路径_11518" data-name="路径 11518" class="cls-2" d="M4589.939 360.761h-14.354a1.012 1.012 0 0 1-1-1.194l.729-4.011a2.291 2.291 0 0 1 2.187-1.946H4588a2.3 2.3 0 0 1 2.2 1.96l.729 4a1.014 1.014 0 0 1-1 1.193zm-1.951-6.355h-10.468a1.494 1.494 0 0 0-1.416 1.279l-.732 4.025a.219.219 0 0 0 .047.177.216.216 0 0 0 .167.078h14.354a.212.212 0 0 0 .165-.078.209.209 0 0 0 .047-.176l-.73-4.012a1.5 1.5 0 0 0-1.433-1.293zm1.691 5.125h-13.832l.684-3.754a1.065 1.065 0 0 1 .947-.934h10.526a1.086 1.086 0 0 1 1 .971zm-12.877-.8h11.924l-.514-2.817a.292.292 0 0 0-.252-.286h-10.439a.28.28 0 0 0-.2.249z" transform="translate(-4574.573 -353.61)"/>
                </g>
                <path id="路径_4035" data-name="路径 4035" class="cls-2" d="M4575.727 373.527h-1.363a1.33 1.33 0 0 1-1.329-1.328v-1.749a.616.616 0 0 1 .615-.615h2.789a.616.616 0 0 1 .616.615v1.75a1.331 1.331 0 0 1-1.328 1.327z" transform="translate(-4571.808 -356.823)"/>
                <path id="路径_4036" data-name="路径 4036" class="cls-2" d="M4593.979 373.527h-1.363a1.33 1.33 0 0 1-1.329-1.328v-1.749a.616.616 0 0 1 .615-.615h2.789a.615.615 0 0 1 .615.615v1.75a1.328 1.328 0 0 1-1.327 1.327z" transform="translate(-4575.421 -356.823)"/>
                <g id="组_11648" data-name="组 11648" transform="translate(.41 3.895)">
                    <path id="路径_4037" data-name="路径 4037" class="cls-3" d="M4575.317 361.42a.6.6 0 0 1-.3-.078l-2.192-1.23a.615.615 0 0 1 .6-1.071l2.191 1.231a.613.613 0 0 1-.3 1.148z" transform="translate(-4572.115 -358.564)"/>
                    <path id="路径_11519" data-name="路径 11519" class="cls-3" d="M4575.222 361.72a.968.968 0 0 1-.5-.128l-2.194-1.232a1.012 1.012 0 0 1 .993-1.764l2.192 1.231a1.011 1.011 0 0 1-.5 1.893zm-2.193-2.457a.216.216 0 0 0-.188.11.211.211 0 0 0-.021.164.216.216 0 0 0 .1.13l2.192 1.231a.21.21 0 0 0 .1.026.214.214 0 0 0 .207-.273.216.216 0 0 0-.1-.13l-2.191-1.23a.227.227 0 0 0-.099-.029z" transform="translate(-4572.016 -358.466)"/>
                </g>
                <g id="组_11649" data-name="组 11649" transform="translate(.41 3.895)">
                    <path id="路径_4038" data-name="路径 4038" class="cls-2" d="M4575.317 361.42a.6.6 0 0 1-.3-.078l-2.192-1.23a.615.615 0 0 1 .6-1.071l2.191 1.231a.613.613 0 0 1-.3 1.148z" transform="translate(-4572.115 -358.564)"/>
                    <path id="路径_11520" data-name="路径 11520" class="cls-2" d="M4575.222 361.72a.968.968 0 0 1-.5-.128l-2.194-1.232a1.012 1.012 0 0 1 .993-1.764l2.192 1.231a1.011 1.011 0 0 1-.5 1.893zm-2.193-2.457a.216.216 0 0 0-.188.11.211.211 0 0 0-.021.164.216.216 0 0 0 .1.13l2.192 1.231a.21.21 0 0 0 .1.026.214.214 0 0 0 .207-.273.216.216 0 0 0-.1-.13l-2.191-1.23a.227.227 0 0 0-.099-.029z" transform="translate(-4572.016 -358.466)"/>
                </g>
                <g id="组_11650" data-name="组 11650" transform="translate(16.812 3.894)">
                    <path id="路径_4039" data-name="路径 4039" class="cls-2" d="M4593.579 361.42a.613.613 0 0 1-.3-1.148l2.193-1.23a.614.614 0 1 1 .6 1.07l-2.191 1.231a.606.606 0 0 1-.302.077z" transform="translate(-4592.565 -358.563)"/>
                    <path id="路径_11521" data-name="路径 11521" class="cls-2" d="M4593.479 361.72a1.012 1.012 0 0 1-.5-1.893l2.194-1.231a1.012 1.012 0 1 1 .993 1.764l-2.19 1.23a1.012 1.012 0 0 1-.5.129zm2.192-2.458a.222.222 0 0 0-.1.027l-2.192 1.231a.219.219 0 0 0-.082.3.217.217 0 0 0 .188.107.214.214 0 0 0 .107-.027l2.191-1.23a.219.219 0 0 0 .1-.13.217.217 0 0 0-.021-.164.216.216 0 0 0-.189-.111z" transform="translate(-4592.467 -358.465)"/>
                </g>
            </g>
        </g>
        <path id="路径_1786" data-name="路径 1786" d="M4597.337 350.108a2.286 2.286 0 0 0-1.585-.577h-2.552a.674.674 0 0 0-.706.64.65.65 0 0 0 0 .107v5.659a.676.676 0 0 0 .593.751.706.706 0 0 0 .109 0c.314 0 .642-.2.642-.755v-2.071h1.983a2.087 2.087 0 0 0 1.557-.65 2.313 2.313 0 0 0 .594-1.6 2.018 2.018 0 0 0-.631-1.5zm-1.016 2.172a.883.883 0 0 1-.647.243h-1.837l-.008-1.646h1.793a1.07 1.07 0 0 1 .7.229.6.6 0 0 1 .249.506.877.877 0 0 1-.246.668z" transform="translate(-4575.66 -349.531)" style="fill:#2eb6c7"/>
    </g>
</svg>
