<svg width="24" height="24" viewBox="0 0 24 24" fill="none" xmlns="http://www.w3.org/2000/svg">
<g clip-path="url(#clip0_1632_10206)">
<path d="M21.6588 21.1675L17.4252 17.0082C19.0633 15.1147 19.9006 12.6765 19.765 10.195C19.6293 7.71347 18.531 5.37737 16.6959 3.66708C14.8608 1.95679 12.4284 1.00234 9.8989 1C7.36943 0.99767 4.93522 1.94764 3.09683 3.65453C1.25845 5.36143 0.155662 7.6955 0.0152592 10.1767C-0.125144 12.658 0.707498 15.0978 2.34198 16.9943C3.97646 18.8909 6.28852 20.1001 8.80266 20.3732C11.3168 20.6464 13.8419 19.9627 15.8587 18.4628L20.1348 22.6648C20.2336 22.7685 20.3526 22.8515 20.4848 22.9091C20.617 22.9667 20.7595 22.9975 20.9041 22.9999C21.0486 23.0022 21.1922 22.9759 21.3262 22.9227C21.4602 22.8694 21.582 22.7902 21.6842 22.6897C21.7864 22.5893 21.867 22.4697 21.9213 22.338C21.9755 22.2064 22.0022 22.0654 21.9999 21.9233C21.9975 21.7813 21.9661 21.6412 21.9075 21.5114C21.8489 21.3815 21.7643 21.2646 21.6588 21.1675ZM9.94638 18.3174C8.43545 18.3174 6.95845 17.8772 5.70217 17.0525C4.44588 16.2278 3.4667 15.0557 2.88849 13.6843C2.31028 12.3128 2.159 10.8038 2.45377 9.34788C2.74853 7.892 3.47613 6.55468 4.54452 5.50505C5.6129 4.45541 6.9741 3.7406 8.45599 3.45101C9.93789 3.16142 11.4739 3.31005 12.8698 3.8781C14.2657 4.44616 15.4589 5.40814 16.2983 6.64238C17.1377 7.87662 17.5857 9.32769 17.5857 10.8121C17.5845 12.8022 16.7792 14.7105 15.3468 16.1178C13.9144 17.525 11.9721 18.3161 9.94638 18.3174Z" fill="#434344"/>
<path d="M21.5751 1C20.9315 1.00071 20.3146 1.23815 19.8596 1.66021C19.4046 2.08228 19.1488 2.65449 19.1483 3.25127C19.1511 3.61756 19.2515 3.97753 19.4406 4.29913L13.8586 9.47534C13.837 9.50155 13.8174 9.52918 13.8001 9.558C13.4537 9.47135 13.0902 9.4619 12.7391 9.53044L11.8832 8.65056C12.1211 8.30934 12.2547 7.91471 12.27 7.50865C12.2853 7.10259 12.1815 6.70029 11.9699 6.34454C11.7582 5.98879 11.4465 5.69289 11.068 5.48832C10.6894 5.28375 10.2581 5.17817 9.81996 5.1828C9.38183 5.18742 8.95323 5.30208 8.57978 5.51459C8.20632 5.7271 7.90197 6.0295 7.6991 6.38962C7.49622 6.74975 7.4024 7.15414 7.42763 7.55977C7.45286 7.96541 7.59618 8.35711 7.84236 8.69322L6.93568 9.53312C6.38367 9.42517 5.80837 9.49841 5.30816 9.74032C4.80796 9.98224 4.41394 10.3778 4.19349 10.8593C3.97304 11.3409 3.93986 11.8785 4.09962 12.3802C4.25939 12.8819 4.60214 13.3166 5.06931 13.6098C5.53648 13.9031 6.09902 14.0367 6.6607 13.9879C7.22238 13.939 7.74832 13.7108 8.14855 13.3421C8.54878 12.9734 8.79845 12.4872 8.85484 11.9667C8.91123 11.4462 8.77084 10.9237 8.45769 10.4885L9.37493 9.63799C9.71232 9.70304 10.0612 9.69697 10.3957 9.62022L11.219 10.4672C10.9693 10.8022 10.8222 11.1937 10.7934 11.6001C10.7645 12.0064 10.8551 12.4124 11.0554 12.7749C11.2556 13.1373 11.5581 13.4426 11.9306 13.6582C12.3031 13.8739 12.7318 13.9919 13.1708 13.9996C13.6099 14.0073 14.0431 13.9045 14.4241 13.7021C14.8052 13.4996 15.1199 13.2052 15.3349 12.85C15.5498 12.4949 15.6569 12.0924 15.6447 11.6853C15.6325 11.2782 15.5015 10.8818 15.2656 10.5383L20.8246 5.38343C21.0656 5.46038 21.3183 5.50119 21.5732 5.5043C22.2168 5.5043 22.8341 5.26721 23.2892 4.84518C23.7443 4.42316 24 3.85077 24 3.25393C24 2.6571 23.7443 2.0847 23.2892 1.66267C22.8341 1.24065 22.2168 1.00356 21.5732 1.00356M9.84649 6.85791C9.96948 6.85791 10.0897 6.89171 10.192 6.95506C10.2943 7.0184 10.374 7.10843 10.4211 7.21378C10.4682 7.31912 10.4806 7.43506 10.4566 7.54692C10.4327 7.65879 10.3736 7.76157 10.2867 7.84228C10.1998 7.92298 10.089 7.97799 9.96844 8.00034C9.84784 8.0227 9.72281 8.0114 9.60913 7.96788C9.49545 7.92436 9.39823 7.85057 9.32977 7.75583C9.2613 7.66109 9.22466 7.54966 9.22447 7.43561C9.22447 7.28255 9.28998 7.13574 9.40661 7.02743C9.52323 6.91911 9.68143 6.85814 9.84649 6.85791ZM6.43729 12.3159C6.31439 12.3155 6.19434 12.2814 6.09232 12.2179C5.9903 12.1543 5.91087 12.0641 5.86406 11.9588C5.81724 11.8534 5.80514 11.7375 5.82928 11.6258C5.85342 11.514 5.91271 11.4114 5.99969 11.3309C6.08666 11.2503 6.19741 11.1955 6.31795 11.1733C6.4385 11.1511 6.56346 11.1625 6.67702 11.2061C6.79059 11.2496 6.88768 11.3234 6.95607 11.4181C7.02445 11.5128 7.06103 11.6242 7.06122 11.7382C7.06122 11.8141 7.04508 11.8893 7.01372 11.9594C6.98235 12.0296 6.93636 12.0933 6.87841 12.147C6.82046 12.2006 6.75167 12.2432 6.67597 12.2721C6.60027 12.3011 6.51919 12.316 6.43729 12.3159ZM13.2174 12.3159C13.0945 12.3155 12.9745 12.2814 12.8724 12.2179C12.7704 12.1543 12.691 12.0641 12.6442 11.9588C12.5974 11.8534 12.5853 11.7375 12.6094 11.6258C12.6335 11.514 12.6928 11.4114 12.7798 11.3309C12.8668 11.2503 12.9775 11.1955 13.0981 11.1733C13.2186 11.1511 13.3436 11.1625 13.4571 11.2061C13.5707 11.2496 13.6678 11.3234 13.7362 11.4181C13.8046 11.5128 13.8411 11.6242 13.8413 11.7382C13.8413 11.8141 13.8252 11.8893 13.7938 11.9594C13.7625 12.0296 13.7165 12.0933 13.6585 12.147C13.6006 12.2006 13.5318 12.2432 13.4561 12.2721C13.3804 12.3011 13.2993 12.316 13.2174 12.3159ZM21.5732 3.83075C21.4503 3.8304 21.3302 3.79626 21.2281 3.73267C21.1261 3.66908 21.0467 3.57887 20.9999 3.47344C20.9531 3.36801 20.9411 3.25209 20.9653 3.14031C20.9895 3.02854 21.0489 2.92593 21.136 2.84544C21.223 2.76494 21.3338 2.71019 21.4545 2.68807C21.5751 2.66596 21.7001 2.67749 21.8136 2.7212C21.9272 2.76491 22.0242 2.83884 22.0924 2.93365C22.1607 3.02847 22.1972 3.13992 22.1972 3.25393C22.197 3.3298 22.1808 3.40489 22.1494 3.47494C22.1179 3.54498 22.0719 3.60861 22.014 3.66217C21.9561 3.71573 21.8873 3.75819 21.8117 3.78711C21.736 3.81604 21.655 3.83086 21.5732 3.83075Z" fill="#279EAE"/>
</g>
<defs>
<clipPath id="clip0_1632_10206">
<rect width="24" height="24" fill="white"/>
</clipPath>
</defs>
</svg>
