<svg width="24" height="24" viewBox="0 0 24 24" fill="none" xmlns="http://www.w3.org/2000/svg">
<path d="M20.5833 1.126H5.24731C5.13175 1.12454 5.01675 1.14586 4.90942 1.18874C4.8021 1.23163 4.70457 1.29524 4.62183 1.37594C4.53909 1.45663 4.47305 1.55283 4.42749 1.65905C4.38193 1.76527 4.35764 1.87942 4.3562 1.99499V4.81899H2.79517C2.70552 4.81195 2.61547 4.82354 2.53052 4.85302C2.44556 4.88249 2.36754 4.92921 2.30151 4.99026C2.23549 5.0513 2.18276 5.12534 2.14673 5.20772C2.1107 5.29011 2.09204 5.37906 2.09204 5.46898C2.09204 5.55891 2.1107 5.64786 2.14673 5.73025C2.18276 5.81263 2.23549 5.8867 2.30151 5.94774C2.36754 6.00879 2.44556 6.05551 2.53052 6.08498C2.61547 6.11446 2.70552 6.12605 2.79517 6.11901H4.3562V9.161H2.79517C2.70552 9.15396 2.61547 9.16556 2.53052 9.19503C2.44556 9.2245 2.36754 9.27122 2.30151 9.33227C2.23549 9.39331 2.18276 9.46735 2.14673 9.54973C2.1107 9.63212 2.09204 9.72107 2.09204 9.811C2.09204 9.90092 2.1107 9.98987 2.14673 10.0723C2.18276 10.1546 2.23549 10.2287 2.30151 10.2897C2.36754 10.3508 2.44556 10.3975 2.53052 10.427C2.61547 10.4565 2.70552 10.468 2.79517 10.461H4.3562V13.503H2.79517C2.70552 13.4959 2.61547 13.5075 2.53052 13.537C2.44556 13.5665 2.36754 13.6132 2.30151 13.6742C2.23549 13.7353 2.18276 13.8094 2.14673 13.8917C2.1107 13.9741 2.09204 14.0631 2.09204 14.153C2.09204 14.2429 2.1107 14.3319 2.14673 14.4143C2.18276 14.4967 2.23549 14.5707 2.30151 14.6317C2.36754 14.6928 2.44556 14.7395 2.53052 14.769C2.61547 14.7984 2.70552 14.81 2.79517 14.803H4.3562V17.845H2.79517C2.70552 17.838 2.61547 17.8495 2.53052 17.879C2.44556 17.9085 2.36754 17.9552 2.30151 18.0163C2.23549 18.0773 2.18276 18.1513 2.14673 18.2337C2.1107 18.3161 2.09204 18.4051 2.09204 18.495C2.09204 18.5849 2.1107 18.6739 2.14673 18.7562C2.18276 18.8386 2.23549 18.9127 2.30151 18.9737C2.36754 19.0348 2.44556 19.0815 2.53052 19.111C2.61547 19.1405 2.70552 19.152 2.79517 19.145H4.3562V21.969C4.35764 22.0846 4.38193 22.1987 4.42749 22.3049C4.47305 22.4111 4.53909 22.5073 4.62183 22.588C4.70457 22.6687 4.8021 22.7323 4.90942 22.7752C5.01675 22.8181 5.13175 22.8395 5.24731 22.838H20.5833C20.6989 22.8396 20.8137 22.8184 20.9211 22.7755C21.0286 22.7327 21.1264 22.6691 21.2092 22.5884C21.2921 22.5077 21.3584 22.4114 21.4041 22.3052C21.4497 22.1989 21.4739 22.0846 21.4753 21.969V1.99898C21.4744 1.88299 21.4504 1.76833 21.405 1.66158C21.3596 1.55484 21.2936 1.45814 21.2107 1.377C21.1278 1.29587 21.0298 1.23191 20.9221 1.18883C20.8144 1.14576 20.6992 1.12441 20.5833 1.126ZM20.0481 21.258C20.0476 21.2937 20.0403 21.329 20.0261 21.3618C20.012 21.3946 19.9912 21.4243 19.9656 21.4492C19.9399 21.4741 19.9099 21.4936 19.8767 21.5068C19.8435 21.52 19.8079 21.5265 19.7722 21.526H6.05591C5.98394 21.5268 5.91458 21.499 5.86304 21.4488C5.81149 21.3986 5.78206 21.33 5.78101 21.258V19.158H6.9812C7.07085 19.165 7.16089 19.1535 7.24585 19.124C7.3308 19.0945 7.40883 19.0478 7.47485 18.9867C7.54088 18.9257 7.59361 18.8516 7.62964 18.7692C7.66567 18.6869 7.68433 18.5979 7.68433 18.508C7.68433 18.4181 7.66567 18.3291 7.62964 18.2467C7.59361 18.1643 7.54088 18.0903 7.47485 18.0293C7.40883 17.9682 7.3308 17.9215 7.24585 17.892C7.16089 17.8625 7.07085 17.851 6.9812 17.858H5.78101V14.816H6.9812C7.07085 14.823 7.16089 14.8114 7.24585 14.782C7.3308 14.7525 7.40883 14.7058 7.47485 14.6447C7.54088 14.5837 7.59361 14.5097 7.62964 14.4273C7.66567 14.3449 7.68433 14.2559 7.68433 14.166C7.68433 14.0761 7.66567 13.9871 7.62964 13.9047C7.59361 13.8224 7.54088 13.7483 7.47485 13.6872C7.40883 13.6262 7.3308 13.5795 7.24585 13.55C7.16089 13.5205 7.07085 13.5089 6.9812 13.516H5.78101V10.474H6.9812C7.07085 10.481 7.16089 10.4695 7.24585 10.44C7.3308 10.4105 7.40883 10.3638 7.47485 10.3027C7.54088 10.2417 7.59361 10.1676 7.62964 10.0853C7.66567 10.0029 7.68433 9.91392 7.68433 9.824C7.68433 9.73407 7.66567 9.64512 7.62964 9.56273C7.59361 9.48035 7.54088 9.40631 7.47485 9.34527C7.40883 9.28422 7.3308 9.23747 7.24585 9.208C7.16089 9.17852 7.07085 9.16696 6.9812 9.174H5.78101V6.13201H6.9812C7.07085 6.13905 7.16089 6.12746 7.24585 6.09798C7.3308 6.06851 7.40883 6.02179 7.47485 5.96074C7.54088 5.8997 7.59361 5.82563 7.62964 5.74325C7.66567 5.66086 7.68433 5.57191 7.68433 5.48199C7.68433 5.39206 7.66567 5.30311 7.62964 5.22072C7.59361 5.13834 7.54088 5.0643 7.47485 5.00326C7.40883 4.94221 7.3308 4.89549 7.24585 4.86602C7.16089 4.83654 7.07085 4.82495 6.9812 4.83199H5.78101V2.73199C5.7814 2.69627 5.78895 2.66098 5.80298 2.62813C5.81701 2.59528 5.8375 2.56553 5.86304 2.54055C5.88857 2.51557 5.91875 2.49584 5.9519 2.48253C5.98506 2.46923 6.02019 2.46261 6.05591 2.463H19.7722C19.808 2.46247 19.8434 2.46902 19.8767 2.48226C19.91 2.4955 19.9404 2.51519 19.9661 2.54018C19.9917 2.56517 20.012 2.59497 20.0261 2.62789C20.0402 2.66081 20.0477 2.69618 20.0481 2.73199V21.258Z" fill="#0B0D0E"/>
<path d="M20.5833 22.976H5.24634C4.97977 22.9787 4.72262 22.8755 4.53198 22.6892C4.34134 22.5029 4.23268 22.2485 4.22925 21.982V19.282H2.79419C2.58812 19.282 2.39059 19.2001 2.24487 19.0544C2.09916 18.9087 2.01733 18.7111 2.01733 18.505C2.01733 18.2989 2.09916 18.1013 2.24487 17.9556C2.39059 17.8099 2.58812 17.728 2.79419 17.728H4.22925V14.937H2.79419C2.58812 14.937 2.39059 14.8551 2.24487 14.7094C2.09916 14.5637 2.01733 14.3661 2.01733 14.16C2.01733 13.9539 2.09916 13.7563 2.24487 13.6106C2.39059 13.4649 2.58812 13.383 2.79419 13.383H4.22925V10.592H2.79419C2.58812 10.592 2.39059 10.5101 2.24487 10.3644C2.09916 10.2187 2.01733 10.0211 2.01733 9.81499C2.01733 9.60892 2.09916 9.4113 2.24487 9.26558C2.39059 9.11987 2.58812 9.03798 2.79419 9.03798H4.22925V6.247H2.79419C2.58812 6.247 2.39059 6.16514 2.24487 6.01943C2.09916 5.87371 2.01733 5.67606 2.01733 5.46999C2.01733 5.26392 2.09916 5.0663 2.24487 4.92058C2.39059 4.77487 2.58812 4.69298 2.79419 4.69298H4.22925V1.993C4.23268 1.72645 4.34134 1.47212 4.53198 1.28579C4.72262 1.09946 4.97977 0.996344 5.24634 0.999013H20.5833C20.8498 0.996344 21.1065 1.09946 21.2971 1.28579C21.4878 1.47212 21.5969 1.72645 21.6003 1.993V21.981C21.5972 22.2477 21.4883 22.5023 21.2976 22.6889C21.1069 22.8754 20.85 22.9787 20.5833 22.976ZM2.79419 17.976C2.72312 17.9729 2.65227 17.9842 2.58569 18.0093C2.51912 18.0344 2.45788 18.0726 2.40649 18.1218C2.35511 18.171 2.31431 18.2301 2.28638 18.2955C2.25844 18.3609 2.24438 18.4314 2.24438 18.5025C2.24438 18.5736 2.25844 18.644 2.28638 18.7095C2.31431 18.7749 2.35511 18.834 2.40649 18.8832C2.45788 18.9324 2.51912 18.9707 2.58569 18.9957C2.65227 19.0208 2.72312 19.0321 2.79419 19.029H4.48022V21.979C4.48365 22.179 4.56615 22.3695 4.70972 22.5087C4.85329 22.648 5.04634 22.7247 5.24634 22.722H20.5833C20.7834 22.7249 20.9766 22.6484 21.1204 22.5091C21.2641 22.3698 21.3469 22.1792 21.3503 21.979V1.99401C21.3469 1.79385 21.2641 1.60321 21.1204 1.46392C20.9766 1.32463 20.7834 1.24805 20.5833 1.251H5.24634C5.04634 1.24832 4.85329 1.32502 4.70972 1.46428C4.56615 1.60354 4.48365 1.79402 4.48022 1.99401V4.94399H2.79419C2.72312 4.94089 2.65227 4.95222 2.58569 4.97728C2.51912 5.00235 2.45788 5.04064 2.40649 5.08983C2.35511 5.13903 2.31431 5.19812 2.28638 5.26354C2.25844 5.32896 2.24438 5.39937 2.24438 5.47051C2.24438 5.54165 2.25844 5.61203 2.28638 5.67745C2.31431 5.74287 2.35511 5.80199 2.40649 5.85119C2.45788 5.90038 2.51912 5.93864 2.58569 5.9637C2.65227 5.98877 2.72312 6.0001 2.79419 5.997H4.48022V9.28899H2.79419C2.72312 9.28589 2.65227 9.29722 2.58569 9.32229C2.51912 9.34735 2.45788 9.38564 2.40649 9.43483C2.35511 9.48403 2.31431 9.54312 2.28638 9.60854C2.25844 9.67396 2.24438 9.74437 2.24438 9.81551C2.24438 9.88665 2.25844 9.95703 2.28638 10.0225C2.31431 10.0879 2.35511 10.147 2.40649 10.1962C2.45788 10.2454 2.51912 10.2836 2.58569 10.3087C2.65227 10.3338 2.72312 10.3451 2.79419 10.342H4.48022V13.634H2.79419C2.72312 13.6309 2.65227 13.6422 2.58569 13.6673C2.51912 13.6923 2.45788 13.7306 2.40649 13.7798C2.35511 13.829 2.31431 13.8881 2.28638 13.9535C2.25844 14.019 2.24438 14.0894 2.24438 14.1605C2.24438 14.2317 2.25844 14.302 2.28638 14.3675C2.31431 14.4329 2.35511 14.492 2.40649 14.5412C2.45788 14.5904 2.51912 14.6286 2.58569 14.6537C2.65227 14.6788 2.72312 14.6901 2.79419 14.687H4.48022V17.979L2.79419 17.976ZM19.7732 21.648H6.05591C5.95085 21.648 5.84999 21.6067 5.77515 21.533C5.7003 21.4593 5.65758 21.359 5.65601 21.254V19.029H6.98511C7.05618 19.0321 7.12703 19.0208 7.1936 18.9957C7.26018 18.9707 7.32093 18.9324 7.37231 18.8832C7.4237 18.834 7.46498 18.7749 7.49292 18.7095C7.52086 18.644 7.53491 18.5736 7.53491 18.5025C7.53491 18.4314 7.52086 18.3609 7.49292 18.2955C7.46498 18.2301 7.4237 18.171 7.37231 18.1218C7.32093 18.0726 7.26018 18.0344 7.1936 18.0093C7.12703 17.9842 7.05618 17.9729 6.98511 17.976H5.65601V14.684H6.98511C7.05618 14.6871 7.12703 14.6758 7.1936 14.6507C7.26018 14.6257 7.32093 14.5874 7.37231 14.5382C7.4237 14.489 7.46498 14.4299 7.49292 14.3645C7.52086 14.299 7.53491 14.2286 7.53491 14.1575C7.53491 14.0864 7.52086 14.0159 7.49292 13.9505C7.46498 13.8851 7.4237 13.826 7.37231 13.7768C7.32093 13.7276 7.26018 13.6894 7.1936 13.6643C7.12703 13.6392 7.05618 13.6279 6.98511 13.631H5.65601V10.339H6.98511C7.05618 10.3421 7.12703 10.3308 7.1936 10.3057C7.26018 10.2807 7.32093 10.2424 7.37231 10.1932C7.4237 10.144 7.46498 10.0849 7.49292 10.0195C7.52086 9.95404 7.53491 9.88363 7.53491 9.81249C7.53491 9.74135 7.52086 9.67094 7.49292 9.60552C7.46498 9.5401 7.4237 9.48101 7.37231 9.43181C7.32093 9.38262 7.26018 9.34436 7.1936 9.31929C7.12703 9.29423 7.05618 9.2829 6.98511 9.286H5.65601V5.99401H6.98511C7.05618 5.99711 7.12703 5.98578 7.1936 5.96071C7.26018 5.93565 7.32093 5.89736 7.37231 5.84816C7.4237 5.79897 7.46498 5.73988 7.49292 5.67446C7.52086 5.60904 7.53491 5.53863 7.53491 5.46749C7.53491 5.39635 7.52086 5.32594 7.49292 5.26052C7.46498 5.19509 7.4237 5.13601 7.37231 5.08681C7.32093 5.03762 7.26018 4.99936 7.1936 4.97429C7.12703 4.94923 7.05618 4.9379 6.98511 4.941H5.65601V2.721C5.65758 2.61595 5.7003 2.51576 5.77515 2.44204C5.84999 2.36831 5.95085 2.32697 6.05591 2.32699H19.7732C19.8782 2.32697 19.9791 2.36831 20.054 2.44204C20.1288 2.51576 20.1715 2.61595 20.1731 2.721V21.26C20.1707 21.3645 20.1277 21.464 20.053 21.537C19.9782 21.6101 19.8777 21.651 19.7732 21.651V21.648ZM5.90698 19.279V21.254C5.90737 21.2732 5.91149 21.2921 5.91919 21.3097C5.92689 21.3272 5.93807 21.3431 5.9519 21.3564C5.96574 21.3697 5.98189 21.3801 5.99976 21.387C6.01762 21.394 6.03673 21.3974 6.05591 21.397H19.7732C19.7924 21.3974 19.8115 21.394 19.8293 21.387C19.8472 21.3801 19.8634 21.3697 19.8772 21.3564C19.891 21.3431 19.9022 21.3272 19.9099 21.3097C19.9176 21.2921 19.9217 21.2732 19.9221 21.254V2.721C19.9217 2.70182 19.9176 2.68293 19.9099 2.66536C19.9022 2.6478 19.891 2.63192 19.8772 2.61864C19.8634 2.60536 19.8472 2.59491 19.8293 2.58794C19.8115 2.58097 19.7924 2.57759 19.7732 2.57799H6.05591C6.03673 2.57759 6.01762 2.58097 5.99976 2.58794C5.98189 2.59491 5.96574 2.60536 5.9519 2.61864C5.93807 2.63192 5.92689 2.6478 5.91919 2.66536C5.91149 2.68293 5.90737 2.70182 5.90698 2.721V4.696H6.98511C7.08714 4.696 7.1882 4.7161 7.28247 4.75515C7.37674 4.79419 7.46227 4.85142 7.53442 4.92357C7.60658 4.99572 7.66383 5.08138 7.70288 5.17565C7.74193 5.26992 7.76196 5.37098 7.76196 5.47301C7.76196 5.57505 7.74193 5.67607 7.70288 5.77034C7.66383 5.86461 7.60658 5.95027 7.53442 6.02242C7.46227 6.09457 7.37674 6.1518 7.28247 6.19085C7.1882 6.22989 7.08714 6.24999 6.98511 6.24999H5.90698V9.04101H6.98511C7.08714 9.04101 7.1882 9.0611 7.28247 9.10015C7.37674 9.1392 7.46227 9.19642 7.53442 9.26857C7.60658 9.34073 7.66383 9.42638 7.70288 9.52065C7.74193 9.61492 7.76196 9.71595 7.76196 9.81798C7.76196 9.92002 7.74193 10.0211 7.70288 10.1153C7.66383 10.2096 7.60658 10.2953 7.53442 10.3674C7.46227 10.4396 7.37674 10.4968 7.28247 10.5358C7.1882 10.5749 7.08714 10.595 6.98511 10.595H5.90698V13.386H6.98511C7.08714 13.386 7.1882 13.4061 7.28247 13.4451C7.37674 13.4842 7.46227 13.5414 7.53442 13.6136C7.60658 13.6857 7.66383 13.7714 7.70288 13.8657C7.74193 13.9599 7.76196 14.0609 7.76196 14.163C7.76196 14.265 7.74193 14.3661 7.70288 14.4603C7.66383 14.5546 7.60658 14.6403 7.53442 14.7124C7.46227 14.7846 7.37674 14.8418 7.28247 14.8808C7.1882 14.9199 7.08714 14.94 6.98511 14.94H5.90698V17.731H6.98511C7.08714 17.731 7.1882 17.7511 7.28247 17.7902C7.37674 17.8292 7.46227 17.8864 7.53442 17.9586C7.60658 18.0307 7.66383 18.1164 7.70288 18.2107C7.74193 18.3049 7.76196 18.4059 7.76196 18.508C7.76196 18.61 7.74193 18.7111 7.70288 18.8053C7.66383 18.8996 7.60658 18.9853 7.53442 19.0574C7.46227 19.1296 7.37674 19.1868 7.28247 19.2259C7.1882 19.2649 7.08714 19.285 6.98511 19.285L5.90698 19.279Z" fill="#0B0D0E"/>
<path d="M14.3643 11.329H12.7124C12.442 11.3207 12.1854 11.2074 11.9971 11.0132C11.8088 10.8189 11.7036 10.559 11.7036 10.2885C11.7036 10.018 11.8088 9.75815 11.9971 9.56393C12.1854 9.36972 12.442 9.25643 12.7124 9.24805H14.3643C14.5562 9.217 14.7531 9.24253 14.9307 9.32156C15.1083 9.4006 15.2589 9.52968 15.3643 9.69302C15.5453 10.044 15.6923 10.268 16.0723 10.268C16.1979 10.2771 16.3221 10.236 16.4175 10.1537C16.5129 10.0714 16.5721 9.95468 16.5815 9.82904C16.5828 9.81206 16.5828 9.79502 16.5815 9.77805C16.5123 9.24704 16.2451 8.76173 15.8335 8.41913C15.4219 8.07653 14.8961 7.90185 14.3613 7.93002C14.3098 7.93008 14.2604 7.91025 14.2231 7.87466C14.1859 7.83908 14.1639 7.79051 14.1616 7.73904V6.83304C14.1432 6.67956 14.0692 6.53813 13.9536 6.43555C13.838 6.33296 13.6888 6.27631 13.5342 6.27631C13.3796 6.27631 13.2304 6.33296 13.1147 6.43555C12.9991 6.53813 12.9247 6.67956 12.9062 6.83304V7.73904C12.9039 7.79051 12.882 7.83908 12.8447 7.87466C12.8075 7.91025 12.7581 7.93008 12.7065 7.93002C12.0977 7.9551 11.522 8.21461 11.1001 8.65427C10.6782 9.09392 10.4424 9.67968 10.4424 10.289C10.4424 10.8984 10.6782 11.4841 11.1001 11.9238C11.522 12.3635 12.0977 12.623 12.7065 12.648H14.3584C14.6345 12.648 14.8995 12.7577 15.0947 12.9529C15.2899 13.1482 15.3994 13.4129 15.3994 13.689C15.3994 13.9651 15.2899 14.2299 15.0947 14.4251C14.8995 14.6204 14.6345 14.73 14.3584 14.73H12.7065C12.509 14.7291 12.3159 14.6713 12.1504 14.5635C11.9849 14.4556 11.854 14.3024 11.7734 14.122C11.7275 13.9875 11.6368 13.8731 11.5161 13.798C11.3955 13.7229 11.2523 13.6918 11.1113 13.71C10.9402 13.6999 10.7719 13.758 10.6436 13.8716C10.5152 13.9852 10.4371 14.145 10.4263 14.316C10.4253 14.3344 10.4253 14.3527 10.4263 14.371C10.4263 15.312 11.4265 16.049 12.7065 16.049C12.7582 16.049 12.8079 16.069 12.8452 16.1048C12.8825 16.1406 12.9042 16.1894 12.9062 16.241V17.147C12.9247 17.3005 12.9991 17.4419 13.1147 17.5445C13.2304 17.6471 13.3796 17.7038 13.5342 17.7038C13.6888 17.7038 13.838 17.6471 13.9536 17.5445C14.0692 17.4419 14.1432 17.3005 14.1616 17.147V16.241C14.1637 16.1894 14.1854 16.1406 14.2227 16.1048C14.2599 16.069 14.3096 16.049 14.3613 16.049C14.9725 16.0272 15.5514 15.7691 15.9761 15.329C16.4008 14.8889 16.6382 14.3012 16.6382 13.6895C16.6382 13.0779 16.4008 12.4902 15.9761 12.0501C15.5514 11.61 14.9725 11.3518 14.3613 11.33L14.3643 11.329Z" fill="#0B0D0E"/>
<path d="M13.5393 17.829C13.3529 17.8304 13.1722 17.7625 13.033 17.6385C12.8937 17.5146 12.8052 17.3434 12.7849 17.158V16.239C12.7836 16.2212 12.7757 16.2046 12.7625 16.1927C12.7492 16.1808 12.7319 16.1744 12.7141 16.175C11.3631 16.175 10.3074 15.383 10.3074 14.37V14.31C10.3194 14.1124 10.4068 13.9269 10.5515 13.7918C10.6963 13.6568 10.8872 13.5824 11.0852 13.584H11.1243C11.2918 13.5626 11.4613 13.601 11.6033 13.6925C11.7452 13.784 11.8504 13.9226 11.9001 14.084C11.9722 14.2393 12.087 14.3708 12.2312 14.463C12.3754 14.5553 12.5429 14.6046 12.7141 14.605H14.364C14.5937 14.5962 14.8122 14.5023 14.9763 14.3414C15.1405 14.1806 15.2387 13.9644 15.2522 13.735C15.2585 13.6169 15.2412 13.4986 15.2014 13.3872C15.1616 13.2758 15.1 13.1734 15.0203 13.086C14.9361 12.9931 14.8344 12.9178 14.7209 12.8644C14.6075 12.8111 14.4844 12.7806 14.3591 12.775H12.7122C12.0962 12.7464 11.5117 12.4933 11.0696 12.0635C10.6274 11.6337 10.3583 11.0569 10.3123 10.442C10.2918 10.1192 10.3357 9.79559 10.4417 9.48998C10.5476 9.18438 10.7131 8.90292 10.929 8.66201C11.1532 8.40853 11.426 8.20221 11.7307 8.05508C12.0355 7.90794 12.3664 7.82294 12.7043 7.80502C12.714 7.80612 12.7234 7.80526 12.7327 7.80251C12.742 7.79977 12.7506 7.79519 12.7581 7.78903C12.7655 7.78286 12.7717 7.77525 12.7761 7.76666C12.7806 7.75806 12.7832 7.74866 12.7839 7.73901V6.833C12.8027 6.64716 12.8895 6.47481 13.0276 6.34899C13.1657 6.22318 13.3457 6.15276 13.5325 6.15127C13.7193 6.14978 13.8997 6.21734 14.0398 6.34094C14.1798 6.46453 14.2695 6.63549 14.2913 6.82101V7.74001C14.2925 7.75805 14.3008 7.77486 14.3142 7.78698C14.3276 7.7991 14.345 7.80558 14.363 7.80502H14.4631C15.0125 7.80207 15.5443 7.99978 15.9583 8.36105C16.3722 8.72231 16.6398 9.22224 16.7112 9.76699C16.7126 9.79064 16.7126 9.81436 16.7112 9.83801C16.706 9.91714 16.6849 9.99445 16.6497 10.0655C16.6144 10.1365 16.5655 10.1998 16.5056 10.2518C16.4457 10.3038 16.3763 10.3434 16.301 10.3683C16.2257 10.3932 16.1462 10.403 16.0671 10.397C15.6221 10.397 15.4431 10.119 15.2561 9.755C15.1634 9.61438 15.0317 9.50376 14.8772 9.43664C14.7227 9.36952 14.552 9.34881 14.386 9.37701H12.7131C12.4799 9.38231 12.2571 9.47585 12.0901 9.63879C11.9231 9.80172 11.8243 10.0219 11.8132 10.255C11.808 10.3732 11.8264 10.4912 11.8674 10.6021C11.9085 10.713 11.9711 10.8147 12.052 10.901C12.1371 10.9931 12.2398 11.0675 12.3538 11.1199C12.4677 11.1722 12.5907 11.2015 12.7161 11.206H14.3713C14.9888 11.2342 15.5744 11.4881 16.0168 11.9197C16.4593 12.3513 16.7277 12.9304 16.7712 13.547C16.7906 13.8698 16.7452 14.1932 16.6384 14.4984C16.5316 14.8037 16.3655 15.0846 16.1492 15.325C15.9241 15.5778 15.6512 15.7833 15.3459 15.9296C15.0407 16.0758 14.7094 16.1599 14.3713 16.177C14.3619 16.1759 14.3522 16.1767 14.343 16.1794C14.3339 16.1821 14.325 16.1866 14.3176 16.1927C14.3103 16.1988 14.3045 16.2063 14.3 16.2147C14.2956 16.2232 14.293 16.2325 14.2922 16.242V17.148C14.2762 17.3237 14.199 17.4882 14.074 17.6127C13.9489 17.7372 13.7839 17.8138 13.6082 17.829H13.5393ZM12.7151 15.922C12.7996 15.9215 12.8808 15.9544 12.9412 16.0136C13.0015 16.0728 13.0363 16.1535 13.0374 16.238V17.146C13.045 17.2102 13.0652 17.2723 13.0969 17.3286C13.1286 17.385 13.171 17.4345 13.2219 17.4744C13.2728 17.5142 13.331 17.5436 13.3933 17.5609C13.4556 17.5782 13.521 17.583 13.5852 17.575C13.7005 17.5653 13.8089 17.516 13.8918 17.4354C13.9748 17.3548 14.0273 17.2479 14.0403 17.133V16.239C14.0413 16.1544 14.0757 16.0736 14.136 16.0142C14.1963 15.9549 14.2774 15.9217 14.3621 15.922C14.6663 15.9063 14.9643 15.8304 15.239 15.6985C15.5137 15.5667 15.7596 15.3816 15.9622 15.154C16.1573 14.9381 16.3076 14.6853 16.4036 14.4105C16.4996 14.1357 16.5395 13.8445 16.5212 13.554C16.4807 13.0004 16.2385 12.4809 15.8406 12.0939C15.4427 11.7069 14.9166 11.4792 14.3621 11.454H12.7131C12.5537 11.4491 12.3968 11.4124 12.2517 11.3461C12.1066 11.2798 11.976 11.1853 11.8679 11.068C11.7657 10.9567 11.687 10.8261 11.6355 10.684C11.584 10.5419 11.5609 10.391 11.5681 10.24C11.5817 9.94324 11.7076 9.66271 11.9202 9.45516C12.1327 9.24762 12.4161 9.12853 12.7131 9.122H14.3704C14.5841 9.08682 14.8033 9.11548 15.0007 9.20443C15.1982 9.29338 15.365 9.43865 15.4802 9.622C15.6672 9.984 15.7943 10.143 16.1033 10.138C16.1933 10.1409 16.2807 10.1091 16.3479 10.0491C16.4151 9.9892 16.4567 9.90573 16.4641 9.816C16.4656 9.80405 16.4656 9.79195 16.4641 9.77999C16.3983 9.28139 16.1465 8.82612 15.759 8.50546C15.3716 8.18479 14.8774 8.02244 14.3752 8.05099C14.3328 8.05178 14.2907 8.04424 14.2512 8.02874C14.2117 8.01324 14.1753 7.99009 14.1448 7.96066C14.1142 7.93122 14.09 7.89606 14.073 7.85717C14.056 7.81828 14.0469 7.77642 14.0461 7.734V6.82601C14.0282 6.69751 13.9609 6.58102 13.8586 6.50115C13.7564 6.42129 13.6273 6.3843 13.4983 6.398C13.3833 6.4076 13.2751 6.45664 13.1921 6.53683C13.1092 6.61702 13.0567 6.72343 13.0432 6.83801V7.73199C13.0419 7.81704 13.0069 7.89812 12.946 7.95751C12.8852 8.01691 12.8031 8.04981 12.718 8.049C12.4145 8.06596 12.1176 8.1429 11.844 8.27541C11.5704 8.40792 11.3258 8.59337 11.1243 8.82101C10.9302 9.03749 10.7809 9.29048 10.6858 9.56521C10.5907 9.83993 10.5514 10.1309 10.5701 10.421C10.6118 10.9735 10.8539 11.4917 11.2507 11.8784C11.6475 12.2651 12.172 12.4936 12.7253 12.521H14.3704C14.53 12.5271 14.6865 12.565 14.8313 12.6325C14.9761 12.7 15.1058 12.7957 15.2131 12.914C15.3159 13.026 15.3955 13.1573 15.447 13.3003C15.4985 13.4434 15.5207 13.5952 15.5129 13.747C15.4957 14.0399 15.3698 14.3157 15.1599 14.5207C14.95 14.7256 14.6714 14.8448 14.3782 14.855H12.72C12.4982 14.8535 12.2817 14.7883 12.0959 14.6672C11.9102 14.5461 11.7631 14.3742 11.6721 14.172C11.6383 14.0618 11.5666 13.9673 11.4695 13.9052C11.3724 13.8431 11.2565 13.8175 11.1423 13.833H11.116C10.9792 13.8274 10.8456 13.8752 10.7434 13.9662C10.6412 14.0573 10.5784 14.1845 10.5681 14.321V14.368C10.5681 15.24 11.5139 15.921 12.7219 15.921L12.7151 15.922Z" fill="#0B0D0E"/>
</svg>
