<svg id="Icon_bill_hospital" data-name="Icon / bill / hospital" xmlns="http://www.w3.org/2000/svg" width="24" height="24" viewBox="0 0 24 24">
    <defs>
        <style>
            .cls-1{fill:#2eb6c7}.cls-2{fill:#333}
        </style>
    </defs>
    <g id="组_6055" data-name="组 6055" transform="translate(1 3)">
        <g id="组_6053" data-name="组 6053" transform="translate(6.917 9.393)">
            <path id="路径_5138" data-name="路径 5138" class="cls-1" d="M182.33 128.706a.88.88 0 0 0-.847.877v3.7a.907.907 0 0 0 .275.641.788.788 0 0 0 .554.237h.034a.881.881 0 0 0 .847-.877v-3.7a.906.906 0 0 0-.274-.641.78.78 0 0 0-.589-.237z" transform="translate(-181.483 -128.705)"/>
            <path id="路径_5139" data-name="路径 5139" class="cls-1" d="M192.391 128.943a.772.772 0 0 0-.588-.236.88.88 0 0 0-.847.877v3.7a.9.9 0 0 0 .275.641.788.788 0 0 0 .554.237h.034a.881.881 0 0 0 .847-.877v-3.7a.907.907 0 0 0-.275-.642z" transform="translate(-184.289 -128.705)"/>
        </g>
        <g id="组_6054" data-name="组 6054">
            <path id="路径_5140" data-name="路径 5140" class="cls-2" d="m193.594 122.039-3.768-2.258v-1.842a.8.8 0 0 0-.244-.568.706.706 0 0 0-.517-.209.781.781 0 0 0-.753.776v.935l-5.123-3.07a.739.739 0 0 0-.763 0l-10.405 6.235a.792.792 0 0 0 .388 1.451.722.722 0 0 0 .376-.11l10.023-6.006 10.023 6.006a.715.715 0 0 0 1.016-.29.754.754 0 0 0-.253-1.05z" transform="translate(-171.655 -115.698)"/>
            <path id="路径_5141" data-name="路径 5141" class="cls-2" d="M191.413 124.742a3.995 3.995 0 0 1-.225-.126l-6.85-4.131a.751.751 0 0 0-.764 0l-6.466 3.884c-.109.066-.22.126-.329.186-.549.3-1.116.612-1.13 1.393-.017.925-.011 1.865-.006 2.775 0 .462.006.924.006 1.385v3.8a.777.777 0 0 0 .757.776h15.07a.7.7 0 0 0 .489-.2.344.344 0 0 0 .046-.038.314.314 0 0 0 .032-.043.732.732 0 0 0 .189-.5v-7.811a1.2 1.2 0 0 0-.295-1.015 2.544 2.544 0 0 0-.524-.335zm-.695 1.393v7h-13.556v-7l6.793-4.08z" transform="translate(-172.834 -116.999)"/>
        </g>
    </g>
    <path id="矩形_3266" data-name="矩形 3266" style="fill:none" d="M0 0h24v24H0z"/>
</svg>
