<svg width="24" height="24" viewBox="0 0 24 24" fill="none" xmlns="http://www.w3.org/2000/svg">
<g clip-path="url(#clip0_1632_10209)">
<path d="M4.11601 21C3.9768 21 3.83897 20.9725 3.71035 20.9191C3.58174 20.8656 3.46487 20.7873 3.36648 20.6885C2.02971 19.3472 1.04334 17.6959 0.494702 15.881C-0.0539348 14.066 -0.147894 12.1434 0.221122 10.2833C0.590137 8.42327 1.41077 6.68318 2.61032 5.21713C3.80987 3.75108 5.3513 2.60432 7.09818 1.87839C8.84507 1.15247 10.7435 0.869777 12.6253 1.05536C14.5071 1.24093 16.3143 1.88906 17.8867 2.94233C19.4592 3.9956 20.7485 5.42152 21.6404 7.09382C22.5323 8.76612 22.9992 10.6332 23 12.5297C23 12.8117 22.8884 13.0822 22.6895 13.2816C22.4907 13.481 22.221 13.593 21.9399 13.593C21.6587 13.593 21.3891 13.481 21.1903 13.2816C20.9915 13.0822 20.8798 12.8117 20.8798 12.5297C20.8787 10.983 20.4975 9.46034 19.7698 8.0966C19.0422 6.73287 17.9905 5.5701 16.708 4.71123C15.4254 3.85235 13.9514 3.32387 12.4167 3.17255C10.8819 3.02124 9.33371 3.25175 7.90896 3.84371C6.48421 4.43566 5.2269 5.37079 4.2484 6.56631C3.2699 7.76183 2.60039 9.18086 2.29907 10.6978C1.99775 12.2147 2.07392 13.7828 2.52089 15.2632C2.96786 16.7435 3.77183 18.0905 4.8616 19.1849C5.00949 19.3337 5.11016 19.5231 5.15086 19.7291C5.19156 19.9352 5.17047 20.1487 5.09028 20.3428C5.0101 20.5369 4.87439 20.7028 4.7003 20.8195C4.5262 20.9363 4.32151 20.9988 4.11207 20.999" fill="#434344"/>
<path d="M7.09968 19C6.95602 19.0002 6.8137 18.9717 6.68096 18.9163C6.54822 18.8609 6.42765 18.7796 6.32612 18.677C5.21547 17.5566 4.45911 16.129 4.15264 14.5747C3.84618 13.0205 4.00338 11.4094 4.60442 9.94536C5.20546 8.48129 6.22332 7.22998 7.52922 6.3497C8.83513 5.46942 10.3704 4.99971 11.9409 5C12.2248 5.00878 12.494 5.12873 12.6917 5.33443C12.8894 5.54013 13 5.81542 13 6.10197C13 6.38851 12.8894 6.66381 12.6917 6.86951C12.494 7.07521 12.2248 7.19515 11.9409 7.20393C10.8027 7.20408 9.69001 7.54481 8.74366 8.18301C7.79731 8.82122 7.05973 9.72825 6.62423 10.7894C6.18873 11.8506 6.07487 13.0182 6.297 14.1447C6.51912 15.2712 7.06728 16.3059 7.87217 17.118C8.02459 17.2722 8.12828 17.4686 8.17022 17.6823C8.21217 17.8959 8.1905 18.1173 8.10786 18.3186C8.02522 18.5198 7.88536 18.6918 7.70593 18.8129C7.5265 18.934 7.31554 18.9998 7.09968 19Z" fill="#434344"/>
<path d="M11.0005 15C10.7353 15 10.4809 14.8862 10.2933 14.6836C10.1058 14.4809 10.0002 14.2061 10 13.9194V10.0485C10.008 9.7675 10.1168 9.50089 10.3035 9.30517C10.4902 9.10945 10.74 9 11 9C11.26 9 11.5098 9.10945 11.6965 9.30517C11.8832 9.50089 11.992 9.7675 12 10.0485V13.9184C11.9998 14.2051 11.8942 14.4799 11.7067 14.6825C11.5191 14.8852 11.2647 14.999 10.9995 14.999" fill="#434344"/>
<path d="M17.0088 24C16.1282 24.0015 15.2626 23.7598 14.4984 23.2992C13.7341 22.8385 13.098 22.1749 12.6533 21.3747C12.234 20.6589 12.0081 19.8361 12.0002 18.9952C11.9923 18.1542 12.2026 17.3269 12.6083 16.6025C12.6249 16.5706 12.6455 16.5408 12.664 16.512L16.1594 11.4517C16.2558 11.3118 16.3824 11.1979 16.5287 11.1194C16.6749 11.0409 16.8368 11 17.001 11C17.1652 11 17.327 11.0409 17.4733 11.1194C17.6195 11.1979 17.7461 11.3118 17.8425 11.4517L21.3369 16.512C21.3565 16.5408 21.3751 16.5706 21.3927 16.6015C21.8002 17.3309 22.0101 18.164 21.9996 19.0102C21.9891 19.8564 21.7586 20.6834 21.3331 21.4014C20.8886 22.1925 20.256 22.8482 19.4978 23.3038C18.7396 23.7595 17.8818 23.9994 17.0088 24ZM14.3804 17.7531C14.1767 18.1353 14.0743 18.5681 14.084 19.0063C14.0936 19.4444 14.2149 19.8718 14.4352 20.2436C14.692 20.7179 15.0629 21.1127 15.5106 21.3881C15.9583 21.6635 16.4671 21.8099 16.9856 21.8125C17.5041 21.8151 18.0142 21.6739 18.4644 21.403C18.9146 21.1321 19.2891 20.7411 19.5502 20.2694C19.7766 19.8957 19.9027 19.4644 19.9149 19.0213C19.9271 18.5783 19.825 18.14 19.6195 17.7531L17 13.9597L14.3804 17.7531Z" fill="#279EAE"/>
</g>
<defs>
<clipPath id="clip0_1632_10209">
<rect width="24" height="24" fill="white"/>
</clipPath>
</defs>
</svg>
