<svg width="24" height="24" viewBox="0 0 24 24" fill="none" xmlns="http://www.w3.org/2000/svg">
<path fill-rule="evenodd" clip-rule="evenodd" d="M11.0127 0.579239C10.1371 0.304388 9.18679 0.660732 8.70778 1.44354L7.37083 3.6284L4.29951 2.66432C3.77258 2.49892 3.21133 2.792 3.04592 3.31894C2.88052 3.84587 3.1736 4.40712 3.70053 4.57252L17.9531 9.04635L17.1504 19.0797C17.1088 19.5994 16.6749 20 16.1536 20H7.84637C7.325 20 6.89113 19.5994 6.84955 19.0797L5.99679 8.42024C5.95275 7.86972 5.47076 7.45913 4.92023 7.50317C4.36971 7.54721 3.95912 8.02921 4.00316 8.57973L4.85592 19.2392C4.98065 20.7983 6.28229 22 7.84637 22H16.1536C17.7177 22 19.0193 20.7983 19.144 19.2392L19.9103 9.66072L20.8743 9.96332C21.4013 10.1287 21.9625 9.83565 22.1279 9.30871C22.2933 8.78178 22.0002 8.22053 21.4733 8.05512L18.4017 7.09094L18.5532 4.53397C18.6074 3.61784 18.0312 2.78233 17.1556 2.50748L11.0127 0.579239ZM16.4347 6.47353L16.5567 4.41568L10.4137 2.48744L9.33776 4.24581L16.4347 6.47353ZM9.99998 9.99998C10.5523 9.99998 11 10.4477 11 11V17C11 17.5523 10.5523 18 9.99998 18C9.44769 18 8.99998 17.5523 8.99998 17V11C8.99998 10.4477 9.44769 9.99998 9.99998 9.99998ZM15 11C15 10.4477 14.5523 9.99998 14 9.99998C13.4477 9.99998 13 10.4477 13 11V17C13 17.5523 13.4477 18 14 18C14.5523 18 15 17.5523 15 17V11Z" fill="#0B0D0E"/>
</svg>
