<svg width="24" height="24" viewBox="0 0 24 24" fill="none" xmlns="http://www.w3.org/2000/svg">
<g clip-path="url(#clip0_1632_10205)">
<path d="M16.1697 15.0117C15.9587 15.0114 15.7556 15.0976 15.6025 15.2525C15.4493 15.4074 15.3578 15.6192 15.3468 15.8441C15.2315 16.3223 13.8389 17.2376 11.9991 17.2376C10.2297 17.2376 8.76849 16.333 8.6551 15.8783C8.65341 15.6449 8.56542 15.4216 8.41026 15.2572C8.2551 15.0927 8.04537 15.0003 7.82667 15H7.81844C7.59935 15.0028 7.39024 15.0982 7.23686 15.2651C7.08348 15.4321 6.99832 15.6571 7.00003 15.8909C7.00003 17.9617 10.205 19 12 19C13.795 19 17 17.9607 17 15.8909C16.9998 15.6568 16.9125 15.4323 16.7574 15.2668C16.6022 15.1012 16.3919 15.0081 16.1725 15.0078" fill="#279EAE"/>
<path d="M24 9.17223C23.9971 8.01714 23.5433 6.91033 22.738 6.09425C21.9327 5.27817 20.8415 4.81939 19.7036 4.81841C19.1868 4.81718 18.6741 4.91135 18.1906 5.09632C17.4666 4.13363 16.5337 3.35343 15.4643 2.8164C14.3949 2.27938 13.2179 2 12.0248 2C10.8317 2 9.65464 2.27938 8.58524 2.8164C7.51584 3.35343 6.5829 4.13363 5.85897 5.09632C5.33353 4.88793 4.77278 4.78664 4.20877 4.79823C3.64477 4.80982 3.08854 4.93406 2.57184 5.16386C2.05513 5.39366 1.58809 5.72452 1.19735 6.13754C0.806612 6.55057 0.49984 7.03767 0.294553 7.57104C0.0892656 8.10441 -0.0105374 8.67361 0.000879795 9.24613C0.012297 9.81864 0.134702 10.3833 0.361085 10.9078C0.587469 11.4323 0.913421 11.9064 1.32031 12.303C1.72719 12.6996 2.20703 13.011 2.73247 13.2194C2.84472 13.2639 2.95516 13.3047 3.06558 13.3399C2.82612 14.1962 2.78933 15.0978 2.95822 15.9712C3.12711 16.8447 3.49692 17.6653 4.03747 18.3662C5.01869 19.5369 6.24538 20.4701 7.62777 21.0974C9.01017 21.7248 10.5133 22.0304 12.0271 21.9919C13.5293 22.0535 15.0253 21.763 16.3991 21.1431C17.7729 20.5232 18.9876 19.5904 19.9491 18.4171C20.4979 17.7104 20.8775 16.8839 21.0579 16.0028C21.2383 15.1217 21.2145 14.2101 20.9885 13.3399C21.8608 13.0586 22.6226 12.5032 23.1638 11.754C23.7051 11.0048 23.9979 10.1013 24 9.17223ZM4.33131 10.9119C4.1056 11.1847 3.90116 11.4749 3.71988 11.7799C3.09482 11.6209 2.54839 11.2359 2.18306 10.6971C1.81772 10.1583 1.65858 9.50271 1.73551 8.8533C1.81245 8.20388 2.12015 7.60527 2.60091 7.16974C3.08167 6.73421 3.70246 6.4917 4.34682 6.48769C4.55658 6.48774 4.76556 6.51355 4.9692 6.56457C4.27848 7.89879 4.0533 9.43116 4.33039 10.9119M6.63647 7.33158C6.87107 7.0516 7.16583 6.83 7.49808 6.68386C7.83033 6.53771 8.1912 6.47092 8.55288 6.48861C9.25476 6.48861 9.92789 6.77164 10.4242 7.27544C10.9205 7.77924 11.1993 8.46254 11.1993 9.17501C11.1993 9.39736 11.2864 9.61059 11.4412 9.76781C11.5961 9.92503 11.8062 10.0134 12.0252 10.0134C12.2442 10.0134 12.4543 9.92503 12.6092 9.76781C12.7641 9.61059 12.8511 9.39736 12.8511 9.17501C12.8523 8.46291 13.1315 7.78032 13.6276 7.27679C14.1236 6.77326 14.796 6.48984 15.4975 6.48861C15.8591 6.47129 16.2198 6.53817 16.5519 6.68412C16.8841 6.83007 17.1789 7.05122 17.414 7.33066C17.7649 7.8666 18.0006 8.4716 18.1058 9.1062C18.211 9.74081 18.1833 10.3908 18.0245 11.0138C18.0013 11.1432 18.0081 11.2762 18.0444 11.4024C18.0807 11.5287 18.1454 11.6446 18.2335 11.741C18.8482 12.3246 19.2702 13.0867 19.4419 13.9231C19.6136 14.7594 19.5265 15.6292 19.1926 16.4135C18.1979 18.7432 15.3169 20.3041 12.0252 20.3041C8.73356 20.3041 5.85621 18.7395 4.86151 16.4135C4.52673 15.6294 4.43875 14.7596 4.60961 13.9229C4.78048 13.0862 5.20187 12.3235 5.81608 11.7391C5.90447 11.6429 5.96953 11.5271 6.00613 11.4008C6.04272 11.2746 6.04982 11.1414 6.02687 11.0119C5.86804 10.389 5.84039 9.73914 5.94575 9.10466C6.0511 8.47017 6.2871 7.86537 6.63831 7.32973M15.4902 4.80452C14.8133 4.80294 14.1456 4.96502 13.5426 5.27737C12.9396 5.58971 12.4185 6.04333 12.0225 6.6007C11.6266 6.04502 11.1063 5.59274 10.5045 5.2811C9.90276 4.96947 9.23667 4.8074 8.5611 4.80822H8.49356C9.52568 4.07026 10.7573 3.67416 12.0197 3.67416C13.2822 3.67416 14.5138 4.07026 15.5459 4.80822H15.4875M20.461 11.7428C20.4166 11.7565 20.3719 11.7692 20.3269 11.7808C20.1455 11.4759 19.9411 11.1857 19.7155 10.9128C19.9992 9.43222 19.7737 7.89761 19.0767 6.5655C19.7378 6.42449 20.427 6.54548 21.0031 6.90368C21.5792 7.26189 21.9986 7.83017 22.1752 8.49209C22.3519 9.15401 22.2724 9.85945 21.9532 10.4638C21.634 11.0682 21.0992 11.5258 20.4583 11.7428" fill="#434344"/>
<path d="M15 9C14.8023 9 14.6089 9.05863 14.4445 9.16848C14.2801 9.27832 14.1519 9.43445 14.0762 9.61713C14.0005 9.79981 13.9806 10.0008 14.0192 10.1948C14.0577 10.3888 14.1528 10.5669 14.2926 10.7068C14.4324 10.8467 14.6105 10.942 14.8044 10.9807C14.9984 11.0194 15.1994 10.9997 15.3821 10.9241C15.5649 10.8485 15.7211 10.7205 15.8311 10.5561C15.9411 10.3918 15.9998 10.1985 16 10.0008C15.9998 9.73556 15.8944 9.48125 15.7069 9.29363C15.5195 9.10602 15.2652 9.00042 15 9Z" fill="#434344"/>
<path d="M9.00001 9C8.80226 9 8.60896 9.05863 8.44453 9.16848C8.28009 9.27832 8.15191 9.43445 8.0762 9.61713C8.00049 9.79981 7.98063 10.0008 8.01915 10.1948C8.05768 10.3888 8.15284 10.5669 8.29261 10.7068C8.43238 10.8467 8.61049 10.942 8.80442 10.9807C8.99835 11.0194 9.1994 10.9997 9.38214 10.9241C9.56488 10.8485 9.72111 10.7205 9.83109 10.5561C9.94106 10.3918 9.99984 10.1985 10 10.0008C10 9.7355 9.89466 9.48107 9.70714 9.2934C9.51963 9.10574 9.2653 9.00021 9.00001 9Z" fill="#434344"/>
<path d="M10.3647 13.9014C10.4478 13.9452 10.5395 13.9735 10.6347 13.985C10.7299 13.9964 10.8266 13.9907 10.9193 13.9682C11.012 13.9456 11.099 13.9067 11.1751 13.8536C11.2513 13.8004 11.3152 13.7342 11.3632 13.6586C11.4275 13.5576 11.5199 13.4737 11.6312 13.4154C11.7424 13.3571 11.8685 13.3264 11.9969 13.3264C12.1253 13.3264 12.2515 13.3571 12.3627 13.4154C12.474 13.4737 12.5664 13.5576 12.6307 13.6586C12.7249 13.8125 12.8825 13.9262 13.0689 13.9745C13.2552 14.0228 13.455 14.0019 13.6244 13.9163C13.7938 13.8307 13.9188 13.6874 13.972 13.518C14.0251 13.3486 14.0021 13.167 13.9079 13.013L13.8954 12.9938C13.7025 12.6915 13.4255 12.4406 13.0923 12.2662C12.7592 12.0918 12.3814 12 11.9969 12C11.6125 12 11.2347 12.0918 10.9016 12.2662C10.5684 12.4406 10.2914 12.6915 10.0985 12.9938C10.0503 13.0693 10.0191 13.1526 10.0064 13.2391C9.99372 13.3256 9.99994 13.4135 10.0247 13.4978C10.0494 13.5821 10.0921 13.6611 10.1505 13.7304C10.2088 13.7996 10.2816 13.8578 10.3647 13.9014Z" fill="#434344"/>
</g>
<defs>
<clipPath id="clip0_1632_10205">
<rect width="24" height="24" fill="white"/>
</clipPath>
</defs>
</svg>
