<svg width="24" height="24" viewBox="0 0 24 24" fill="none" xmlns="http://www.w3.org/2000/svg">
<g clip-path="url(#clip0_1632_10214)">
<path d="M15.1594 21.7631C15.1594 22.1292 15.1758 22.4842 15.1594 22.8372C15.1187 23.0893 15.1737 23.3473 15.3139 23.5618C15.4541 23.7764 15.6696 23.9324 15.9192 24H16.2976C16.5446 23.9281 16.7573 23.7712 16.8971 23.5578C17.0368 23.3445 17.0944 23.0888 17.0594 22.8372C17.0389 21.5876 17.0595 20.337 17.0492 19.0874C17.0492 18.917 17.0983 18.8514 17.2691 18.8091C17.7949 18.7016 18.2887 18.4762 18.7121 18.1504C19.1356 17.8246 19.4774 17.4071 19.711 16.9301C19.9035 16.5289 20.002 16.0902 19.9994 15.6463C20.0083 15.4028 19.9198 15.1655 19.753 14.9857C19.5862 14.8059 19.3545 14.698 19.1077 14.6852C18.9875 14.6769 18.8668 14.6923 18.7526 14.7303C18.6384 14.7683 18.533 14.8282 18.4424 14.9066C18.3518 14.985 18.2779 15.0803 18.2248 15.187C18.1717 15.2937 18.1406 15.4097 18.1332 15.5283C18.1268 15.8015 18.0451 16.0678 17.8971 16.2987C17.749 16.5297 17.5401 16.7166 17.2926 16.8394C17.2441 16.865 17.1943 16.8879 17.1433 16.908C17.1133 16.9136 17.0828 16.9156 17.0523 16.914V11.9792C17.0619 11.8032 17.0196 11.6282 16.9305 11.4753C16.8413 11.3225 16.7093 11.1983 16.5502 11.1179C16.4058 11.0355 16.2408 10.9948 16.0741 11.0005C15.9073 11.0062 15.7456 11.0581 15.6073 11.1502C15.4623 11.2385 15.3444 11.3639 15.266 11.5131C15.1877 11.6623 15.1519 11.8297 15.1625 11.9974V14.8596C14.8499 14.8284 14.5561 14.6975 14.3258 14.4867C14.0955 14.276 13.9412 13.9968 13.8863 13.6917C13.8837 13.5457 13.8463 13.4023 13.7771 13.2731C13.708 13.1439 13.609 13.0325 13.4882 12.948C13.3673 12.8635 13.2281 12.8082 13.0816 12.7866C12.9351 12.7649 12.7855 12.7775 12.6449 12.8234C12.452 12.8849 12.2847 13.0069 12.1684 13.1707C12.0521 13.3345 11.9932 13.5312 12.0006 13.7311C12.0097 14.1675 12.1209 14.596 12.3254 14.9831C12.5299 15.3702 12.8223 15.7055 13.1797 15.963C13.7486 16.4066 14.427 16.6931 15.1451 16.793V19.7057C15.1504 19.71 15.1567 19.7128 15.1635 19.7137C15.2277 20.3954 15.2263 21.0816 15.1594 21.7631Z" fill="#3B9EAE"/>
<path d="M13 6.65134C12.7336 6.30639 12.4661 5.98985 12.2302 5.65201C11.2186 4.17263 10.3951 2.5816 9.77738 0.913089C9.72402 0.709353 9.62167 0.520558 9.47862 0.361946C9.33556 0.203334 9.15581 0.0793491 8.95384 0H8.51572C8.30981 0.0879517 8.12796 0.220804 7.98449 0.38807C7.84101 0.555335 7.73985 0.752432 7.689 0.963812C7.03388 2.83802 6.06871 4.59794 4.83078 6.17551C4.3338 6.78312 3.76513 7.33298 3.13626 7.814C3.01585 7.89197 2.91562 7.99553 2.84331 8.1167C2.771 8.23787 2.72855 8.37341 2.71919 8.51289C2.70983 8.65236 2.7338 8.79205 2.78931 8.92118C2.84483 9.05031 2.93037 9.16544 3.03936 9.25769C3.16342 9.35717 3.30361 9.43634 3.45431 9.49206C3.69232 9.59351 3.9377 9.67163 4.18413 9.74671C4.43057 9.82178 4.68227 9.88062 4.94661 9.94961C4.6477 10.5602 4.22728 11.1082 3.70918 11.5627C3.07729 12.1187 2.39908 12.628 1.72717 13.1424C1.53797 13.2509 1.39065 13.4159 1.30759 13.6124C1.22454 13.8088 1.21028 14.026 1.26694 14.231C1.30803 14.3747 1.38439 14.5068 1.4896 14.6161C1.59481 14.7254 1.72579 14.8087 1.87144 14.859C2.26743 15.0172 2.66656 15.1694 3.06465 15.3226C3.16154 15.3602 3.25948 15.3916 3.42693 15.4515C3.08782 15.9506 2.79505 16.4417 2.43803 16.8931C1.91327 17.5603 1.29843 18.1571 0.609781 18.6676C0.333469 18.8472 0.120704 19.1038 0 19.4031V19.7785C0.152706 20.2736 0.584498 20.4755 1.01734 20.6743C2.24235 21.2248 3.54398 21.6008 4.88133 21.7903C5.67014 21.91 6.47156 21.9598 7.26669 22.0409L7.54051 22.0693C7.54051 22.3362 7.5542 22.5857 7.54051 22.8333C7.49794 23.0864 7.55425 23.3458 7.69857 23.5613C7.8429 23.7767 8.06499 23.933 8.32195 24H8.71161C8.96784 23.9306 9.18891 23.7734 9.33322 23.558C9.47753 23.3426 9.53512 23.0837 9.49513 22.8302C9.47197 22.3311 9.49513 21.8309 9.49513 21.3318C9.49513 20.5627 9.13918 20.2158 8.34827 20.2026C6.85759 20.2029 5.37235 20.0291 3.92506 19.6852C3.55014 19.5918 3.18154 19.4731 2.80452 19.3646C3.18259 18.9466 3.55647 18.5529 3.90928 18.138C4.46564 17.4962 4.91573 16.7755 5.24361 16.0014C5.30048 15.8654 5.36259 15.8066 5.52688 15.8299C5.7828 15.8674 6.04295 15.8806 6.30202 15.8928C6.43505 15.9102 6.57038 15.9009 6.69952 15.8656C6.82866 15.8302 6.94881 15.7695 7.05244 15.6873C7.15608 15.6051 7.24096 15.5032 7.30175 15.3878C7.36254 15.2725 7.39794 15.1464 7.40572 15.0173C7.41023 14.8881 7.3878 14.7595 7.33977 14.6388C7.29174 14.5182 7.21907 14.4081 7.12608 14.315C7.03308 14.2219 6.92166 14.1478 6.79838 14.0969C6.67511 14.0461 6.54247 14.0195 6.40837 14.0189C5.86104 13.9645 5.31472 13.9009 4.76968 13.8282C4.59696 13.8059 4.42848 13.7562 4.20943 13.7075L4.46744 13.4812C5.41233 12.7144 6.18769 11.7725 6.74751 10.7115C6.75925 10.691 6.76945 10.6696 6.77804 10.6476C6.80214 10.521 6.86663 10.4048 6.96252 10.3151C7.05841 10.2255 7.18093 10.1669 7.31303 10.1474C7.51383 10.0887 7.68696 9.96417 7.80238 9.79535C7.91781 9.62652 7.96824 9.4241 7.94492 9.2232C7.93576 9.02628 7.85935 8.83778 7.72756 8.68698C7.59578 8.53618 7.41599 8.43151 7.21613 8.38924C6.78013 8.30707 6.33573 8.26648 5.89446 8.20561C5.8239 8.19547 5.75438 8.17924 5.64696 8.15895C6.93668 6.75811 7.98905 5.17013 8.76531 3.4535C9.55701 5.24529 10.6545 6.89679 12.0122 8.33954C12.7294 8.04836 13 6.65134 13 6.65134Z" fill="#434344"/>
<path d="M12.689 19.0508C12.3052 18.9607 11.9483 18.7869 11.6463 18.543C11.3444 18.2991 11.1054 17.9917 10.9482 17.6448C10.791 17.2979 10.7198 16.9209 10.7401 16.5433C10.7604 16.1657 10.8717 15.7977 11.0652 15.468L11.1339 15.3476C11.2157 15.2445 11.2743 15.1264 11.3062 15.0007C11.3382 14.8749 11.3427 14.7443 11.3194 14.6168C11.2962 14.4893 11.2458 14.3678 11.1713 14.2598C11.0967 14.1518 10.9997 14.0597 10.8863 13.9891C10.5714 13.7438 10.3207 13.4316 10.1542 13.0772C9.98767 12.7228 9.90998 12.3361 9.92727 11.9479C9.95335 11.314 10.2269 10.7126 10.6939 10.2622C11.1609 9.81192 11.7874 9.54551 12.4497 9.51561C12.5856 9.51872 12.7215 9.51275 12.8565 9.49771C13.0786 9.45747 13.2787 9.34362 13.4218 9.17616C13.5649 9.00871 13.6416 8.79836 13.6387 8.5821C13.6318 8.25444 13.66 7.92695 13.7229 7.60479C13.8626 7.09905 14.1727 6.65153 14.6053 6.3316C15.0378 6.01168 15.5686 5.83721 16.1153 5.83528C16.6621 5.83336 17.1942 6.00406 17.6292 6.32093C18.0642 6.6378 18.3778 7.08313 18.5214 7.58787L18.5765 7.78691C18.616 8.0165 18.7457 8.22298 18.939 8.36413C19.1324 8.50527 19.3748 8.57042 19.6166 8.54627C20.2304 8.52759 20.8289 8.73125 21.2924 9.11653C21.7273 9.49102 21.9991 10.0083 22.0538 10.5657C22.1086 11.123 21.9422 11.6797 21.5878 12.1251L21.4505 12.2843C21.3435 12.3705 21.2565 12.4772 21.1951 12.5975C21.1337 12.7177 21.0993 12.849 21.0941 12.9827C21.089 13.1165 21.1131 13.2498 21.165 13.3741C21.2169 13.4984 21.2953 13.611 21.3954 13.7045C21.6828 14.1037 21.8835 14.5539 21.9858 15.0287C22.0881 15.5034 22.0898 15.9929 21.9909 16.4683C21.892 16.9436 21.6944 17.3952 21.4099 17.7962C21.1253 18.1972 20.7596 18.5396 20.3344 18.803C20.2668 18.8438 20.1992 18.8846 20.1326 18.9274C19.921 19.0556 19.7704 19.258 19.7128 19.4912C19.6553 19.7244 19.6955 19.9699 19.8248 20.1751C19.9542 20.3803 20.1623 20.5289 20.4047 20.589C20.6472 20.6492 20.9046 20.6161 21.1218 20.4969C21.7638 20.162 22.3243 19.7007 22.7664 19.1434C23.4299 18.3302 23.8428 17.3557 23.9584 16.3299C23.968 16.2782 23.9816 16.2274 23.999 16.1776V15.3496C23.8742 14.8381 23.765 14.3225 23.6162 13.818C23.5392 13.5572 23.2989 13.3134 23.3041 13.0646C23.3093 12.8158 23.5621 12.5988 23.6526 12.349C23.792 11.9629 23.8866 11.5608 24 11.1657V10.3337C23.9168 9.96241 23.8085 9.59671 23.6755 9.23894C23.4125 8.5976 22.9797 8.0327 22.4197 7.59965C21.8597 7.16661 21.1916 6.88029 20.481 6.7688C20.412 6.76239 20.3462 6.73765 20.2911 6.69739C20.2359 6.65712 20.1937 6.60292 20.169 6.54089C19.8509 5.83966 19.3398 5.23422 18.6902 4.78919C18.0405 4.34415 17.2768 4.07623 16.4805 4.01401C15.6841 3.95179 14.8851 4.0976 14.1686 4.43589C13.4521 4.77418 12.8451 5.29225 12.4123 5.93481L12.2334 6.1886C12.2334 6.1886 11.9619 7.559 11.2441 7.84463C11.1942 7.86454 11.1401 7.88545 11.0725 7.90635C10.9887 7.93559 10.9055 7.96645 10.8229 7.99891C10.1616 8.25892 9.57363 8.66424 9.1065 9.18207C8.63937 9.6999 8.30623 10.3157 8.13405 10.9796C7.96187 11.6435 7.95546 12.3368 8.11538 13.0035C8.2753 13.6702 8.59705 14.2915 9.05456 14.8172C9.09568 14.857 9.12335 14.9077 9.13392 14.9627C9.1445 15.0177 9.13749 15.0745 9.11386 15.1257C8.70221 16.1572 8.71916 17.3004 9.16122 18.3203C9.60329 19.3402 10.4369 20.1593 11.4907 20.6093C12.0962 20.8762 12.7568 21.0095 13.4234 20.9995H15.303C15.3697 20.3262 15.3697 19.6484 15.303 18.9752C15.2961 18.9743 15.2896 18.9715 15.2843 18.9672V19.2021C14.4164 19.2149 13.5488 19.1644 12.689 19.0508Z" fill="#3B9EAE"/>
</g>
<defs>
<clipPath id="clip0_1632_10214">
<rect width="24" height="24" fill="white"/>
</clipPath>
</defs>
</svg>
