<svg width="48" height="48" viewBox="0 0 48 48" fill="none" xmlns="http://www.w3.org/2000/svg">
<g clip-path="url(#clip0_477_2669)">
<path d="M15.4801 36.082C15.2192 36.039 14.9718 35.9364 14.7571 35.782C14.4964 35.5994 14.2924 35.347 14.1686 35.0537C14.0447 34.7605 14.0061 34.4382 14.0571 34.124L14.5731 30.869C13.2295 29.6866 12.2004 28.1892 11.5782 26.5111C10.956 24.8329 10.7601 23.0265 11.0081 21.254C11.9891 15.064 18.6081 10.954 25.7731 12.084C32.9381 13.214 37.9601 19.177 36.9801 25.368C36.0001 31.559 29.3801 35.668 22.2161 34.538C21.4768 34.4206 20.7472 34.2488 20.0331 34.024L16.5641 35.893C16.2342 36.0715 15.8547 36.1365 15.4841 36.078M25.4561 14.088C19.4051 13.13 13.8271 16.488 13.0211 21.573C12.8259 23.0429 13.0032 24.5383 13.5367 25.9218C14.0701 27.3053 14.9426 28.5327 16.0741 29.491C16.2834 29.6804 16.4423 29.9188 16.5364 30.1849C16.6305 30.4509 16.6568 30.7362 16.6131 31.015L16.1731 33.796L19.1871 32.174C19.3917 32.065 19.6161 31.9983 19.847 31.9778C20.0779 31.9574 20.3106 31.9836 20.5311 32.055C21.1843 32.2665 21.853 32.4267 22.5311 32.534C28.5831 33.493 34.1601 30.134 34.9661 25.05C35.7721 19.966 31.5061 15.05 25.4541 14.088" fill="#171B1D"/>
<path d="M18.4833 20.156C18.2261 20.1153 17.9633 20.1256 17.71 20.1865C17.4568 20.2473 17.218 20.3574 17.0073 20.5105C16.7966 20.6637 16.6181 20.8568 16.4821 21.0789C16.346 21.301 16.255 21.5477 16.2143 21.805C16.1736 22.0622 16.184 22.325 16.2448 22.5782C16.3056 22.8315 16.4158 23.0703 16.5689 23.281C16.722 23.4917 16.9151 23.6702 17.1372 23.8062C17.3593 23.9423 17.606 24.0333 17.8633 24.074C17.9674 24.0912 18.0728 24.0999 18.1783 24.1C18.6765 24.0977 19.1556 23.9082 19.5204 23.569C19.8853 23.2298 20.1092 22.7657 20.1476 22.269C20.186 21.7723 20.0361 21.2793 19.7278 20.888C19.4195 20.4967 18.9752 20.2348 18.4833 20.156Z" fill="#434344"/>
<path d="M24.3101 21.2171C24.0519 21.1742 23.7878 21.1829 23.5329 21.2426C23.2781 21.3023 23.0376 21.4119 22.8252 21.5649C22.6129 21.718 22.433 21.9116 22.2958 22.1345C22.1586 22.3574 22.0669 22.6053 22.0259 22.8638C21.9849 23.1223 21.9956 23.3864 22.0571 23.6408C22.1186 23.8952 22.2299 24.1349 22.3845 24.3461C22.5391 24.5574 22.734 24.7359 22.9579 24.8715C23.1818 25.007 23.4303 25.097 23.6891 25.1361C23.7923 25.1524 23.8966 25.1608 24.0011 25.1611C24.4997 25.1601 24.9797 24.9714 25.3454 24.6326C25.7112 24.2937 25.936 23.8296 25.9751 23.3326C26.0141 22.8355 25.8647 22.342 25.5563 21.9501C25.248 21.5583 24.8034 21.2969 24.3111 21.2181" fill="#434344"/>
<path d="M30.0801 22.346C30.4483 22.4044 30.7909 22.5706 31.0646 22.8237C31.3384 23.0768 31.5309 23.4054 31.6179 23.7679C31.7048 24.1304 31.6824 24.5106 31.5533 24.8603C31.4243 25.2101 31.1944 25.5137 30.8928 25.7328C30.5912 25.9519 30.2314 26.0767 29.8589 26.0913C29.4864 26.1059 29.1179 26.0098 28.8 25.815C28.4821 25.6202 28.2292 25.3355 28.0731 24.997C27.917 24.6585 27.8648 24.2812 27.9231 23.913C27.9618 23.6685 28.0483 23.434 28.1777 23.2229C28.307 23.0118 28.4767 22.8282 28.677 22.6827C28.8773 22.5372 29.1043 22.4326 29.3451 22.3748C29.5858 22.317 29.8356 22.3072 30.0801 22.346Z" fill="#279EAE"/>
</g>
<defs>
<clipPath id="clip0_477_2669">
<rect width="48" height="48" fill="white"/>
</clipPath>
</defs>
</svg>
