<svg width="22" height="22" viewBox="0 0 22 22" fill="none" xmlns="http://www.w3.org/2000/svg">
<path d="M19.019 7.94601H18.9351V7.86401C18.8343 5.7861 17.9379 3.82658 16.4316 2.3916C14.9254 0.956621 12.9251 0.156189 10.8447 0.156189C8.76437 0.156189 6.76355 0.956621 5.25732 2.3916C3.7511 3.82658 2.85463 5.7861 2.75391 7.86401V7.94601H2.66992C2.005 7.94862 1.36734 8.20983 0.891602 8.67438C0.415859 9.13892 0.13953 9.77032 0.121094 10.435V14.068C0.137084 14.7379 0.415598 15.3748 0.896973 15.841C1.37835 16.3072 2.02373 16.5654 2.69385 16.56H4.72607C4.93774 16.5611 5.14147 16.4793 5.29346 16.3319C5.44545 16.1846 5.53357 15.9836 5.53906 15.772V8.73901C5.53907 8.52805 5.45565 8.32561 5.30713 8.17578C5.15861 8.02595 4.95705 7.94084 4.74609 7.939H4.0542V7.85699C4.13628 6.11073 4.88749 4.46317 6.15234 3.25638C7.41719 2.04959 9.09848 1.37628 10.8467 1.37628C12.5949 1.37628 14.2757 2.04959 15.5405 3.25638C16.8054 4.46317 17.5571 6.11073 17.6392 7.85699V7.939H16.9639C16.752 7.9371 16.5482 8.01875 16.396 8.16623C16.2438 8.31371 16.1556 8.51517 16.1509 8.72702V15.762C16.1561 15.9738 16.2447 16.175 16.397 16.3222C16.5493 16.4694 16.753 16.5509 16.9648 16.549H18.0459L17.9849 16.668C17.7433 17.0385 17.419 17.3476 17.0371 17.5706C16.6552 17.7937 16.2265 17.9246 15.7852 17.953H14.209L14.1909 17.893L14.1699 17.816C14.1608 17.7754 14.1498 17.7353 14.1362 17.696C14.0782 17.5443 14.0113 17.396 13.936 17.252L13.9131 17.21C13.9011 17.1851 13.8874 17.161 13.8721 17.138C13.8471 17.093 13.8199 17.056 13.7939 17.012L13.7822 16.992C13.5159 16.6327 13.1689 16.3408 12.7695 16.1395C12.3701 15.9382 11.9292 15.8333 11.4819 15.833H11.375C10.7212 15.8445 10.0906 16.0786 9.58789 16.4968C9.08516 16.915 8.74018 17.4922 8.60986 18.133C8.59266 18.2369 8.58224 18.3418 8.57812 18.447V18.495C8.57812 18.532 8.5708 18.569 8.5708 18.606C8.6016 19.2875 8.87395 19.9358 9.33887 20.435C9.80379 20.9342 10.4313 21.2517 11.1089 21.3308C11.7865 21.41 12.4697 21.2455 13.0371 20.8669C13.6045 20.4882 14.0191 19.9201 14.2061 19.264L14.2231 19.203H15.7939C16.6102 19.2425 17.4152 19.0012 18.0752 18.5192C18.7352 18.0372 19.2102 17.3436 19.4209 16.554L19.4341 16.501L19.4888 16.492C20.0666 16.3953 20.5928 16.0994 20.9751 15.6555C21.3574 15.2116 21.5721 14.6478 21.582 14.062V10.424C21.5597 9.75918 21.28 9.12906 20.8018 8.66669C20.3235 8.20432 19.6842 7.9459 19.019 7.94601ZM4.104 9.146L4.11084 15.354H2.54688C2.27617 15.3573 2.0152 15.2545 1.81934 15.0676C1.62347 14.8807 1.50841 14.6246 1.49902 14.354V10.172C1.50114 9.89951 1.61067 9.63892 1.8042 9.44708C1.99772 9.25524 2.25973 9.14774 2.53223 9.14801L4.104 9.146ZM11.4302 20.129C11.1257 20.1194 10.8306 20.0203 10.582 19.8441C10.3335 19.668 10.1426 19.4225 10.0327 19.1384C9.9228 18.8543 9.8986 18.5441 9.96387 18.2465C10.0291 17.9489 10.1807 17.6772 10.3994 17.4651C10.6181 17.2531 10.8944 17.1102 11.1938 17.0542C11.4933 16.9982 11.8029 17.0317 12.0835 17.1504C12.3641 17.2691 12.6031 17.4677 12.7715 17.7216C12.9398 17.9755 13.0296 18.2734 13.0298 18.578C13.0227 18.9957 12.8507 19.3935 12.5508 19.6842C12.2509 19.9749 11.8478 20.1349 11.4302 20.129ZM20.188 10.288V14.327C20.1873 14.4621 20.1602 14.5957 20.1079 14.7202C20.0556 14.8448 19.9788 14.9578 19.8828 15.0528C19.7868 15.1478 19.6729 15.223 19.5479 15.274C19.4228 15.325 19.2889 15.3508 19.1538 15.35H17.584V9.14999H19.1421C19.4134 9.14866 19.6748 9.25181 19.8721 9.43802C19.9701 9.52987 20.0482 9.64049 20.1025 9.76334C20.1568 9.88618 20.186 10.0187 20.188 10.153V10.285V10.288Z" fill="#5AB4C5"/>
<path d="M11.428 21.475C10.6511 21.4792 9.90295 21.1825 9.34009 20.647C9.06119 20.3857 8.83848 20.0703 8.6853 19.7201C8.53213 19.3699 8.45158 18.9922 8.44897 18.61V18.544C8.44997 18.5294 8.44997 18.5147 8.44897 18.5V18.451C8.45419 18.3395 8.46572 18.2283 8.48315 18.118C8.62097 17.4512 8.98057 16.8508 9.50366 16.4149C10.0268 15.979 10.6823 15.7333 11.363 15.718H11.4739C11.9405 15.7178 12.4008 15.827 12.8176 16.0368C13.2344 16.2466 13.5959 16.5511 13.8738 16.926L13.928 17.012C13.943 17.033 13.9559 17.056 13.9709 17.08C13.9872 17.1058 14.0018 17.1325 14.0149 17.16L14.0369 17.198C14.1138 17.347 14.1829 17.4999 14.2439 17.656C14.2596 17.7012 14.2726 17.7473 14.283 17.794L14.2952 17.838H15.781C16.1889 17.81 16.585 17.6907 16.9407 17.4891C17.2963 17.2875 17.6026 17.0086 17.8362 16.673H16.9612C16.7179 16.6739 16.4835 16.5796 16.3088 16.4104C16.1341 16.2411 16.0329 16.0102 16.0261 15.767V8.735C16.0316 8.49175 16.1321 8.26038 16.3064 8.09059C16.4807 7.9208 16.7145 7.82616 16.9578 7.82701H17.5129C17.4387 6.14514 16.7202 4.55634 15.5061 3.39009C14.292 2.22383 12.6754 1.56958 10.9919 1.563H10.8401C9.13288 1.53823 7.48276 2.17805 6.23853 3.34727C4.99429 4.51649 4.25342 6.12357 4.17212 7.82902H4.73511C4.98269 7.82947 5.21967 7.92798 5.39478 8.10301C5.47967 8.18705 5.54668 8.2875 5.59155 8.39821C5.63642 8.50892 5.65843 8.62759 5.65601 8.74702V15.778C5.64949 16.0206 5.54862 16.2512 5.37476 16.4206C5.20089 16.59 4.96759 16.6848 4.72485 16.685H2.69116C1.99038 16.6874 1.31606 16.4158 0.812744 15.9281C0.30943 15.4405 0.0166508 14.7755 -0.00317383 14.075V10.435C0.0120602 9.74344 0.295498 9.0848 0.786865 8.59791C1.27823 8.11102 1.93942 7.83393 2.6311 7.82502C2.70928 5.72273 3.5997 3.73264 5.11499 2.2733C6.63028 0.813959 8.65235 -0.000922883 10.7561 1.23968e-05H10.842C12.9626 -0.0310087 15.0103 0.771598 16.5452 2.23518C18.08 3.69876 18.9793 5.70635 19.0491 7.826C19.7407 7.83323 20.4024 8.10808 20.8958 8.59285C21.3891 9.07761 21.6757 9.73462 21.6951 10.426V14.066C21.6844 14.6759 21.4618 15.2632 21.0657 15.7271C20.6696 16.1911 20.1249 16.5028 19.5242 16.609C19.3081 17.3959 18.8379 18.0893 18.1868 18.5812C17.5357 19.0732 16.7401 19.3361 15.9241 19.329H14.3079C14.1302 19.9496 13.755 20.4953 13.239 20.8831C12.723 21.271 12.0945 21.4799 11.449 21.478L11.428 21.475ZM11.3728 15.956C10.7481 15.9705 10.1469 16.1958 9.66626 16.5951C9.18559 16.9945 8.85364 17.5445 8.72485 18.156C8.70969 18.2554 8.69989 18.3556 8.69507 18.456V18.564C8.69431 18.5787 8.69431 18.5934 8.69507 18.608C8.69779 18.9578 8.7716 19.3033 8.91187 19.6238C9.05213 19.9442 9.25585 20.2327 9.51099 20.472C10.0295 20.9648 10.7185 21.2379 11.4338 21.234H11.4568C12.0547 21.2359 12.6367 21.0411 13.113 20.6797C13.5894 20.3183 13.9338 19.8103 14.093 19.234L14.1331 19.084H15.929C16.696 19.0912 17.4438 18.8437 18.0549 18.3802C18.6661 17.9167 19.106 17.2635 19.3059 16.523L19.3381 16.396L19.467 16.371C20.018 16.28 20.5197 15.9989 20.885 15.5766C21.2503 15.1542 21.4563 14.6173 21.467 14.059V10.421C21.448 9.78663 21.1819 9.18472 20.7258 8.74339C20.2697 8.30206 19.6598 8.05615 19.0251 8.058H18.825V7.85801C18.733 5.80602 17.853 3.86854 16.3684 2.44899C14.8838 1.02944 12.9088 0.237195 10.8547 0.237195C8.80068 0.237195 6.82615 1.02944 5.34155 2.44899C3.85696 3.86854 2.97697 5.80602 2.88501 7.85801V8.058H2.68481C2.05051 8.05833 1.44185 8.30657 0.988037 8.74974C0.534225 9.1929 0.271498 9.79589 0.256104 10.43V14.061C0.275393 14.6983 0.542614 15.3028 1.00122 15.7457C1.45983 16.1887 2.07362 16.4349 2.71118 16.432H4.74194C4.92164 16.4326 5.0945 16.3632 5.22388 16.2385C5.35325 16.1138 5.42883 15.9436 5.43481 15.764V8.735C5.43663 8.64757 5.42108 8.56071 5.38843 8.4796C5.35577 8.39848 5.30675 8.3248 5.24487 8.26301C5.11525 8.13599 4.94149 8.06427 4.76001 8.063H3.94995V7.86302C4.02172 6.08692 4.78423 4.40904 6.07495 3.18687C7.36568 1.9647 9.08274 1.29485 10.8601 1.32002H11.0159C12.7684 1.32781 14.4502 2.01251 15.7097 3.23106C16.9693 4.44961 17.7094 6.10774 17.7751 7.85902V8.059H16.9749C16.7947 8.05814 16.6214 8.12775 16.4919 8.25294C16.3625 8.37813 16.2872 8.54899 16.282 8.72902V15.762C16.2882 15.9427 16.365 16.1138 16.4958 16.2387C16.6267 16.3635 16.8014 16.4322 16.9822 16.43H18.259L18.1072 16.723C17.8552 17.1114 17.5157 17.4357 17.1165 17.6701C16.7172 17.9044 16.2688 18.0424 15.8069 18.073H14.1321L14.0681 17.845C14.0585 17.8075 14.0479 17.7701 14.0369 17.733C13.9799 17.5878 13.915 17.4459 13.842 17.308L13.8201 17.267C13.8071 17.241 13.795 17.221 13.783 17.199L13.7019 17.072C13.447 16.7255 13.1144 16.4437 12.7307 16.2492C12.3471 16.0546 11.9231 15.9528 11.4929 15.952L11.3728 15.956ZM11.429 20.251C11.1009 20.2406 10.7831 20.1338 10.5154 19.9439C10.2476 19.7541 10.0419 19.4895 9.92358 19.1834C9.80523 18.8772 9.77944 18.543 9.84985 18.2224C9.92027 17.9018 10.0833 17.609 10.3191 17.3806C10.5549 17.1522 10.8529 16.9984 11.1755 16.9382C11.4982 16.878 11.8313 16.9142 12.1335 17.0422C12.4358 17.1703 12.694 17.3845 12.8752 17.6581C13.0565 17.9318 13.1531 18.2528 13.1531 18.581C13.1452 19.0308 12.9591 19.4592 12.636 19.7722C12.3128 20.0853 11.8788 20.2574 11.429 20.251ZM11.429 17.151C11.1484 17.1614 10.8769 17.2541 10.6487 17.4175C10.4204 17.5809 10.2455 17.8079 10.1453 18.0701C10.045 18.3323 10.0241 18.6182 10.0852 18.8923C10.1463 19.1663 10.2864 19.4163 10.4885 19.6111C10.6906 19.806 10.9459 19.9371 11.2219 19.9882C11.498 20.0392 11.7829 20.008 12.0413 19.8983C12.2997 19.7886 12.52 19.6053 12.675 19.3713C12.8301 19.1372 12.9126 18.8627 12.9128 18.582C12.9095 18.3905 12.8687 18.2016 12.7922 18.026C12.7158 17.8504 12.6053 17.6916 12.4675 17.5586C12.3297 17.4256 12.1672 17.3211 11.989 17.251C11.8108 17.1809 11.6204 17.1466 11.429 17.15V17.151ZM4.22876 15.478H2.54614C2.2442 15.4798 1.95341 15.3642 1.73511 15.1556C1.5168 14.947 1.38766 14.6617 1.37573 14.36V10.174C1.37863 9.87013 1.5014 9.57961 1.71704 9.36546C1.93269 9.15131 2.22417 9.03079 2.52808 9.03001H4.22095L4.22876 15.478ZM2.52905 9.26902C2.28929 9.26977 2.05927 9.36438 1.88843 9.53261C1.71758 9.70083 1.61943 9.92929 1.61499 10.169V14.354C1.62635 14.5924 1.72972 14.8171 1.90308 14.9812C2.07643 15.1452 2.30651 15.2358 2.54517 15.234H3.98804L3.98218 9.265L2.52905 9.26902ZM19.1501 15.469H17.4631V9.03502H19.1438C19.4454 9.03349 19.736 9.14847 19.9548 9.356C20.0642 9.45902 20.1519 9.58287 20.2126 9.72026C20.2734 9.85764 20.3061 10.0058 20.3088 10.156V14.335C20.3107 14.4811 20.2835 14.6261 20.2288 14.7616C20.174 14.8971 20.0929 15.0203 19.99 15.124C19.7829 15.3359 19.5028 15.4614 19.2068 15.475L19.1501 15.469ZM17.7029 15.229H19.1511C19.275 15.2284 19.3973 15.2033 19.5115 15.155C19.6256 15.1068 19.7294 15.0365 19.8162 14.948C19.897 14.8666 19.9609 14.77 20.0042 14.6638C20.0474 14.5575 20.0692 14.4437 20.0681 14.329V10.129C20.0549 9.90098 19.9552 9.68648 19.7898 9.529C19.6151 9.36439 19.3838 9.27311 19.1438 9.274H17.7039L17.7029 15.229Z" fill="#5AB4C5"/>
</svg>
