<svg width="24" height="24" viewBox="0 0 24 24" fill="none" xmlns="http://www.w3.org/2000/svg">
<g clip-path="url(#clip0_1632_10210)">
<path d="M19 3.75342L18.9835 21.2104C18.9733 21.6687 18.7931 22.1066 18.4782 22.4378C18.1634 22.769 17.7367 22.9696 17.2823 23H16.3055C15.8674 22.9484 15.4606 22.7455 15.1544 22.426C14.8481 22.1065 14.6613 21.6901 14.6256 21.2476V14.5789H8.3695V21.2075C8.35934 21.6658 8.17909 22.1037 7.86423 22.4349C7.54937 22.7661 7.12273 22.9667 6.66831 22.9971H5.68857C5.25042 22.9456 4.84354 22.7428 4.53724 22.4233C4.23095 22.1038 4.04417 21.6872 4.00874 21.2446L4 3.73876C4.03005 3.30643 4.20693 2.89765 4.50096 2.58105C4.79498 2.26445 5.18826 2.05929 5.61477 2H6.60519C7.06771 2.00813 7.5096 2.19413 7.84021 2.51981C8.17081 2.8455 8.36506 3.28619 8.38309 3.75147L8.37727 10.3674H14.6208V3.74169C14.6502 3.30898 14.8266 2.89964 15.1205 2.58246C15.4144 2.26528 15.8078 2.0596 16.2346 2H17.224C17.6865 2.00865 18.1282 2.19513 18.4585 2.52118C18.7887 2.84723 18.9825 3.28813 19 3.75342Z" fill="#434344"/>
<path d="M6 19C16.9273 17.1764 24.9342 11.4314 20.7616 9C27.62 11.2938 17.5836 18.2159 6 19Z" fill="#3B9EAE"/>
<path d="M5 13C10.8504 17.932 23.4908 23.0467 22.4772 17.365C25.5851 23.7277 14.207 21.4027 5 13Z" fill="#3B9EAE"/>
<path d="M3.48184 13C-3.69071 11.6294 5.874 3.33662 17 1C5.82379 4.65421 -0.717733 11.2422 3.48184 13Z" fill="#3B9EAE"/>
</g>
<defs>
<clipPath id="clip0_1632_10210">
<rect width="24" height="24" fill="white"/>
</clipPath>
</defs>
</svg>
