<svg width="24" height="24" viewBox="0 0 24 24" fill="none" xmlns="http://www.w3.org/2000/svg">
<g clip-path="url(#clip0_1632_10204)">
<path d="M7.00096 13C7.98983 12.9998 8.95642 12.7064 9.77854 12.1569C10.6007 11.6074 11.2414 10.8264 11.6197 9.91275C11.998 8.9991 12.0968 7.9938 11.9038 7.02396C11.7108 6.05412 11.2345 5.1633 10.5352 4.46413C9.83588 3.76496 8.94496 3.28885 7.97509 3.096C7.00521 2.90316 5.99993 3.00223 5.08635 3.3807C4.17278 3.75917 3.39196 4.40003 2.8426 5.22225C2.29324 6.04447 2 7.01114 2 8C2.00153 9.32578 2.52893 10.5968 3.46649 11.5342C4.40404 12.4716 5.67519 12.9987 7.00096 13ZM3.95279 7.99712C3.95279 7.39424 4.13154 6.80491 4.46648 6.30364C4.80142 5.80236 5.27748 5.41167 5.83447 5.18096C6.39145 4.95025 7.00435 4.88988 7.59564 5.0075C8.18693 5.12511 8.73006 5.41542 9.15635 5.84172C9.58265 6.26802 9.87296 6.81116 9.99057 7.40245C10.1082 7.99374 10.0478 8.60663 9.81713 9.16361C9.58642 9.72059 9.19573 10.1967 8.69446 10.5316C8.19319 10.8665 7.60384 11.0453 7.00096 11.0453C6.19277 11.0446 5.41788 10.7232 4.8464 10.1517C4.27492 9.58019 3.95355 8.80531 3.95279 7.99712Z" fill="#434344"/>
<path d="M8.34071 14H4.66024C3.42489 14.0016 2.24059 14.5273 1.36698 15.4616C0.493369 16.396 0.00178276 17.6628 0 18.9843V20.9529C0 21.2306 0.103106 21.4969 0.286672 21.6933C0.470237 21.8897 0.719224 22 0.978825 22C1.23843 22 1.48738 21.8897 1.67095 21.6933C1.85451 21.4969 1.95765 21.2306 1.95765 20.9529V18.9843C1.95867 18.2179 2.24373 17.4831 2.75034 16.9412C3.25696 16.3992 3.94377 16.0943 4.66024 16.0932H8.34071C9.05717 16.0943 9.74398 16.3992 10.2506 16.9412C10.7572 17.4831 11.0423 18.2179 11.0433 18.9843V20.9529C11.0433 21.2305 11.1464 21.4967 11.3298 21.6929C11.5133 21.8892 11.7622 21.9995 12.0216 21.9995C12.2811 21.9995 12.53 21.8892 12.7134 21.6929C12.8969 21.4967 13 21.2305 13 20.9529V18.9843C12.9985 17.6629 12.5071 16.3961 11.6336 15.4617C10.7602 14.5273 9.57596 14.0016 8.34071 14Z" fill="#434344"/>
<path d="M16.8445 8.6512C17.1704 7.46539 16.9795 6.20704 16.3137 5.15291C15.6479 4.09879 14.5617 3.33521 13.2941 3.03013C13.028 2.96665 12.7458 3.00435 12.5093 3.13498C12.2728 3.2656 12.1013 3.47852 12.0321 3.72716C11.9643 3.97624 12.0048 4.24031 12.1446 4.46155C12.2845 4.6828 12.5123 4.8432 12.7783 4.90763C13.3936 5.05523 13.9388 5.39012 14.3281 5.85952C14.7175 6.32892 14.9288 6.90616 14.9288 7.50029C14.9288 8.09441 14.7175 8.67165 14.3281 9.14105C13.9388 9.61045 13.3936 9.94534 12.7783 10.0929C12.5357 10.1531 12.3247 10.2936 12.1844 10.4882C12.0441 10.6829 11.9841 10.9186 12.0154 11.1515C12.0468 11.3845 12.1675 11.5988 12.355 11.7549C12.5426 11.9109 12.7842 11.998 13.0352 12C13.1225 11.9998 13.2094 11.9898 13.2941 11.9704C14.1496 11.7646 14.9304 11.3478 15.5549 10.7634C16.1794 10.1791 16.6247 9.44864 16.8445 8.64834" fill="#434344"/>
<path d="M17.7767 4.90648C18.392 5.05444 18.9372 5.38952 19.3264 5.85897C19.7157 6.32843 19.9269 6.90559 19.9269 7.49963C19.9269 8.09366 19.7157 8.67083 19.3264 9.14028C18.9372 9.60973 18.392 9.94481 17.7767 10.0928C17.5121 10.1583 17.2859 10.3189 17.1474 10.5397C17.0089 10.7605 16.9694 11.0236 17.0376 11.2715C17.1057 11.5194 17.2758 11.7321 17.511 11.8632C17.7461 11.9943 18.0271 12.0331 18.2927 11.9712C19.3535 11.7162 20.2934 11.1385 20.9646 10.3292C21.6358 9.51983 22 8.52475 22 7.50058C22 6.47642 21.6358 5.48133 20.9646 4.67198C20.2934 3.86262 19.3535 3.28496 18.2927 3.02992C18.0944 2.98277 17.8857 2.9915 17.6927 3.05502C17.4997 3.11855 17.3312 3.23402 17.2082 3.38691C17.0853 3.5398 17.0134 3.72327 17.0017 3.91426C16.99 4.10524 17.039 4.2952 17.1424 4.46023C17.2114 4.56997 17.303 4.66583 17.4119 4.74226C17.5208 4.81869 17.6448 4.87514 17.7767 4.90648Z" fill="#279EAE"/>
<path d="M15.2982 15.0298C15.0316 14.9677 14.7486 15.0035 14.5111 15.1293C14.3341 15.2233 14.1919 15.3627 14.1028 15.5298C14.0136 15.6968 13.9814 15.884 14.0103 16.0676C14.0392 16.2511 14.1278 16.4228 14.2649 16.5609C14.4021 16.699 14.5816 16.7971 14.7806 16.843C15.3917 16.9866 15.9332 17.3082 16.3209 17.7581C16.7086 18.208 16.9208 18.7608 16.9245 19.3307V21.0924C16.933 21.3357 17.046 21.5665 17.2397 21.7359C17.4334 21.9053 17.6925 22 17.9623 22C18.232 22 18.4911 21.9053 18.6848 21.7359C18.8785 21.5665 18.9915 21.3357 19 21.0924V19.3206C18.9929 18.3364 18.6257 17.3819 17.9555 16.6054C17.2853 15.829 16.3498 15.2741 15.2941 15.027" fill="#434344"/>
<path d="M20.2965 15.0294C20.0301 14.9678 19.7473 15.0038 19.5103 15.1294C19.3335 15.2231 19.1917 15.3618 19.1027 15.528C19.0136 15.6942 18.9815 15.8803 19.0102 16.0629C19.039 16.2455 19.1273 16.4164 19.2642 16.5538C19.401 16.6913 19.5801 16.7892 19.7788 16.8351C20.3902 16.9778 20.932 17.2981 21.3198 17.7461C21.7076 18.1942 21.9197 18.7449 21.9231 19.3125V21.0669C21.9231 21.3143 22.0325 21.5517 22.2273 21.7267C22.422 21.9017 22.6861 22 22.9616 22C23.237 22 23.5011 21.9017 23.6959 21.7267C23.8906 21.5517 24 21.3143 24 21.0669V19.3024C23.9928 18.3222 23.6254 17.3716 22.9549 16.5983C22.2844 15.8251 21.3484 15.2726 20.2924 15.0267" fill="#279EAE"/>
</g>
<defs>
<clipPath id="clip0_1632_10204">
<rect width="24" height="24" fill="white"/>
</clipPath>
</defs>
</svg>
