<svg width="64" height="64" viewBox="0 0 64 64" fill="none" xmlns="http://www.w3.org/2000/svg">
<g clip-path="url(#clip0_3320_6654)">
<mask id="mask0_3320_6654" style="mask-type:luminance" maskUnits="userSpaceOnUse" x="0" y="0" width="64" height="64">
<path d="M0 0H64V64H0V0Z" fill="white"/>
</mask>
<g mask="url(#mask0_3320_6654)">
<path d="M44.5078 19.7869L38.2378 13.5169C37.8629 13.1418 37.3542 12.931 36.8238 12.9309H17.7148C17.1844 12.9309 16.6757 13.1416 16.3006 13.5167C15.9256 13.8918 15.7148 14.4005 15.7148 14.9309V49.4999C15.7148 50.0303 15.9256 50.5391 16.3006 50.9141C16.6757 51.2892 17.1844 51.4999 17.7148 51.4999H43.0938C43.6243 51.4999 44.133 51.2892 44.5081 50.9141C44.8831 50.5391 45.0938 50.0303 45.0938 49.4999V46.9799H53.2848C53.5501 46.9799 53.8044 46.8746 53.992 46.687C54.1795 46.4995 54.2848 46.2451 54.2848 45.9799V41.1999C54.2848 40.9347 54.1795 40.6803 53.992 40.4928C53.8044 40.3053 53.5501 40.1999 53.2848 40.1999H45.0938V21.1999C45.0937 20.6695 44.8829 20.1609 44.5078 19.7859M38.3148 16.7859L41.2358 19.7079H38.3148V16.7859ZM42.8338 49.2399H17.9748V15.1909H36.0548V19.9709C36.0548 20.5013 36.2656 21.01 36.6406 21.3851C37.0157 21.7602 37.5244 21.9709 38.0548 21.9709H42.8338V40.1999H30.4048C28.5439 40.3711 26.7956 41.1665 25.4438 42.4569H24.6248C24.3596 42.4569 24.1053 42.5623 23.9177 42.7498C23.7302 42.9373 23.6248 43.1917 23.6248 43.4569V43.7169C23.6248 43.9821 23.7302 44.2365 23.9177 44.424C24.1053 44.6116 24.3596 44.7169 24.6248 44.7169H25.4438C26.7956 46.0073 28.5439 46.8027 30.4048 46.9739H42.8338V49.2399ZM29.2748 44.4899C28.6962 44.2615 28.1496 43.959 27.6488 43.5899C28.1501 43.2216 28.6966 42.9191 29.2748 42.6899V44.4899ZM31.5348 42.4599H47.5048V44.7199H31.5348V42.4599ZM52.0248 44.7199H49.7648V42.4599H52.0248V44.7199Z" fill="white"/>
<path d="M30.4049 24.3059H39.4449C39.7446 24.3059 40.032 24.425 40.2439 24.6369C40.4558 24.8488 40.5749 25.1362 40.5749 25.4359C40.5749 25.7356 40.4558 26.023 40.2439 26.2349C40.032 26.4469 39.7446 26.5659 39.4449 26.5659H30.4049C30.1052 26.5659 29.8178 26.4469 29.6059 26.2349C29.394 26.023 29.2749 25.7356 29.2749 25.4359C29.2749 25.1362 29.394 24.8488 29.6059 24.6369C29.8178 24.425 30.1052 24.3059 30.4049 24.3059Z" fill="white"/>
<path d="M30.4049 28.8259H39.4449C39.7446 28.8259 40.032 28.945 40.2439 29.1569C40.4558 29.3688 40.5749 29.6562 40.5749 29.9559C40.5749 30.2556 40.4558 30.543 40.2439 30.755C40.032 30.9669 39.7446 31.0859 39.4449 31.0859H30.4049C30.1052 31.0859 29.8178 30.9669 29.6059 30.755C29.394 30.543 29.2749 30.2556 29.2749 29.9559C29.2749 29.6562 29.394 29.3688 29.6059 29.1569C29.8178 28.945 30.1052 28.8259 30.4049 28.8259Z" fill="white"/>
<path d="M30.4049 33.345H39.4449C39.5933 33.345 39.7402 33.3742 39.8773 33.431C40.0144 33.4878 40.139 33.571 40.2439 33.6759C40.3489 33.7809 40.4321 33.9054 40.4889 34.0425C40.5457 34.1796 40.5749 34.3266 40.5749 34.475C40.5749 34.6234 40.5457 34.7703 40.4889 34.9074C40.4321 35.0445 40.3489 35.1691 40.2439 35.274C40.139 35.3789 40.0144 35.4622 39.8773 35.519C39.7402 35.5757 39.5933 35.605 39.4449 35.605H30.4049C30.2565 35.605 30.1096 35.5757 29.9725 35.519C29.8354 35.4622 29.7108 35.3789 29.6059 35.274C29.5009 35.1691 29.4177 35.0445 29.3609 34.9074C29.3041 34.7703 29.2749 34.6234 29.2749 34.475C29.2749 34.3266 29.3041 34.1796 29.3609 34.0425C29.4177 33.9054 29.5009 33.7809 29.6059 33.6759C29.7108 33.571 29.8354 33.4878 29.9725 33.431C30.1096 33.3742 30.2565 33.345 30.4049 33.345Z" fill="white"/>
<path d="M23.7757 26.5499C24.0602 26.5502 24.333 26.6633 24.5342 26.8645C24.7353 27.0656 24.8485 27.3384 24.8487 27.6229C24.8487 27.9076 24.9618 28.1807 25.1632 28.382C25.3645 28.5833 25.6375 28.6964 25.9222 28.6964C26.2069 28.6964 26.48 28.5833 26.6813 28.382C26.8826 28.1807 26.9957 27.9076 26.9957 27.6229C26.9938 26.959 26.7864 26.312 26.4019 25.7707C26.0175 25.2294 25.4749 24.8204 24.8487 24.5999V24.3999C24.8487 24.1153 24.7357 23.8424 24.5345 23.6412C24.3332 23.44 24.0603 23.3269 23.7757 23.3269C23.4912 23.3269 23.2182 23.44 23.017 23.6412C22.8158 23.8424 22.7027 24.1153 22.7027 24.3999V24.5999C21.9863 24.8512 21.3819 25.3481 20.997 26.0026C20.6121 26.657 20.4715 27.4267 20.6001 28.175C20.7287 28.9233 21.1183 29.6018 21.6996 30.0902C22.2809 30.5786 23.0165 30.8453 23.7757 30.8429C23.9881 30.8433 24.1955 30.9066 24.3719 31.0249C24.5482 31.1431 24.6856 31.311 24.7666 31.5073C24.8475 31.7036 24.8685 31.9195 24.8269 32.1277C24.7852 32.3359 24.6827 32.527 24.5325 32.677C24.3822 32.827 24.1908 32.9291 23.9825 32.9704C23.7742 33.0117 23.5584 32.9903 23.3623 32.909C23.1661 32.8276 22.9985 32.69 22.8806 32.5134C22.7627 32.3368 22.6997 32.1292 22.6997 31.9169C22.6997 31.6322 22.5866 31.3591 22.3853 31.1578C22.184 30.9565 21.9109 30.8434 21.6262 30.8434C21.3415 30.8434 21.0685 30.9565 20.8672 31.1578C20.6658 31.3591 20.5527 31.6322 20.5527 31.9169C20.5547 32.5807 20.7622 33.2275 21.1466 33.7686C21.5311 34.3097 22.0736 34.7185 22.6997 34.9389V35.1389C22.6997 35.4235 22.8128 35.6964 23.014 35.8976C23.2152 36.0989 23.4882 36.2119 23.7727 36.2119C24.0573 36.2119 24.3302 36.0989 24.5315 35.8976C24.7327 35.6964 24.8457 35.4235 24.8457 35.1389V34.9389C25.5591 34.6857 26.1602 34.1887 26.5428 33.5355C26.9255 32.8824 27.0651 32.1151 26.9372 31.369C26.8092 30.6229 26.4219 29.9459 25.8434 29.4576C25.265 28.9693 24.5327 28.7009 23.7757 28.6999C23.4967 28.6914 23.2319 28.5746 23.0376 28.3742C22.8432 28.1738 22.7345 27.9056 22.7345 27.6264C22.7345 27.3472 22.8432 27.079 23.0376 26.8786C23.2319 26.6783 23.4967 26.5614 23.7757 26.5529" fill="white"/>
</g>
</g>
<defs>
<clipPath id="clip0_3320_6654">
<rect width="64" height="64" fill="white"/>
</clipPath>
</defs>
</svg>
