<svg width="24" height="24" viewBox="0 0 24 24" fill="none" xmlns="http://www.w3.org/2000/svg">
<path d="M4.19227 22.3071C3.95328 22.2699 3.72662 22.1811 3.52995 22.0476C3.29108 21.8896 3.10421 21.6712 2.99078 21.4175C2.87736 21.1637 2.84197 20.8849 2.88868 20.6131L3.3614 17.7969C2.13053 16.7739 1.1878 15.4783 0.617795 14.0264C0.0477937 12.5745 -0.131641 11.0117 0.0955648 9.47809C0.994242 4.12256 7.05778 0.566635 13.6215 1.5443C20.1852 2.52196 24.7858 7.68109 23.8881 13.0375C22.9903 18.3939 16.9258 21.9489 10.363 20.9713C9.68576 20.8696 9.01733 20.721 8.36321 20.5266L5.18532 22.1436C4.88305 22.298 4.53539 22.3542 4.19594 22.3037M13.3311 3.27814C7.78791 2.44929 2.678 5.35459 1.93964 9.75408C1.76084 11.0258 1.92322 12.3196 2.41191 13.5166C2.9006 14.7136 3.6999 15.7755 4.73642 16.6047C4.92814 16.7685 5.07368 16.9748 5.15988 17.205C5.24608 17.4351 5.27024 17.682 5.23019 17.9232L4.82711 20.3293L7.58819 18.926C7.7756 18.8316 7.9812 18.7739 8.19273 18.7562C8.40425 18.7385 8.61737 18.7612 8.8194 18.823C9.41777 19.006 10.0304 19.1445 10.6516 19.2374C16.1957 20.0671 21.3047 17.161 22.0431 12.7623C22.7814 8.36372 18.8734 4.11045 13.3293 3.27814" fill="#475259"/>
<path d="M6.94371 8.52805C6.70804 8.49283 6.46732 8.50179 6.23531 8.55443C6.00331 8.60706 5.78454 8.70234 5.59153 8.83482C5.39851 8.9673 5.23504 9.13439 5.1104 9.32655C4.98575 9.51871 4.9024 9.73217 4.8651 9.95475C4.82781 10.1773 4.8373 10.4047 4.89303 10.6238C4.94877 10.8429 5.04966 11.0495 5.18993 11.2318C5.33021 11.4141 5.50711 11.5685 5.71057 11.6862C5.91403 11.8039 6.14004 11.8826 6.37571 11.9179C6.47109 11.9328 6.5676 11.9403 6.66428 11.9404C7.12065 11.9384 7.55956 11.7744 7.89379 11.4809C8.22801 11.1875 8.4331 10.786 8.46829 10.3562C8.50349 9.92649 8.36621 9.49997 8.08375 9.16143C7.80129 8.82289 7.39433 8.59623 6.94371 8.52805Z" fill="#475259"/>
<path d="M12.2814 9.44599C12.0449 9.40893 11.8029 9.41645 11.5695 9.4681C11.336 9.51976 11.1156 9.61454 10.9211 9.74697C10.7266 9.87941 10.5618 10.0469 10.4361 10.2398C10.3104 10.4326 10.2264 10.6471 10.1889 10.8707C10.1514 11.0944 10.1611 11.3229 10.2175 11.543C10.2738 11.7631 10.3758 11.9705 10.5174 12.1533C10.659 12.336 10.8375 12.4905 11.0427 12.6077C11.2478 12.725 11.4754 12.8028 11.7125 12.8367C11.8071 12.8508 11.9026 12.8581 11.9984 12.8583C12.4551 12.8574 12.8948 12.6942 13.2299 12.4011C13.5649 12.1079 13.7709 11.7064 13.8067 11.2763C13.8425 10.8463 13.7055 10.4192 13.4231 10.0802C13.1406 9.74124 12.7333 9.51511 12.2823 9.44685" fill="#475259"/>
<path d="M17.5671 10.423C17.9044 10.4735 18.2182 10.6173 18.469 10.8363C18.7197 11.0552 18.8961 11.3395 18.9758 11.6532C19.0555 11.9668 19.0349 12.2957 18.9167 12.5983C18.7984 12.9009 18.5879 13.1636 18.3116 13.3532C18.0353 13.5427 17.7057 13.6507 17.3644 13.6633C17.0232 13.676 16.6856 13.5928 16.3944 13.4243C16.1032 13.2558 15.8715 13.0095 15.7285 12.7166C15.5855 12.4237 15.5377 12.0973 15.5911 11.7787C15.6265 11.5671 15.7058 11.3642 15.8243 11.1816C15.9428 10.999 16.0982 10.8402 16.2817 10.7143C16.4652 10.5884 16.6732 10.4978 16.8937 10.4479C17.1142 10.3979 17.3431 10.3894 17.5671 10.423Z" fill="#279EAE"/>
</svg>
