<svg width="24" height="24" viewBox="0 0 24 24" fill="none" xmlns="http://www.w3.org/2000/svg">
<g clip-path="url(#clip0_1632_10211)">
<path d="M21.1005 22H2.89949C2.51869 22.0001 2.14159 21.9259 1.78975 21.7817C1.43791 21.6374 1.11822 21.4258 0.848952 21.1591C0.579683 20.8924 0.366112 20.5758 0.220445 20.2273C0.0747783 19.8788 -0.000130265 19.5053 1.70046e-07 19.1282V2.23045C1.70046e-07 2.13213 0.126065 2.04561 0.282902 2.04561H2.16891C2.22472 2.03974 2.28101 2.05056 2.33055 2.07667C2.38009 2.10278 2.4206 2.14298 2.44685 2.1921L4.52444 7.01946C4.58698 7.21609 5.01481 7.21609 5.07833 7.01946L6.94847 1.20009C6.96728 1.14198 7.00424 1.0913 7.05401 1.05534C7.10379 1.01938 7.1638 1 7.22541 1C7.28702 1 7.34704 1.01938 7.39681 1.05534C7.44658 1.0913 7.48354 1.14198 7.50236 1.20009L9.34767 7.00963C9.36624 7.0681 9.40316 7.11918 9.45305 7.15545C9.50295 7.19171 9.56323 7.21126 9.62511 7.21126C9.687 7.21126 9.74728 7.19171 9.79717 7.15545C9.84707 7.11918 9.88399 7.0681 9.90256 7.00963L11.726 1.20894C11.7443 1.15032 11.7811 1.09905 11.8309 1.06263C11.8807 1.02621 11.941 1.00656 12.003 1.00656C12.0649 1.00656 12.1252 1.02621 12.1751 1.06263C12.2249 1.09905 12.2616 1.15032 12.2799 1.20894L14.1491 7.02536C14.1679 7.08346 14.2048 7.13415 14.2546 7.17011C14.3044 7.20607 14.3644 7.22545 14.426 7.22545C14.4876 7.22545 14.5476 7.20607 14.5974 7.17011C14.6472 7.13415 14.6841 7.08346 14.703 7.02536L16.5503 1.21188C16.5688 1.15341 16.6057 1.10233 16.6556 1.06607C16.7055 1.0298 16.7658 1.01025 16.8277 1.01025C16.8896 1.01025 16.9499 1.0298 16.9998 1.06607C17.0496 1.10233 17.0866 1.15341 17.1051 1.21188L18.9504 7.02044C19.013 7.21708 19.4468 7.21708 19.5053 7.02044L21.5809 2.20292C21.607 2.15388 21.6474 2.11371 21.6967 2.0876C21.7461 2.06148 21.8022 2.05063 21.8579 2.05643H23.7171C23.8739 2.05643 24 2.13901 24 2.24126V19.1282C24 19.8898 23.6945 20.6203 23.1508 21.1589C22.607 21.6974 21.8695 22 21.1005 22Z" fill="black"/>
<path d="M9.65994 14.6705C9.65994 15.1476 9.51848 15.6139 9.25344 16.0106C8.98841 16.4072 8.61171 16.7164 8.17097 16.8989C7.73024 17.0815 7.24526 17.1293 6.77738 17.0362C6.3095 16.9431 5.87972 16.7134 5.5424 16.3761C5.20507 16.0388 4.97535 15.609 4.88228 15.1411C4.78922 14.6732 4.83698 14.1882 5.01954 13.7475C5.2021 13.3068 5.51125 12.9301 5.9079 12.665C6.30455 12.4 6.77089 12.2585 7.24794 12.2585C7.88764 12.2585 8.50114 12.5127 8.95348 12.965C9.40582 13.4173 9.65994 14.0308 9.65994 14.6705Z" fill="white"/>
<path d="M7.24806 16.4046C6.90096 16.4241 6.55601 16.3389 6.25785 16.1601C5.95968 15.9813 5.72203 15.7172 5.57562 15.4019C5.42921 15.0866 5.38078 14.7346 5.4366 14.3914C5.49243 14.0483 5.64994 13.7298 5.88875 13.4772C6.12756 13.2245 6.43669 13.0493 6.77614 12.9743C7.1156 12.8993 7.46976 12.9278 7.79281 13.0562C8.11586 13.1847 8.39294 13.4071 8.5882 13.6947C8.78346 13.9824 8.88792 14.322 8.88806 14.6696C8.89991 15.117 8.73395 15.5508 8.42654 15.876C8.11914 16.2012 7.69536 16.3913 7.24806 16.4046Z" fill="black"/>
<path d="M19.3572 14.6705C19.3572 15.1476 19.2157 15.6139 18.9507 16.0106C18.6857 16.4072 18.309 16.7164 17.8682 16.8989C17.4275 17.0815 16.9425 17.1293 16.4746 17.0362C16.0068 16.9431 15.577 16.7134 15.2397 16.3761C14.9023 16.0388 14.6726 15.609 14.5796 15.1411C14.4865 14.6732 14.5342 14.1882 14.7168 13.7475C14.8994 13.3068 15.2085 12.9301 15.6052 12.665C16.0018 12.4 16.4682 12.2585 16.9452 12.2585C17.5849 12.2585 18.1984 12.5127 18.6507 12.965C19.1031 13.4173 19.3572 14.0308 19.3572 14.6705Z" fill="white"/>
<path d="M16.9454 16.4045C16.5984 16.4245 16.2533 16.3399 15.9549 16.1617C15.6564 15.9835 15.4183 15.7199 15.2713 15.4049C15.1244 15.0899 15.0753 14.738 15.1304 14.3948C15.1855 14.0516 15.3424 13.7329 15.5806 13.4798C15.8189 13.2267 16.1276 13.0509 16.4668 12.9751C16.8061 12.8993 17.1602 12.9271 17.4835 13.0548C17.8068 13.1825 18.0844 13.4043 18.2803 13.6914C18.4762 13.9786 18.5814 14.3179 18.5824 14.6655C18.5942 15.1128 18.4283 15.5466 18.1209 15.8718C17.8135 16.197 17.3897 16.3871 16.9424 16.4005" fill="black"/>
<path d="M8.21122 11.0664C8.15084 11.0659 8.092 11.0473 8.04241 11.0128C7.99281 10.9784 7.95475 10.9298 7.93322 10.8734C7.59866 10.7594 7.23578 10.7594 6.90122 10.8734C6.87493 10.9368 6.8277 10.9893 6.76741 11.0221C6.70711 11.0549 6.63739 11.066 6.56988 11.0536C6.50237 11.0412 6.44116 11.006 6.39645 10.9539C6.35175 10.9018 6.32625 10.836 6.32422 10.7674C6.32422 10.3414 6.91322 10.1914 7.41722 10.1914C7.92122 10.1914 8.51022 10.3424 8.51022 10.7674C8.50995 10.8466 8.47837 10.9225 8.42235 10.9785C8.36634 11.0346 8.29044 11.0661 8.21122 11.0664Z" fill="white"/>
<path d="M17.8689 10.9294C17.8086 10.929 17.7497 10.9103 17.7001 10.8759C17.6505 10.8415 17.6125 10.7929 17.5909 10.7364C17.2562 10.6235 16.8937 10.6235 16.5589 10.7364C16.5326 10.7998 16.4854 10.8523 16.4251 10.8851C16.3648 10.9179 16.2951 10.929 16.2276 10.9166C16.1601 10.9042 16.0989 10.869 16.0542 10.817C16.0095 10.7649 15.984 10.6991 15.9819 10.6304C15.9819 10.2044 16.5709 10.0544 17.0749 10.0544C17.5789 10.0544 18.1639 10.2054 18.1639 10.6304C18.1637 10.709 18.1326 10.7843 18.0775 10.8402C18.0223 10.8961 17.9475 10.9281 17.8689 10.9294Z" fill="white"/>
</g>
<defs>
<clipPath id="clip0_1632_10211">
<rect width="24" height="24" fill="white"/>
</clipPath>
</defs>
</svg>
