<svg width="24" height="24" viewBox="0 0 24 24" fill="none" xmlns="http://www.w3.org/2000/svg">
<path d="M14.2081 23.0819C13.9655 23.0731 13.8892 22.8525 13.8196 22.6626C13.4634 21.5497 13.2256 20.4022 13.11 19.2394C12.8168 17.2324 12.6343 15.2078 12.196 13.2176C12.1123 12.7006 11.9336 12.2035 11.6689 11.7516C11.6015 11.646 11.5443 11.5529 11.6147 11.4254C12.3961 10.0048 12.462 8.41267 12.7091 6.8638C12.9861 5.10455 13.1401 3.33503 13.5029 1.59704C13.5918 1.20047 13.7019 0.808967 13.8328 0.424203C13.89 0.23435 13.9743 0.0137104 14.2169 0.000515963C14.4595 -0.0126784 14.5394 0.229952 14.6054 0.411008C14.8896 1.29758 15.0814 2.21113 15.1779 3.13712C15.4652 5.13094 15.6463 7.13795 15.9952 9.12297C16.0799 9.69207 16.2231 10.2509 16.4226 10.7906C16.5237 11.0508 16.5912 11.4122 16.9481 11.3946C17.2692 11.377 17.311 11.0237 17.3806 10.7774C17.6252 9.73843 17.7919 8.68263 17.8791 7.61881C17.9743 6.47287 18.1566 5.33584 18.4244 4.21759C18.5087 3.91778 18.5527 3.4897 18.9288 3.47211C19.3612 3.44572 19.4133 3.90019 19.4976 4.20879C19.8166 5.679 20.037 7.16889 20.1573 8.6685C20.2189 9.17575 20.29 9.6786 20.3772 10.1771C20.4102 10.3405 20.3831 10.6169 20.6154 10.6169C20.7914 10.6125 20.7965 10.3566 20.8244 10.1976C20.971 9.46456 21.0912 8.73154 21.2429 7.99852C21.2918 7.73339 21.37 7.47451 21.476 7.22665C21.5962 6.97082 21.7934 6.95763 21.9158 7.22665C22.0217 7.47387 22.103 7.73094 22.1585 7.99412C22.4414 9.1413 22.4627 10.3501 22.9743 11.4437C23.0028 11.5045 23.0078 11.5737 22.9882 11.638C22.5066 12.7808 22.5726 14.0335 22.2596 15.2107C22.205 15.4056 22.1387 15.5971 22.061 15.7839C21.9877 15.943 21.888 16.0925 21.6945 16.0881C21.5009 16.0837 21.4012 15.9335 21.3316 15.7751C21.1261 15.2191 20.9899 14.6398 20.9262 14.0503C20.8849 13.4964 20.7755 12.9496 20.6008 12.4223C20.381 12.7631 20.263 13.1596 20.2607 13.5651C20.0495 15.0912 19.8553 16.6174 19.6523 18.1443C19.5988 18.5308 19.492 18.908 19.3349 19.2651C19.2674 19.4241 19.1809 19.5781 18.9867 19.5913C18.7609 19.6045 18.6553 19.4366 18.585 19.2607C18.3268 18.5432 18.1594 17.7964 18.0865 17.0374C17.9091 15.7627 17.7552 14.488 17.5734 13.2132C17.5145 12.8635 17.43 12.5185 17.3205 12.1811C17.2633 11.9913 17.1937 11.7575 16.954 11.7413C16.6842 11.7237 16.597 11.9708 16.5083 12.1694C16.2476 12.7768 16.0762 13.4187 15.9996 14.0753C15.6822 16.3205 15.3883 18.5702 15.0738 20.811C14.9973 21.4507 14.8437 22.0788 14.6164 22.6817C14.5431 22.8649 14.4581 23.0834 14.2162 23.0834L14.2081 23.0819ZM7.693 21.5646C7.23413 21.5602 7.23413 20.9605 7.1403 20.5896C6.84909 19.25 6.63398 17.8949 6.49597 16.5309C6.36463 15.1487 6.12766 13.7786 5.78714 12.4326C5.70284 12.1548 5.66692 11.7355 5.30115 11.7399C4.93537 11.7443 4.91851 12.1679 4.84228 12.4502C4.48529 13.7909 4.40246 15.1895 4.11365 16.5441C4.0799 16.7447 4.03561 16.9434 3.98097 17.1393C3.90254 17.3687 3.89374 17.7125 3.58368 17.7257C3.26261 17.7345 3.23622 17.3856 3.18198 17.1569C3.02805 16.429 2.9005 15.6967 2.76782 14.9644C2.67516 13.8506 2.42846 12.7551 2.0348 11.7091C2.01192 11.6636 2 11.6134 2 11.5625C2 11.5116 2.01192 11.4613 2.0348 11.4159C2.64468 10.1191 2.67033 8.68976 2.94448 7.31754C3.05443 6.7883 3.16439 6.25906 3.28754 5.73421C3.32345 5.59274 3.37183 5.40802 3.55289 5.39482C3.77719 5.37723 3.81751 5.58468 3.86736 5.73861C4.14048 6.87229 4.35506 8.01927 4.51022 9.17502C4.60331 9.67347 4.69567 10.1763 4.82761 10.6616C4.90751 10.9548 4.92511 11.3946 5.32607 11.3946C5.69258 11.3946 5.71457 10.9753 5.79887 10.6975C6.08644 9.56498 6.28423 8.41153 6.39042 7.2479C6.56634 5.90721 6.70342 4.56138 6.99883 3.23827C7.07634 2.92626 7.17429 2.61969 7.29203 2.32053C7.36534 2.13068 7.47602 1.93203 7.71939 1.94522C7.93929 1.95402 8.02945 2.14387 8.09909 2.31173C8.3394 2.91008 8.49937 3.53764 8.57482 4.17801C8.84897 6.05308 9.1092 7.92741 9.38115 9.80248C9.44631 10.3418 9.6035 10.8659 9.84588 11.3521C9.87896 11.4237 9.90808 11.4972 9.93311 11.572C9.92067 11.629 9.90451 11.685 9.88473 11.7399C9.17077 13.3283 9.13045 15.0575 8.87463 16.742C8.73328 18.0366 8.52408 19.3228 8.2479 20.5955C8.15187 20.962 8.15187 21.5616 7.69813 21.5616L7.693 21.5646Z" fill="url(#paint0_linear_1632_10427)"/>
<defs>
<linearGradient id="paint0_linear_1632_10427" x1="2" y1="11.5417" x2="23" y2="11.5417" gradientUnits="userSpaceOnUse">
<stop stop-color="#44B6B1"/>
<stop offset="0.261" stop-color="#47BDCA"/>
<stop offset="0.522" stop-color="#41ACCE"/>
<stop offset="0.793" stop-color="#3B95C9"/>
<stop offset="1" stop-color="#5181C2"/>
</linearGradient>
</defs>
</svg>
