<svg width="24" height="24" viewBox="0 0 24 24" fill="none" xmlns="http://www.w3.org/2000/svg">
<g clip-path="url(#clip0_1632_10199)">
<path d="M11.999 0C9.62573 0.000195518 7.30579 0.704124 5.33255 2.02278C3.35931 3.34143 1.82138 5.21558 0.91325 7.40825C0.00511992 9.60093 -0.23242 12.0136 0.230635 14.3413C0.693689 16.669 1.83654 18.8071 3.51471 20.4853C5.19288 22.1634 7.33098 23.3063 9.65866 23.7694C11.9863 24.2324 14.3991 23.9949 16.5918 23.0867C18.7844 22.1786 20.6586 20.6407 21.9772 18.6675C23.2959 16.6942 23.9998 14.3743 24 12.001C23.9963 8.81925 22.7308 5.76888 20.4809 3.51905C18.2311 1.26923 15.1808 0.00366288 11.999 0ZM11.999 21.7412C10.0726 21.7412 8.18943 21.1699 6.58767 20.0996C4.9859 19.0294 3.73746 17.5082 3.00025 15.7284C2.26304 13.9486 2.07018 11.9902 2.446 10.1008C2.82183 8.21136 3.74947 6.47583 5.11166 5.11364C6.47385 3.75145 8.20938 2.82379 10.0988 2.44797C11.9882 2.07214 13.9466 2.26503 15.7264 3.00224C17.5062 3.73945 19.0274 4.98787 20.0977 6.58963C21.168 8.1914 21.7392 10.0746 21.7392 12.001C21.7361 14.5833 20.7089 17.0589 18.8829 18.8849C17.057 20.7108 14.5813 21.738 11.999 21.7412Z" fill="#434344"/>
<path d="M11.7003 16.8973H11.633C11.4707 16.8839 11.3166 16.82 11.1925 16.7145C11.0683 16.609 10.9804 16.4672 10.941 16.3091L10.2491 13.5214L7.46136 12.8294C7.30387 12.7902 7.16255 12.7028 7.05716 12.5793C6.95178 12.4559 6.88757 12.3026 6.87353 12.141C6.85948 11.9793 6.89629 11.8172 6.97882 11.6775C7.06134 11.5377 7.18547 11.4272 7.33383 11.3614L14.6254 8.11998C14.7694 8.05616 14.9293 8.03745 15.0842 8.06629C15.239 8.09513 15.3815 8.17017 15.4929 8.28155C15.6042 8.39292 15.6793 8.53541 15.7082 8.69026C15.737 8.8451 15.7183 9.00505 15.6545 9.14906L12.414 16.4416C12.3527 16.5792 12.2529 16.6961 12.1266 16.7782C12.0003 16.8603 11.8529 16.9041 11.7022 16.9042" fill="#279EAE"/>
</g>
<defs>
<clipPath id="clip0_1632_10199">
<rect width="24" height="24" fill="white"/>
</clipPath>
</defs>
</svg>
