<svg width="24" height="24" viewBox="0 0 24 24" fill="none" xmlns="http://www.w3.org/2000/svg">
<g clip-path="url(#clip0_1632_10213)">
<path d="M0.13588 6.20755C0.437156 4.74667 1.22726 3.43388 2.37439 2.48826C3.52152 1.54264 4.95627 1.02136 6.43928 1.01139C6.72276 1.01125 7.0059 1.03125 7.28658 1.07125C8.69812 1.17413 10.0306 1.76602 11.0571 2.74616C11.2464 2.93931 11.4294 3.11887 11.625 3.31021L11.9684 3.64845C12.1216 3.49701 12.2613 3.36281 12.4191 3.21227C12.5768 3.06174 12.7246 2.91846 12.8698 2.77065C13.4394 2.18989 14.1217 1.7332 14.8743 1.429C15.6268 1.12479 16.4335 0.979558 17.2442 1.00231C17.6953 1.00411 18.1457 1.03867 18.5918 1.10571C19.9884 1.329 21.2711 2.01445 22.237 3.05359C23.221 4.07251 23.8275 5.40033 23.9551 6.81511C24.0985 8.25094 23.8972 9.70044 23.3682 11.0418C22.8391 12.3831 21.9977 13.577 20.9147 14.5232C19.6474 15.6803 18.3232 16.8066 17.0441 17.903C16.4745 18.3881 15.8868 18.8896 15.3117 19.3874L13.6603 20.8148L12.6616 21.6835C12.485 21.8662 12.2487 21.9786 11.9963 22C11.7501 21.9803 11.5193 21.8718 11.3464 21.6944L9.02989 19.6849C7.25055 18.1433 5.41077 16.5454 3.59537 14.9838C2.59886 14.1747 1.76673 13.1799 1.1445 12.0539C0.134223 10.2855 -0.222952 8.21502 0.13588 6.20755ZM3.81175 12.968C4.47427 13.6426 5.21159 14.2702 5.92729 14.8723C6.24999 15.1444 6.58258 15.4273 6.90708 15.712C6.96207 15.7619 7.01796 15.8091 7.07565 15.858L8.32766 16.9789C9.43727 17.932 10.5703 18.8977 11.6628 19.8327L11.999 20.1183L12.6625 19.5443C13.2033 19.0773 13.7586 18.5939 14.312 18.1233C14.3508 18.0879 14.3571 18.0861 14.3507 18.0154L15.8552 16.7631L16.5501 16.1609C16.8936 15.8644 17.2442 15.5642 17.5822 15.2767C18.3295 14.642 19.1047 13.98 19.8357 13.3035C20.6941 12.5397 21.3685 11.5895 21.808 10.5248C22.2474 9.46004 22.4404 8.3087 22.3723 7.15788C22.2938 6.11139 21.8818 5.11831 21.1974 4.32625C20.5131 3.53418 19.5929 2.98544 18.5738 2.76157C18.1198 2.67099 17.6583 2.62423 17.1955 2.62193C16.6061 2.6078 16.0201 2.71535 15.4736 2.93791C14.9271 3.16048 14.4318 3.49334 14.0182 3.91598L14.01 3.92414C13.846 4.07195 13.6937 4.21251 13.5449 4.34581C13.215 4.64053 12.9311 4.89808 12.621 5.21094C12.5387 5.30819 12.4379 5.3877 12.3243 5.44473C12.2108 5.50177 12.087 5.53515 11.9603 5.54284C11.8335 5.53471 11.7095 5.50142 11.5955 5.44493C11.4815 5.38843 11.3797 5.30985 11.296 5.21365L10.9598 4.88267C10.4626 4.36646 9.93389 3.88188 9.37688 3.43173C8.65953 2.84799 7.76392 2.53119 6.84128 2.53486C6.07811 2.55231 5.32559 2.71895 4.62566 3.02547C3.82947 3.31869 3.13134 3.83135 2.61107 4.50486C2.0908 5.17837 1.76938 5.98555 1.68355 6.83415C1.53186 7.95325 1.64563 9.0926 2.01552 10.159C2.3854 11.2254 3.00093 12.1886 3.81175 12.9698V12.968Z" fill="#434344"/>
<path d="M8.4597 10.2625C8.48116 9.90458 8.50449 9.53148 8.54275 9.17091C8.62888 8.31608 9.03742 7.52075 9.6917 6.93411C10.3536 6.35592 11.2102 6.02505 12.1053 6.00182H12.2743C12.8714 5.98338 13.4641 6.10516 14.001 6.35654C14.5378 6.60791 15.0024 6.98127 15.3542 7.44411C15.7465 8.02896 16.3618 8.44352 17.0687 8.59918C17.2691 8.63247 17.4714 8.6537 17.6745 8.66271C18.034 8.67508 18.3742 8.82207 18.622 9.07215C18.8698 9.32222 19.0054 9.65545 18.9998 10.0003C19.0032 10.8508 18.6718 11.6712 18.0718 12.2976C17.4718 12.9241 16.6473 13.3105 15.763 13.3797L16.0841 16.7644L14.5263 18C14.3713 16.4658 14.2261 14.9308 14.0905 13.3949C14.0599 13.2013 14.0704 13.0038 14.1214 12.8142C14.1724 12.6247 14.2628 12.4469 14.3873 12.2917C14.5326 12.1482 14.7068 12.0345 14.8993 11.9576C15.0919 11.8807 15.2987 11.8422 15.5073 11.8443C15.9564 11.8271 16.3846 11.658 16.7161 11.367C17.0475 11.0759 17.2608 10.6818 17.318 10.2544C17.1424 10.2378 16.9676 10.2137 16.7943 10.1819C15.7765 9.99194 14.8687 9.44599 14.2473 8.65018C13.9819 8.24375 13.5926 7.92546 13.132 7.73848C12.8538 7.65138 12.5631 7.60639 12.2705 7.60515C11.8038 7.58532 11.3445 7.72259 10.9722 7.99318C10.6 8.26377 10.3381 8.65065 10.2321 9.08681L10.2237 9.11365C10.2161 9.14007 10.2105 9.16698 10.2069 9.19417L10.1948 10.0307C10.1826 10.7465 10.1687 11.473 10.1892 12.1933V12.1986C10.1984 12.3953 10.2887 12.5805 10.4402 12.7134C10.5918 12.8463 10.7922 12.916 10.9974 12.9072H11.0432C11.2594 12.8952 11.462 12.802 11.607 12.6477C11.752 12.4935 11.8278 12.2907 11.8178 12.0832V8.96424C11.8126 8.7493 11.8965 8.54113 12.0512 8.38546C12.2059 8.22979 12.4187 8.13932 12.6429 8.13393C12.7122 8.13389 12.7812 8.14232 12.8482 8.159C13.0291 8.19802 13.1905 8.29552 13.3052 8.43516C13.42 8.57479 13.481 8.74804 13.4782 8.92577C13.4782 9.21208 13.4838 9.49928 13.4838 9.78559C13.4913 10.623 13.4997 11.4856 13.4595 12.3436C13.4431 12.7758 13.2932 13.1935 13.0289 13.5439C12.7645 13.8944 12.3976 14.1617 11.9746 14.312C11.6584 14.4445 11.3174 14.5142 10.9722 14.5169C10.4363 14.5102 9.91727 14.3362 9.49386 14.0212C9.19267 15.042 8.79172 16.0332 8.29638 16.9818L7 15.8759C7.68357 14.5427 8.138 13.1125 8.34582 11.6403C8.40276 11.1849 8.43076 10.7125 8.4597 10.2625Z" fill="#3B9EAE"/>
</g>
<defs>
<clipPath id="clip0_1632_10213">
<rect width="24" height="24" fill="white"/>
</clipPath>
</defs>
</svg>
