<svg width="24" height="24" viewBox="0 0 24 24" fill="none" xmlns="http://www.w3.org/2000/svg">
<g clip-path="url(#clip0_1632_10217)">
<path d="M10.2404 16.6319C10.1455 16.5388 10.0331 16.4652 9.90979 16.4156C9.78645 16.3659 9.65456 16.341 9.52161 16.3423C9.38866 16.3437 9.25726 16.3712 9.13495 16.4234C9.01265 16.4756 8.90183 16.5514 8.80881 16.6465L7.07745 18.4145L4.6739 15.9847L6.42525 14.194C6.52113 14.0995 6.59723 13.9869 6.64913 13.8626C6.70102 13.7384 6.72765 13.6051 6.72747 13.4704C6.72728 13.3358 6.7003 13.2025 6.64807 13.0784C6.59584 12.9543 6.51942 12.8419 6.42328 12.7477C6.32714 12.6534 6.21321 12.5793 6.08813 12.5297C5.96305 12.48 5.82935 12.4558 5.69482 12.4584C5.56029 12.4611 5.42763 12.4905 5.30459 12.545C5.18155 12.5996 5.07058 12.6781 4.9782 12.776L2.52561 15.2784C2.33954 15.4686 2.23571 15.7245 2.23656 15.9907C2.23741 16.2568 2.34288 16.512 2.53015 16.701L3.74282 17.9245L0.318271 21.2487C0.220549 21.3409 0.142083 21.4515 0.087491 21.5743C0.0328988 21.6971 0.00324755 21.8294 0.000252039 21.9638C-0.00274347 22.0981 0.0209886 22.2317 0.0700543 22.3568C0.11912 22.4818 0.192541 22.5959 0.286059 22.6923C0.379576 22.7887 0.491312 22.8656 0.614778 22.9184C0.738244 22.9712 0.870995 22.9989 1.00526 22.9999C1.13953 23.0009 1.27264 22.9752 1.39688 22.9242C1.52112 22.8733 1.634 22.7981 1.72895 22.7031L5.16806 19.3635L6.35983 20.567C6.45398 20.6621 6.56606 20.7376 6.68954 20.7891C6.81303 20.8406 6.9455 20.867 7.07928 20.867C7.21343 20.8664 7.34613 20.8393 7.46976 20.7872C7.59339 20.7351 7.70551 20.659 7.79962 20.5634L10.2522 18.06C10.3453 17.965 10.4188 17.8526 10.4684 17.7291C10.5181 17.6057 10.543 17.4737 10.5416 17.3407C10.5403 17.2076 10.5127 17.0761 10.4606 16.9538C10.4084 16.8314 10.3327 16.7205 10.2377 16.6274" fill="#434344"/>
<path d="M16.0163 12.4671L13.4248 9.69417C13.2393 9.49992 12.9852 9.38706 12.7175 9.3801C12.4497 9.37315 12.1901 9.47266 11.9949 9.65702C11.7998 9.84137 11.6848 10.0957 11.6751 10.3647C11.6654 10.6338 11.7616 10.8958 11.943 11.0939L13.8579 13.1436L12.8147 14.1904L10.8168 12.0454C10.6307 11.8555 10.3781 11.7463 10.113 11.7409C9.84784 11.7356 9.59112 11.8346 9.39758 12.0169C9.20403 12.1991 9.08899 12.4502 9.07697 12.7165C9.06495 12.9828 9.15688 13.2433 9.33321 13.4424L11.3749 15.6342L10.3135 16.6993L6.28211 12.611L14.1917 4.60209C14.3751 4.40849 14.4758 4.15031 14.4722 3.88293C14.4685 3.61555 14.3607 3.36027 14.172 3.17184C13.9832 2.98342 13.7285 2.87686 13.4625 2.87502C13.1965 2.87319 12.9404 2.97622 12.7491 3.16201L4.12828 11.8896C3.93945 12.0812 3.8335 12.3399 3.8335 12.6096C3.8335 12.8793 3.93945 13.1381 4.12828 13.3297L9.58853 18.8663C9.68298 18.9615 9.7952 19.0371 9.91874 19.0886C10.0423 19.1401 10.1747 19.1667 10.3085 19.1667C10.4422 19.1667 10.5747 19.1401 10.6982 19.0886C10.8217 19.0371 10.9339 18.9615 11.0284 18.8663L15.9935 13.8861C16.1805 13.6982 16.2874 13.4446 16.2917 13.1789C16.296 12.9132 16.1972 12.6563 16.0163 12.4625" fill="#279EAE"/>
<path d="M22.7034 5.50149L17.5169 0.277738C17.3311 0.0981273 17.0822 -0.00157725 16.8237 1.88723e-05C16.5652 0.001615 16.3176 0.104382 16.1341 0.286272C15.9505 0.468163 15.8456 0.714689 15.8419 0.972961C15.8382 1.23123 15.9359 1.48068 16.1141 1.66779L18.022 3.58995L16.6609 4.91802L13.212 1.44024C13.1219 1.34327 13.0132 1.2654 12.8923 1.21125C12.7714 1.15711 12.6409 1.12779 12.5085 1.12505C12.3761 1.12231 12.2445 1.14621 12.1215 1.19531C11.9985 1.24442 11.8866 1.31773 11.7925 1.41089C11.6984 1.50406 11.6241 1.61517 11.5738 1.73762C11.5236 1.86007 11.4985 1.99137 11.5001 2.1237C11.5016 2.25603 11.5298 2.3867 11.5829 2.50793C11.636 2.62916 11.713 2.73849 11.8093 2.82941L17.8811 8.94917L17.0091 9.8133C16.9171 9.90451 16.8439 10.0129 16.7938 10.1324C16.7437 10.2519 16.7176 10.38 16.7171 10.5096C16.7166 10.6391 16.7416 10.7675 16.7907 10.8873C16.8398 11.0072 16.9121 11.1162 17.0034 11.2082C17.0947 11.3002 17.2032 11.3733 17.3227 11.4234C17.4423 11.4734 17.5706 11.4995 17.7002 11.5C17.8298 11.5005 17.9583 11.4755 18.0783 11.4265C18.1983 11.3774 18.3074 11.3052 18.3995 11.214L19.2714 10.3507L20.1212 11.2078C20.307 11.3874 20.5558 11.4871 20.8144 11.4855C21.0729 11.4839 21.3205 11.3811 21.504 11.1992C21.6876 11.0173 21.7925 10.7708 21.7962 10.5125C21.7999 10.2543 21.7022 10.0048 21.524 9.81772L18.0485 6.31781L19.4079 4.98974L21.2962 6.8942C21.3869 6.98934 21.4956 7.06546 21.616 7.11809C21.7365 7.17073 21.8662 7.19882 21.9977 7.20071C22.1291 7.2026 22.2596 7.17827 22.3816 7.12913C22.5035 7.07999 22.6144 7.00704 22.7077 6.91454C22.801 6.82204 22.875 6.71187 22.9252 6.59046C22.9754 6.46905 23.0008 6.33886 23 6.20751C22.9992 6.07616 22.9721 5.94629 22.9204 5.82552C22.8688 5.70474 22.7935 5.59548 22.699 5.50415" fill="#434344"/>
</g>
<defs>
<clipPath id="clip0_1632_10217">
<rect width="24" height="24" fill="white"/>
</clipPath>
</defs>
</svg>
