<svg width="24" height="24" viewBox="0 0 24 24" fill="none" xmlns="http://www.w3.org/2000/svg">
<path d="M23.7317 9.95577L23.575 9.52977C23.2651 8.66677 22.9544 7.80177 22.6522 6.92977C22.6231 6.84777 22.6009 6.77477 22.5897 6.73877C22.5332 6.44692 22.4176 6.17518 22.2525 5.94636C22.0875 5.71754 21.8779 5.53832 21.6412 5.42377C19.8972 4.5971 18.1523 3.7731 16.4066 2.95177L12.9388 1.31677C12.6625 1.11344 12.3433 1.00381 12.0168 1.0001C11.6903 0.996389 11.3693 1.09876 11.0897 1.29577L2.36844 5.42777C2.13643 5.53746 1.93007 5.71 1.76635 5.93116C1.60263 6.15231 1.48624 6.41575 1.42679 6.69977L1.35404 6.93877C1.05117 7.80786 0.743266 8.67454 0.430364 9.53877L0.316515 9.87677C0.0842628 10.2485 -0.026169 10.7051 0.0052455 11.1639C0.03666 11.6226 0.207848 12.0529 0.487732 12.3768C0.566488 12.5001 0.659792 12.6514 0.767653 12.8308L1.94042 14.8308C2.07396 15.0568 2.15785 15.2208 2.22034 15.3428C2.34993 15.643 2.55721 15.8879 2.81273 16.0428C2.40312 16.6696 2.18981 17.4415 2.20837 18.2298C2.36332 19.6918 3.57801 20.5298 4.82868 21.2608C7.08058 22.4716 9.53036 23.098 12.0093 23.0968C14.4883 23.0955 16.9377 22.4668 19.1887 21.2538C20.424 20.5248 21.6421 19.6908 21.7996 18.1878C21.8115 17.409 21.5962 16.6487 21.1892 16.0318C21.3265 15.9677 21.451 15.8714 21.5549 15.7487C21.6589 15.626 21.7402 15.4797 21.7936 15.3188C21.8544 15.2028 21.9374 15.0438 22.0693 14.8188L23.2326 12.8328C23.3428 12.6501 23.4381 12.4961 23.5185 12.3708C23.7865 12.0569 23.9536 11.6447 23.9917 11.2037C24.0297 10.7626 23.9364 10.3198 23.7274 9.94977M22.0093 11.3978L21.8493 11.6638L20.7655 13.5138V13.3068C20.7655 12.0518 19.5362 11.6218 17.552 11.3348C16.8774 11.2348 14.4428 11.1908 12.0066 11.1908C9.57027 11.1908 7.13313 11.2388 6.46029 11.3348C4.52222 11.6138 3.23218 12.0558 3.23218 13.3068V13.5068L2.14586 11.6528C2.03629 11.4688 1.94213 11.3188 1.86252 11.1908L1.8086 11.1038L1.73926 10.9938C1.76409 10.9238 1.79317 10.8438 1.82484 10.7608L2.08167 10.0658C2.36331 9.28177 2.64494 8.49977 2.91545 7.72077C2.95996 7.59477 2.9959 7.47877 3.02757 7.37077L3.05584 7.27077C5.83511 5.95277 8.62379 4.63377 11.4219 3.31377L11.7189 3.17677C11.9929 3.04277 11.9937 3.04277 12.283 3.18577L20.9487 7.28577C20.9573 7.31277 20.9667 7.34677 20.9804 7.38577C21.0121 7.49177 21.0472 7.60777 21.0882 7.72177C21.369 8.52877 21.6592 9.33677 21.9443 10.1418L22.0119 10.3278C22.0727 10.5008 22.1266 10.6478 22.1737 10.7708L22.2593 11.0008L22.1617 11.1558L22.0085 11.3998L22.0093 11.3978ZM4.91343 14.7608L4.92199 13.7088C6.74107 12.8178 17.266 12.8168 19.0748 13.7088V14.6668L19.0963 14.8078C19.1095 14.8473 19.1095 14.8912 19.0963 14.9308L4.8809 14.9728C4.88903 14.9022 4.90017 14.8321 4.91429 14.7628M4.40753 17.0008H19.5953C20.1235 17.6178 20.1218 17.9178 20.1158 17.9748C20.091 18.2048 19.7811 18.6438 18.4525 19.4218C16.4271 20.4907 14.2303 21.0443 12.0077 21.0457C9.7852 21.047 7.58783 20.4962 5.56146 19.4298C4.48371 18.7938 3.91958 18.3038 3.88534 17.9748C3.86907 17.8138 4.00006 17.4748 4.40753 16.9978" fill="#475259"/>
<path d="M14.2424 6.51272C14.3419 6.36006 14.3884 6.16911 14.3725 5.97811C14.3567 5.78711 14.2796 5.61017 14.1568 5.48272L13.5987 4.89472C13.5098 4.79941 13.3999 4.73481 13.2814 4.70815C13.1629 4.68149 13.0404 4.6938 12.9275 4.74372C12.7981 4.79874 12.6573 4.8058 12.5244 4.76392C12.3914 4.72204 12.2727 4.63328 12.1845 4.50972C12.0621 4.3905 11.9068 4.32738 11.7476 4.33216C11.5883 4.33695 11.436 4.40931 11.319 4.53572C11.2285 4.65232 11.1101 4.73448 10.9792 4.77157C10.8482 4.80865 10.7107 4.79895 10.5846 4.74372C10.4721 4.69416 10.3502 4.68194 10.2322 4.70842C10.1141 4.73489 10.0047 4.79903 9.916 4.89372L9.35702 5.48272C9.23481 5.60975 9.15809 5.78595 9.14223 5.97614C9.12636 6.16634 9.17249 6.35652 9.27141 6.50872C9.35376 6.64088 9.40672 6.79485 9.42554 6.95683C9.44437 7.1188 9.42846 7.2837 9.37925 7.43672C8.911 9.60572 9.72167 10.2087 10.6017 10.6367L10.6291 10.6497C10.6281 10.6684 10.6281 10.6871 10.6291 10.7057C10.6291 10.8657 10.6291 10.9307 10.8731 10.9567V10.9667H10.9792C11.1324 10.9747 11.3524 10.9757 11.6692 10.9757H11.7882C12.146 10.9757 12.3874 10.9757 12.5517 10.9667H12.651V10.9567C12.8933 10.9307 12.8942 10.8667 12.8942 10.7057C12.8955 10.6858 12.8955 10.6657 12.8942 10.6457L12.9224 10.6327C13.7913 10.2017 14.6019 9.59872 14.1328 7.39872C14.0864 7.25165 14.0717 7.09343 14.0902 6.93815C14.1088 6.78288 14.1598 6.63536 14.239 6.50872M10.6436 6.30872C11.031 6.34882 11.4196 6.24862 11.7565 6.02172C12.0928 6.25057 12.4818 6.35125 12.8693 6.30972C12.7404 6.79429 12.7404 7.31316 12.8693 7.79772C13.0979 8.87572 12.9926 8.92872 12.4105 9.21772C12.1848 9.32146 11.9671 9.44759 11.7599 9.59472C11.5534 9.44844 11.3366 9.32299 11.1119 9.21972C10.5272 8.93072 10.4219 8.87872 10.6522 7.80972C10.7764 7.3199 10.7743 6.79818 10.6462 6.30972" fill="#279EAE"/>
</svg>
