<svg width="24" height="24" viewBox="0 0 24 24" fill="none" xmlns="http://www.w3.org/2000/svg">
<path d="M22.1019 12.653C21.9202 12.6531 21.7459 12.5812 21.6171 12.453L11.9911 2.82703L2.3661 12.452C2.24269 12.5805 2.07438 12.6561 1.89637 12.6631C1.71837 12.6701 1.54463 12.6079 1.41151 12.4896C1.27839 12.3712 1.19636 12.2059 1.18251 12.0283C1.16865 11.8507 1.22414 11.6746 1.33729 11.537C1.35491 11.5163 1.37394 11.4973 1.39491 11.48L11.5062 1.36603C11.6354 1.23755 11.8099 1.16541 11.9921 1.16541C12.1742 1.16541 12.3488 1.23755 12.4779 1.36603L22.5912 11.48C22.6876 11.5762 22.753 11.6988 22.7797 11.8323C22.8063 11.9658 22.7931 12.1042 22.7411 12.23C22.6891 12.3558 22.6009 12.4633 22.4877 12.539C22.3745 12.6146 22.2415 12.655 22.1054 12.655L22.1019 12.653Z" fill="#0B0D0E"/>
<path d="M1.85419 12.847C1.63678 12.8477 1.42732 12.7652 1.26874 12.6165C1.11016 12.4678 1.01443 12.264 1.00116 12.047C0.994192 11.9353 1.00934 11.8233 1.04608 11.7175C1.08282 11.6118 1.14028 11.5144 1.21503 11.431C1.23702 11.4054 1.26103 11.3814 1.28632 11.359L11.3859 1.25403C11.5463 1.09459 11.7633 1.00507 11.9894 1.00507C12.2156 1.00507 12.4326 1.09459 12.593 1.25403L22.7062 11.367C22.8255 11.4862 22.9065 11.6381 22.9396 11.8034C22.9727 11.9687 22.9564 12.1401 22.8923 12.296C22.8281 12.4519 22.7192 12.5854 22.5793 12.6795C22.4394 12.7736 22.2747 12.8243 22.1061 12.825H22.0334C21.832 12.809 21.6429 12.721 21.5012 12.577L11.9924 3.07001L2.48407 12.577C2.40386 12.6637 2.30647 12.7325 2.19794 12.779C2.0894 12.8255 1.97226 12.8487 1.85419 12.847ZM11.9953 1.33102C11.9267 1.33074 11.8586 1.344 11.7951 1.37009C11.7316 1.39617 11.6738 1.43457 11.6252 1.48303L1.51434 11.596C1.49688 11.6115 1.48019 11.6283 1.46503 11.646C1.419 11.6971 1.38385 11.7568 1.36102 11.8216C1.3382 11.8864 1.32831 11.9551 1.33222 12.0238C1.33612 12.0924 1.35345 12.1596 1.38348 12.2214C1.41352 12.2832 1.45549 12.3385 1.50702 12.384C1.61101 12.4757 1.74705 12.5226 1.88544 12.5145C2.02382 12.5065 2.15362 12.4441 2.24628 12.341L11.9953 2.59103L21.738 12.334C21.7865 12.3826 21.8444 12.4211 21.9079 12.4472C21.9714 12.4733 22.0394 12.4865 22.1081 12.486H22.1369C22.2377 12.4805 22.3347 12.446 22.4162 12.3865C22.4977 12.327 22.5604 12.2452 22.5964 12.1509C22.6323 12.0566 22.6405 11.9539 22.6193 11.8553C22.5982 11.7566 22.5487 11.6662 22.4772 11.595L12.364 1.48203C12.3155 1.43373 12.2579 1.39552 12.1945 1.3696C12.1312 1.34368 12.0637 1.33057 11.9953 1.33102Z" fill="#0B0D0E"/>
<path d="M18.8789 22.766H14.019C13.8367 22.7657 13.6617 22.6931 13.5327 22.5642C13.4037 22.4352 13.3313 22.2604 13.3311 22.078V16.286H10.6577V22.078C10.6577 22.2605 10.5856 22.4355 10.4565 22.5645C10.3275 22.6935 10.1522 22.766 9.96973 22.766H5.10986C4.92748 22.7657 4.7525 22.6931 4.62354 22.5642C4.49457 22.4352 4.42214 22.2604 4.42188 22.078V12.358C4.42866 12.1799 4.50444 12.0114 4.63281 11.8878C4.76119 11.7643 4.93216 11.6952 5.11035 11.6952C5.28854 11.6952 5.46 11.7643 5.58838 11.8878C5.71676 12.0114 5.79204 12.1799 5.79883 12.358V21.389H9.28076V15.6C9.28103 15.4175 9.35397 15.2426 9.48291 15.1134C9.61185 14.9843 9.78627 14.9115 9.96875 14.911H14.019C14.2016 14.9115 14.3763 14.9843 14.5054 15.1134C14.6345 15.2425 14.7075 15.4174 14.708 15.6V21.392H18.1899V12.361C18.1899 12.1784 18.2625 12.0033 18.3916 11.8741C18.5207 11.745 18.6958 11.6725 18.8784 11.6725C19.061 11.6725 19.2361 11.745 19.3652 11.8741C19.4944 12.0033 19.5669 12.1784 19.5669 12.361V22.081C19.5661 22.2629 19.4932 22.4372 19.3643 22.5656C19.2353 22.6939 19.0609 22.766 18.8789 22.766Z" fill="#0B0D0E"/>
<path d="M18.8787 22.934H14.0188C13.7925 22.9335 13.5758 22.8433 13.4158 22.6833C13.2557 22.5232 13.1653 22.3063 13.1648 22.08V16.455H10.823V22.08C10.8227 22.3064 10.7326 22.5235 10.5725 22.6836C10.4124 22.8437 10.1954 22.9338 9.96899 22.934H5.11011C4.88377 22.9335 4.66663 22.8433 4.50659 22.6833C4.34655 22.5232 4.25663 22.3063 4.2561 22.08V12.36C4.2569 12.1339 4.34707 11.9172 4.50708 11.7574C4.66709 11.5976 4.88395 11.5075 5.11011 11.507C5.33609 11.5078 5.55236 11.5979 5.71216 11.7577C5.87196 11.9175 5.96186 12.134 5.96265 12.36V21.225H9.11401V15.6C9.1148 15.3738 9.20501 15.157 9.36499 14.997C9.52498 14.837 9.74177 14.7468 9.96802 14.746H14.0178C14.244 14.7471 14.4604 14.8374 14.6204 14.9973C14.7803 15.1572 14.8708 15.3738 14.8718 15.6V21.225H18.0227V12.36C18.0232 12.1338 18.1136 11.917 18.2737 11.7571C18.4338 11.5972 18.6505 11.5073 18.8767 11.507C19.1028 11.5075 19.3194 11.5976 19.4792 11.7574C19.6391 11.9173 19.7292 12.1339 19.7297 12.36V22.08C19.7295 22.3059 19.6402 22.5225 19.4807 22.6825C19.3213 22.8425 19.1046 22.933 18.8787 22.934ZM10.4919 16.122H13.4919V22.079C13.4922 22.2176 13.5472 22.3505 13.6453 22.4485C13.7433 22.5466 13.8763 22.6018 14.0149 22.602H18.8748C19.0132 22.6015 19.1461 22.5462 19.2439 22.4482C19.3417 22.3502 19.3965 22.2175 19.3967 22.079V12.359C19.3959 12.2211 19.3409 12.089 19.2434 11.9915C19.1459 11.8939 19.0137 11.8388 18.8757 11.838C18.7376 11.8385 18.6053 11.8936 18.5076 11.9911C18.4098 12.0887 18.3545 12.2209 18.3538 12.359V21.559H14.5408V15.602C14.54 15.4636 14.4849 15.3312 14.387 15.2334C14.289 15.1357 14.1562 15.0805 14.0178 15.08H9.96802C9.82974 15.0805 9.69715 15.1357 9.59937 15.2335C9.50159 15.3313 9.44657 15.4637 9.44604 15.602V21.559H5.63208V12.359C5.63129 12.2211 5.57581 12.089 5.47827 11.9915C5.38074 11.8939 5.24902 11.8388 5.11108 11.838C4.97298 11.8385 4.84067 11.8936 4.74292 11.9911C4.64517 12.0887 4.58941 12.2209 4.58862 12.359V22.079C4.58889 22.2175 4.64413 22.3502 4.74194 22.4482C4.83975 22.5462 4.97263 22.6015 5.11108 22.602H9.96997C10.1086 22.6018 10.2416 22.5466 10.3396 22.4485C10.4376 22.3505 10.4927 22.2176 10.4929 22.079L10.4919 16.122Z" fill="#0B0D0E"/>
</svg>
