<svg width="53" height="28" viewBox="0 0 53 28" fill="none" xmlns="http://www.w3.org/2000/svg">
<path d="M7.35205 1.42993H9.31205V27.1929H7.35205V1.42993Z" fill="#797979"/>
<path d="M43.063 1.42993H45.023V27.1929H43.063V1.42993Z" fill="#797979"/>
<path d="M4.27588 16.177H6.23588V24.751H4.27588V16.177Z" fill="#797979"/>
<path d="M46.1392 16.177H48.0992V24.751H46.1392V16.177Z" fill="#797979"/>
<path d="M48.8468 3.34403H3.52881L3.69381 0.228027H48.6818L48.8468 3.34403Z" fill="#C48E71"/>
<path d="M49.0692 7.67097H3.30518L3.47318 4.50098H48.9012L49.0692 7.67097Z" fill="#C48E71"/>
<path d="M48.8468 3.116H3.52881L3.69381 0H48.6818L48.8468 3.116Z" fill="#F69964"/>
<path d="M49.0692 7.44295H3.30518L3.47318 4.27295H48.9012L49.0692 7.44295Z" fill="#F69964"/>
<path d="M49.2992 11.8659H3.07617L3.24717 8.63989H49.1282L49.2992 11.8659Z" fill="#F69964"/>
<path d="M1.482 12.6609L0.915 13.2539L0.7 13.4769L0 14.2159H52.373L51.673 13.4769L51.455 13.2539L50.895 12.6609H1.482Z" fill="#F69964"/>
<path d="M51.6341 13.4769H0.74707L0.95707 13.2539H51.4161L51.6341 13.4769Z" fill="#C48E71"/>
<path d="M0.000976562 14.217H52.374V16.962H0.000976562V14.217Z" fill="#FFA471"/>
</svg>
