<svg width="60" height="60" viewBox="0 0 60 60" fill="none" xmlns="http://www.w3.org/2000/svg">
<path d="M52.125 11.4907H54.375V53.1157H52.125V11.4907Z" fill="#F5F5F5"/>
<path d="M6.375 11.4907H8.625V53.1157H6.375V11.4907Z" fill="#F5F5F5"/>
<path d="M33.6616 23.196H48.032" stroke="#DDDDDD" stroke-width="1.5" stroke-linecap="round" stroke-linejoin="round"/>
<path d="M29.0007 26.4585H48.032" stroke="#DDDDDD" stroke-width="1.5" stroke-linecap="round" stroke-linejoin="round"/>
<path d="M29.0007 29.7211H48.032" stroke="#DDDDDD" stroke-width="1.5" stroke-linecap="round" stroke-linejoin="round"/>
<path d="M29.0007 32.9835H48.032" stroke="#DDDDDD" stroke-width="1.5" stroke-linecap="round" stroke-linejoin="round"/>
<path d="M14.2636 21.1204H23.9735C24.3855 21.1204 24.7807 21.284 25.072 21.5754C25.3634 21.8668 25.5271 22.2619 25.5271 22.674V32.3839C25.5271 32.7959 25.3634 33.1911 25.072 33.4824C24.7807 33.7738 24.3855 33.9375 23.9735 33.9375H14.2636C13.8515 33.9375 13.4564 33.7738 13.165 33.4824C12.8736 33.1911 12.71 32.7959 12.71 32.3839V22.674C12.71 22.2619 12.8736 21.8668 13.165 21.5754C13.4564 21.284 13.8515 21.1204 14.2636 21.1204Z" fill="#2EB6C7"/>
<path d="M6.10718 53.1627V11.2163" stroke="#DDDDDD" stroke-width="1.5" stroke-linecap="round" stroke-linejoin="round"/>
<path d="M8.63184 53.1627V11.2163" stroke="#DDDDDD" stroke-width="1.5" stroke-linecap="round" stroke-linejoin="round"/>
<path d="M8.63184 13.1584H51.9376V41.8996H8.63184V13.1584Z" stroke="#DDDDDD" stroke-width="1.5" stroke-linecap="round" stroke-linejoin="round"/>
<path d="M3 53.3569H11.5448" stroke="#DDDDDD" stroke-width="1.5" stroke-linecap="round" stroke-linejoin="round"/>
<path d="M7.27239 11.4101C8.55935 11.4101 9.60264 10.3668 9.60264 9.07988C9.60264 7.79292 8.55935 6.74963 7.27239 6.74963C5.98543 6.74963 4.94214 7.79292 4.94214 9.07988C4.94214 10.3668 5.98543 11.4101 7.27239 11.4101Z" fill="#F5F5F5" stroke="#DDDDDD" stroke-width="1.5" stroke-linecap="round" stroke-linejoin="round"/>
<path d="M51.9375 53.1627V11.2163" stroke="#DDDDDD" stroke-width="1.5" stroke-linecap="round" stroke-linejoin="round"/>
<path d="M54.4619 53.1627V11.2163" stroke="#DDDDDD" stroke-width="1.5" stroke-linecap="round" stroke-linejoin="round"/>
<path d="M48.8303 53.3569H57.3751" stroke="#DDDDDD" stroke-width="1.5" stroke-linecap="round" stroke-linejoin="round"/>
<path d="M53.1027 11.4101C54.3897 11.4101 55.433 10.3668 55.433 9.07988C55.433 7.79292 54.3897 6.74963 53.1027 6.74963C51.8157 6.74963 50.7725 7.79292 50.7725 9.07988C50.7725 10.3668 51.8157 11.4101 53.1027 11.4101Z" fill="#F5F5F5" stroke="#DDDDDD" stroke-width="1.5" stroke-linecap="round" stroke-linejoin="round"/>
</svg>
