<svg width="127" height="101" viewBox="0 0 127 101" fill="none" xmlns="http://www.w3.org/2000/svg">
<path d="M78.6065 53.3275L75.624 3.38511L78.2924 2.96329L81.3094 53.1239L78.6065 53.3275Z" fill="#B4B4B4"/>
<path d="M78.0889 3.05542L87.0259 6.07687L78.5686 11.78L78.0889 3.05542Z" fill="#239CAC"/>
<path d="M36.1937 9.56138L117.708 32.8641L126.114 95.0195L32.2111 98.3057L36.1937 9.56138Z" fill="#2EB6C7"/>
<path d="M36.5256 9.11421L32.5144 98.1495L3.08573 95.499L8.30673 49.2331L36.5256 9.11421Z" fill="#239CAC"/>
<path d="M111.007 57.316L116.129 95.4704L54.5386 97.4332L55.3456 49.5556L111.007 57.316Z" fill="#A3A3A3"/>
<path d="M110.878 57.1886L101.032 62.5668L55.198 57.7778L55.3387 49.5113L110.878 57.1886Z" fill="#888888"/>
<path d="M103.899 92.7076L116.148 95.5784L54.709 97.6628L54.8043 92.5923L103.899 92.7076Z" fill="#6A6A6A"/>
<path d="M100.738 60.6914C100.079 60.3467 99.3437 60.1808 98.6027 60.2094C97.8618 60.238 97.1392 60.46 96.5032 60.8547L97.5495 93.9281C97.5495 93.9281 101.644 94.5225 103.302 93.7064L100.738 60.6914Z" fill="#797979"/>
<path d="M70.1106 55.9535C70.1106 55.9535 67.7896 54.8793 64.174 56.1823L64.714 95.5341C64.714 95.5341 66.9483 96.7158 71.3719 95.8103L70.1106 55.9535Z" fill="#797979"/>
<path d="M105.109 46.3291L105.094 45.5207C105.397 44.9431 105.501 44.2752 105.389 43.6263C105.276 42.9774 104.955 42.3859 104.476 41.9486C104.965 41.6205 105.504 41.8238 106.017 41.8247C106.635 41.8269 106.853 41.6447 106.477 41.0511C106.301 40.7762 106.137 40.436 106.429 40.2271C106.674 40.0526 106.897 40.4123 107.093 40.562C107.92 41.3573 108.875 41.9975 109.913 42.4539C110.552 42.6601 110.683 43.2289 110.358 43.8857C110.231 44.144 109.827 44.3419 110.008 44.678C110.849 46.2674 109.972 47.8917 110.159 49.4899L110.168 49.5922L109.772 49.5768C109.667 49.1397 109.194 48.8675 109.256 48.3578C109.429 48.0128 109.497 47.6214 109.452 47.2346C109.406 46.8478 109.249 46.4836 109.001 46.1894C108.337 45.5292 107.978 45.2376 109.097 44.8579C109.139 44.8314 109.173 44.7942 109.196 44.7501C109.22 44.7059 109.232 44.6562 109.232 44.6057C108.97 43.8238 109.528 43.7207 110.356 43.6224C109.841 43.4957 109.342 43.3075 108.869 43.0616C108.564 42.859 107.96 42.6265 107.829 43.2833C107.72 43.8255 107.456 44.3074 107.379 44.827C107.295 45.4026 107.055 46.1668 107.882 46.4423C108.917 46.787 109.006 46.9984 108.337 47.8573C108.133 47.9609 107.86 48.0104 107.735 48.1781C107.102 49.0184 106.871 48.5154 106.663 47.8634C107.134 47.3392 106.868 46.6983 106.897 46.1101C106.91 45.8406 107.029 45.4276 106.601 45.365C106.226 45.3103 106.126 45.6326 106.059 45.9514C106.009 46.223 105.903 46.4798 105.747 46.7042C105.591 46.9286 105.391 47.1153 105.158 47.2514C104.885 46.8936 105.358 46.6193 105.109 46.3291ZM106.299 44.4624C106.579 44.048 107.373 43.9369 107.025 43.2328C106.927 43.0881 106.778 42.989 106.611 42.9571C106.443 42.9252 106.27 42.963 106.13 43.0624C105.601 43.4985 106.148 43.9672 106.299 44.4624ZM107.88 46.7713C107.664 46.6464 107.616 46.7867 107.622 46.8566C107.631 46.979 107.666 47.1444 107.748 47.2048C107.774 47.2257 107.805 47.2381 107.838 47.2404C107.871 47.2427 107.904 47.2348 107.933 47.2176C107.961 47.2005 107.984 47.175 107.998 47.1443C108.012 47.1136 108.017 47.0792 108.013 47.0454C107.988 46.9455 107.942 46.8521 107.88 46.7713Z" fill="#3B9CAC"/>
<path d="M53.0953 35.2706C53.1094 34.0516 52.679 33.6333 51.4923 33.7586C51.363 33.7915 51.2266 33.7787 51.1047 33.7221C50.9828 33.6654 50.8826 33.5684 50.8199 33.4463C50.6225 33.0362 51.036 32.7825 51.1151 32.4347C51.1652 32.2183 51.3863 32.2546 51.607 32.3299C52.733 32.7324 53.2025 32.3103 53.0478 31.0636C53.0309 30.9276 53.0521 30.751 52.9783 30.6633C52.0667 29.594 53.2718 29.2635 53.6251 28.6375C53.6476 28.5964 53.7364 28.5865 53.7965 28.5793C54.3723 28.6921 54.9193 28.9287 55.4022 29.2738C55.885 29.6189 56.2929 30.0648 56.5992 30.5826C56.5023 30.5686 56.4065 30.547 56.3127 30.518C55.9923 30.3882 55.6333 29.9546 55.3465 30.3429C55.1155 30.6562 55.6019 31.0204 55.7741 31.1454C56.1998 31.4481 55.9174 31.663 55.8359 31.9106C55.4847 33.0011 56.1698 33.8555 57.2582 33.6006C57.6965 33.4975 57.9708 33.4815 58.0761 33.9786C58.1245 34.2008 58.2272 34.4518 57.9982 34.6431C57.7313 34.8653 57.749 34.415 57.5155 34.4249C57.2261 34.3957 56.9421 34.3236 56.6722 34.2108C55.9756 34.0196 55.5296 34.4284 55.8083 35.0982C55.8988 35.314 55.9361 35.5494 55.9167 35.7832C55.8973 36.0171 55.8219 36.2419 55.6973 36.4374C55.4756 36.6299 55.2503 36.8166 55.0339 37.017C54.8962 37.1451 54.6572 37.2721 54.8022 37.4971C54.9219 37.6801 55.1666 37.6372 55.3474 37.547C55.6377 37.402 55.8944 37.1526 56.2587 37.2965C56.6566 37.3359 56.7846 37.6661 56.9318 37.9703C57.1674 38.4563 56.9649 38.7697 56.4968 38.6456C55.7443 38.4455 54.9111 38.6475 54.2247 38.1001C53.8587 37.8083 53.3933 38.1544 52.9756 38.0103C52.6016 37.8822 52.4323 37.6944 52.4741 37.2727C52.5257 36.7722 52.8371 36.9264 53.1125 36.9619C53.1749 37.1789 53.284 37.3768 53.5179 37.2057C53.6538 37.1071 53.8415 36.9418 53.6592 36.6972C53.5459 36.545 53.255 36.3248 53.4089 36.2107C54.365 35.4976 53.2252 35.5694 53.0953 35.2706ZM54.8104 34.9047C54.8192 34.8391 54.8026 34.7725 54.7642 34.7192C54.7258 34.6659 54.6687 34.6303 54.6054 34.6202C54.5252 34.6006 54.4409 34.6143 54.3706 34.6582C54.3003 34.7021 54.2496 34.7729 54.2293 34.8553C54.1813 35.0051 54.2721 35.1068 54.419 35.1288C54.4995 35.1447 54.5827 35.131 54.6541 35.0901C54.7256 35.0492 54.7809 34.9836 54.8104 34.9047Z" fill="#3B9CAC"/>
<path d="M70.4787 41.0835C69.8999 40.4888 70.0434 39.7317 70.096 39.0234C70.1438 38.3788 69.9688 38.2557 69.4495 38.591C68.84 38.981 68.1908 39.315 67.6239 39.7591C67.5542 39.8324 67.4692 39.8883 67.3754 39.9225C67.2815 39.9567 67.1813 39.9684 67.0822 39.9566C66.9832 39.9449 66.8878 39.91 66.8035 39.8546C66.7191 39.7992 66.6479 39.7248 66.5953 39.6369C66.5348 39.5431 66.4958 39.4363 66.481 39.3248C66.4663 39.2133 66.4763 39.0999 66.5103 38.9932C66.5443 38.8865 66.6013 38.7894 66.6772 38.7092C66.753 38.629 66.8456 38.5679 66.9479 38.5304C67.2847 38.3424 67.7983 38.3663 67.917 37.9008C68.0765 37.2806 68.1709 36.6474 67.4727 36.2206C67.1623 36.0359 66.83 35.9009 66.5254 35.6811C65.925 35.2467 66.5602 34.8606 66.6309 34.871C68.67 35.2196 67.3842 33.8888 67.2879 33.3425C67.234 33.0968 67.2436 32.841 67.3158 32.6011C67.3881 32.3611 67.5204 32.1455 67.6993 31.9761C68.1243 31.5322 68.3052 32.056 68.5533 32.2879C69.0235 32.7277 69.4283 32.3106 69.8333 32.152C71.0573 31.6821 71.1733 31.7448 71.3242 33.0808C71.3484 33.181 71.3597 33.2841 71.358 33.3872C71.1645 34.6535 71.0738 35.8437 72.778 36.0552C72.8937 36.0868 72.9946 36.1608 73.0618 36.2635C73.129 36.3661 73.1579 36.4904 73.1431 36.613C73.1181 36.939 72.8834 37.0481 72.6089 37.1289C72.269 37.268 71.8929 37.2836 71.542 37.173C71.2726 36.9451 71.005 36.9527 70.9834 37.3485C70.946 38.0145 70.7997 38.7458 71.546 39.1669C72.0316 39.5567 72.5287 39.9328 72.9989 40.3411C73.3929 40.6826 73.8566 41.0344 73.3481 41.6429C72.4414 41.2424 71.462 41.0515 70.4787 41.0835ZM68.5682 35.4959C68.6029 36.0398 68.6115 36.5884 68.6832 37.127C68.7301 37.4826 68.7647 37.9702 69.2677 37.9193C69.7301 37.8726 70.2143 37.6865 70.1879 37.0571C70.1339 35.8327 70.057 34.6083 69.9726 33.3855C69.9566 33.1589 69.9268 32.8746 69.6206 32.8521C69.3548 32.8322 69.2318 33.0505 69.0875 33.2441C68.683 33.9154 68.5008 34.7056 68.5682 35.4959Z" fill="#3B9CAC"/>
<path d="M96.8889 38.6265C97.3608 38.2722 97.9855 38.6293 98.047 39.3448C98.0536 39.7212 98.0062 40.0962 97.9063 40.4576C97.7742 41.0864 97.842 41.54 98.6001 41.6096C98.8614 41.6604 99.1133 41.7543 99.3462 41.8876C99.4005 41.9108 99.4497 41.945 99.491 41.9882C99.5323 42.0314 99.5649 42.0827 99.5868 42.139C99.6086 42.1953 99.6194 42.2556 99.6184 42.3162C99.6173 42.3767 99.6046 42.4364 99.5808 42.4917C99.5259 42.6859 99.4638 42.8732 99.2252 42.9287C98.283 43.1455 97.9735 43.7025 98.3059 44.6269C98.6347 45.3806 99.1069 46.0586 99.6941 46.6203C99.8643 46.8081 100.172 46.9745 99.9909 47.2992C99.796 47.6386 99.5284 47.3545 99.2838 47.3373C98.9902 47.3668 98.695 47.2927 98.4463 47.1271C98.1975 46.9614 98.0097 46.7139 97.9133 46.4248C97.7295 45.8761 97.1432 46.0019 96.7006 45.8607C96.6306 45.4766 97.1839 45.1417 96.7759 44.7482C96.5898 44.0097 96.4092 43.2734 97.8492 43.1695C97.1576 42.9747 96.8215 42.8767 96.4834 42.7853C96.1261 42.6884 95.7024 42.5641 95.5399 43.0153C95.4397 43.2128 95.4015 43.4379 95.4305 43.6596C95.4596 43.8812 95.5545 44.0884 95.7021 44.2524C95.8631 44.4094 96.1367 44.4429 96.1869 44.7242L95.3732 45.1329C94.774 45.1094 94.2012 45.5084 93.5864 45.246C93.1201 44.8932 92.8001 44.6042 93.3968 44.0012C93.9326 43.4578 93.3457 42.8047 93.2827 42.1968C93.246 41.8369 92.8261 41.2952 93.419 41.1668C93.8421 41.0756 94.0092 41.596 94.0795 42.0316C94.1607 42.593 94.3062 43.1428 94.5131 43.6692C94.6421 42.0174 95.1114 40.2701 92.9608 39.1679C93.8765 38.907 94.8362 38.85 95.7769 39.0005C96.2585 39.0718 96.4769 39.3644 96.1321 39.8724C95.9612 40.1218 95.8166 40.3893 95.7007 40.6707C95.57 40.9888 95.2402 41.3391 95.7059 41.6538C96.1409 41.9473 96.5612 42.0361 96.8658 41.4608C97.0566 40.5149 97.4039 39.5771 96.8889 38.6265Z" fill="#3B9CAC"/>
<path d="M83.7021 45.3048C83.2406 44.5686 82.9906 43.7128 82.9813 42.8375C83.0357 42.0221 83.0234 41.2031 82.9445 40.3892C82.3644 40.8774 82.502 41.6063 82.2681 42.2196C81.231 41.8235 81.6206 40.8264 81.4556 40.1223C81.3303 39.5903 82.032 39.631 82.3973 39.4718C82.5355 39.4115 82.7738 39.4808 82.7603 39.2353C82.7567 39.1323 82.7162 39.0341 82.6467 38.9598C82.5771 38.8856 82.4835 38.8406 82.3841 38.8336C81.8557 38.7863 81.3243 38.7808 80.7962 38.7258C80.3066 38.6781 79.8516 38.4086 79.8332 37.9046C79.8142 37.2453 80.4628 37.3354 80.8133 37.3825C82.6227 37.6248 84.4251 37.9422 86.2258 38.2547C86.5072 38.3038 86.892 38.4313 86.7811 38.8235C86.7174 38.9616 86.6103 39.073 86.4772 39.1398C86.3442 39.2066 86.193 39.2247 86.0482 39.1914C85.5896 39.1258 85.1488 38.9885 84.6962 38.9069C84.4773 38.8669 84.1464 38.8111 84.1253 39.1048C84.1082 39.3843 84.3671 39.7395 84.6546 39.6783C85.1685 39.5697 85.7108 39.5814 85.7383 40.1448C85.7849 41.0731 86.1113 42.0658 85.5347 42.9459C85.4679 43.0239 85.3795 43.0787 85.2814 43.103C85.1833 43.1273 85.0802 43.1198 84.9859 43.0817C84.9069 43.052 84.8403 42.9947 84.7976 42.9197C84.7548 42.8448 84.7387 42.7569 84.7518 42.6712C84.7636 42.2952 84.7882 41.9187 84.833 41.5468C84.8778 41.1749 84.9139 40.7874 84.4578 40.7591C83.9823 40.73 84.1404 41.1861 84.1293 41.4516C84.0963 42.2729 84.1001 43.0957 84.0845 43.9176C84.1217 44.4134 83.986 44.9055 83.7021 45.3048Z" fill="#3B9CAC"/>
<path d="M84.3098 36.4539C84.0993 36.7962 84.1627 37.3005 83.6858 37.4218C83.4965 37.4697 82.3702 36.22 82.3777 35.9794C82.4009 35.5041 82.7756 35.5588 83.0332 35.6241C83.5224 35.7585 84.1803 35.6794 84.3098 36.4539Z" fill="#3B9CAC"/>
<path d="M105.542 45.3086L105.527 44.5002C105.83 43.9226 105.934 43.2547 105.822 42.6058C105.71 41.9569 105.388 41.3654 104.91 40.9281C105.398 40.6 105.937 40.8033 106.45 40.8042C107.068 40.8064 107.286 40.6242 106.91 40.0306C106.735 39.7557 106.57 39.4155 106.862 39.2066C107.108 39.0321 107.33 39.3918 107.526 39.5415C108.353 40.3368 109.308 40.977 110.346 41.4334C110.985 41.6396 111.116 42.2084 110.791 42.8652C110.664 43.1235 110.261 43.3213 110.441 43.6574C111.282 45.2469 110.405 46.8712 110.592 48.4693L110.601 48.5717L110.205 48.5563C110.1 48.1192 109.628 47.847 109.69 47.3372C109.862 46.9922 109.93 46.6008 109.885 46.2141C109.839 45.8273 109.682 45.4631 109.434 45.1689C108.77 44.5087 108.411 44.2171 109.531 43.8374C109.572 43.8109 109.606 43.7737 109.63 43.7296C109.653 43.6854 109.665 43.6357 109.665 43.5851C109.403 42.8033 109.961 42.7002 110.789 42.6019C110.274 42.4752 109.775 42.287 109.302 42.0411C108.997 41.8385 108.393 41.606 108.262 42.2628C108.153 42.805 107.89 43.2869 107.812 43.8065C107.728 44.3821 107.488 45.1463 108.315 45.4218C109.35 45.7665 109.439 45.9779 108.77 46.8368C108.566 46.9404 108.293 46.9899 108.168 47.1576C107.535 47.9979 107.304 47.4949 107.096 46.8429C107.567 46.3186 107.301 45.6778 107.33 45.0895C107.344 44.8201 107.463 44.407 107.034 44.3445C106.659 44.2898 106.559 44.6121 106.492 44.9309C106.442 45.2025 106.336 45.4593 106.18 45.6837C106.025 45.9081 105.824 46.0948 105.591 46.2309C105.318 45.8731 105.791 45.5988 105.542 45.3086ZM106.732 43.4419C107.012 43.0275 107.806 42.9164 107.458 42.2123C107.36 42.0676 107.211 41.9685 107.044 41.9366C106.876 41.9047 106.703 41.9425 106.563 42.0419C106.034 42.478 106.581 42.9467 106.732 43.4419ZM108.313 45.7508C108.097 45.6259 108.049 45.7662 108.055 45.836C108.064 45.9585 108.099 46.1239 108.181 46.1843C108.207 46.2052 108.239 46.2176 108.271 46.2199C108.304 46.2222 108.337 46.2143 108.366 46.1971C108.394 46.18 108.417 46.1545 108.431 46.1238C108.445 46.0931 108.451 46.0587 108.446 46.0249C108.421 45.925 108.376 45.8316 108.313 45.7508Z" fill="white"/>
<path d="M53.5284 34.2506C53.5425 33.0316 53.1121 32.6133 51.9254 32.7386C51.7961 32.7715 51.6597 32.7586 51.5378 32.702C51.4159 32.6454 51.3157 32.5483 51.253 32.4263C51.0556 32.0162 51.4691 31.7625 51.5482 31.4147C51.5983 31.1982 51.8194 31.2345 52.0401 31.3099C53.1661 31.7124 53.6356 31.2902 53.4809 30.0436C53.464 29.9076 53.4852 29.731 53.4114 29.6433C52.4998 28.574 53.7049 28.2435 54.0582 27.6175C54.0807 27.5764 54.1695 27.5665 54.2297 27.5593C54.8054 27.6721 55.3524 27.9087 55.8353 28.2538C56.3181 28.5989 56.726 29.0448 57.0323 29.5626C56.9354 29.5486 56.8396 29.527 56.7458 29.498C56.4254 29.3682 56.0664 28.9346 55.7796 29.3229C55.5486 29.6362 56.035 30.0004 56.2072 30.1253C56.6329 30.428 56.3505 30.643 56.269 30.8906C55.9178 31.9811 56.6029 32.8355 57.6913 32.5805C58.1296 32.4775 58.4039 32.4615 58.5092 32.9586C58.5576 33.1808 58.6603 33.4318 58.4313 33.6231C58.1644 33.8453 58.1821 33.395 57.9486 33.4049C57.6592 33.3757 57.3752 33.3036 57.1053 33.1908C56.4087 32.9996 55.9627 33.4084 56.2414 34.0782C56.3319 34.294 56.3692 34.5294 56.3498 34.7632C56.3304 34.997 56.255 35.2219 56.1304 35.4174C55.9087 35.6099 55.6834 35.7966 55.467 35.997C55.3293 36.1251 55.0903 36.2521 55.2353 36.4771C55.355 36.6601 55.5997 36.6172 55.7805 36.527C56.0708 36.382 56.3275 36.1326 56.6917 36.2765C57.0897 36.3159 57.2177 36.6461 57.3649 36.9503C57.6005 37.4363 57.398 37.7497 56.9299 37.6256C56.1774 37.4255 55.3442 37.6275 54.6578 37.0801C54.2917 36.7883 53.8264 37.1343 53.4087 36.9903C53.0347 36.8622 52.8654 36.6744 52.9072 36.2526C52.9588 35.7521 53.2702 35.9064 53.5456 35.9419C53.608 36.1589 53.7171 36.3567 53.951 36.1857C54.0869 36.087 54.2746 35.9218 54.0923 35.6772C53.979 35.525 53.6881 35.3048 53.842 35.1907C54.7981 34.4776 53.6583 34.5494 53.5284 34.2506ZM55.2435 33.8847C55.2523 33.8191 55.2357 33.7524 55.1973 33.6992C55.1589 33.6459 55.1018 33.6103 55.0385 33.6002C54.9583 33.5806 54.874 33.5942 54.8037 33.6382C54.7334 33.6821 54.6827 33.7529 54.6624 33.8353C54.6144 33.9851 54.7052 34.0868 54.852 34.1088C54.9326 34.1247 55.0158 34.111 55.0872 34.0701C55.1587 34.0291 55.214 33.9636 55.2435 33.8847Z" fill="white"/>
<path d="M70.9118 40.0635C70.333 39.4688 70.4765 38.7117 70.5291 38.0034C70.5769 37.3588 70.4019 37.2356 69.8826 37.571C69.2731 37.9609 68.6239 38.295 68.057 38.7391C67.9873 38.8124 67.9023 38.8683 67.8085 38.9025C67.7146 38.9367 67.6144 38.9484 67.5153 38.9366C67.4163 38.9248 67.3209 38.8899 67.2366 38.8346C67.1522 38.7792 67.0811 38.7047 67.0284 38.6169C66.9679 38.5231 66.9289 38.4163 66.9141 38.3048C66.8994 38.1933 66.9094 38.0798 66.9434 37.9732C66.9774 37.8665 67.0345 37.7694 67.1103 37.6892C67.1861 37.609 67.2787 37.5479 67.381 37.5104C67.7178 37.3223 68.2314 37.3462 68.3501 36.8808C68.5096 36.2606 68.604 35.6274 67.9058 35.2006C67.5954 35.0159 67.2632 34.8809 66.9585 34.6611C66.3581 34.2267 66.9933 33.8406 67.064 33.851C69.1031 34.1996 67.8173 32.8688 67.721 32.3225C67.6671 32.0768 67.6767 31.821 67.7489 31.5811C67.8212 31.3411 67.9535 31.1255 68.1324 30.9561C68.5574 30.5121 68.7383 31.036 68.9864 31.2679C69.4566 31.7077 69.8614 31.2906 70.2664 31.132C71.4904 30.6621 71.6064 30.7248 71.7573 32.0608C71.7815 32.161 71.7928 32.264 71.7911 32.3672C71.5976 33.6335 71.5069 34.8237 73.2111 35.0352C73.3268 35.0668 73.4277 35.1408 73.4949 35.2435C73.5621 35.3461 73.591 35.4703 73.5762 35.593C73.5513 35.919 73.3165 36.0281 73.042 36.1089C72.7021 36.248 72.326 36.2636 71.9751 36.153C71.7057 35.9251 71.4381 35.9327 71.4166 36.3285C71.3791 36.9945 71.2328 37.7258 71.9791 38.1468C72.4647 38.5367 72.9618 38.9127 73.432 39.3211C73.826 39.6626 74.2897 40.0144 73.7812 40.6229C72.8745 40.2224 71.8951 40.0315 70.9118 40.0635ZM69.0014 34.4759C69.036 35.0198 69.0446 35.5684 69.1163 36.107C69.1633 36.4626 69.1978 36.9502 69.7008 36.8993C70.1632 36.8525 70.6474 36.6665 70.621 36.0371C70.567 34.8127 70.4901 33.5883 70.4057 32.3655C70.3898 32.1389 70.3599 31.8545 70.0537 31.8321C69.7879 31.8122 69.6649 32.0305 69.5206 32.2241C69.1161 32.8954 68.9339 33.6856 69.0014 34.4759Z" fill="white"/>
<path d="M97.322 37.6057C97.7939 37.2514 98.4186 37.6085 98.4801 38.324C98.4867 38.7004 98.4393 39.0754 98.3394 39.4368C98.2073 40.0656 98.2751 40.5192 99.0332 40.5889C99.2945 40.6397 99.5464 40.7335 99.7793 40.8669C99.8336 40.8901 99.8828 40.9243 99.9241 40.9675C99.9654 41.0106 99.998 41.0619 100.02 41.1183C100.042 41.1746 100.052 41.2348 100.051 41.2954C100.05 41.356 100.038 41.4157 100.014 41.4709C99.959 41.6652 99.8969 41.8525 99.6583 41.908C98.7162 42.1247 98.4066 42.6818 98.739 43.6061C99.0678 44.3598 99.54 45.0378 100.127 45.5995C100.297 45.7873 100.606 45.9538 100.424 46.2785C100.229 46.6178 99.9615 46.3338 99.7169 46.3166C99.4233 46.3461 99.1282 46.272 98.8794 46.1063C98.6306 45.9407 98.4428 45.6932 98.3464 45.404C98.1627 44.8554 97.5763 44.9812 97.1337 44.8399C97.0637 44.4558 97.617 44.1209 97.209 43.7275C97.0229 42.989 96.8423 42.2526 98.2823 42.1487C97.5907 41.9539 97.2546 41.8559 96.9165 41.7645C96.5592 41.6676 96.1355 41.5433 95.973 41.9946C95.8728 42.192 95.8346 42.4172 95.8636 42.6388C95.8927 42.8605 95.9876 43.0676 96.1352 43.2317C96.2962 43.3886 96.5698 43.4222 96.62 43.7035L95.8064 44.1121C95.2071 44.0887 94.6343 44.4877 94.0196 44.2253C93.5532 43.8724 93.2332 43.5834 93.8299 42.9804C94.3657 42.437 93.7788 41.7839 93.7158 41.1761C93.6791 40.8162 93.2592 40.2745 93.8521 40.1461C94.2752 40.0549 94.4424 40.5753 94.5126 41.0108C94.5938 41.5722 94.7393 42.122 94.9462 42.6485C95.0752 40.9966 95.5445 39.2494 93.3939 38.1471C94.3096 37.8863 95.2693 37.8292 96.21 37.9798C96.6916 38.0511 96.91 38.3437 96.5652 38.8517C96.3943 39.101 96.2497 39.3686 96.1338 39.6499C96.0031 39.968 95.6733 40.3183 96.139 40.633C96.5741 40.9265 96.9943 41.0154 97.2989 40.44C97.4897 39.4942 97.837 38.5563 97.322 37.6057Z" fill="white"/>
<path d="M84.1357 44.2848C83.6742 43.5486 83.4242 42.6927 83.4149 41.8174C83.4693 41.0021 83.457 40.1831 83.3781 39.3692C82.798 39.8574 82.9355 40.5863 82.7017 41.1995C81.6646 40.8035 82.0542 39.8064 81.8892 39.1022C81.7639 38.5702 82.4656 38.611 82.8309 38.4518C82.9691 38.3915 83.2074 38.4608 83.1939 38.2153C83.1903 38.1123 83.1498 38.0141 83.0803 37.9398C83.0107 37.8656 82.9171 37.8206 82.8176 37.8136C82.2893 37.7663 81.7579 37.7608 81.2298 37.7058C80.7402 37.6581 80.2852 37.3886 80.2668 36.8846C80.2478 36.2252 80.8964 36.3154 81.2469 36.3625C83.0563 36.6048 84.8587 36.9222 86.6594 37.2347C86.9407 37.2838 87.3256 37.4113 87.2147 37.8035C87.151 37.9415 87.0439 38.053 86.9108 38.1198C86.7778 38.1865 86.6266 38.2047 86.4818 38.1714C86.0232 38.1058 85.5824 37.9684 85.1298 37.8869C84.9109 37.8469 84.58 37.791 84.5589 38.0847C84.5418 38.3643 84.8007 38.7195 85.0882 38.6583C85.6021 38.5497 86.1444 38.5614 86.1719 39.1248C86.2185 40.0531 86.5449 41.0457 85.9683 41.9259C85.9015 42.0039 85.8131 42.0587 85.715 42.083C85.6169 42.1072 85.5138 42.0998 85.4195 42.0617C85.3405 42.0319 85.2739 41.9747 85.2312 41.8997C85.1884 41.8248 85.1723 41.7369 85.1854 41.6512C85.1972 41.2752 85.2218 40.8987 85.2666 40.5268C85.3114 40.1549 85.3475 39.7674 84.8914 39.7391C84.4159 39.71 84.574 40.1661 84.5629 40.4316C84.5299 41.2529 84.5336 42.0756 84.5181 42.8976C84.5552 43.3934 84.4196 43.8855 84.1357 44.2848Z" fill="white"/>
<path d="M84.7429 35.4342C84.5324 35.7764 84.5958 36.2807 84.1189 36.4021C83.9296 36.4499 82.8033 35.2002 82.8108 34.9596C82.834 34.4844 83.2088 34.539 83.4663 34.6043C83.9555 34.7387 84.6134 34.6596 84.7429 35.4342Z" fill="white"/>
</svg>
