<svg width="160" height="160" viewBox="0 0 160 160" fill="none" xmlns="http://www.w3.org/2000/svg">
<path d="M26.8359 72.608H131.514V128.451C131.514 129.955 130.917 131.396 129.854 132.46C128.79 133.523 127.348 134.12 125.845 134.12H32.5049C31.0014 134.12 29.5595 133.523 28.4963 132.46C27.4332 131.396 26.8359 129.955 26.8359 128.451V72.608Z" fill="white" stroke="#E5E5E5" stroke-width="3" stroke-linecap="round" stroke-linejoin="round"/>
<path d="M49.9912 38.309H108.359V72.608H49.9912V38.309Z" fill="#F5F5F5" stroke="#E5E5E5" stroke-width="3" stroke-linecap="round" stroke-linejoin="round"/>
<path d="M26.8358 72.6081L49.9909 38.308L28.6598 26.5211C27.7464 26.0164 26.6773 25.8719 25.6627 26.116C24.6482 26.3601 23.7617 26.9751 23.1779 27.84L4.71499 55.188C4.39076 55.6686 4.17008 56.2115 4.06705 56.7819C3.96401 57.3524 3.98073 57.938 4.11636 58.5016C4.252 59.0653 4.50359 59.5945 4.85489 60.0556C5.20618 60.5167 5.64953 60.8997 6.15689 61.1801L26.8358 72.6081Z" fill="white" stroke="#E5E5E5"/>
<path d="M26.8358 72.6081L49.9909 38.308L28.6598 26.5211C27.7464 26.0164 26.6773 25.8719 25.6627 26.116C24.6482 26.3601 23.7617 26.9751 23.1779 27.84L4.71499 55.188C4.39076 55.6686 4.17008 56.2115 4.06705 56.7819C3.96401 57.3524 3.98073 57.938 4.11636 58.5016C4.252 59.0653 4.50359 59.5945 4.85489 60.0556C5.20618 60.5167 5.64953 60.8997 6.15689 61.1801L26.8358 72.6081Z" stroke="#E5E5E5" stroke-width="6" stroke-linecap="round" stroke-linejoin="round"/>
<path d="M26.8358 72.6081L49.9909 38.308L28.6598 26.5211C27.7464 26.0164 26.6773 25.8719 25.6627 26.116C24.6482 26.3601 23.7617 26.9751 23.1779 27.84L4.71499 55.188C4.39076 55.6686 4.17008 56.2115 4.06705 56.7819C3.96401 57.3524 3.98073 57.938 4.11636 58.5016C4.252 59.0653 4.50359 59.5945 4.85489 60.0556C5.20618 60.5167 5.64953 60.8997 6.15689 61.1801L26.8358 72.6081Z" stroke="#E5E5E5" stroke-width="6" stroke-linecap="round" stroke-linejoin="round"/>
<path d="M26.8358 72.6081L49.9909 38.308L28.6598 26.5211C27.7464 26.0164 26.6773 25.8719 25.6627 26.116C24.6482 26.3601 23.7617 26.9751 23.1779 27.84L4.71499 55.188C4.39076 55.6686 4.17008 56.2115 4.06705 56.7819C3.96401 57.3524 3.98073 57.938 4.11636 58.5016C4.252 59.0653 4.50359 59.5945 4.85489 60.0556C5.20618 60.5167 5.64953 60.8997 6.15689 61.1801L26.8358 72.6081Z" fill="white" stroke="#E5E5E5"/>
<path d="M26.8358 72.6081L49.9909 38.308L28.6598 26.5211C27.7464 26.0164 26.6773 25.8719 25.6627 26.116C24.6482 26.3601 23.7617 26.9751 23.1779 27.84L4.71499 55.188C4.39076 55.6686 4.17008 56.2115 4.06705 56.7819C3.96401 57.3524 3.98073 57.938 4.11636 58.5016C4.252 59.0653 4.50359 59.5945 4.85489 60.0556C5.20618 60.5167 5.64953 60.8997 6.15689 61.1801L26.8358 72.6081Z" fill="white" stroke="#E5E5E5"/>
<path d="M132.911 72.6081L109.756 38.308L131.087 26.5211C132 26.0164 133.069 25.8719 134.084 26.116C135.099 26.3601 135.985 26.9751 136.569 27.84L155.032 55.188C155.356 55.6685 155.577 56.2113 155.68 56.7818C155.783 57.3523 155.767 57.9381 155.631 58.5018C155.495 59.0654 155.244 59.5946 154.892 60.0557C154.541 60.5168 154.097 60.8998 153.59 61.1801L132.911 72.6081Z" fill="white" stroke="#E5E5E5"/>
<path d="M132.911 72.6081L109.756 38.308L131.087 26.5211C132 26.0164 133.069 25.8719 134.084 26.116C135.099 26.3601 135.985 26.9751 136.569 27.84L155.032 55.188C155.356 55.6685 155.577 56.2113 155.68 56.7818C155.783 57.3523 155.767 57.9381 155.631 58.5018C155.495 59.0654 155.244 59.5946 154.892 60.0557C154.541 60.5168 154.097 60.8998 153.59 61.1801L132.911 72.6081Z" stroke="#E5E5E5" stroke-width="6" stroke-linecap="round" stroke-linejoin="round"/>
<path d="M132.911 72.6081L109.756 38.308L131.087 26.5211C132 26.0164 133.069 25.8719 134.084 26.116C135.099 26.3601 135.985 26.9751 136.569 27.84L155.032 55.188C155.356 55.6685 155.577 56.2113 155.68 56.7818C155.783 57.3523 155.767 57.9381 155.631 58.5018C155.495 59.0654 155.244 59.5946 154.892 60.0557C154.541 60.5168 154.097 60.8998 153.59 61.1801L132.911 72.6081Z" stroke="#E5E5E5" stroke-width="6" stroke-linecap="round" stroke-linejoin="round"/>
<path d="M132.911 72.6081L109.756 38.308L131.087 26.5211C132 26.0164 133.069 25.8719 134.084 26.116C135.099 26.3601 135.985 26.9751 136.569 27.84L155.032 55.188C155.356 55.6685 155.577 56.2113 155.68 56.7818C155.783 57.3523 155.767 57.9381 155.631 58.5018C155.495 59.0654 155.244 59.5946 154.892 60.0557C154.541 60.5168 154.097 60.8998 153.59 61.1801L132.911 72.6081Z" fill="white" stroke="#E5E5E5"/>
<path d="M132.911 72.6081L109.756 38.308L131.087 26.5211C132 26.0164 133.069 25.8719 134.084 26.116C135.099 26.3601 135.985 26.9751 136.569 27.84L155.032 55.188C155.356 55.6685 155.577 56.2113 155.68 56.7818C155.783 57.3523 155.767 57.9381 155.631 58.5018C155.495 59.0654 155.244 59.5946 154.892 60.0557C154.541 60.5168 154.097 60.8998 153.59 61.1801L132.911 72.6081Z" fill="white" stroke="#E5E5E5"/>
<path d="M49.991 38.309L26.8359 72.609H49.991V38.309Z" fill="#F5F5F5" stroke="#E5E5E5" stroke-width="3" stroke-linecap="round" stroke-linejoin="round"/>
<path d="M108.358 38.309V72.609H131.513L108.358 38.309Z" fill="#F5F5F5" stroke="#E5E5E5" stroke-width="3" stroke-linecap="round" stroke-linejoin="round"/>
<path d="M66.1509 83.3931H93.5969V87.1711C93.5969 88.2539 93.3836 89.326 92.9692 90.3264C92.5547 91.3267 91.9473 92.2356 91.1816 93.0012C90.4158 93.7667 89.5068 94.3739 88.5063 94.7881C87.5059 95.2023 86.4337 95.4153 85.3509 95.4151H74.3949C72.2084 95.4151 70.1115 94.5465 68.5655 93.0005C67.0194 91.4544 66.1509 89.3575 66.1509 87.1711V83.3931Z" fill="#2EB6C7"/>
</svg>
