<svg width="24" height="24" viewBox="0 0 24 24" fill="none" xmlns="http://www.w3.org/2000/svg">
<g clip-path="url(#clip0_259_448)">
<path d="M7.57014 20.9937C7.49728 20.9937 7.42459 20.9865 7.35316 20.9721C4.58812 20.4032 2.09939 18.9094 0.297064 16.7367C0.0904377 16.486 -0.0140267 16.1665 0.00455507 15.8422C0.0231368 15.5178 0.163391 15.2124 0.397297 14.9869C0.509902 14.8802 0.643309 14.7979 0.789168 14.7451C0.935027 14.6923 1.0902 14.6701 1.24501 14.68C1.39982 14.6899 1.55092 14.7316 1.68888 14.8025C1.82684 14.8735 1.94869 14.9721 2.04681 15.0922C3.51063 16.8576 5.5321 18.0718 7.77824 18.5346C8.09175 18.6067 8.36488 18.798 8.53969 19.068C8.71451 19.3381 8.77725 19.6656 8.71464 19.9812C8.67257 20.2572 8.53499 20.5097 8.32585 20.6948C8.1167 20.8798 7.84927 20.9856 7.57014 20.9937Z" fill="#959595"/>
<path d="M7.56627 15.8903C7.24653 15.881 6.94353 15.7453 6.72374 15.5129C6.50395 15.2805 6.38531 14.9704 6.39385 14.6506V4.23462C6.38647 4.07607 6.41133 3.91766 6.46692 3.76899C6.52251 3.62031 6.60766 3.48446 6.71726 3.36964C6.82685 3.25483 6.95861 3.16343 7.10454 3.10099C7.25047 3.03854 7.40754 3.00635 7.56627 3.00635C7.72499 3.00635 7.88206 3.03854 8.02799 3.10099C8.17392 3.16343 8.30566 3.25483 8.41525 3.36964C8.52485 3.48446 8.61002 3.62031 8.66561 3.76899C8.7212 3.91766 8.74606 4.07607 8.73868 4.23462V14.6506C8.74722 14.9704 8.62858 15.2805 8.40879 15.5129C8.189 15.7453 7.886 15.881 7.56627 15.8903Z" fill="#959595"/>
<path d="M13.8229 21C13.3673 20.9976 12.9258 20.8421 12.5693 20.5584C12.2957 20.3393 12.0751 20.0611 11.9242 19.7447C11.7732 19.4283 11.6958 19.0819 11.6976 18.7313V4.22828C11.6902 4.06972 11.715 3.91131 11.7706 3.76264C11.8262 3.61397 11.9114 3.47811 12.021 3.36329C12.1306 3.24848 12.2623 3.15708 12.4082 3.09464C12.5542 3.0322 12.7113 3 12.87 3C13.0287 3 13.1858 3.0322 13.3317 3.09464C13.4776 3.15708 13.6094 3.24848 13.719 3.36329C13.8286 3.47811 13.9138 3.61397 13.9693 3.76264C14.0249 3.91131 14.0498 4.06972 14.0424 4.22828V18.428C15.7357 17.8118 17.2347 16.7565 18.3857 15.3701C18.4839 15.2501 18.6058 15.1516 18.7438 15.0808C18.8817 15.01 19.0328 14.9684 19.1875 14.9585C19.3423 14.9486 19.4974 14.9707 19.6433 15.0234C19.7891 15.0761 19.9225 15.1583 20.0352 15.2648C20.2693 15.4905 20.4095 15.7962 20.4279 16.1209C20.4462 16.4455 20.3413 16.7652 20.1342 17.0158C18.6384 18.8181 16.6653 20.1628 14.4408 20.896C14.2416 20.9627 14.033 20.9979 13.8229 21Z" fill="#2EB6C7"/>
<path d="M3.0682 9.87076C3.05134 10.1703 2.94712 10.4583 2.76839 10.6992C2.58966 10.9401 2.34424 11.1234 2.0625 11.2264C1.78075 11.3294 1.475 11.3477 1.18302 11.2788C0.891033 11.21 0.625613 11.0571 0.419545 10.8391C0.213477 10.6211 0.075806 10.3475 0.0235113 10.0521C-0.0287834 9.75671 0.00659392 9.45248 0.125293 9.17697C0.243992 8.90147 0.44081 8.66678 0.691415 8.50189C0.94202 8.337 1.23544 8.24912 1.53543 8.24915C1.95355 8.26143 2.34974 8.43905 2.63708 8.74305C2.92443 9.04705 3.07946 9.45261 3.0682 9.87076Z" fill="#959595"/>
<path d="M20.4339 10.027C20.4171 10.3265 20.3128 10.6145 20.1341 10.8554C19.9554 11.0964 19.71 11.2797 19.4282 11.3827C19.1465 11.4857 18.8407 11.5039 18.5488 11.4351C18.2568 11.3662 17.9914 11.2134 17.7853 10.9953C17.5792 10.7773 17.4415 10.5037 17.3892 10.2083C17.3369 9.91296 17.3723 9.60873 17.491 9.33322C17.6097 9.05772 17.8065 8.82303 18.0571 8.65814C18.3077 8.49325 18.6012 8.40537 18.9012 8.4054C19.3193 8.41768 19.7155 8.5953 20.0028 8.8993C20.2901 9.2033 20.4452 9.60886 20.4339 10.027Z" fill="#2EB6C7"/>
</g>
<defs>
<clipPath id="clip0_259_448">
<rect width="24" height="24" fill="white"/>
</clipPath>
</defs>
</svg>
