<svg width="81" height="80" viewBox="0 0 81 80" fill="none" xmlns="http://www.w3.org/2000/svg">
<g id="21899" clip-path="url(#clip0_603_4034)">
<g id="&#231;&#187;&#132; 21819">
<g id="&#231;&#187;&#132; 21818">
<path id="&#232;&#183;&#175;&#229;&#190;&#132; 19877" d="M40.4944 12.0543C45.6038 12.0543 50.5985 13.5694 54.8468 16.4081C59.0951 19.2467 62.4063 23.2814 64.3616 28.0019C66.3169 32.7224 66.8285 37.9167 65.8317 42.9279C64.8349 47.9392 62.3745 52.5423 58.7616 56.1552C55.1486 59.7681 50.5455 62.2285 45.5343 63.2253C40.523 64.2221 35.3287 63.7105 30.6082 61.7552C25.8877 59.8 21.8531 56.4888 19.0144 52.2404C16.1758 47.9921 14.6606 42.9974 14.6606 37.888C14.6606 31.0365 17.3824 24.4656 22.2272 19.6208C27.0719 14.776 33.6428 12.0543 40.4944 12.0543Z" fill="#BAE4E9"/>
<path id="&#232;&#183;&#175;&#229;&#190;&#132; 19873" d="M45.0709 68.948C56.7475 66.7377 64.9189 60.1663 69.6795 49.0206C69.0766 49.0206 68.6772 49.052 68.2846 49.0154C67.3468 48.9538 66.4677 48.5371 65.8262 47.8501C65.1848 47.1632 64.8293 46.2576 64.8321 45.3177C64.794 40.5204 64.794 35.7229 64.8321 30.9252C64.8286 30.4274 64.9251 29.9341 65.116 29.4744C65.3069 29.0147 65.5882 28.5981 65.9432 28.2493C66.2983 27.9005 66.7198 27.6266 67.1828 27.4439C67.6458 27.2612 68.1408 27.1734 68.6383 27.1857C68.9132 27.1806 69.1886 27.1857 69.4852 27.1857C66.7378 18.5097 57.0361 7.89087 42.3904 7.03316C26.3744 6.09487 14.8938 16.8617 11.4 27.1857C11.7023 27.1857 11.9715 27.1823 12.2372 27.1857C12.741 27.1674 13.2433 27.2516 13.7136 27.4333C14.1839 27.6149 14.6125 27.8901 14.9733 28.2423C15.334 28.5944 15.6195 29.0162 15.8124 29.482C16.0053 29.9478 16.1016 30.4479 16.0955 30.952C16.129 35.7238 16.129 40.496 16.0955 45.2686C16.1027 45.7664 16.0094 46.2606 15.8212 46.7216C15.633 47.1825 15.3538 47.6008 15.0002 47.9513C14.6466 48.3019 14.2259 48.5775 13.7634 48.7617C13.3008 48.9459 12.8058 49.035 12.3081 49.0234C11.2445 49.0622 10.1794 49.0219 9.12176 48.9029C7.69594 48.7179 6.38633 48.0198 5.4378 46.9393C4.48928 45.8588 3.9668 44.4698 3.96806 43.032C3.91625 39.7585 3.91625 36.4842 3.96806 33.2092C3.96868 32.1869 4.22963 31.1817 4.7263 30.2882C5.22298 29.3947 5.93903 28.6424 6.80692 28.1023C7.14897 27.8648 7.41303 27.5314 7.56578 27.144C12.1166 14.6469 20.8635 6.78344 33.8623 4.12286C50.7858 0.658864 67.6452 10.432 73.3183 27.0103C73.4875 27.4688 73.7893 27.8666 74.1852 28.1532C75.0409 28.7108 75.7428 29.4746 76.2262 30.3744C76.7097 31.2741 76.9593 32.2809 76.952 33.3023C76.997 36.5 76.997 39.6983 76.952 42.8972C76.9651 43.9446 76.7063 44.9774 76.2009 45.895C75.6956 46.8125 74.9609 47.5833 74.0686 48.132C73.7446 48.3546 73.4948 48.6693 73.3515 49.0354C68.8867 61.248 60.3429 68.8958 47.72 71.9789C46.9235 72.1749 46.1012 72.2674 45.3578 72.3966L45.0709 68.948Z" fill="#333333"/>
<path id="&#232;&#183;&#175;&#229;&#190;&#132; 19874" d="M40.5022 42.9709C43.1165 42.9709 45.7302 42.9663 48.3445 42.9709C50.4159 42.9754 51.5085 44.4823 50.8685 46.4354C50.143 48.6257 48.7454 50.5315 46.8745 51.8818C45.0036 53.2321 42.7546 53.9581 40.4473 53.9568C38.14 53.9555 35.8919 53.2268 34.0225 51.8743C32.1532 50.5219 30.7578 48.6145 30.0348 46.4234C29.4102 44.5166 30.5045 42.9788 32.5074 42.972C35.1719 42.964 37.8371 42.9714 40.5022 42.9709Z" fill="#4774B9"/>
<path id="&#232;&#183;&#175;&#229;&#190;&#132; 19875" d="M35.594 32.016C35.594 32.4732 35.6191 32.9303 35.5888 33.3875C35.5524 34.0093 35.2796 34.5938 34.8261 35.021C34.3727 35.4481 33.7731 35.6857 33.1501 35.685C32.5272 35.6842 31.9281 35.4453 31.4757 35.017C31.0232 34.5888 30.7517 34.0037 30.7168 33.3817C30.6725 32.4699 30.6725 31.5564 30.7168 30.6446C30.7505 30.0164 31.0274 29.4259 31.4887 28.9982C31.9501 28.5706 32.5598 28.3392 33.1888 28.3532C33.8039 28.3654 34.392 28.6082 34.8365 29.0336C35.281 29.4589 35.5495 30.0358 35.5888 30.6497C35.6162 31.1023 35.594 31.56 35.594 32.016Z" fill="#4774B9"/>
<path id="&#232;&#183;&#175;&#229;&#190;&#132; 19876" d="M45.3273 32.0372C45.3273 31.58 45.3056 31.1229 45.3318 30.6657C45.364 30.0385 45.6368 29.4479 46.0934 29.0166C46.55 28.5854 47.1552 28.3467 47.7832 28.3503C48.4113 28.3539 49.0137 28.5995 49.4653 29.036C49.9169 29.4724 50.1829 30.0662 50.2079 30.6937C50.2453 31.5804 50.2453 32.4682 50.2079 33.3549C50.1781 33.983 49.9065 34.5753 49.45 35.0078C48.9936 35.4403 48.3875 35.6795 47.7587 35.6754C47.1313 35.6664 46.5309 35.4184 46.0799 34.982C45.629 34.5456 45.3615 33.9537 45.3318 33.3269C45.309 32.9 45.3273 32.468 45.3273 32.0372Z" fill="#4774B9"/>
<path id="&#230;&#164;&#173;&#229;&#156;&#134; 1583" d="M45.8636 76.3743C48.7282 76.3743 51.0505 74.0521 51.0505 71.1874C51.0505 68.3228 48.7282 66.0006 45.8636 66.0006C42.999 66.0006 40.6768 68.3228 40.6768 71.1874C40.6768 74.0521 42.999 76.3743 45.8636 76.3743Z" fill="#333333"/>
</g>
</g>
</g>
<defs>
<clipPath id="clip0_603_4034">
<rect width="80" height="80" fill="white" transform="translate(0.5)"/>
</clipPath>
</defs>
</svg>
